<svg width="81" height="72" viewBox="0 0 81 72" fill="none" xmlns="http://www.w3.org/2000/svg">
<path d="M54.4217 37.6874H52.7342V24.1875C52.7342 20.8125 45.9843 19.125 39.2343 19.125C32.4843 19.125 25.7344 20.8125 25.7344 24.1875V46.9686C25.7344 50.3436 32.4843 52.0311 39.2343 52.0311C41.0477 52.0375 42.8588 51.9021 44.6511 51.6261C45.478 52.0311 46.3386 52.4192 47.3511 52.8073C47.4521 52.8519 47.5613 52.875 47.6717 52.875C47.7822 52.875 47.8914 52.8519 47.9924 52.8073C52.2448 51.1873 55.2655 49.4998 55.2655 45.2811V38.5311C55.2655 38.3074 55.1766 38.0928 55.0183 37.9345C54.8601 37.7763 54.6455 37.6874 54.4217 37.6874ZM39.2343 20.8125C46.4399 20.8125 51.0467 22.8037 51.0467 24.1875C51.0467 25.5712 46.4399 27.5625 39.2343 27.5625C32.0287 27.5625 27.4219 25.5712 27.4219 24.1875C27.4219 22.8037 32.0287 20.8125 39.2343 20.8125ZM27.4219 26.7693C29.8519 28.4062 34.5599 29.2499 39.2343 29.2499C43.9086 29.2499 48.6167 28.4062 51.0467 26.7693V31.8318C51.0467 33.2155 46.4399 35.2068 39.2343 35.2068C32.0287 35.2068 27.4219 33.2155 27.4219 31.8318V26.7693ZM27.4219 34.3124C29.8519 35.9999 34.5599 36.793 39.2343 36.793C43.9086 36.793 48.6167 35.9999 51.0467 34.3124V37.6874H40.9218C40.698 37.6874 40.4834 37.7763 40.3252 37.9345C40.1669 38.0928 40.078 38.3074 40.078 38.5311V42.7499H39.2343C32.0287 42.7499 27.4219 40.7586 27.4219 39.3749V34.3124ZM39.2343 50.2929C32.0287 50.2929 27.4219 48.3017 27.4219 46.918V41.8555C29.8519 43.5936 34.5599 44.4374 39.2343 44.4374H40.078V45.298C40.036 46.2392 40.221 47.1767 40.6175 48.0314C41.014 48.8861 41.6104 49.6328 42.3562 50.2086C41.3184 50.3057 40.2765 50.3507 39.2343 50.3436V50.2929ZM53.578 45.2305C53.578 48.2848 51.688 49.4492 47.6717 51.0692C43.6555 49.3817 41.7655 48.2848 41.7655 45.2305V39.3749H53.578V45.2305Z" fill="#373D3F"/>
<path d="M46.3381 47.1373C46.5701 47.3722 46.8855 47.5057 47.2156 47.5086C47.3883 47.4997 47.5572 47.4545 47.7113 47.376C47.8654 47.2975 48.0012 47.1874 48.11 47.053L51.7043 42.7499C51.8442 42.5771 51.9103 42.3561 51.8882 42.135C51.866 41.9138 51.7575 41.7103 51.5862 41.5686C51.5002 41.4968 51.4008 41.4427 51.2936 41.4097C51.1865 41.3767 51.0739 41.3654 50.9624 41.3764C50.8508 41.3874 50.7426 41.4205 50.644 41.4738C50.5454 41.5271 50.4584 41.5995 50.3881 41.6868L47.1819 45.6017L45.7306 44.1505C45.6549 44.0698 45.5634 44.0054 45.4618 43.9615C45.3602 43.9175 45.2507 43.8948 45.14 43.8948C45.0293 43.8948 44.9198 43.9175 44.8182 43.9615C44.7166 44.0054 44.6251 44.0698 44.5494 44.1505C44.4703 44.2289 44.4075 44.3222 44.3647 44.4251C44.3219 44.5279 44.2998 44.6382 44.2998 44.7495C44.2998 44.8609 44.3219 44.9712 44.3647 45.074C44.4075 45.1768 44.4703 45.2702 44.5494 45.3486L46.3381 47.1373Z" fill="#373D3F"/>
</svg>
