<svg width="81" height="72" viewBox="0 0 81 72" fill="none" xmlns="http://www.w3.org/2000/svg">
<path d="M45.5596 24.1555C46.7653 25.1721 47.9459 26.257 49.0947 27.4034C59.0962 37.4072 63.6998 49.2432 58.7222 54.2232C55.8002 57.1429 50.533 56.8124 44.463 53.8472C43.7405 53.4939 43.4396 52.6186 43.7929 51.8961C44.1462 51.1713 45.0214 50.8727 45.744 51.226C50.8198 53.7058 54.8586 53.9588 56.6592 52.1605C60.0348 48.7827 56.0187 38.4534 47.0317 29.4683C45.9422 28.3788 44.8208 27.3486 43.679 26.3868C43.0636 25.8694 42.9861 24.9486 43.5035 24.3332C44.0231 23.7156 44.9442 23.6381 45.5596 24.1555ZM52.167 39.032C52.7824 39.554 52.8576 40.4748 52.3356 41.0879C51.3442 42.2571 50.2615 43.4286 49.0945 44.5956C39.0907 54.5971 27.2548 59.2008 22.2771 54.2231C19.3574 51.3034 19.6856 46.0409 22.6486 39.9732C23.0019 39.2507 23.8748 38.9499 24.5973 39.3032C25.3221 39.6564 25.6229 40.5294 25.2696 41.2542C22.7921 46.3255 22.5414 50.3618 24.3397 52.1601C27.7153 55.5357 38.0445 51.5196 47.0319 42.5326C48.1442 41.4204 49.1722 40.3081 50.1112 39.2004C50.6331 38.5873 51.5516 38.5123 52.167 39.032ZM36.5243 18.1474C37.2469 18.5007 37.5477 19.3759 37.1944 20.0984C36.8411 20.8233 35.9682 21.1241 35.2434 20.7708C30.1721 18.2933 26.1381 18.0425 24.3392 19.8408C20.9614 23.2164 24.9797 33.5457 33.9667 42.5331C35.0516 43.6203 36.1707 44.6459 37.3104 45.6055C37.9258 46.1251 38.0032 47.046 37.4859 47.6613C36.9662 48.2767 36.0454 48.3565 35.43 47.8368C34.2266 46.8248 33.0482 45.7399 31.9017 44.5957C21.9003 34.5919 17.2966 22.756 22.2766 17.7783C25.194 14.8586 30.4573 15.1867 36.5243 18.1474ZM40.5768 30.9362C40.8754 31.0137 41.1033 31.2462 41.1762 31.5448L41.7802 34.0656C41.8851 34.5009 42.2179 34.8473 42.6509 34.9682L44.8755 35.5927C45.2834 35.7066 45.5205 36.1283 45.4065 36.5363C45.3313 36.803 45.1171 37.0104 44.8481 37.0742L42.7398 37.5802C42.2771 37.6919 41.9216 38.0565 41.819 38.5215L41.1922 41.3956C41.0988 41.8332 40.6657 42.1113 40.2281 42.0156C39.9182 41.9472 39.6766 41.7056 39.6105 41.3956L38.9837 38.5261C38.8834 38.0588 38.521 37.6941 38.0583 37.5847L35.8748 37.0696C35.46 36.9739 35.2048 36.5591 35.3027 36.1443C35.3666 35.8708 35.574 35.6542 35.8429 35.579L38.0378 34.9636C38.4617 34.8451 38.7923 34.5101 38.9017 34.0838L39.5672 31.5288C39.6811 31.0867 40.1346 30.82 40.5768 30.9362ZM58.722 17.7781C61.6439 20.7 61.3157 25.9812 58.3482 32.0576C57.9949 32.7824 57.1197 33.081 56.3971 32.7277C55.6723 32.3744 55.3715 31.5015 55.7271 30.7767C58.2091 25.694 58.4621 21.644 56.6593 19.841C53.2814 16.4632 42.9521 20.4815 33.967 29.4685C32.873 30.5602 31.8383 31.6862 30.8741 32.8326C30.3545 33.4503 29.4359 33.5278 28.8183 33.0104C28.2029 32.4907 28.1231 31.5722 28.6428 30.9546C29.6593 29.7443 30.7511 28.5568 31.902 27.4035C41.9059 17.4021 53.742 12.798 58.722 17.7781Z" fill="#373D3F"/>
</svg>
