<svg width="81" height="72" viewBox="0 0 81 72" fill="none" xmlns="http://www.w3.org/2000/svg">
<path d="M21.4398 50.2929H29.6664L34.864 55.8702C35.0896 56.1114 35.4045 56.2499 35.7351 56.2499C36.0656 56.2499 36.3806 56.1137 36.6062 55.8702L41.8038 50.2929H50.0303C52.6593 50.2929 54.7946 48.1553 54.7946 45.5286V36.9515C54.7946 36.2948 54.263 35.761 53.6041 35.761C52.9452 35.761 52.4136 36.2948 52.4136 36.9515V45.5286C52.4136 46.842 51.346 47.9119 50.0303 47.9119H41.2857C40.9552 47.9119 40.6402 48.0481 40.4146 48.2916L35.7352 53.3127L31.0558 48.2916C30.8302 48.0503 30.5152 47.9119 30.1847 47.9119H21.4401C20.1267 47.9119 19.0568 46.8442 19.0568 45.5286V26.4692C19.0568 25.1558 20.1245 24.0859 21.4401 24.0859H44.3123C44.9712 24.0859 45.5028 23.552 45.5028 22.8954C45.5028 22.2387 44.9712 21.7049 44.3123 21.7049L21.4401 21.7026C18.8111 21.7026 16.6758 23.8402 16.6758 26.4669V45.5263C16.6758 48.1553 18.8134 50.2906 21.4401 50.2906L21.4398 50.2929Z" fill="#373D3F"/>
<path d="M63.4518 23.5342C58.692 22.2186 57.8521 21.381 56.5386 16.6233C56.3979 16.1074 55.9266 15.75 55.3906 15.75C54.8545 15.75 54.3832 16.1074 54.2425 16.6233C52.9291 21.3809 52.0893 22.2208 47.3294 23.5342C46.8134 23.6771 46.4561 24.1462 46.4561 24.6822C46.4561 25.2183 46.8134 25.6874 47.3294 25.8303C52.0892 27.1459 52.9291 27.9835 54.2425 32.7411C54.3832 33.2571 54.8545 33.6145 55.3906 33.6145C55.9266 33.6145 56.3979 33.2571 56.5386 32.7411C57.852 27.9836 58.6918 27.1437 63.4518 25.8303C63.9677 25.6874 64.3251 25.2183 64.3251 24.6822C64.3251 24.1462 63.9677 23.6771 63.4518 23.5342ZM55.3905 28.7519C54.4836 26.7439 53.3288 25.5913 51.3208 24.6822C53.3288 23.7754 54.4836 22.6206 55.3905 20.6126C56.2973 22.6206 57.4521 23.7731 59.4601 24.6822C57.4521 25.5891 56.2973 26.7439 55.3905 28.7519Z" fill="#373D3F"/>
<path d="M36.8835 29.7259C36.7405 29.2099 36.2715 28.8525 35.7354 28.8525C35.1993 28.8525 34.7303 29.2099 34.5873 29.7259C33.6023 33.2907 33.026 33.867 29.4612 34.8497C28.9452 34.9927 28.5879 35.4618 28.5879 35.9978C28.5879 36.5339 28.9453 37.0029 29.4612 37.1459C33.0261 38.1309 33.6023 38.705 34.5873 42.2698C34.7303 42.7857 35.1993 43.1431 35.7354 43.1431C36.2715 43.1431 36.7405 42.7857 36.8835 42.2698C37.8685 38.7049 38.4448 38.1287 42.0096 37.1459C42.5256 37.0029 42.8829 36.5339 42.8829 35.9978C42.8829 35.4618 42.5255 34.9927 42.0096 34.8497C38.4447 33.8647 37.8685 33.2907 36.8835 29.7259ZM35.7354 38.5151C35.1256 37.3737 34.3618 36.6076 33.2204 35.9978C34.3618 35.388 35.1279 34.6242 35.7354 33.4806C36.3452 34.6219 37.1091 35.388 38.2504 35.9978C37.1091 36.6076 36.3429 37.3715 35.7354 38.5151Z" fill="#373D3F"/>
</svg>
