<svg width="81" height="72" viewBox="0 0 81 72" fill="none" xmlns="http://www.w3.org/2000/svg">
<path d="M51.0166 52.8763C52.501 52.8763 53.7093 51.6651 53.7093 50.1763V23.4532C53.7093 21.9644 52.501 20.7532 51.0166 20.7532H44.628C43.5438 19.7453 42.0945 19.124 40.5 19.124C38.9061 19.124 37.4582 19.7458 36.374 20.7532H29.99C28.501 20.7532 27.29 21.9644 27.29 23.4532V50.1763C27.29 51.6651 28.501 52.8763 29.99 52.8763H51.0166ZM45.515 47.8705V44.6804H48.7055L45.515 47.8705ZM49.6593 43.3304H44.84C44.4669 43.3304 44.165 43.6326 44.165 44.0054V48.8263H31.34V24.8032H34.4498C34.4417 24.9309 34.4303 25.0578 34.4303 25.1875C34.4303 25.5603 34.7322 25.8625 35.1053 25.8625H45.8947C45.9 25.8631 45.9046 25.8628 45.9079 25.8625C46.281 25.8625 46.5829 25.5603 46.5829 25.1875C46.5829 25.1384 46.5783 25.0906 46.5677 25.0444C46.5658 24.963 46.5552 24.8839 46.5501 24.8032H49.6593L49.6593 43.3304ZM45.1716 24.5125H35.8284C36.1573 22.232 38.1269 20.474 40.5 20.474C42.873 20.474 44.8427 22.232 45.1716 24.5125ZM28.64 50.1763V23.4532C28.64 22.7086 29.2458 22.1032 29.99 22.1032H35.2836C35.0332 22.5241 34.8297 22.975 34.6864 23.4532H30.665C30.292 23.4532 29.99 23.7554 29.99 24.1282V49.5013C29.99 49.8741 30.292 50.1763 30.665 50.1763H44.84C45.0193 50.1763 45.1907 50.1051 45.3173 49.9786L50.8116 44.484C50.8128 44.4827 50.8132 44.4808 50.8145 44.4796C50.9356 44.3571 51.0093 44.1499 51.0093 44.0067V24.1282C51.0093 23.7554 50.7074 23.4532 50.3343 23.4532H46.3103C46.1673 22.9759 45.9684 22.5235 45.7185 22.1032H51.0166C51.7568 22.1032 52.3593 22.7086 52.3593 23.4532V50.1763C52.3593 50.9209 51.7568 51.5263 51.0166 51.5263H29.99C29.2458 51.5263 28.64 50.9209 28.64 50.1763Z" fill="#373D3F"/>
<path d="M33.5898 32.7304H47.4879C47.861 32.7304 48.1629 32.4281 48.1629 32.0554C48.1629 31.6826 47.861 31.3804 47.4879 31.3804H33.5898C32.6962 31.3804 32.6971 32.7304 33.5898 32.7304Z" fill="#373D3F"/>
<path d="M47.4882 35.4639H33.59C33.2169 35.4639 32.915 35.7661 32.915 36.1389C32.915 36.5116 33.2169 36.8139 33.59 36.8139H47.4882C47.8613 36.8139 48.1632 36.5116 48.1632 36.1389C48.1632 35.7661 47.8613 35.4639 47.4882 35.4639Z" fill="#373D3F"/>
<path d="M47.4882 39.5479H33.59C33.2169 39.5479 32.915 39.8501 32.915 40.2229C32.915 40.5956 33.2169 40.8979 33.59 40.8979H47.4882C47.8613 40.8979 48.1632 40.5956 48.1632 40.2229C48.1632 39.8501 47.8613 39.5479 47.4882 39.5479Z" fill="#373D3F"/>
<path d="M42.1403 43.6313H33.59C33.2169 43.6313 32.915 43.9336 32.915 44.3063C32.915 44.6791 33.2169 44.9813 33.59 44.9813H42.1403C42.5133 44.9813 42.8153 44.6791 42.8153 44.3063C42.8153 43.9336 42.5134 43.6313 42.1403 43.6313Z" fill="#373D3F"/>
<path d="M39.3915 28.6464C39.7646 28.6464 40.0665 28.3442 40.0665 27.9714C40.0665 27.5986 39.7646 27.2964 39.3915 27.2964H33.59C33.2169 27.2964 32.915 27.5986 32.915 27.9714C32.915 29.1638 34.5686 28.4213 39.3915 28.6464Z" fill="#373D3F"/>
</svg>
