<svg width="81" height="72" viewBox="0 0 81 72" fill="none" xmlns="http://www.w3.org/2000/svg">
<path d="M48.541 21.2344H43.0039C42.899 21.2344 42.7984 21.276 42.7242 21.3502C42.6501 21.4244 42.6084 21.525 42.6084 21.6299C42.6084 21.7348 42.6501 21.8354 42.7242 21.9095C42.7984 21.9837 42.899 22.0254 43.0039 22.0254H48.541C48.6459 22.0254 48.7465 21.9837 48.8207 21.9095C48.8949 21.8354 48.9365 21.7348 48.9365 21.6299C48.9365 21.525 48.8949 21.4244 48.8207 21.3502C48.7465 21.276 48.6459 21.2344 48.541 21.2344Z" fill="#373D3F"/>
<path d="M48.541 23.3438H45.1133C45.0084 23.3438 44.9078 23.3854 44.8336 23.4596C44.7594 23.5338 44.7178 23.6344 44.7178 23.7393C44.7178 23.8442 44.7594 23.9448 44.8336 24.0189C44.9078 24.0931 45.0084 24.1348 45.1133 24.1348H48.541C48.6459 24.1348 48.7465 24.0931 48.8207 24.0189C48.8949 23.9448 48.9365 23.8442 48.9365 23.7393C48.9365 23.6344 48.8949 23.5338 48.8207 23.4596C48.7465 23.3854 48.6459 23.3438 48.541 23.3438Z" fill="#373D3F"/>
<path d="M33.7593 36.4274L37.7977 38.7351C38.139 38.9289 38.5248 39.0308 38.9174 39.0308C39.3099 39.0308 39.6957 38.9289 40.0371 38.7351L44.0752 36.4274C44.4203 36.2296 44.7072 35.9443 44.9068 35.6003C45.1065 35.2562 45.2119 34.8656 45.2124 34.4678V29.8857C45.2119 29.488 45.1065 29.0973 44.9068 28.7533C44.7072 28.4092 44.4203 28.1239 44.0752 27.9261L40.0368 25.6185C39.6954 25.4247 39.3096 25.3228 38.9171 25.3228C38.5246 25.3228 38.1388 25.4247 37.7974 25.6185L33.7593 27.9261C33.4142 28.1239 33.1273 28.4092 32.9277 28.7533C32.728 29.0973 32.6226 29.488 32.6221 29.8857V34.4678C32.6226 34.8656 32.728 35.2562 32.9277 35.6003C33.1273 35.9443 33.4142 36.2296 33.7593 36.4274ZM44.3752 29.5298C44.4051 29.6461 44.4204 29.7657 44.4209 29.8857V34.4678C44.4206 34.7262 44.3522 34.9798 44.2226 35.2033C44.0929 35.4268 43.9067 35.6121 43.6826 35.7406L39.6447 38.0482C39.5401 38.1074 39.4286 38.1533 39.3127 38.1851V32.4215L44.3752 29.5298ZM34.1516 28.613L38.1898 26.3053C38.4115 26.1795 38.6621 26.1133 38.9171 26.1133C39.1721 26.1133 39.4227 26.1795 39.6444 26.3053L43.6828 28.613C43.7927 28.6761 43.8939 28.7532 43.984 28.8424L38.9172 31.7362L33.8505 28.8424C33.9406 28.7532 34.0418 28.6761 34.1516 28.613ZM33.4133 29.8857C33.4138 29.7657 33.4292 29.6461 33.459 29.5298L38.5217 32.4215V38.1851C38.4059 38.1534 38.2945 38.1074 38.19 38.0482L34.1516 35.7406C33.9275 35.6121 33.7413 35.4268 33.6116 35.2033C33.482 34.9798 33.4136 34.7262 33.4133 34.4678V29.8857Z" fill="#373D3F"/>
<path d="M46.7225 41.0099H31.868C31.6385 41.0096 31.4138 41.0762 31.2215 41.2016L29.2914 42.4559C29.182 42.5285 29.0922 42.6271 29.0301 42.7429C28.968 42.8586 28.9355 42.9879 28.9355 43.1193C28.9355 43.2506 28.968 43.3799 29.0301 43.4957C29.0922 43.6114 29.182 43.71 29.2914 43.7827L31.2215 45.0369C31.4138 45.1623 31.6385 45.2289 31.868 45.2286H46.7947C47.0769 45.2275 47.356 45.17 47.6156 45.0596C47.8753 44.9491 48.1102 44.7879 48.3067 44.5854C48.5032 44.3829 48.6573 44.1431 48.7599 43.8803C48.8624 43.6174 48.9115 43.3367 48.9041 43.0547C48.8739 42.4984 48.6302 41.9753 48.2237 41.5944C47.8173 41.2134 47.2795 41.004 46.7225 41.0099ZM31.2381 44.1043L29.7225 43.1193L31.2381 42.1342V44.1043ZM43.8943 44.4376H32.0291V41.8009H43.8943V44.4376ZM45.4764 44.4376H44.6854V41.8009H45.4764V44.4376ZM46.7947 44.4376H46.2674V41.8009H46.7225C47.074 41.7941 47.4146 41.923 47.6735 42.161C47.9323 42.3989 48.0894 42.7275 48.112 43.0784C48.1167 43.2546 48.0861 43.43 48.0221 43.5943C47.9581 43.7586 47.8619 43.9084 47.7392 44.035C47.6165 44.1616 47.4698 44.2624 47.3076 44.3316C47.1454 44.4007 46.971 44.4368 46.7947 44.4376Z" fill="#373D3F"/>
<path d="M53.815 19.125H30.0846C28.1218 19.125 26.525 21.1951 26.525 23.7393V47.8652H24.8773C24.7051 47.8651 24.5349 47.9026 24.3787 47.9751C24.2225 48.0476 24.084 48.1534 23.9729 48.285C23.8605 48.4181 23.7785 48.5742 23.7326 48.7423C23.6868 48.9104 23.6782 49.0864 23.7074 49.2582C24.0671 51.3876 25.4967 52.875 27.1842 52.875H47.4869C49.4497 52.875 51.0465 50.8049 51.0465 48.2607V24.1348H56.1219C56.2942 24.1349 56.4643 24.0974 56.6206 24.0248C56.7768 23.9523 56.9153 23.8464 57.0263 23.7147C57.1387 23.5817 57.2207 23.4257 57.2666 23.2576C57.3125 23.0896 57.3211 22.9135 57.2918 22.7418C56.9322 20.6124 55.5025 19.125 53.815 19.125ZM27.1842 52.084C25.9109 52.084 24.7769 50.8402 24.4873 49.1264C24.4773 49.068 24.4802 49.0081 24.4957 48.951C24.5112 48.8938 24.5391 48.8407 24.5773 48.7955C24.6139 48.7516 24.6598 48.7163 24.7117 48.6922C24.7636 48.6682 24.8201 48.6559 24.8773 48.6562H43.5833C43.679 48.6565 43.7714 48.6916 43.8431 48.7551C43.9148 48.8186 43.9609 48.9061 43.9727 49.0011C44.0858 50.1789 44.6245 51.2749 45.4878 52.084H27.1842ZM50.2555 23.7393V48.2607C50.2555 50.3701 49.0136 52.084 47.4869 52.084C46.1551 52.084 44.982 50.7168 44.7576 48.9038C44.7217 48.6175 44.5826 48.3541 44.3664 48.1629C44.1503 47.9718 43.8718 47.8659 43.5833 47.8652H27.316V23.7393C27.316 21.6312 28.5579 19.916 30.0846 19.916H51.8243C50.8785 20.7463 50.2555 22.1501 50.2555 23.7393ZM56.422 23.2043C56.3854 23.2483 56.3395 23.2837 56.2876 23.3078C56.2357 23.3319 56.1791 23.3442 56.1219 23.3438H51.0615C51.2052 21.4208 52.3851 19.916 53.815 19.916C55.0883 19.916 56.2224 21.1598 56.5119 22.8736C56.5219 22.932 56.5191 22.9918 56.5035 23.0489C56.488 23.106 56.4602 23.159 56.422 23.2043Z" fill="#373D3F"/>
</svg>
