<svg width="81" height="72" viewBox="0 0 81 72" fill="none" xmlns="http://www.w3.org/2000/svg">
<path d="M20.7623 32.1728C20.4561 32.1728 20.209 32.42 20.209 32.7261V39.2702C20.209 39.5764 20.4561 39.8235 20.7623 39.8235H24.6577C25.0525 41.465 25.7017 43.0217 26.5907 44.4715L23.8351 47.2234C23.6175 47.441 23.6175 47.7914 23.8351 48.0054L28.472 52.6312C28.6897 52.8452 29.0364 52.8452 29.2541 52.6312L32.0096 49.8793C33.4594 50.7647 35.0234 51.4139 36.6687 51.8086V55.6967C36.6687 56.0028 36.9158 56.25 37.222 56.25H43.7771C44.0833 56.25 44.3304 56.0028 44.3304 55.6967V51.8086C45.9757 51.4139 47.5397 50.7647 48.9895 49.8793L51.7451 52.6312C51.9627 52.8452 52.3094 52.8452 52.5271 52.6312C57.4407 47.7287 57.3263 47.9427 57.3263 47.6144C57.3263 47.2861 57.3558 47.4152 54.4084 44.4715C55.2974 43.0254 55.943 41.465 56.3414 39.8235H60.2368C60.543 39.8235 60.7901 39.5764 60.7901 39.2702V32.7261C60.7901 32.42 60.543 32.1728 60.2368 32.1728H56.3414C55.9467 30.5313 55.2974 28.9746 54.4084 27.5248L57.164 24.773C57.3816 24.5553 57.3816 24.2049 57.164 23.9909L52.5271 19.3651C52.3094 19.1511 51.9627 19.1511 51.7451 19.3651L48.9895 22.117C47.5397 21.2316 45.9757 20.5824 44.3304 20.1877V16.3033C44.3304 15.9972 44.0833 15.75 43.7771 15.75H37.222C36.9158 15.75 36.6687 15.9972 36.6687 16.3033V20.1914C35.0234 20.5861 33.4594 21.2353 32.0096 22.1207L29.2541 19.3688C29.0364 19.1548 28.6897 19.1548 28.472 19.3688C23.5585 24.2713 23.6728 24.0573 23.6728 24.3856C23.6728 24.7139 23.6433 24.5848 26.5907 27.5285C25.7017 28.9746 25.0561 30.535 24.6577 32.1765H20.7623V32.1728ZM25.6427 32.8405C26.576 28.4581 28.4019 27.772 27.6863 27.0564L25.0082 24.3856L28.8594 20.5418L31.5375 23.2163C31.7219 23.4007 32.0096 23.4302 32.231 23.29C36.0748 20.7964 37.7716 21.6559 37.7716 20.6377V16.8567H43.2201V20.6304C43.2201 20.8923 43.4045 21.1173 43.6591 21.1726C48.0451 22.0985 48.7386 23.9208 49.4543 23.2126L52.1324 20.5381L55.9836 24.3819L53.3054 27.0527C53.121 27.2371 53.0915 27.5285 53.2317 27.7462C55.6995 31.5383 54.8769 33.2758 55.8913 33.2758H59.6761V38.7132H55.8913C55.6294 38.7132 55.4044 38.8976 55.3491 39.1521C54.4158 43.5345 52.5898 44.2206 53.3054 44.9363L55.9836 47.607L52.1324 51.4508L49.4543 48.7764C49.2698 48.5919 48.9821 48.5624 48.7608 48.7026C44.9207 51.1926 43.2201 50.3368 43.2201 51.3549V55.1323H37.7716V51.3549C37.7716 51.093 37.5872 50.868 37.3327 50.8126C32.954 49.8867 32.2457 48.0644 31.5375 48.7727L28.8594 51.4471L25.0082 47.6033L27.6863 44.9326C27.8707 44.7481 27.9003 44.4567 27.7601 44.2391C25.2922 40.4469 26.1148 38.7095 25.1004 38.7095H21.3156V33.2721H25.1004C25.3623 33.2721 25.5873 33.0876 25.6427 32.8331V32.8405Z" fill="#373D3F"/>
<path d="M34.3186 43.5048C40.6487 48.7135 50.2397 44.1762 50.2397 35.998C50.2397 30.6381 45.8721 26.2778 40.5012 26.2778C31.445 26.2778 27.2397 37.7059 34.3223 43.5048H34.3186ZM40.4975 27.3845C45.2561 27.3845 49.1294 31.2504 49.1294 35.998C49.1294 42.4314 42.2718 46.5998 36.5541 43.6561L37.9632 42.2469C43.6588 44.5524 49.2327 38.6576 46.6025 33.1059C46.4402 32.7592 45.9828 32.6817 45.7098 32.951L41.7406 36.9128H39.5789V34.7548L43.5482 30.7967C43.8174 30.5274 43.74 30.07 43.3932 29.904C37.8415 27.2738 31.9282 32.8329 34.2375 38.5248L32.8246 39.934C29.8809 34.2421 34.0309 27.3808 40.4975 27.3808V27.3845ZM33.4112 40.9152L35.2888 39.0413C35.4548 38.8753 35.4991 38.6244 35.3958 38.4105C33.2857 33.9765 37.4726 29.1625 42.1648 30.6122C38.3837 34.3823 38.4723 34.1978 38.4723 34.5261V37.4698C38.4723 37.776 38.7194 38.0232 39.0256 38.0232C42.1722 38.0232 42.139 38.0822 42.3603 37.8609L45.8943 34.3343C47.344 39.0228 42.5116 43.1949 38.0776 41.0886C37.8673 40.989 37.6165 41.0333 37.4505 41.1956L35.5728 43.0695C34.7465 42.4941 33.9571 41.6973 33.4112 40.9115V40.9152Z" fill="#373D3F"/>
</svg>
