<svg width="48" height="48" viewBox="0 0 48 48" fill="none" xmlns="http://www.w3.org/2000/svg">
<path d="M27.7163 24.4783C29.7414 24.4783 31.7211 23.8778 33.4049 22.7527C35.0887 21.6276 36.4011 20.0285 37.176 18.1575C37.951 16.2865 38.1538 14.2278 37.7587 12.2416C37.3636 10.2554 36.3884 8.43095 34.9565 6.99898C33.5245 5.56701 31.7001 4.59183 29.7139 4.19675C27.7277 3.80167 25.6689 4.00444 23.798 4.77941C21.927 5.55439 20.3279 6.86677 19.2028 8.55058C18.0777 10.2344 17.4772 12.214 17.4772 14.2391C17.4802 16.9538 18.56 19.5564 20.4795 21.4759C22.3991 23.3955 25.0017 24.4752 27.7163 24.4783ZM27.7163 5.08947C29.5259 5.08947 31.2949 5.62609 32.7996 6.63147C34.3042 7.63685 35.477 9.06583 36.1695 10.7377C36.862 12.4096 37.0432 14.2493 36.6902 16.0242C36.3371 17.799 35.4657 19.4293 34.1861 20.7089C32.9065 21.9885 31.2762 22.86 29.5013 23.213C27.7265 23.5661 25.8868 23.3849 24.2149 22.6923C22.543 21.9998 21.114 20.8271 20.1086 19.3224C19.1032 17.8178 18.5666 16.0488 18.5666 14.2391C18.5697 11.8134 19.5347 9.48797 21.2499 7.77274C22.9651 6.05751 25.2906 5.09254 27.7163 5.08947ZM27.7163 22.1359C29.2781 22.1359 30.8049 21.6728 32.1035 20.8051C33.4021 19.9374 34.4143 18.7041 35.012 17.2611C35.6097 15.8182 35.766 14.2304 35.4613 12.6986C35.1566 11.1667 34.4046 9.75967 33.3002 8.65528C32.1958 7.5509 30.7887 6.7988 29.2569 6.4941C27.7251 6.18941 26.1373 6.34579 24.6943 6.94348C23.2514 7.54116 22.0181 8.55331 21.1504 9.85193C20.2827 11.1505 19.8195 12.6773 19.8195 14.2391C19.8219 16.3328 20.6547 18.34 22.1351 19.8204C23.6155 21.3008 25.6227 22.1335 27.7163 22.1359ZM21.2875 13.6942H20.9309C21.0445 12.2687 21.606 10.9157 22.5352 9.82882L22.7851 10.0783C22.8357 10.1289 22.8958 10.169 22.9618 10.1964C23.0279 10.2237 23.0988 10.2378 23.1703 10.2378C23.2418 10.2378 23.3126 10.2237 23.3787 10.1964C23.4448 10.169 23.5049 10.1289 23.5554 10.0783C23.606 10.0277 23.6461 9.96766 23.6735 9.90157C23.7009 9.83548 23.715 9.76465 23.715 9.69312C23.715 9.62159 23.7009 9.55076 23.6735 9.48467C23.6461 9.41859 23.606 9.35854 23.5554 9.30796L23.3056 9.0585C24.3925 8.12904 25.7457 7.56733 27.1714 7.45377V7.81033C27.1693 7.88315 27.1819 7.95564 27.2083 8.02352C27.2348 8.0914 27.2746 8.15329 27.3254 8.20552C27.3762 8.25775 27.4369 8.29927 27.504 8.32762C27.5711 8.35597 27.6432 8.37058 27.7161 8.37058C27.7889 8.37058 27.8611 8.35597 27.9282 8.32762C27.9953 8.29927 28.056 8.25775 28.1068 8.20552C28.1576 8.15329 28.1974 8.0914 28.2238 8.02352C28.2503 7.95564 28.2629 7.88315 28.2608 7.81033V7.45377C29.6865 7.56727 31.0397 8.12899 32.1266 9.0585L31.8767 9.30796C31.8262 9.35854 31.786 9.41859 31.7587 9.48467C31.7313 9.55076 31.7172 9.62159 31.7172 9.69312C31.7172 9.76465 31.7313 9.83548 31.7587 9.90157C31.786 9.96766 31.8262 10.0277 31.8767 10.0783C31.9273 10.1289 31.9874 10.169 32.0534 10.1964C32.1195 10.2237 32.1904 10.2378 32.2619 10.2378C32.3334 10.2378 32.4043 10.2237 32.4703 10.1964C32.5364 10.169 32.5965 10.1289 32.6471 10.0783L32.8969 9.82882C33.8269 10.9155 34.3893 12.2685 34.5038 13.6942H34.1468C34.005 13.6982 33.8703 13.7573 33.7714 13.859C33.6725 13.9608 33.6172 14.0971 33.6172 14.2389C33.6172 14.3808 33.6725 14.5171 33.7714 14.6188C33.8703 14.7205 34.005 14.7797 34.1468 14.7837H34.5038C34.39 16.2092 33.8283 17.5623 32.8991 18.6495L32.6492 18.3996C32.5986 18.349 32.5386 18.3089 32.4725 18.2815C32.4064 18.2541 32.3356 18.24 32.264 18.24C32.1925 18.24 32.1217 18.2541 32.0556 18.2815C31.9895 18.3089 31.9295 18.349 31.8789 18.3996C31.8283 18.4502 31.7882 18.5102 31.7608 18.5763C31.7334 18.6424 31.7193 18.7132 31.7193 18.7847C31.7193 18.8563 31.7334 18.9271 31.7608 18.9932C31.7882 19.0593 31.8283 19.1193 31.8789 19.1699L32.1288 19.4198C31.0417 20.3491 29.6886 20.9108 28.263 21.0245V20.668C28.265 20.5951 28.2524 20.5226 28.226 20.4548C28.1995 20.3869 28.1597 20.325 28.109 20.2728C28.0582 20.2205 27.9974 20.179 27.9303 20.1507C27.8632 20.1223 27.7911 20.1077 27.7182 20.1077C27.6454 20.1077 27.5733 20.1223 27.5062 20.1507C27.4391 20.179 27.3783 20.2205 27.3275 20.2728C27.2767 20.325 27.2369 20.3869 27.2105 20.4548C27.184 20.5226 27.1715 20.5951 27.1735 20.668V21.0245C25.7479 20.9108 24.3948 20.3491 23.3077 19.4198L23.5576 19.1699C23.6082 19.1193 23.6483 19.0593 23.6757 18.9932C23.703 18.9271 23.7171 18.8563 23.7171 18.7847C23.7171 18.7132 23.703 18.6424 23.6757 18.5763C23.6483 18.5102 23.6082 18.4502 23.5576 18.3996C23.507 18.349 23.447 18.3089 23.3809 18.2815C23.3148 18.2541 23.244 18.24 23.1724 18.24C23.1009 18.24 23.0301 18.2541 22.964 18.2815C22.8979 18.3089 22.8379 18.349 22.7873 18.3996L22.5374 18.6495C21.6082 17.5624 21.0466 16.2092 20.9331 14.7837H21.2896C21.4315 14.7797 21.5661 14.7205 21.665 14.6188C21.7639 14.5171 21.8193 14.3808 21.8193 14.2389C21.8193 14.0971 21.7639 13.9608 21.665 13.859C21.5661 13.7573 21.4315 13.6982 21.2896 13.6942H21.2875ZM27.7163 15.566C27.9717 15.5656 28.2215 15.4916 28.4358 15.3528C28.6502 15.2141 28.82 15.0164 28.9249 14.7837H32.0552C32.1281 14.7857 32.2005 14.7731 32.2684 14.7467C32.3363 14.7202 32.3982 14.6804 32.4504 14.6296C32.5027 14.5789 32.5442 14.5181 32.5725 14.451C32.6009 14.3839 32.6155 14.3118 32.6155 14.2389C32.6155 14.1661 32.6009 14.094 32.5725 14.0269C32.5442 13.9597 32.5027 13.899 32.4504 13.8482C32.3982 13.7974 32.3363 13.7576 32.2684 13.7312C32.2005 13.7047 32.1281 13.6922 32.0552 13.6942H28.9249C28.791 13.4004 28.555 13.1652 28.2608 13.0323V9.41506C28.2568 9.27324 28.1977 9.13856 28.096 9.03966C27.9943 8.94075 27.858 8.88542 27.7161 8.88542C27.5742 8.88542 27.4379 8.94075 27.3362 9.03966C27.2345 9.13856 27.1753 9.27324 27.1714 9.41506V13.0323C26.8932 13.1559 26.6661 13.3715 26.5282 13.6429C26.3902 13.9142 26.3498 14.2247 26.4137 14.5223C26.4776 14.8199 26.6419 15.0865 26.8791 15.2772C27.1163 15.468 27.4119 15.5713 27.7163 15.5699V15.566ZM27.7163 14.4766C27.6693 14.4766 27.6234 14.4626 27.5844 14.4366C27.5454 14.4105 27.5149 14.3734 27.497 14.33C27.479 14.2866 27.4743 14.2389 27.4834 14.1928C27.4926 14.1468 27.5152 14.1045 27.5484 14.0713C27.5816 14.0381 27.6239 14.0154 27.67 14.0063C27.716 13.9971 27.7638 14.0018 27.8072 14.0198C27.8505 14.0378 27.8876 14.0682 27.9137 14.1072C27.9398 14.1463 27.9537 14.1922 27.9537 14.2391C27.9537 14.3021 27.9287 14.3625 27.8842 14.407C27.8397 14.4515 27.7793 14.4766 27.7163 14.4766ZM41.8509 29.8151C41.6102 29.3169 41.1883 28.9295 40.6715 28.7319C40.1547 28.5342 39.582 28.5414 39.0703 28.7518L28.4797 33.1613C27.8589 33.2259 27.2316 33.1406 26.6505 32.9127C26.4785 32.8624 26.2987 32.809 26.1068 32.7579L30.3679 31.366C30.9 31.2152 31.3602 30.8781 31.6644 30.4162C31.9686 29.9543 32.0967 29.3985 32.0252 28.85C31.9537 28.3016 31.6874 27.7971 31.2749 27.4287C30.8624 27.0603 30.3312 26.8524 29.7782 26.843C28.5178 26.8769 27.2662 27.0656 26.0518 27.4047C24.7456 27.7131 23.5142 28.0069 22.3658 27.8606C21.9899 27.8133 21.6045 27.7557 21.232 27.7002C18.7034 27.3239 16.0888 26.9346 13.7744 29.1222C13.2819 29.5875 12.7142 30.0817 12.1189 30.5901C11.9136 30.4528 11.6717 30.3807 11.4247 30.3831C11.1778 30.3856 10.9373 30.4625 10.7348 30.6039L9.94814 31.1527C9.88475 31.0468 9.80047 30.9548 9.70043 30.8825C9.60038 30.8102 9.48667 30.759 9.3662 30.732C9.22695 30.6994 9.08236 30.6964 8.94191 30.7235C8.80145 30.7506 8.6683 30.807 8.55115 30.889L5.4234 33.0791C5.20775 33.2306 5.06095 33.4614 5.01515 33.7209C4.96936 33.9804 5.02832 34.2475 5.1791 34.4637L11.5597 43.5763C11.6345 43.6834 11.7298 43.7746 11.84 43.8446C11.9502 43.9147 12.0732 43.9622 12.2019 43.9845C12.2597 43.9948 12.3183 44 12.377 44C12.5802 44.0001 12.7785 43.9373 12.9447 43.8202L15.0419 42.3518C15.2461 42.2042 15.3877 41.9855 15.4389 41.7388C15.49 41.4921 15.4471 41.2352 15.3185 41.0185L15.2754 40.9389C15.3077 40.9204 15.3395 40.9011 15.3705 40.8796L17.0909 39.6753C17.3069 39.5234 17.4682 39.3059 17.5508 39.0551C17.6334 38.8043 17.6329 38.5335 17.5494 38.283C17.7318 38.1849 17.9336 38.1285 18.1403 38.1178C18.3471 38.1071 18.5536 38.1423 18.7451 38.2211C20.6317 39.0961 22.6648 39.6119 24.7404 39.7419C25.1266 39.7686 25.5043 39.7819 25.8733 39.7819C27.8195 39.7819 29.5008 39.412 30.6858 38.7127L41.0083 32.6198C41.4778 32.3458 41.8258 31.904 41.9822 31.3834C42.1386 30.8629 42.0917 30.3024 41.8509 29.8151ZM12.3963 42.8735L6.1262 33.917L9.08663 31.8439L14.3451 41.5097L12.3963 42.8735ZM16.463 38.7841L14.7524 39.9815L10.4737 32.1144L11.3602 31.4942C11.3897 31.474 11.4259 31.4662 11.4611 31.4724C11.4963 31.4785 11.5277 31.4983 11.5486 31.5273L16.4978 38.5953C16.5179 38.6249 16.5256 38.6612 16.5193 38.6965C16.5131 38.7317 16.4933 38.7632 16.4643 38.7841H16.463ZM40.4518 31.6834L30.1292 37.7763C28.9081 38.4972 27.0204 38.8086 24.8131 38.6568C22.881 38.5374 20.9879 38.0594 19.2307 37.2473C18.8701 37.0863 18.4768 37.0122 18.0824 37.031C17.688 37.0497 17.3034 37.1608 16.9597 37.3553L12.8105 31.4301C13.4225 30.9071 14.0088 30.3979 14.5228 29.9118C16.4522 28.0882 18.6948 28.4224 21.0716 28.7759C21.4501 28.8323 21.8415 28.8903 22.2294 28.9394C23.5714 29.108 24.9593 28.7802 26.3021 28.4628C27.431 28.1466 28.594 27.9678 29.7658 27.9303C30.0508 27.9329 30.3256 28.0372 30.5405 28.2244C30.7555 28.4116 30.8965 28.6694 30.9382 28.9514C30.9936 29.2451 30.9356 29.5488 30.776 29.8015C30.6164 30.0541 30.367 30.2369 30.078 30.3131L30.0436 30.323L23.4191 32.4873C23.2024 32.5647 23.0006 32.6788 22.8225 32.8245L22.4049 33.0783C22.2997 33.1425 22.2194 33.2404 22.177 33.3561C22.1346 33.4718 22.1327 33.5985 22.1716 33.7154C22.2105 33.8324 22.2878 33.9327 22.3911 34C22.4943 34.0673 22.6173 34.0976 22.74 34.086C22.9913 34.0301 23.224 33.9104 23.4157 33.7385L23.7206 33.5531C24.6122 33.5297 25.5007 33.6661 26.3443 33.9557C27.107 34.2481 27.9323 34.3388 28.7404 34.2189C28.7766 34.2119 28.8121 34.2013 28.8462 34.1871L39.4901 29.757C39.7449 29.6541 40.0293 29.652 40.2855 29.7514C40.5418 29.8507 40.7506 30.0439 40.8694 30.2916C40.9891 30.5334 41.0126 30.8115 40.935 31.0699C40.8575 31.3282 40.6848 31.5475 40.4518 31.6834ZM9.05394 34.2843L9.94857 35.5622C10.027 35.6806 10.0561 35.825 10.0296 35.9646C10.0031 36.1042 9.92318 36.2279 9.8068 36.3094C9.69041 36.3909 9.5468 36.4237 9.40657 36.4009C9.26634 36.378 9.14058 36.3013 9.05609 36.1871L8.16147 34.9092C8.08302 34.7908 8.05394 34.6464 8.08042 34.5068C8.1069 34.3672 8.18685 34.2435 8.30324 34.162C8.41962 34.0805 8.56323 34.0477 8.70346 34.0705C8.84369 34.0934 8.96945 34.1701 9.05394 34.2843Z" fill="#FFA300"/>
</svg>
