<svg width="48" height="48" viewBox="0 0 48 48" fill="none" xmlns="http://www.w3.org/2000/svg">
<mask id="mask0_4866_19542" style="mask-type:luminance" maskUnits="userSpaceOnUse" x="5" y="4" width="39" height="40">
<path d="M5 4H43.9276V44H5V4Z" fill="white"/>
</mask>
<g mask="url(#mask0_4866_19542)">
<path d="M-55.2368 77.5789L-43.7482 83.4082C-43.3409 83.6138 -43.1764 84.1126 -43.382 84.5218C-43.4642 84.6862 -43.595 84.8114 -43.7482 84.888L-47.9165 87.003L-44.1555 88.9106C-43.7482 89.1161 -43.5837 89.615 -43.7893 90.0242C-43.8733 90.1886 -44.0041 90.3138 -44.1555 90.3904L-48.3238 92.5054L-44.5628 94.4111C-44.1555 94.6166 -43.9911 95.1173 -44.1966 95.5246C-44.2788 95.6891 -44.4096 95.8142 -44.5628 95.8908L-56.0533 101.722C-56.2962 101.845 -56.5727 101.836 -56.8006 101.722L-68.2892 95.8908C-68.6984 95.6853 -68.8628 95.1865 -68.6554 94.7773C-68.5732 94.6129 -68.4424 94.4877 -68.2892 94.4111L-64.1209 92.298L-67.8819 90.3904C-68.2911 90.1848 -68.4555 89.686 -68.2481 89.2768C-68.1659 89.1124 -68.0351 88.9872 -67.8819 88.9106L-63.7117 86.7956L-67.4746 84.888C-67.8819 84.6806 -68.0464 84.1818 -67.8408 83.7745C-67.7568 83.61 -67.6278 83.4848 -67.4746 83.4082L-55.9841 77.5789C-55.7412 77.4556 -55.4647 77.465 -55.2368 77.5789ZM24.6754 68.9228C25.6283 68.9228 26.4933 69.3095 27.1211 69.9373C27.7507 70.5669 28.1375 71.432 28.1375 72.3848C28.1375 73.3396 27.7507 74.2046 27.123 74.8324L27.0725 74.881L29.8004 79.6042H35.2597L35.2766 79.5388C35.5045 78.685 36.0613 77.9171 36.8871 77.4388C37.7204 76.9605 38.662 76.8633 39.514 77.0913C40.3697 77.3211 41.1376 77.8779 41.6141 78.7037C42.0924 79.5351 42.1914 80.4786 41.9616 81.3306C41.7355 82.177 41.1862 82.9393 40.3679 83.4176L40.3473 83.4307C39.5178 83.909 38.5761 84.0061 37.7241 83.7782L37.655 83.7595L34.9272 88.4846L37.655 93.2116L37.7241 93.1929C38.5761 92.965 39.5196 93.0621 40.3473 93.5404C41.1769 94.0187 41.7337 94.7866 41.9616 95.6405C42.1914 96.4943 42.0924 97.4397 41.6159 98.2674L41.5823 98.3197C41.1003 99.1175 40.3492 99.6556 39.514 99.878C38.6826 100.1 37.7652 100.014 36.9544 99.5678L36.831 99.4987C36.0351 99.0185 35.4989 98.2655 35.2766 97.4304L35.2579 97.3631L29.8022 97.365L27.0744 102.09L27.123 102.139C27.7507 102.765 28.1375 103.632 28.1375 104.586C28.1375 105.539 27.7507 106.404 27.123 107.032C26.4933 107.66 25.6283 108.048 24.6754 108.048C23.7225 108.048 22.8575 107.66 22.2316 107.034C21.6019 106.404 21.2133 105.539 21.2133 104.586C21.2133 103.632 21.6019 102.765 22.2278 102.139L22.2764 102.09L19.5486 97.365L14.0911 97.3669L14.0743 97.4304C13.8463 98.2861 13.2895 99.054 12.4637 99.5304L12.4413 99.5435C11.6192 100.011 10.6832 100.106 9.83678 99.878C8.9848 99.65 8.2169 99.0951 7.73673 98.2655C7.25843 97.4397 7.16127 96.4943 7.38921 95.6405C7.61716 94.7866 8.17393 94.0187 9.00349 93.5404C9.83305 93.0621 10.7747 92.965 11.6267 93.1929L11.6958 93.2116L14.4255 88.4846L11.6958 83.7595L11.6267 83.7782C10.799 83.9987 9.8891 83.9146 9.07822 83.4718C9.02591 83.4493 8.97546 83.4195 8.92876 83.3858C8.1403 82.9038 7.61155 82.1564 7.38921 81.3306C7.16688 80.5029 7.25282 79.5912 7.69563 78.7822C7.71805 78.728 7.74794 78.6775 7.78157 78.6308C8.26361 77.8424 9.01096 77.3136 9.83678 77.0913C10.6645 76.8708 11.5762 76.9549 12.3852 77.3977C12.4394 77.4201 12.4899 77.45 12.5385 77.4855C13.325 77.9675 13.8538 78.713 14.0743 79.5388L14.0911 79.6042H19.5523L22.2783 74.881L22.2278 74.8324C21.6019 74.2046 21.2133 73.3396 21.2133 72.3848C21.2133 71.432 21.6019 70.5669 22.2278 69.9391C22.8575 69.3095 23.7225 68.9228 24.6754 68.9228ZM30.7588 81.2671L33.9706 86.8311L36.2219 82.9318L36.1715 82.8832C36.0837 82.7973 36.0015 82.702 35.9211 82.603L35.8987 82.5731L35.895 82.5675L35.8894 82.5619L35.88 82.5507L35.8688 82.5339L35.8632 82.5282L35.8558 82.517L35.8464 82.5058L35.8427 82.4984L35.8389 82.4927L35.8296 82.4815L35.8221 82.4703L35.8165 82.4629L35.8128 82.4591L35.8053 82.446C35.7399 82.3582 35.6801 82.2629 35.6241 82.1658C35.5811 82.0929 35.5437 82.0182 35.5064 81.9434L35.5008 81.9304H35.4989L35.4821 81.8911L35.4802 81.8893L35.4765 81.8781L35.4709 81.865L35.4634 81.8519V81.85L35.4578 81.8388L35.4466 81.8127L35.4447 81.8089L35.441 81.7996L35.4298 81.7734L35.4279 81.7697L35.4242 81.7603L35.4185 81.7491L35.4129 81.7361L35.4111 81.7286L35.4073 81.7211C35.355 81.5922 35.312 81.4595 35.2747 81.3288L35.2597 81.2671H30.7588ZM15.3802 86.8311L18.592 81.2671H14.0911L14.0761 81.3288C14.0238 81.5193 13.9547 81.708 13.8669 81.8967L13.8631 81.9042L13.8575 81.9173L13.8295 81.9733L13.8258 81.9827L13.8183 81.9958L13.8052 82.0219L13.7977 82.0331L13.7921 82.0462L13.7903 82.0499L13.7847 82.0593L13.7772 82.0724L13.7716 82.0854L13.7697 82.0873L13.766 82.0929C13.7436 82.1434 13.7155 82.1938 13.6819 82.2405L13.6744 82.2517L13.6669 82.2648L13.6595 82.276L13.6576 82.2779C13.5156 82.5058 13.3549 82.7076 13.1793 82.8832L13.1307 82.9318L15.3802 86.8311ZM25.6376 101.261L27.8871 97.3669H21.4655L23.7132 101.261C23.8813 101.212 24.0551 101.175 24.2345 101.152L24.3765 101.137L24.3895 101.135H24.4045L24.4101 101.133H24.4325L24.4475 101.132L24.4605 101.13H24.4755L24.4904 101.128H24.5185L24.5315 101.126H24.5745L24.5857 101.124H24.7651L24.7763 101.126H24.8193L24.8323 101.128H24.8622L24.8753 101.13H24.8903L24.9052 101.132L24.9183 101.133H24.9407L24.9463 101.135H24.9613L24.9762 101.137L25.1163 101.152C25.2957 101.176 25.4695 101.212 25.6376 101.261ZM28.6476 80.9177C28.6158 80.8747 28.5896 80.828 28.5672 80.7776L25.6413 75.7105L25.5068 75.746V85.1234C26.129 85.2766 26.6839 85.5998 27.123 86.037C27.7507 86.6648 28.1375 87.5299 28.1375 88.4846C28.1375 88.8191 28.0908 89.1404 28.0011 89.445L36.1229 94.1364L36.2219 94.0374L33.2643 88.9162L33.2531 88.8975L30.9307 84.8731L28.6476 80.9177ZM36.8422 80.7309C36.8516 80.785 36.8628 80.843 36.8796 80.9009C36.9114 81.0205 36.9562 81.1382 37.0104 81.2484L37.0141 81.254L37.031 81.2876L37.0814 81.3736C37.1206 81.4371 37.1617 81.4969 37.2066 81.553L37.2085 81.5548L37.2159 81.5642L37.2197 81.5716H37.2215L37.2253 81.5772L37.2365 81.5885L37.2439 81.5997L37.2552 81.6109L37.2589 81.6165L37.2682 81.6277L37.2738 81.6333L37.2794 81.637V81.6389L37.2832 81.6445L37.2888 81.6482L37.2944 81.6538V81.6557L37.3093 81.6707L37.3355 81.6987L37.3392 81.7024H37.3411L37.3841 81.7454V81.7473L37.3915 81.751L37.3953 81.7566L37.4065 81.7678L37.414 81.7734L37.4158 81.7753L37.4196 81.7772L37.4327 81.7902L37.4364 81.7921L37.4476 81.8033H37.4495L37.4644 81.8183H37.4663L37.4756 81.8276L37.4812 81.8313V81.8332C37.6793 81.9939 37.9128 82.106 38.1538 82.1751C38.5817 82.2891 39.0507 82.248 39.4654 82.0275L39.5757 81.964C39.9736 81.7155 40.2427 81.3288 40.3585 80.9009C40.4725 80.473 40.4314 80.0041 40.2109 79.5874L40.1567 79.4959C39.9064 79.0867 39.5178 78.812 39.0862 78.6962C38.6583 78.5804 38.1893 78.6215 37.7746 78.8419L37.6811 78.898C37.272 79.1484 36.9955 79.537 36.8796 79.9686C36.8236 80.1816 36.803 80.4058 36.8273 80.6281L36.8292 80.6431V80.6505L36.831 80.6561V80.6636L36.8329 80.6711V80.6786L36.8348 80.686V80.6916L36.8366 80.6935V80.701L36.8385 80.7085V80.7159L36.8422 80.7309ZM11.8415 81.8556C11.8976 81.8108 11.9518 81.7622 12.006 81.708C12.0826 81.6314 12.1536 81.5473 12.2152 81.4595L12.219 81.4558V81.4539L12.2227 81.4483L12.2283 81.4408L12.232 81.4371V81.4352L12.2432 81.4184V81.4166L12.2507 81.4053L12.2563 81.3997V81.3979L12.2601 81.3941L12.2638 81.3867L12.2675 81.3811L12.2694 81.3792L12.2713 81.3755L12.275 81.3699L12.2806 81.3586L12.2825 81.3568L12.2862 81.3512L12.29 81.3437L12.2918 81.3381H12.2937L12.2956 81.3325L12.2993 81.325L12.303 81.3194L12.3142 81.3007L12.318 81.2933L12.3217 81.2876C12.3852 81.1662 12.4357 81.0354 12.4712 80.9009C12.488 80.8411 12.5011 80.7813 12.5104 80.7215L12.5123 80.7159V80.7085L12.5142 80.7028L12.516 80.6898V80.6842L12.5179 80.6767L12.5198 80.6655V80.658L12.5216 80.6524V80.6449L12.5235 80.6393V80.6262L12.5254 80.6206L11.8415 81.8556ZM12.5328 80.473L12.531 80.4357L12.5328 80.3871C12.5291 80.2451 12.5086 80.105 12.4712 79.9686C12.3516 79.522 12.0639 79.1222 11.636 78.8737L11.6173 78.8625C11.1914 78.6252 10.7074 78.5766 10.2665 78.6962C9.81997 78.8139 9.41827 79.1035 9.17165 79.5314L9.16604 79.5407C8.92315 79.9686 8.87457 80.4581 8.99228 80.9009C9.11372 81.3474 9.40145 81.7491 9.82931 81.9958L9.83865 82.0014C10.2665 82.2443 10.7542 82.2928 11.1988 82.1751C11.4062 82.1191 11.6061 82.0275 11.7836 81.9005L11.7892 81.8949L11.8004 81.8874L11.8023 81.8855L11.806 81.8837L11.8117 81.8781L11.8173 81.8743L11.821 81.8724L11.8229 81.8687L11.8303 81.865L11.8359 81.8594H11.8378L11.8415 81.8556L12.5328 80.473ZM24.6754 106.385C25.1743 106.385 25.6245 106.184 25.9496 105.86C26.2747 105.535 26.4746 105.083 26.4746 104.586C26.4746 104.089 26.2729 103.639 25.9496 103.314C25.6731 103.039 25.3106 102.852 24.9052 102.8H24.894L24.8604 102.796L24.8585 102.794H24.838L24.8361 102.793H24.8137V102.791H24.7968L24.7912 102.789H24.7445L24.7371 102.787H24.6137L24.6063 102.789H24.5596L24.554 102.791H24.539L24.5371 102.793H24.5147V102.794H24.4942L24.4923 102.796L24.4568 102.8H24.4456C24.0402 102.852 23.6777 103.037 23.403 103.314C23.0779 103.639 22.8762 104.089 22.8762 104.586C22.8762 105.083 23.0779 105.535 23.4012 105.86C23.7263 106.184 24.1765 106.385 24.6754 106.385ZM23.844 85.1234V75.746L23.7113 75.7105L20.7443 80.8467L16.0977 88.8975L16.0902 88.9087L13.1307 94.0374L13.1793 94.0879L13.2279 94.1364L21.3497 89.4487C21.2619 89.1423 21.2133 88.8191 21.2133 88.4846C21.2133 87.5299 21.6019 86.6648 22.2278 86.037C22.6669 85.5998 23.2218 85.2766 23.844 85.1234ZM37.4868 95.1342C37.4383 95.1734 37.3915 95.2164 37.3467 95.2612C37.2738 95.3341 37.2066 95.4125 37.1487 95.4929L37.1412 95.5041H37.1393L37.1356 95.5116L37.1244 95.5284L37.1188 95.534L37.115 95.5415L37.1038 95.5583L37.102 95.5601L37.1001 95.5658L37.0926 95.577L37.0907 95.5788L37.0889 95.5826L37.0833 95.59L37.0814 95.5956L37.0795 95.5975L37.0777 95.6012L37.0758 95.6031L37.0739 95.6087L37.059 95.6349L37.0403 95.6648V95.6666L37.0366 95.6704V95.6722L37.0328 95.6779L37.031 95.6835L37.0272 95.6909L37.0254 95.6928L37.0235 95.6965L37.0197 95.7021L37.0141 95.7134V95.7171L37.0104 95.7227L37.0067 95.7302L37.0048 95.732L37.0029 95.7358L36.9973 95.7488L36.9955 95.7526L36.9917 95.7619L36.9861 95.7731L36.9805 95.7825L36.9786 95.79L36.9768 95.7937L36.9749 95.7956C36.9357 95.8852 36.9039 95.9768 36.8796 96.0702C36.8647 96.1244 36.8535 96.1786 36.8422 96.2328V96.2402L36.8385 96.2552V96.2627L36.8366 96.2776L36.8348 96.2832L36.8329 96.2907V96.2982L36.831 96.3056V96.3131L36.8292 96.3206V96.3336L36.8273 96.3355V96.3505C36.8049 96.5691 36.8217 96.7914 36.8796 97.0025C36.9973 97.4435 37.2832 97.8414 37.7073 98.0899L37.7204 98.0955C38.1482 98.344 38.6396 98.3945 39.0862 98.2749C39.5196 98.159 39.9101 97.8825 40.1586 97.4752L40.181 97.436C40.4277 97.0063 40.4781 96.5149 40.3585 96.0683C40.239 95.6218 39.9494 95.222 39.5234 94.9753C39.0918 94.7269 38.6004 94.6764 38.1538 94.796C37.9296 94.8576 37.7166 94.9585 37.5298 95.1005L37.5279 95.1024L37.5167 95.1099L37.513 95.1136L37.5093 95.1155L37.5055 95.1192L37.498 95.1248L37.4962 95.1267L37.4924 95.1286L37.4868 95.1342ZM12.5328 96.5579L12.531 96.5354L12.5328 96.5111C12.531 96.4215 12.5254 96.3318 12.5104 96.2421L12.5086 96.2365V96.2309L12.5067 96.229L12.503 96.2085V96.2047L12.5011 96.1991V96.1917L12.4992 96.1879V96.1861L12.4973 96.1786L12.4955 96.173V96.1655L12.4917 96.1543V96.1468L12.4899 96.1449V96.1412L12.488 96.1337L12.4861 96.1281V96.1244L12.4843 96.1225L12.4805 96.102L12.4787 96.0964L12.4712 96.0702V96.0627H12.4693L12.4656 96.0478L12.4637 96.0422V96.0403L12.4618 96.0347L12.4525 96.0011L12.4506 95.9992L12.4469 95.9843L12.445 95.9805V95.9768L12.4413 95.9693L12.4394 95.9618V95.96L12.4376 95.9562L12.4357 95.9488L12.432 95.9413V95.9394L12.4282 95.9282L12.4245 95.9207V95.9189L12.4207 95.9077L12.417 95.9002V95.8983L12.4151 95.8927L12.4133 95.8852L12.4095 95.8778L12.4077 95.8722L12.4039 95.8647L12.3852 95.8161H12.3834C12.3647 95.7694 12.3404 95.7227 12.3161 95.6779L12.2937 95.6367L12.2825 95.6181L12.2731 95.5994L12.2638 95.5826L12.2601 95.577L12.2582 95.5751L12.2563 95.5714L12.2507 95.5658L12.247 95.5583V95.5564L12.2432 95.5527L12.2358 95.5415L12.232 95.534C12.1666 95.4387 12.09 95.3472 12.006 95.2612C11.963 95.2201 11.92 95.1809 11.8752 95.1435L11.8696 95.1379L11.864 95.1342L11.8621 95.1304L11.8584 95.1286L11.8528 95.1248L11.8453 95.1173L11.8415 95.1155L11.8359 95.1099L11.8303 95.1061L11.8285 95.1043L11.8173 95.0968C11.6323 94.9567 11.4212 94.8558 11.1988 94.796C10.7523 94.6764 10.259 94.7269 9.82931 94.9753C9.40145 95.222 9.11372 95.6218 8.99228 96.0683C8.87457 96.5149 8.92315 97.0063 9.17165 97.436C9.41827 97.8657 9.81997 98.1553 10.2665 98.2749C10.6962 98.3907 11.1727 98.3459 11.5912 98.1198L11.6771 98.0694C12.0826 97.819 12.3572 97.4323 12.4712 97.0025C12.5086 96.8605 12.5291 96.7148 12.5328 96.5672V96.5579ZM14.0574 95.5732L14.0761 95.6405L14.0911 95.704H35.2597L35.2747 95.6405L35.2952 95.5732L27.1715 90.8817L27.123 90.9303C26.4933 91.56 25.6283 91.9467 24.6754 91.9467C23.7225 91.9467 22.8575 91.56 22.2316 90.9322L22.1811 90.8817L14.0574 95.5732ZM25.9496 87.2123C25.6227 86.8872 25.1724 86.6854 24.6754 86.6854C24.1784 86.6854 23.7281 86.8872 23.403 87.2123C23.0779 87.5374 22.8762 87.9895 22.8762 88.4846C22.8762 88.9835 23.0779 89.4338 23.4012 89.7589C23.7263 90.0839 24.1784 90.2857 24.6754 90.2857C25.1743 90.2857 25.6245 90.0839 25.9496 89.7589C26.2747 89.4338 26.4746 88.9835 26.4746 88.4846C26.4746 87.9895 26.2729 87.5374 25.9496 87.2123ZM25.9496 71.1106C25.6245 70.7855 25.1743 70.5856 24.6754 70.5856C24.1765 70.5856 23.7263 70.7855 23.4012 71.1106C23.0779 71.4357 22.8762 71.886 22.8762 72.3848C22.8762 72.8818 23.0779 73.3321 23.403 73.6572C23.6777 73.9319 24.042 74.1187 24.4456 74.1691L24.4493 74.171H24.4568L24.4923 74.1748H24.4942L24.5147 74.1766L24.5371 74.1785H24.539L24.5465 74.1804H24.5689L24.5764 74.1822H24.6212L24.6287 74.1841H24.7221L24.7296 74.1822H24.7744L24.7838 74.1804H24.8062L24.8137 74.1785L24.8361 74.1766H24.838L24.8585 74.1748H24.8604L24.894 74.171H24.9015L24.9052 74.1691C25.3106 74.1187 25.6731 73.9319 25.9496 73.6572C26.2729 73.3321 26.4746 72.8818 26.4746 72.3848C26.4746 71.886 26.2747 71.4357 25.9496 71.1106ZM-52.2399 5.03L-43.5184 10.0653C-42.9952 9.48233 -42.3226 9.08063 -41.5958 8.88632C-40.6168 8.62475 -39.535 8.73685 -38.584 9.28428C-37.6311 9.83358 -36.9921 10.7155 -36.7306 11.6964C-36.4671 12.6772 -36.5792 13.7609 -37.1285 14.7119L-37.1397 14.7306C-37.689 15.6685 -38.5653 16.3 -39.5387 16.5616C-39.606 16.5784 -39.6732 16.5952 -39.7405 16.6102L-39.7368 26.6807C-38.9726 26.8414 -38.2906 27.2244 -37.7582 27.7569C-37.0388 28.4743 -36.5942 29.4683 -36.5942 30.5651C-36.5942 31.6599 -37.0388 32.6539 -37.76 33.3732C-38.4775 34.0944 -39.4715 34.5391 -40.5682 34.5391C-41.6612 34.5391 -42.6533 34.0944 -43.3745 33.3751L-43.3782 33.3713C-43.4305 33.319 -43.4791 33.2667 -43.5277 33.2125C-46.4386 34.8137 -49.3589 36.5831 -52.2418 38.259C-51.9989 39.0026 -51.9858 39.7873 -52.1801 40.5141C-52.4436 41.495 -53.0826 42.3769 -54.0317 42.9243L-54.0859 42.9542C-55.0238 43.4774 -56.085 43.582 -57.0472 43.3242C-58.0095 43.0645 -58.8782 42.4442 -59.4275 41.5249L-59.4892 41.4184C-60.0105 40.4805 -60.1132 39.4193 -59.8554 38.4589C-59.8386 38.3917 -59.818 38.3263 -59.7975 38.259L-68.5191 33.2237C-69.0422 33.8067 -69.7148 34.2084 -70.4416 34.4027C-71.4206 34.6643 -72.5024 34.554 -73.4534 34.0047C-74.4063 33.4554 -75.0453 32.5736 -75.3069 31.5927C-75.5703 30.6118 -75.4582 29.53 -74.9089 28.579L-74.8977 28.5584C-74.3484 27.6205 -73.4721 26.989 -72.4968 26.7274C-72.4314 26.7106 -72.3642 26.6938 -72.2969 26.6807L-72.3006 16.6102C-73.0629 16.4476 -73.743 16.0646 -74.2755 15.534L-74.2811 15.5284C-74.9986 14.8091 -75.4432 13.817 -75.4432 12.724C-75.4432 11.6272 -74.9986 10.6332 -74.2792 9.91393L-74.2288 9.86908C-73.5132 9.17592 -72.5398 8.74993 -71.4692 8.74993C-70.3725 8.74993 -69.3785 9.19647 -68.6592 9.91393C-68.6069 9.96624 -68.5564 10.0204 -68.506 10.0765C-65.5969 8.47528 -62.6766 6.70593 -59.7956 5.03C-60.0385 4.28639 -60.0516 3.50354 -59.8554 2.77487C-59.5938 1.79398 -58.9549 0.912103 -58.0057 0.36467L-57.9515 0.334776C-57.0136 -0.188368 -55.9524 -0.291129 -54.9902 -0.0332932C-54.028 0.224542 -53.1592 0.844842 -52.6099 1.76408L-52.5482 1.87058C-52.0251 2.8085 -51.9242 3.86974 -52.1801 4.83008C-52.1988 4.89734 -52.2175 4.9646 -52.2399 5.03ZM-66.3275 16.6494C-66.7217 16.4215 -66.8581 15.9151 -66.632 15.519C-66.4041 15.1229 -65.8977 14.9866 -65.5016 15.2145L-58.9698 18.9849C-58.925 18.9344 -58.8764 18.884 -58.8278 18.8354C-58.2934 18.3029 -57.6115 17.9218 -56.8492 17.7592V10.2185C-56.8492 9.75885 -56.4774 9.38704 -56.0178 9.38704C-55.56 9.38704 -55.1863 9.75885 -55.1863 10.2185V17.7592C-54.7977 17.8433 -54.4278 17.9853 -54.0877 18.174L-54.0336 18.2039C-53.673 18.4113 -53.346 18.6766 -53.0676 18.9867L-46.5358 15.2145C-46.1397 14.9866 -45.6334 15.1229 -45.4054 15.519C-45.1775 15.9151 -45.3139 16.4215 -45.71 16.6494L-52.238 20.4179C-52.2175 20.4833 -52.1988 20.5487 -52.1801 20.616C-52.0923 20.9504 -52.0437 21.2961 -52.0437 21.6454C-52.0437 22.0733 -52.1129 22.4843 -52.238 22.8711L-45.71 26.6396C-45.3139 26.8675 -45.1775 27.3739 -45.4054 27.77C-45.6334 28.1661 -46.1397 28.3025 -46.5358 28.0745L-53.0676 24.3041L-53.1629 24.405L-53.2096 24.4536C-53.7402 24.9861 -54.424 25.3691 -55.1863 25.5317V33.0705C-55.1863 33.5302 -55.56 33.902 -56.0178 33.902C-56.4774 33.902 -56.8492 33.5302 -56.8492 33.0705V25.5317C-57.6096 25.3691 -58.2916 24.9861 -58.8241 24.4555L-58.8278 24.4517C-58.8764 24.4032 -58.9231 24.3546 -58.9679 24.3041L-65.5016 28.0745C-65.8977 28.3025 -66.4041 28.1661 -66.632 27.77C-66.8581 27.3739 -66.7217 26.8675 -66.3275 26.6396L-59.7975 22.8711C-59.9245 22.4843 -59.9918 22.0733 -59.9918 21.6454C-59.9918 21.2176 -59.9245 20.8047 -59.7994 20.4179L-66.3275 16.6494ZM-54.013 20.4889C-54.2167 20.1358 -54.5137 19.8425 -54.865 19.6388L-54.9023 19.6164C-55.2293 19.4352 -55.6105 19.3343 -56.0178 19.3343C-56.6586 19.3343 -57.2378 19.5921 -57.6526 20.0069C-58.0711 20.4273 -58.3308 21.0065 -58.3308 21.6454C-58.3308 22.2863 -58.0711 22.8636 -57.6563 23.2803C-57.2378 23.6988 -56.6586 23.9566 -56.0178 23.9566C-55.3807 23.9566 -54.8015 23.6969 -54.3848 23.2803L-54.3474 23.2448C-53.9513 22.8319 -53.7066 22.2676 -53.7066 21.6454C-53.7066 21.4324 -53.7346 21.2307 -53.7832 21.0438C-53.8374 20.8458 -53.9158 20.6589 -54.013 20.4889ZM-42.8121 12.1597L-42.8177 12.184V12.1859L-42.8252 12.212V12.2139L-42.8308 12.24V12.2419L-42.8364 12.2681V12.2699L-42.842 12.2961V12.298L-42.8476 12.3241V12.326L-42.8513 12.3522V12.354L-42.8551 12.3802V12.382L-42.8607 12.4082V12.4101L-42.8644 12.4362V12.4381L-42.8663 12.4643V12.4661L-42.87 12.4923V12.4941L-42.8719 12.5203V12.5222L-42.8738 12.5483V12.5502L-42.8756 12.5764L-42.8812 12.6604V12.7725L-42.8775 12.8286V12.8566L-42.8738 12.9127L-42.87 12.9407L-42.8682 12.9668V12.9687L-42.8644 12.9949V12.9967L-42.8607 13.0229L-42.8569 13.0509L-42.8532 13.0771V13.0789L-42.8476 13.1051L-42.8439 13.1331L-42.8383 13.1593V13.1612L-42.8327 13.1873L-42.8271 13.2153L-42.8214 13.2415L-42.8158 13.2695L-42.8084 13.2957L-42.8009 13.3237L-42.7859 13.376L-42.7785 13.4003V13.4022L-42.771 13.4265L-42.7691 13.4302L-42.7617 13.4526V13.4564L-42.7542 13.4788L-42.7523 13.4825L-42.7448 13.5031L-42.743 13.5087L-42.7355 13.5292L-42.7336 13.5348L-42.7262 13.5554L-42.7243 13.561L-42.7168 13.5797L-42.7131 13.5853L-42.7056 13.6058L-42.7037 13.6114L-42.6944 13.6301L-42.6925 13.6376L-42.6851 13.6544L-42.6813 13.6637L-42.6738 13.6806L-42.6701 13.688L-42.6626 13.7049L-42.657 13.7142L-42.6514 13.7291L-42.6458 13.7385L-42.6327 13.7646L-42.6271 13.7777L-42.6215 13.7889L-42.6141 13.802L-42.6085 13.8132L-42.601 13.8263L-42.5954 13.8375L-42.5879 13.8506L-42.5804 13.8618L-42.5748 13.873L-42.5673 13.8861L-42.5599 13.8973L-42.5524 13.9104L-42.5468 13.9216L-42.5393 13.9347L-42.5337 13.944L-42.5244 13.959L-42.5188 13.9664L-42.5094 13.9814L-42.5038 13.9907L-42.4926 14.0057L-42.4889 14.0131L-42.4721 14.0356L-42.4627 14.0524L-42.4571 14.058L-42.4459 14.0748L-42.4403 14.0804L-42.4254 14.1028L-42.4123 14.1196L-42.4085 14.1252L-42.3955 14.1421L-42.3917 14.1458L-42.3768 14.1645L-42.3749 14.1682L-42.36 14.1869L-42.3581 14.1906L-42.3413 14.2093L-42.3394 14.2112L-42.3226 14.2299V14.2317L-42.2479 14.3139L-42.2273 14.3345V14.3364L-42.2086 14.355H-42.2068L-42.1881 14.3737V14.3756L-42.1675 14.3962L-42.1488 14.413L-42.1451 14.4148L-42.1245 14.4354L-42.1077 14.4503L-42.104 14.4541L-42.0853 14.469L-42.0816 14.4728L-42.0648 14.4877L-42.0592 14.4914L-42.0423 14.5064L-42.0367 14.5101L-42.0218 14.5232L-42.0143 14.5288L-41.9994 14.5419L-41.9545 14.5755L-41.9452 14.583L-41.9302 14.5923L-41.9228 14.5998L-41.9078 14.6091L-41.8985 14.6166L-41.8835 14.626L-41.8742 14.6334L-41.8611 14.6428L-41.8499 14.6503L-41.8368 14.6577L-41.8256 14.6671L-41.7994 14.682L-41.7882 14.6895L-41.7733 14.697L-41.7621 14.7044L-41.749 14.7138L-41.7228 14.7287L-41.7154 14.7325C-41.5397 14.8334 -41.3548 14.9081 -41.1661 14.9585C-41.0913 14.9791 -41.0147 14.9959 -40.9381 15.0071L-40.9325 15.009H-40.9288L-40.9008 15.0146H-40.8914L-40.8821 15.0165H-40.8783L-40.8727 15.0183H-40.8634L-40.854 15.0202H-40.8503L-40.8447 15.0221L-40.826 15.0239H-40.8242L-40.8167 15.0258H-40.8073C-40.5233 15.0538 -40.2394 15.0295 -39.9684 14.9585C-39.4117 14.8091 -38.9072 14.4503 -38.5877 13.9197L-38.541 13.8394C-38.2421 13.2975 -38.1841 12.6829 -38.3336 12.1261C-38.4868 11.5544 -38.8586 11.0387 -39.4117 10.7192C-39.9628 10.4016 -40.5943 10.3362 -41.1661 10.4894C-41.7378 10.6426 -42.2535 11.0163 -42.5711 11.5674C-42.6813 11.758 -42.7598 11.9561 -42.8121 12.1597ZM-41.3342 28.3828L-41.3417 28.3847L-41.3865 28.4015L-41.394 28.4033L-41.4146 28.4127L-41.4183 28.4146L-41.4407 28.422L-41.4445 28.4239L-41.4669 28.4332L-41.4687 28.4351L-41.5173 28.4557L-41.5192 28.4575L-41.5921 28.4912L-41.5939 28.493L-41.6163 28.5042L-41.6182 28.5061L-41.6406 28.5173H-41.6444L-41.6649 28.5285L-41.6687 28.5304L-41.6892 28.5416L-41.693 28.5453L-41.7172 28.5584L-41.7359 28.5696L-41.7415 28.5734L-41.7583 28.5827L-41.7658 28.5864L-41.7808 28.5977L-41.7901 28.6014L-41.8051 28.6107L-41.8125 28.6163L-41.8275 28.6257L-41.8368 28.6313L-41.8499 28.6406L-41.8592 28.6481L-41.8723 28.6556L-41.8835 28.663L-41.8947 28.6724L-41.9059 28.6799L-41.9153 28.6873L-41.9284 28.6948L-41.9377 28.7023L-41.9508 28.7116L-41.9601 28.7191L-41.9732 28.7284L-41.9807 28.7359L-41.9938 28.7471L-42.0386 28.7808L-42.0442 28.7864L-42.0592 28.7994L-42.0648 28.8032L-42.0797 28.8163L-42.0853 28.8219L-42.1021 28.8349L-42.104 28.8387L-42.1227 28.8536L-42.1245 28.8574L-42.1432 28.8723L-42.1825 28.9115H-42.1843L-42.203 28.9302C-42.3786 29.1059 -42.5262 29.3114 -42.6383 29.5374H-42.6402L-42.6514 29.5617L-42.6981 29.6645L-42.7075 29.6869V29.6907L-42.7168 29.7131L-42.7187 29.7168L-42.728 29.7374V29.743L-42.7392 29.7691L-42.7467 29.7897L-42.7486 29.7953L-42.7561 29.8158L-42.7579 29.8233L-42.7635 29.842L-42.7673 29.8495L-42.7729 29.8681L-42.7747 29.8775L-42.7803 29.8943L-42.7841 29.9036L-42.7878 29.9223L-42.7916 29.9317L-42.7953 29.9485L-42.799 29.9597L-42.8028 29.9746L-42.8065 29.9877L-42.8102 30.0027L-42.814 30.0158L-42.8158 30.0288L-42.8196 30.0419L-42.8233 30.0569L-42.8252 30.0699L-42.8289 30.083L-42.8308 30.098L-42.8345 30.111L-42.8383 30.1279L-42.8401 30.1391L-42.842 30.1559L-42.8439 30.1671L-42.8476 30.1839L-42.8495 30.1951L-42.8532 30.2119V30.2231L-42.8569 30.2418V30.2512L-42.8607 30.2698V30.2792L-42.8644 30.2997V30.3072L-42.8663 30.3296L-42.8682 30.3352L-42.87 30.3577V30.3633L-42.8719 30.3876V30.3913L-42.8738 30.4174V30.4212L-42.8756 30.4455V30.4492L-42.8775 30.4754V30.5071L-42.8794 30.5352V30.5949L-42.8775 30.6062V30.6641L-42.8756 30.6734V30.7033L-42.8738 30.7127V30.7145L-42.8719 30.7425V30.7444L-42.8682 30.7893V30.8005L-42.8663 30.8023V30.8173C-42.8364 31.0807 -42.7654 31.3292 -42.6589 31.5572L-42.6533 31.5665L-42.6514 31.5702L-42.6421 31.5908L-42.6402 31.5964L-42.6383 31.6001L-42.6327 31.6076L-42.5767 31.7141L-42.573 31.7178V31.7216C-42.4702 31.8972 -42.3469 32.0579 -42.203 32.2017C-41.7864 32.6184 -41.209 32.8762 -40.5682 32.8762C-39.9292 32.8762 -39.35 32.6184 -38.9334 32.1999C-38.5148 31.7851 -38.2551 31.2059 -38.2551 30.5651C-38.2551 29.9279 -38.5148 29.3487 -38.9334 28.9302C-39.35 28.5136 -39.9292 28.2539 -40.5682 28.2539C-40.8354 28.252 -41.0932 28.2987 -41.3342 28.3828ZM-54.4278 37.805L-54.4689 37.7676L-54.4913 37.7489L-54.5119 37.7303L-54.5343 37.7116L-54.5548 37.6929H-54.5567L-54.5773 37.6761H-54.5791L-54.5997 37.6593V37.6574L-54.6221 37.6406L-54.6688 37.6088L-54.7136 37.5752L-54.7379 37.5602L-54.7604 37.5453L-54.8332 37.5005L-54.8556 37.4874L-54.8799 37.4724L-54.9042 37.4593L-54.9304 37.4463L-54.979 37.4201L-55.0051 37.407L-55.0294 37.3958L-55.0556 37.3846L-55.0798 37.3734L-55.106 37.3603L-55.1303 37.351L-55.1564 37.3398L-55.1826 37.3304L-55.2088 37.3192L-55.2872 37.2912L-55.3395 37.2762L-55.3657 37.2669L-55.3937 37.2594L-55.4199 37.252C-55.9916 37.0988 -56.6231 37.1641 -57.1743 37.4818L-57.1818 37.4874L-57.1911 37.4911L-57.2004 37.4967L-57.2079 37.5023L-57.2173 37.5079L-57.2247 37.5117H-57.2266L-57.2416 37.5229L-57.249 37.5266L-57.2509 37.5285L-57.2584 37.5322L-57.2733 37.5434H-57.2752L-57.2827 37.549L-57.2901 37.5528L-57.2976 37.5584L-57.3013 37.5602L-57.3069 37.564L-57.3219 37.5752L-57.3256 37.5771L-57.3312 37.5808L-57.3387 37.5864L-57.3462 37.5901L-57.3499 37.5939L-57.3537 37.5957L-57.3686 37.6069L-57.3742 37.6107L-57.3779 37.6126L-57.3929 37.6238L-57.3966 37.6275L-57.4004 37.6294L-57.4153 37.6406L-57.4209 37.6443L-57.4303 37.6537L-57.4377 37.6593L-57.4433 37.663L-57.4452 37.6649L-57.4602 37.6761L-57.4658 37.6817H-57.4676L-57.4826 37.6929L-57.4882 37.6985H-57.49L-57.5031 37.7116L-57.5255 37.7284L-57.533 37.7359L-57.5405 37.7415L-57.5461 37.7489L-57.5536 37.7546H-57.5554L-57.576 37.7751L-57.5816 37.7788L-57.5965 37.7938L-57.6021 37.7975L-57.6152 37.8106L-57.619 37.8125L-57.6208 37.8162L-57.6339 37.8293L-57.6395 37.833L-57.6414 37.8349L-57.647 37.8424L-57.6545 37.848L-57.6582 37.8536L-57.6619 37.8554L-57.6675 37.8629L-57.6788 37.8741L-57.6825 37.876L-57.69 37.8835L-57.7086 37.9059L-57.7161 37.9134L-57.7498 37.9489L-57.7554 37.9563V37.9582L-57.8114 38.0217V38.0236L-57.8226 38.0385L-57.8301 38.046L-57.8413 38.061L-57.8469 38.0666V38.0684L-57.8525 38.0759L-57.86 38.0834L-57.8637 38.089V38.0909L-57.8712 38.0983L-57.8768 38.1058L-57.8805 38.1114L-57.8824 38.1133L-57.888 38.1208C-58.058 38.3543 -58.1832 38.614 -58.2523 38.8868C-58.4055 39.4566 -58.342 40.0844 -58.0281 40.6337L-58.0225 40.6412C-57.703 41.1942 -57.1892 41.566 -56.6175 41.7192C-56.0589 41.8706 -55.4423 41.8127 -54.9005 41.5137L-54.8631 41.4894C-54.3101 41.1718 -53.9383 40.6561 -53.7851 40.0844C-53.6356 39.5258 -53.6935 38.9092 -53.9906 38.3674L-54.0149 38.33C-54.1288 38.132 -54.269 37.9563 -54.4278 37.805ZM-69.2253 31.1312L-69.2178 31.105V31.1031L-69.2122 31.077V31.0751L-69.2066 31.049V31.0471L-69.201 31.0209V31.0191L-69.1954 30.9929V30.991L-69.1898 30.9649V30.963L-69.1861 30.9369L-69.1805 30.9088L-69.173 30.8528L-69.1711 30.8248L-69.1674 30.7967L-69.1636 30.7706V30.7687L-69.1599 30.7127V30.6846L-69.1562 30.6286V30.5165L-69.158 30.4884V30.4604L-69.1599 30.4343V30.4324L-69.1618 30.4062V30.4044L-69.1636 30.3782V30.3763L-69.1674 30.3502V30.3483L-69.1692 30.3222L-69.1767 30.2661L-69.1805 30.24V30.2381L-69.1842 30.2119L-69.1879 30.1839L-69.1935 30.1559L-69.1991 30.1297L-69.2029 30.1017L-69.2104 30.0755V30.0737L-69.216 30.0475L-69.2216 30.0195L-69.244 29.941V29.9391L-69.2496 29.9149L-69.2515 29.913L-69.2589 29.8887V29.8868L-69.2664 29.8625V29.8607L-69.2739 29.8364L-69.2757 29.8326L-69.2832 29.8121L-69.2851 29.8065L-69.2926 29.7859L-69.2944 29.7822L-69.3038 29.7542L-69.3112 29.7355L-69.3131 29.7299L-69.3206 29.7093L-69.3243 29.7037L-69.3299 29.6832L-69.3337 29.6776L-69.3411 29.6589L-69.3449 29.6514L-69.3523 29.6346L-69.3561 29.6271L-69.3636 29.6103L-69.3673 29.601L-69.3748 29.586L-69.3785 29.5748L-69.386 29.5599L-69.3916 29.5505L-69.3972 29.5356L-69.4028 29.5262L-69.4159 29.5001L-69.4233 29.487L-69.429 29.4758L-69.4364 29.4627L-69.442 29.4515L-69.4495 29.4403L-69.4551 29.4272L-69.4626 29.416L-69.4701 29.4029L-69.4757 29.3917L-69.4831 29.3786L-69.4906 29.3693L-69.4981 29.3543L-69.5037 29.345L-69.513 29.3319L-69.5186 29.3226L-69.528 29.3076L-69.5336 29.3002L-69.5429 29.2833L-69.5597 29.2609L-69.5635 29.2535L-69.5803 29.231L-69.5952 29.2086L-69.6083 29.1918L-69.6121 29.1862L-69.6251 29.1694L-69.6289 29.1656L-69.6419 29.147L-69.6457 29.1432L-69.6588 29.1245L-69.6625 29.1208L-69.6774 29.1021L-69.6793 29.1002L-69.6961 29.0797L-69.698 29.0778L-69.7129 29.0591L-69.7148 29.0573L-69.7316 29.0386L-69.7335 29.0367L-69.7503 29.0162H-69.7522L-69.8082 28.9545H-69.8101L-69.8288 28.934L-69.8493 28.9134L-69.868 28.8966L-69.8699 28.8929L-69.8886 28.876L-69.8904 28.8742L-69.9091 28.8574L-69.9129 28.8536L-69.9297 28.8387L-69.9334 28.8349L-69.9502 28.82L-69.9558 28.8163L-69.9726 28.8013L-69.9783 28.7976L-69.9932 28.7845L-69.9988 28.7789L-70.0156 28.7658L-70.0231 28.7602L-70.038 28.7471L-70.0829 28.7135L-70.0922 28.7079L-70.1053 28.6967L-70.1146 28.6892L-70.1296 28.6799L-70.1389 28.6724L-70.152 28.663L-70.1632 28.6556L-70.1763 28.6481L-70.1875 28.6406L-70.2006 28.6313L-70.2118 28.6238L-70.2249 28.6145L-70.238 28.607L-70.2492 28.5995L-70.2622 28.5921L-70.2735 28.5846L-70.2884 28.5771L-70.3146 28.5622L-70.322 28.5566C-70.4977 28.4575 -70.6808 28.3809 -70.8713 28.3305C-70.9461 28.3099 -71.0227 28.295 -71.0974 28.2819L-71.1049 28.28H-71.1067L-71.1161 28.2782L-71.1441 28.2744L-71.1553 28.2726H-71.1591L-71.1647 28.2707H-71.174L-71.1834 28.2688H-71.1927L-71.2114 28.2651H-71.2207L-71.2301 28.2632C-71.5141 28.2333 -71.798 28.2595 -72.069 28.3323C-72.6257 28.4799 -73.1283 28.8387 -73.4497 29.3693L-73.4964 29.4496C-73.7953 29.9915 -73.8533 30.6062 -73.7038 31.1648C-73.5506 31.7347 -73.1788 32.2503 -72.6257 32.5698C-72.0746 32.8874 -71.4431 32.9528 -70.8713 32.7996C-70.2996 32.6464 -69.7839 32.2746 -69.4644 31.7216C-69.3561 31.531 -69.2757 31.333 -69.2253 31.1312ZM-71.4692 15.0351C-70.8302 15.0351 -70.2529 14.7754 -69.8344 14.3588C-69.7036 14.2299 -69.5896 14.0841 -69.4925 13.9253L-69.4887 13.9197L-69.4644 13.8767L-69.4607 13.873L-69.4495 13.8525L-69.4103 13.7796L-69.3972 13.7534L-69.386 13.7291V13.7273L-69.3729 13.703L-69.3617 13.6787V13.6768L-69.3505 13.6544V13.6525L-69.3411 13.6283L-69.3393 13.6264L-69.3299 13.6021L-69.3281 13.6002L-69.3187 13.5778V13.5741L-69.3094 13.5516L-69.3075 13.5479L-69.3 13.5255L-69.2982 13.5218L-69.2907 13.5012L-69.2888 13.4937L-69.2813 13.475L-69.2795 13.4676L-69.2739 13.4489L-69.2701 13.4414L-69.2645 13.4209L-69.2608 13.4134L-69.2571 13.3947L-69.2533 13.3854L-69.2477 13.3685L-69.2458 13.3592L-69.2402 13.3424L-69.2384 13.3312L-69.2328 13.3162L-69.2309 13.3032L-69.2272 13.2882L-69.2234 13.2751L-69.2197 13.2602L-69.2178 13.2471L-69.2141 13.234L-69.2104 13.2191L-69.2085 13.206L-69.2047 13.1911L-69.2029 13.1798L-69.1991 13.163L-69.1973 13.1518L-69.1917 13.1238L-69.1898 13.1051L-69.1823 13.0677L-69.1805 13.0491L-69.1786 13.0397L-69.1767 13.0192V13.0117L-69.173 12.9911V12.9837L-69.1692 12.9612V12.9556L-69.1674 12.9313V12.9257L-69.1655 12.9033L-69.1636 12.8977V12.8734L-69.1618 12.8678V12.8398L-69.1599 12.8136V12.7837L-69.158 12.7819V12.6642H-69.1599V12.6156L-69.1618 12.6063V12.5764L-69.1636 12.5745V12.5483L-69.1655 12.5465L-69.1692 12.4998V12.4867L-69.1711 12.4811V12.4717C-69.229 11.9336 -69.4701 11.4535 -69.8344 11.0891C-70.2529 10.6725 -70.8302 10.4128 -71.4692 10.4128C-72.0933 10.4128 -72.6575 10.6575 -73.0704 11.0518L-73.104 11.0891C-73.5226 11.5076 -73.7804 12.085 -73.7804 12.724C-73.7804 13.3648 -73.5226 13.944 -73.1078 14.3588C-72.6893 14.7773 -72.1101 15.0351 -71.4692 15.0351ZM-57.6096 5.48401L-57.5891 5.5027L-57.5666 5.52138V5.52325L-57.5255 5.56062L-57.5031 5.57743L-57.4807 5.59611L-57.4602 5.61293H-57.4583L-57.4359 5.63161L-57.3686 5.68206L-57.3462 5.69701V5.69887L-57.3238 5.71382L-57.2995 5.72877L-57.2771 5.74558L-57.2285 5.77548L-57.2042 5.78856L-57.1799 5.8035L-57.1575 5.81658L-57.1313 5.82966L-57.107 5.84461L-57.0827 5.85769L-57.0585 5.8689L-57.0323 5.88198L-57.008 5.89319L-56.9818 5.90626L-56.9576 5.91747L-56.9052 5.9399L-56.881 5.94924L-56.8548 5.96045L-56.7502 5.99781L-56.724 6.00529L-56.6979 6.01463L-56.6698 6.0221L-56.6175 6.03705C-56.0458 6.19026 -55.4143 6.12486 -54.8631 5.80724L-54.8538 5.80164L-54.8463 5.7979L-54.837 5.79229L-54.8295 5.78856L-54.8201 5.78295L-54.8127 5.77735H-54.8108L-54.8033 5.77174L-54.7959 5.768L-54.7884 5.7624L-54.7865 5.76053L-54.779 5.75679L-54.7716 5.75119L-54.7604 5.74558L-54.7547 5.74185L-54.7473 5.73624L-54.7379 5.73064L-54.7361 5.72877L-54.7305 5.72503L-54.723 5.71943L-54.7136 5.71569L-54.7118 5.71195L-54.7062 5.71009L-54.6912 5.69887L-54.6875 5.69514L-54.6838 5.69327L-54.6763 5.68766L-54.6669 5.68206L-54.6632 5.68019L-54.6595 5.67645L-54.6445 5.66524L-54.6408 5.66151L-54.637 5.65964L-54.6221 5.64843L-54.6165 5.64469L-54.6146 5.64282L-54.5997 5.63161L-54.5941 5.62788L-54.5922 5.62414L-54.5847 5.6204L-54.5773 5.61293L-54.5716 5.60919L-54.5698 5.60732L-54.5548 5.59611L-54.5492 5.59051H-54.5474L-54.5399 5.5849L-54.5324 5.57743L-54.5249 5.57183L-54.5193 5.56622L-54.5119 5.56062L-54.5044 5.55314L-54.4894 5.54193L-54.4764 5.52885L-54.4689 5.52325L-54.4558 5.51017L-54.4483 5.50456L-54.4222 5.47841L-54.4184 5.47654L-54.4166 5.4728L-54.4091 5.4672L-54.3755 5.43357L-54.3699 5.42609L-54.3587 5.41488L-54.3549 5.41301L-54.3474 5.40554L-54.3418 5.39807L-54.3288 5.38312L-54.3213 5.37565L-54.2634 5.31025H-54.2615L-54.2559 5.30278L-54.226 5.26728V5.26541L-54.2185 5.25981L-54.2073 5.24486V5.24299L-54.1961 5.22804L-54.1905 5.22244H-54.1886L-54.183 5.21497L-54.1774 5.20562L-54.1737 5.20002L-54.1662 5.19255L-54.1606 5.18507L-54.1569 5.1776L-54.155 5.17573L-54.1494 5.16826L-54.1401 5.15518L-54.1382 5.15331C-53.9719 4.9235 -53.8523 4.6694 -53.7851 4.40222C-53.6319 3.83237 -53.6954 3.2046 -54.0093 2.6553L-54.0149 2.64782C-54.3325 2.09478 -54.8482 1.72298 -55.4199 1.56977C-55.9785 1.4203 -56.5951 1.47822 -57.1369 1.77529L-57.1743 1.79958C-57.7273 2.1172 -58.0991 2.63287 -58.2523 3.2046C-58.4018 3.76324 -58.3439 4.3798 -58.045 4.92163L-58.0225 4.959C-57.9086 5.15705 -57.7684 5.33267 -57.6096 5.48401ZM-67.6895 11.4964C-67.5961 11.7842 -67.5344 12.0868 -67.5083 12.397V12.4138L-67.5064 12.4175V12.4306L-67.5045 12.4474L-67.5027 12.496L-67.5008 12.511V12.5446L-67.4989 12.5614V12.5764L-67.4971 12.5932V12.6417L-67.4952 12.6586V12.7744L-67.4971 12.8249V12.8267L-67.4989 12.8734V12.8772L-67.5008 12.9239V12.9276L-67.5027 12.9725V12.9781L-67.5064 13.0229V13.0285L-67.5101 13.0715L-67.512 13.0789L-67.5157 13.1201V13.1294L-67.5213 13.1705V13.1798L-67.5251 13.2191L-67.5269 13.2284L-67.5326 13.2658L-67.5344 13.2789L-67.5419 13.3274L-67.5475 13.3629L-67.5494 13.376L-67.555 13.4115L-67.5587 13.4265L-67.5643 13.4582L-67.5662 13.475L-67.5737 13.5068L-67.5755 13.5236L-67.583 13.5535L-67.5923 13.6002L-67.5979 13.6189L-67.6035 13.6469L-67.6092 13.6675L-67.6148 13.6936L-67.6204 13.7161L-67.6278 13.7404L-67.6334 13.7628L-67.6409 13.7871L-67.6465 13.8095L-67.654 13.8338L-67.6596 13.8562L-67.6671 13.8786L-67.6745 13.9029L-67.6802 13.9235L-67.6895 13.9496L-67.6951 13.9702L-67.7213 14.043L-67.7269 14.0598L-67.7381 14.0879L-67.7437 14.1047L-67.7549 14.1327L-67.7605 14.1495L-67.7717 14.1794L-67.7773 14.1925L-67.7904 14.2243L-67.796 14.2373L-67.8091 14.2691L-67.8128 14.2803L-67.8278 14.3121L-67.8334 14.3233L-67.8464 14.3569L-67.852 14.3663L-67.867 14.3999L-67.8726 14.4092L-67.8875 14.4447L-67.8913 14.4522L-67.91 14.4877L-67.9137 14.4952L-67.9305 14.5307L-67.9343 14.5363L-67.9529 14.5736L-67.9567 14.5774L-67.9772 14.6148L-67.9791 14.6204L-67.9996 14.6577L-68.0015 14.6615L-68.0239 14.6988V14.7026L-68.0482 14.7418L-68.0725 14.7829L-68.1211 14.8614L-68.123 14.8632L-68.1472 14.9006L-68.1491 14.9025L-68.1734 14.9398L-68.1753 14.9436L-68.1996 14.9791L-68.2033 14.9828L-68.2276 15.0165L-68.2295 15.0221L-68.2537 15.0557L-68.2575 15.0613L-68.2818 15.0931L-68.2874 15.0987L-68.3098 15.1304L-68.3378 15.1678L-68.3453 15.1753L-68.4051 15.25L-68.4275 15.2762L-68.435 15.2855L-68.4574 15.3117L-68.4667 15.3229L-68.4873 15.3472L-68.4985 15.3584L-68.5191 15.3808L-68.5303 15.3939L-68.5508 15.4163L-68.562 15.4294L-68.5826 15.4499L-68.5938 15.463L-68.6143 15.4835L-68.6274 15.4985L-68.6592 15.534C-68.8591 15.7339 -69.0796 15.9114 -69.3187 16.0646L-69.3281 16.0702L-69.4084 16.1207L-69.4103 16.1225L-69.5317 16.1935L-69.5336 16.1954L-69.5766 16.2178L-69.5934 16.2272L-69.6177 16.2402L-69.6251 16.244L-69.6569 16.2608L-69.6606 16.2627L-69.6887 16.2757L-69.7036 16.2851L-69.7204 16.2926L-69.7466 16.3056L-69.7914 16.3262L-69.8176 16.3374L-69.8344 16.3467L-69.8493 16.3523L-69.8792 16.3654L-69.883 16.3673L-69.9147 16.3822L-69.9241 16.386L-69.9484 16.3953L-69.9689 16.4028L-69.982 16.4103L-70.0138 16.4215L-70.0156 16.4233L-70.0474 16.4345L-70.0586 16.4402L-70.0829 16.4476L-70.1034 16.457L-70.1146 16.4607L-70.1501 16.4719L-70.1838 16.485L-70.2174 16.4962L-70.2417 16.5037L-70.2865 16.5186H-70.2884L-70.3202 16.5298L-70.3351 16.5336L-70.3557 16.5392L-70.3818 16.5466L-70.3912 16.5485L-70.4248 16.5597H-70.4304L-70.4603 16.5691L-70.4771 16.5728L-70.4958 16.5784L-70.5257 16.584L-70.5313 16.5859L-70.5668 16.5952H-70.5724L-70.6023 16.6027L-70.621 16.6064L-70.6378 16.6102V26.6807L-70.5986 26.69L-70.5518 26.7013L-70.5033 26.7125L-70.4416 26.7274C-70.1146 26.8134 -69.7933 26.9479 -69.4831 27.1272C-69.1113 27.3402 -68.7881 27.6055 -68.5172 27.9064L-68.4854 27.9437H-68.4836L-68.4537 27.9811H-68.4518L-68.4219 28.0185H-68.42L-68.3901 28.054L-68.3602 28.0932L-68.3303 28.1306L-68.3005 28.1698L-68.2724 28.2072H-68.2706L-68.2145 28.2856L-68.1884 28.3267L-68.1603 28.366L-68.1342 28.4071L-68.108 28.4463L-68.0837 28.4874L-68.0576 28.5285L-68.0333 28.5696L-68.0109 28.6126H-68.009L-67.9641 28.6948L-67.9193 28.7808L-67.8576 28.9097L-67.8371 28.9545L-67.8184 28.9975L-67.7997 29.0423L-67.7829 29.0853L-67.7642 29.1301L-67.7474 29.175L-67.7325 29.2198L-67.7157 29.2647L-67.6708 29.3992L-67.6577 29.4459L-67.6447 29.4907L-67.6316 29.5374L-67.6222 29.5711L-67.6204 29.5842L-67.6148 29.6047L-67.6092 29.629L-67.6054 29.6402L-67.5979 29.6738V29.6757L-67.5905 29.7093L-67.5867 29.7224L-67.583 29.743L-67.5774 29.7691L-67.5755 29.7785L-67.5681 29.8121V29.8158L-67.5624 29.8476L-67.5587 29.8625L-67.555 29.8812L-67.5512 29.9093L-67.5494 29.9167L-67.5438 29.9504V29.956L-67.5382 29.9859L-67.5363 30.0027L-67.5344 30.0214L-67.5307 30.0494L-67.5288 30.0569L-67.5251 30.0905V30.098L-67.5213 30.126L-67.5195 30.1447L-67.5176 30.1615L-67.5139 30.1914V30.197L-67.5101 30.2325V30.24L-67.5083 30.268L-67.5064 30.2867V30.3016L-67.5027 30.3352V30.3371L-67.5008 30.3745V30.4081L-67.4989 30.4305V30.4436L-67.4971 30.4772V30.6585L-67.4989 30.6697V30.694L-67.5008 30.7183V30.7295L-67.5027 30.765V30.7668L-67.5045 30.8005V30.8135L-67.5064 30.836L-67.5083 30.8621V30.8715L-67.512 30.907V30.9107L-67.5157 30.9425V30.9574L-67.5176 30.978L-67.5213 31.006L-67.5232 31.0135L-67.5269 31.049V31.0546L-67.5307 31.0845L-67.5344 31.1013L-67.5363 31.12L-67.54 31.1499L-67.5419 31.1555L-67.5475 31.191V31.1984L-67.5531 31.2265L-67.555 31.2451L-67.5587 31.262L-67.5643 31.2937L-67.5662 31.2975L-67.5718 31.333L-67.5737 31.3404L-67.5793 31.3685L-67.583 31.389L-67.5867 31.4039L-67.5942 31.4357V31.4394L-67.6035 31.4749L-67.6054 31.4843L-67.611 31.5104L-67.6166 31.531L-67.6204 31.5459L-67.6297 31.5796V31.5814L-67.6503 31.6506L-67.6559 31.6749L-67.6596 31.6861L-67.6689 31.7216H-67.6708L-67.6802 31.7552L-67.6858 31.7683L-67.6914 31.7907L-58.9698 36.826L-58.8297 36.6765C-58.5868 36.4373 -58.3103 36.2225 -58.0057 36.0469L-57.9609 36.0207L-57.9515 36.017L-57.916 35.9964L-57.9067 35.9927L-57.8712 35.9721L-57.8619 35.9684L-57.8264 35.9497L-57.8189 35.946L-57.7796 35.9254L-57.774 35.9235L-57.7348 35.9049L-57.7292 35.9011L-57.69 35.8824L-57.6844 35.8806L-57.6433 35.8619L-57.6395 35.86L-57.5965 35.8413L-57.5947 35.8395L-57.5517 35.8227L-57.5498 35.8208L-57.505 35.8021H-57.5031L-57.4583 35.7834L-57.4116 35.7666L-57.3667 35.7498H-57.3649L-57.32 35.733H-57.3182L-57.2752 35.718L-57.2714 35.7162L-57.2285 35.7031L-57.2247 35.7012L-57.1818 35.6881L-57.178 35.6863L-57.1351 35.6732L-57.1294 35.6713L-57.0902 35.6601L-57.0827 35.6582L-57.0435 35.6489L-56.9968 35.6358L-56.9875 35.6339L-56.9501 35.6246L-56.9407 35.6209L-56.9034 35.6134L-56.8922 35.6115L-56.8567 35.6022L-56.8455 35.6003L-56.8081 35.5928L-56.7969 35.591L-56.7632 35.5835L-56.7483 35.5816L-56.7147 35.5742L-56.7016 35.5723L-56.668 35.5667L-56.653 35.5648L-56.6213 35.5592L-56.6044 35.5573L-56.5745 35.5517L-56.5577 35.5499L-56.5278 35.5461L-56.5091 35.5443L-56.4811 35.5405L-56.4606 35.5387L-56.4325 35.5349L-56.4139 35.5331L-56.3858 35.5293L-56.3653 35.5275L-56.3391 35.5256L-56.3167 35.5237L-56.2906 35.5218L-56.27 35.52H-56.2438L-56.2214 35.5181L-56.1971 35.5162H-56.1504L-56.1243 35.5144H-56.0551L-56.029 35.5125H-56.0084L-55.9804 35.5144H-55.915L-55.8851 35.5162H-55.8683L-55.8365 35.5181H-55.8216L-55.7898 35.52H-55.7749L-55.7412 35.5237H-55.7282L-55.6945 35.5256L-55.6815 35.5275L-55.646 35.5312H-55.6329L-55.5993 35.5349L-55.588 35.5368L-55.5525 35.5405L-55.5413 35.5424L-55.504 35.5461L-55.4946 35.548L-55.4573 35.5536H-55.4479L-55.4105 35.5611H-55.4012L-55.3638 35.5667L-55.3564 35.5686L-55.3171 35.576H-55.3097L-55.2686 35.5854H-55.2629L-55.2218 35.5947H-55.2181L-55.1751 35.6041H-55.1733L-55.1284 35.6134L-55.1266 35.6153L-55.0836 35.6246H-55.0817L-55.0369 35.6358L-54.9902 35.6489L-54.9565 35.6582L-54.9453 35.662L-54.9229 35.6676L-54.8986 35.6732L-54.8893 35.6769L-54.8556 35.6881H-54.8538L-54.822 35.6975L-54.8089 35.7012L-54.7884 35.7087L-54.7622 35.7162L-54.7547 35.7199L-54.7211 35.7311L-54.7174 35.733L-54.6875 35.7423L-54.6725 35.7479L-54.6539 35.7554L-54.6277 35.7647L-54.6221 35.7666L-54.5885 35.7797L-54.5829 35.7815L-54.5548 35.7928L-54.5399 35.7984L-54.5231 35.8058L-54.495 35.817L-54.4894 35.8189L-54.4577 35.832L-54.4502 35.8357L-54.424 35.8469L-54.4072 35.8544L-54.3923 35.8619L-54.3643 35.875H-54.3605L-54.3288 35.8899L-54.2951 35.9067L-54.2764 35.9142L-54.2634 35.9217L-54.2353 35.9366H-54.2316L-54.1998 35.9534L-54.1924 35.9572L-54.1681 35.9703L-54.1494 35.9796L-54.1382 35.9871L-54.1083 36.002L-54.1064 36.0039L-54.0765 36.0207L-54.0653 36.0263L-54.0448 36.0375L-54.0242 36.0506L-54.013 36.0562L-53.9831 36.073L-53.9532 36.0917L-53.942 36.0992L-53.9215 36.1104L-53.9009 36.1235L-53.8916 36.1291L-53.8617 36.1496H-53.8598L-53.8206 36.1758L-53.8019 36.1889L-53.7795 36.2038L-53.772 36.2075L-53.701 36.258L-53.6842 36.2711L-53.6617 36.286L-53.6561 36.2916L-53.6281 36.3122L-53.6225 36.3159L-53.5982 36.3346L-53.5851 36.3458L-53.5702 36.357L-53.5459 36.3757L-53.5422 36.3794L-53.5141 36.4018L-53.5085 36.4056L-53.4861 36.4243L-53.4712 36.4373L-53.4581 36.4467L-53.4338 36.4672L-53.4319 36.471L-53.4039 36.4953L-53.3964 36.499L-53.3759 36.5177L-53.3609 36.5326L-53.3497 36.542L-53.3254 36.5644L-53.2974 36.5924L-53.2881 36.598L-53.1928 36.6933L-53.1834 36.7008L-53.1666 36.7195L-53.1498 36.7363L-53.1423 36.7456L-53.1181 36.7718H-53.1162L-53.0919 36.7998L-53.0826 36.8092L-53.0676 36.826L-44.3479 31.7926V31.7907C-44.3722 31.716 -44.3946 31.6394 -44.4133 31.5628L-44.417 31.5553C-44.4656 31.361 -44.5011 31.1611 -44.5217 30.9555L-44.5235 30.9406L-44.5273 30.9088V30.892L-44.5291 30.8752V30.8696L-44.531 30.8584V30.8434L-44.5329 30.8266V30.8098L-44.5347 30.7949V30.778L-44.5366 30.7687V30.7444L-44.5385 30.7295V30.6958L-44.5404 30.679V30.6136L-44.5422 30.5987V30.5651L-44.5404 30.5146V30.4623L-44.5385 30.4156V30.4118L-44.5366 30.3651V30.3614L-44.5329 30.3166V30.311L-44.531 30.2661L-44.5291 30.2605L-44.5273 30.2175L-44.5254 30.2101L-44.5217 30.169V30.1596L-44.5161 30.1204V30.1092L-44.5105 30.0699V30.0606L-44.5049 30.0232L-44.503 30.0101L-44.4974 29.9746L-44.4955 29.9616L-44.4899 29.9261L-44.488 29.913L-44.4824 29.8775L-44.4787 29.8644L-44.4731 29.8308L-44.4712 29.8158L-44.4637 29.7822L-44.46 29.7673L-44.4544 29.7355L-44.4507 29.7187L-44.4432 29.6888L-44.4339 29.6421L-44.4282 29.6215L-44.4208 29.5954L-44.417 29.5748L-44.4096 29.5487L-44.404 29.5262L-44.3965 29.5019L-44.3909 29.4795L-44.3834 29.4552L-44.3778 29.4328L-44.3703 29.4104L-44.3629 29.3861L-44.3554 29.3637L-44.3479 29.3394L-44.3404 29.3188L-44.333 29.2927L-44.3255 29.274L-44.3161 29.2478L-44.3105 29.2292L-44.2993 29.2011L-44.2937 29.1843L-44.2825 29.1563L-44.2769 29.1395L-44.2657 29.1115L-44.2601 29.0946L-44.247 29.0666L-44.2414 29.0517L-44.2283 29.0218L-44.2227 29.0068L-44.2096 28.9769L-44.204 28.9639L-44.1891 28.9321L-44.1854 28.9209L-44.1704 28.8891L-44.1648 28.8779L-44.1499 28.8461L-44.1443 28.8368L-44.1274 28.8013L-44.1069 28.7602L-44.0845 28.7172L-44.0807 28.7098L-44.062 28.6743L-44.0583 28.6687L-44.0378 28.6332L-44.0359 28.6275L-44.0153 28.5902L-44.0116 28.5864L-43.9911 28.5491L-43.9892 28.5472L-43.9649 28.508V28.5061L-43.9406 28.4669V28.465L-43.9144 28.4276L-43.8902 28.3884L-43.8883 28.3865L-43.864 28.3473H-43.8621L-43.836 28.3081L-43.8098 28.2707L-43.8079 28.2688L-43.7837 28.2333L-43.7799 28.2296L-43.7556 28.196L-43.7519 28.1903L-43.7276 28.1586L-43.722 28.153L-43.6996 28.1212L-43.694 28.1156L-43.6697 28.0839L-43.6641 28.0782L-43.6398 28.0484L-43.6342 28.0409L-43.6099 28.0129L-43.6024 28.0035L-43.58 27.9774L-43.5725 27.968L-43.5501 27.9419L-43.5408 27.9325L-43.5184 27.9064L-43.509 27.897L-43.4772 27.8615L-43.4436 27.8279L-43.4231 27.8055L-43.3782 27.755C-43.1129 27.4897 -42.8084 27.2618 -42.4758 27.0805L-42.4627 27.0749L-42.3488 27.0151L-42.3357 27.0077L-42.317 26.9983L-42.2908 26.9871L-42.2535 26.9684L-42.2479 26.9666L-42.2217 26.9535L-42.1881 26.9385L-42.16 26.9255L-42.1227 26.9105L-42.1152 26.9068L-42.089 26.8956L-42.0704 26.8881L-42.0573 26.8825L-42.0255 26.8713L-42.0237 26.8694L-41.99 26.8563L-41.9807 26.8526L-41.9564 26.8433L-41.9358 26.8358L-41.9228 26.8302L-41.8891 26.819H-41.8873L-41.8424 26.804L-41.82 26.7947L-41.7976 26.7891L-41.7864 26.7835L-41.7509 26.7741L-41.7154 26.7629L-41.7042 26.7592L-41.6817 26.7536L-41.6556 26.7461L-41.6462 26.7424L-41.6126 26.733H-41.6089L-41.5771 26.7237L-41.5622 26.7199L-41.5416 26.7143L-41.5136 26.7087L-41.5061 26.705L-41.4669 26.6975L-41.4351 26.69L-41.4183 26.6863L-41.3996 26.6807V16.6083L-41.437 16.599L-41.5341 16.5765L-41.5958 16.5616C-41.9209 16.4757 -42.2441 16.343 -42.5543 16.1636C-42.8663 15.9843 -43.1428 15.7675 -43.3838 15.5246H-43.3857L-43.4866 15.4182L-43.5837 15.3098L-43.6155 15.2724L-43.6454 15.2351H-43.6473L-43.6772 15.1977L-43.7071 15.1584L-43.7369 15.1211L-43.793 15.0426H-43.7949L-43.821 15.0034H-43.8229L-43.8491 14.9641L-43.8752 14.923L-43.9032 14.8838L-43.9275 14.8427H-43.9294L-44.0023 14.7194H-44.0041L-44.0266 14.6783L-44.0508 14.6353L-44.0733 14.5942L-44.0957 14.5512L-44.1162 14.5083L-44.1387 14.4653L-44.1592 14.4223L-44.1779 14.3793L-44.1984 14.3364L-44.2171 14.2915L-44.2358 14.2486L-44.2545 14.2037L-44.2713 14.1589L-44.2881 14.1159L-44.3049 14.0692L-44.3218 14.0262L-44.3367 13.9795L-44.3516 13.9347L-44.3647 13.8898L-44.3797 13.8431L-44.3927 13.7983L-44.4058 13.7516L-44.4133 13.7179L-44.417 13.7067L-44.4226 13.6843L-44.4282 13.66L-44.4301 13.6488L-44.4395 13.6152V13.6133L-44.4469 13.5815L-44.4507 13.5685L-44.4544 13.546L-44.46 13.5218L-44.4619 13.5124L-44.4675 13.4769L-44.4694 13.475L-44.475 13.4414L-44.4768 13.4265L-44.4862 13.3798V13.3742L-44.4918 13.3387L-44.4936 13.333L-44.4974 13.3032L-44.5011 13.2863L-44.503 13.2677L-44.5067 13.2396V13.234L-44.5123 13.1985V13.1929L-44.5161 13.163L-44.5179 13.1443L-44.5198 13.1275L-44.5235 13.0976V13.092L-44.5273 13.0565V13.0491L-44.5291 13.0229L-44.531 13.0023V12.9874L-44.5329 12.9556V12.9519L-44.5347 12.9164L-44.5366 12.9071V12.8809L-44.5385 12.8585V12.8099L-44.5404 12.7744V12.6679L-44.5385 12.6324V12.5969L-44.5366 12.5708V12.5614L-44.5347 12.5259V12.524L-44.5329 12.4885V12.4755L-44.531 12.4549L-44.5291 12.4269L-44.5273 12.4175L-44.5254 12.382V12.3802L-44.5217 12.3465L-44.5198 12.3316L-44.5179 12.311L-44.5161 12.283L-44.5142 12.2755L-44.5105 12.24V12.2344L-44.5049 12.2045L-44.503 12.1877L-44.5011 12.1691L-44.4955 12.1392V12.1336L-44.4899 12.0981V12.0906L-44.4806 12.0439L-44.4768 12.0271L-44.4731 11.9953L-44.4712 11.9916L-44.4637 11.9561V11.9486L-44.4563 11.9206L-44.4525 11.9L-44.4507 11.8851L-44.4432 11.8533L-44.4413 11.8496L-44.4339 11.8141L-44.432 11.8047L-44.4245 11.7786L-44.4189 11.758L-44.417 11.7449L-44.4077 11.7094L-44.3871 11.6384L-44.3815 11.616L-44.3778 11.6029L-44.3666 11.5674L-44.3554 11.5338L-44.3516 11.5207L-44.3442 11.4983L-48.705 8.98161L-53.0676 6.46304L-53.2077 6.61251C-53.4506 6.85353 -53.7253 7.06652 -54.0317 7.24215L-54.0765 7.26831L-54.0859 7.27391L-54.1214 7.2926L-54.1288 7.2982L-54.2111 7.33931L-54.2185 7.34491L-54.2559 7.3636L-54.3474 7.40657L-54.353 7.40844L-54.3942 7.42712L-54.3979 7.42899L-54.439 7.44767L-54.4427 7.44954L-54.4857 7.46822H-54.4876L-54.5324 7.48691H-54.5343L-54.5791 7.50559L-54.624 7.52241L-54.6258 7.52428L-54.6707 7.54109H-54.6725L-54.7174 7.55604L-54.7192 7.55791L-54.7622 7.57285H-54.766L-54.8089 7.5878L-54.8127 7.58967L-54.8556 7.60088L-54.8594 7.60275L-54.9005 7.61583L-54.908 7.61769L-54.9472 7.6289L-54.9547 7.63077L-54.9939 7.64198L-55.0014 7.64385L-55.0406 7.65319L-55.05 7.65693L-55.0873 7.66627L-55.0967 7.66814L-55.134 7.67748L-55.1452 7.67935L-55.1807 7.68682L-55.1919 7.68869L-55.2274 7.69617L-55.2405 7.6999L-55.2742 7.70551L-55.2891 7.70924L-55.3209 7.71485L-55.3358 7.71672L-55.3694 7.72232L-55.3844 7.72606L-55.4162 7.7298L-55.4311 7.73353L-55.4629 7.73727L-55.4797 7.73914L-55.5096 7.74474L-55.5283 7.74661L-55.5581 7.74848L-55.575 7.75222L-55.6049 7.75409L-55.6235 7.75595L-55.6516 7.75969L-55.6721 7.76156L-55.6983 7.76343L-55.7207 7.7653L-55.745 7.76716L-55.7674 7.76903H-55.7936L-55.816 7.7709L-55.8403 7.77277H-55.8646L-55.887 7.77464H-55.9337L-55.9598 7.77651H-56.0757L-56.1037 7.77464H-56.1523L-56.1691 7.77277H-56.199L-56.2158 7.7709L-56.2476 7.76903H-56.2625L-56.2962 7.76716L-56.3092 7.7653L-56.3429 7.76343L-56.3559 7.76156L-56.3896 7.75969L-56.4027 7.75782L-56.4382 7.75409L-56.4494 7.75222L-56.4849 7.74848L-56.4961 7.74661L-56.5334 7.74288L-56.5428 7.74101L-56.5801 7.7354H-56.5895L-56.6269 7.7298L-56.6343 7.72793L-56.6736 7.72232L-56.681 7.72046L-56.7221 7.71298H-56.7277L-56.767 7.70551L-56.7726 7.70364L-56.8137 7.69617L-56.8193 7.6943L-56.8604 7.68496H-56.8641L-56.9071 7.67561H-56.9109L-56.9538 7.6644H-56.9557L-57.0005 7.65319L-57.0454 7.64011L-57.0809 7.63077L-57.0921 7.6289L-57.1145 7.62143L-57.1369 7.61583L-57.1481 7.61209L-57.1818 7.60275L-57.1836 7.60088L-57.2154 7.59154L-57.2285 7.5878L-57.249 7.58033L-57.2752 7.57285L-57.2827 7.56912L-57.3163 7.55791L-57.3182 7.55604L-57.3499 7.5467L-57.3649 7.54109L-57.3835 7.53362L-57.4078 7.52428L-57.4153 7.52241L-57.4489 7.50933L-57.4527 7.50746L-57.4975 7.49064L-57.5143 7.48317L-57.5424 7.47196L-57.5461 7.47009L-57.5797 7.45701L-57.5853 7.45328L-57.6134 7.44207L-57.6302 7.43459L-57.6451 7.42712L-57.6731 7.41591L-57.6769 7.41404L-57.7086 7.39909L-57.7161 7.39536L-57.7404 7.38415L-57.7591 7.37481L-57.7722 7.36733L-57.8021 7.35425L-57.8039 7.35239L-57.8357 7.33557L-57.845 7.33183L-57.8675 7.31875L-57.888 7.30941L-57.8992 7.30194L-57.9291 7.28699H-57.931L-57.9609 7.26831L-57.9721 7.2627L-58.0132 7.24028L-58.0225 7.23281L-58.0543 7.21599L-58.0842 7.19731L-58.0954 7.18984L-58.1141 7.17863L-58.1365 7.16555L-58.144 7.15994L-58.1739 7.13939H-58.1776L-58.2038 7.12071L-58.2168 7.11323L-58.2355 7.10015L-58.2636 7.08147L-58.3364 7.03102L-58.3514 7.01981L-58.3757 7.003L-58.3813 6.99739L-58.4093 6.97684L-58.413 6.97311L-58.4373 6.95442L-58.4672 6.932L-58.4896 6.91332L-58.4952 6.91145L-58.5233 6.88903L-58.5289 6.88342L-58.5513 6.86474L-58.5662 6.85353L-58.5774 6.84232L-58.6017 6.82177L-58.6055 6.81803L-58.6335 6.79561L-58.6391 6.79L-58.6596 6.77132L-58.6765 6.75637L-58.6877 6.74703L-58.712 6.72461L-58.7138 6.72274L-58.74 6.69845L-58.7661 6.6723L-58.783 6.65735L-58.8521 6.58822L-58.8689 6.56954L-58.8876 6.55272L-58.8951 6.54338L-58.9194 6.51722H-58.9212L-58.9455 6.4892L-58.9549 6.47986L-58.9698 6.46304L-67.6895 11.4964ZM102.583 69.0162H102.613C102.764 69.0124 102.9 68.9508 102.998 68.8536C103.1 68.7509 103.162 68.6089 103.162 68.4519C103.162 68.295 103.098 68.153 102.998 68.0502C102.897 67.9493 102.755 67.8877 102.598 67.8877C102.441 67.8877 102.299 67.9512 102.198 68.0521C102.097 68.153 102.034 68.295 102.034 68.4519C102.034 68.6089 102.095 68.7509 102.196 68.8518C102.295 68.9508 102.43 69.0124 102.583 69.0162ZM103.429 85.3962C103.979 85.5438 104.468 85.8334 104.858 86.2239C105.249 86.6144 105.539 87.1058 105.686 87.6532H109.627C108.709 86.5826 107.713 85.5027 106.647 84.4359C105.58 83.369 104.502 82.3732 103.429 81.4558V85.3962ZM105.686 89.316C105.54 89.8653 105.249 90.3567 104.858 90.7472C104.468 91.1377 103.979 91.4273 103.429 91.5749V95.5153C104.502 94.5979 105.58 93.6002 106.647 92.5352C107.713 91.4665 108.709 90.3885 109.627 89.316H105.686ZM101.766 91.5749C101.217 91.4273 100.726 91.1377 100.335 90.7472C99.9447 90.3567 99.6551 89.8653 99.5075 89.316H95.5689C96.4863 90.3885 97.4822 91.4665 98.549 92.5352C99.6158 93.6021 100.694 94.5979 101.766 95.5153V91.5749ZM99.5075 87.6532C99.6551 87.1058 99.9447 86.6144 100.335 86.2239C100.726 85.8334 101.217 85.5419 101.766 85.3962V81.4558C100.694 82.3732 99.6158 83.369 98.549 84.4359C97.4822 85.5027 96.4863 86.5826 95.5689 87.6532H99.5075ZM103.683 87.3991C103.411 87.1263 103.033 86.9544 102.616 86.9488H102.577C102.161 86.9544 101.783 87.1263 101.51 87.3991C101.232 87.6756 101.06 88.0605 101.06 88.4846C101.06 88.9087 101.232 89.2955 101.51 89.572C101.783 89.8448 102.161 90.0167 102.577 90.0223H102.616C103.033 90.0167 103.411 89.8448 103.683 89.572C103.962 89.2955 104.134 88.9087 104.134 88.4846C104.134 88.0605 103.962 87.6756 103.683 87.3991ZM117.003 102.89C115.441 104.452 112.39 104.102 108.72 102.279C107.074 101.459 105.281 100.339 103.429 98.9662V106.455C103.709 106.567 103.96 106.737 104.171 106.946C104.575 107.348 104.825 107.904 104.825 108.519C104.825 109.13 104.575 109.687 104.173 110.09L104.167 110.094C103.764 110.498 103.209 110.746 102.598 110.746C101.983 110.746 101.426 110.496 101.023 110.094L100.974 110.038C100.6 109.64 100.371 109.106 100.371 108.519C100.371 107.906 100.621 107.348 101.023 106.944C101.234 106.735 101.486 106.567 101.766 106.453V98.9662C99.9148 100.339 98.1211 101.459 96.4751 102.279C92.8056 104.102 89.7546 104.452 88.1926 102.89C86.6306 101.33 86.98 98.2768 88.8054 94.6073C89.6238 92.9612 90.7429 91.1676 92.1162 89.316H84.6277C84.5157 89.5944 84.3475 89.8467 84.1382 90.0559L84.1326 90.0615C83.7291 90.4632 83.1742 90.7117 82.5632 90.7117C81.9504 90.7117 81.3917 90.4632 80.99 90.0597L80.9396 90.0055C80.5659 89.6056 80.3361 89.0713 80.3361 88.4846C80.3361 87.8718 80.5865 87.3131 80.99 86.9114C81.3917 86.5079 81.9504 86.2575 82.5632 86.2575C83.176 86.2575 83.7328 86.5079 84.1364 86.9133C84.3475 87.1226 84.5157 87.3729 84.6296 87.6532H92.1162C90.7429 85.8016 89.6238 84.008 88.8054 82.362C86.98 78.6943 86.6306 75.6414 88.1926 74.0795C89.7546 72.5175 92.8056 72.8669 96.4751 74.6923C98.1211 75.5106 99.9148 76.6298 101.766 78.0049V70.5165C101.488 70.4025 101.236 70.2362 101.026 70.027L101.023 70.0214C100.619 69.6178 100.371 69.0629 100.371 68.4519C100.371 67.8372 100.621 67.2804 101.023 66.8769C101.426 66.4752 101.983 66.2248 102.598 66.2248C103.209 66.2248 103.767 66.4752 104.171 66.8788C104.575 67.2804 104.825 67.8372 104.825 68.4519C104.825 69.0629 104.575 69.6197 104.173 70.0232L104.167 70.027C103.958 70.2362 103.708 70.4044 103.429 70.5165V78.0049C105.281 76.6298 107.074 75.5106 108.72 74.6923C112.39 72.8669 115.441 72.5175 117.003 74.0795C118.565 75.6414 118.215 78.6943 116.39 82.362C115.572 84.008 114.453 85.8016 113.077 87.6532H120.566C120.68 87.3748 120.848 87.1244 121.057 86.9133L121.061 86.9096C121.465 86.5079 122.021 86.2575 122.63 86.2575C123.243 86.2575 123.8 86.5079 124.204 86.9133C124.609 87.3131 124.858 87.8718 124.858 88.4846C124.858 89.0974 124.609 89.6524 124.206 90.0559L124.202 90.0615C123.798 90.4632 123.241 90.7117 122.63 90.7117C122.02 90.7117 121.465 90.4632 121.059 90.0597L121.055 90.0559C120.846 89.8448 120.678 89.5944 120.566 89.316H113.077C114.453 91.1676 115.572 92.9612 116.39 94.6073C118.215 98.2768 118.565 101.33 117.003 102.89ZM101.266 97.266C99.969 96.1879 98.6611 94.9978 97.3738 93.7086C96.0846 92.4213 94.8945 91.1134 93.8183 89.8168C92.3348 91.7599 91.1409 93.6413 90.2927 95.3472C88.7961 98.3552 88.3682 100.717 89.3678 101.716C90.3655 102.714 92.7272 102.288 95.7352 100.792C97.4429 99.9415 99.3225 98.7476 101.266 97.266ZM103.928 79.7051C105.227 80.7832 106.533 81.9733 107.822 83.2606C109.109 84.5498 110.299 85.8577 111.377 87.1543C112.861 85.2112 114.055 83.3298 114.903 81.6221C116.399 78.614 116.827 76.2542 115.828 75.2547C114.83 74.257 112.468 74.6829 109.46 76.1795C107.753 77.0296 105.871 78.2235 103.928 79.7051ZM109.46 100.792C112.468 102.288 114.83 102.714 115.828 101.716C116.827 100.717 116.399 98.3552 114.903 95.3472C114.055 93.6395 112.859 91.7599 111.377 89.8168C110.299 91.1134 109.109 92.4213 107.822 93.7086C106.533 94.9978 105.227 96.1861 103.928 97.2641C105.871 98.7476 107.753 99.9415 109.46 100.792ZM101.266 79.7051C99.3225 78.2235 97.4429 77.0296 95.7352 76.1795C92.7272 74.6829 90.3655 74.257 89.3678 75.2547C88.3682 76.2542 88.7961 78.614 90.2927 81.6221C91.1409 83.3298 92.3367 85.2112 93.8183 87.1543C94.8963 85.8577 96.0846 84.5498 97.3738 83.2606C98.6611 81.9733 99.969 80.7832 101.266 79.7051ZM123.032 88.8863C123.133 88.7854 123.195 88.6434 123.195 88.4846C123.195 88.3295 123.133 88.1875 123.03 88.0867C122.931 87.9839 122.789 87.9204 122.63 87.9204C122.474 87.9204 122.332 87.9839 122.232 88.0829C122.132 88.1819 122.07 88.3183 122.066 88.4697V88.4996C122.07 88.6528 122.132 88.7873 122.229 88.8844C122.332 88.9872 122.474 89.0489 122.63 89.0489C122.789 89.0489 122.931 88.9872 123.032 88.8863ZM82.9649 88.8863C83.0621 88.7873 83.1237 88.6528 83.1275 88.4996V88.4697C83.1237 88.3202 83.0621 88.1838 82.963 88.0867C82.864 87.9839 82.722 87.9204 82.5632 87.9204C82.4081 87.9204 82.2661 87.9839 82.1634 88.0867C82.0625 88.1875 81.9989 88.3295 81.9989 88.4846C81.9989 88.6303 82.0513 88.7611 82.1372 88.8583L82.1634 88.8844C82.2661 88.9853 82.4081 89.0489 82.5632 89.0489C82.722 89.0489 82.864 88.9872 82.9649 88.8863ZM102.998 108.117C102.9 108.02 102.764 107.959 102.613 107.955H102.583C102.433 107.959 102.297 108.02 102.198 108.119C102.097 108.222 102.034 108.364 102.034 108.519C102.034 108.665 102.086 108.796 102.172 108.893L102.198 108.919C102.299 109.02 102.441 109.083 102.598 109.083C102.755 109.083 102.897 109.022 102.998 108.921C103.1 108.82 103.162 108.678 103.162 108.519C103.162 108.364 103.098 108.222 102.998 108.117ZM23.7599 12.7837L32.0648 16.9969L32.0686 16.9988L32.0816 17.0063L32.0872 17.0081L32.1003 17.0156L32.1171 17.0268L32.1246 17.0306L32.1339 17.0362L32.1414 17.0418L32.1601 17.053L32.1676 17.0586L32.1769 17.0642L32.1844 17.0698L32.1937 17.0773L32.2012 17.081L32.2105 17.0885L32.2162 17.0941L32.2255 17.1016L32.2311 17.1072L32.2423 17.1165L32.246 17.1202L32.2573 17.1296L32.2629 17.1333L32.2722 17.1427L32.2759 17.1483L32.2853 17.1576L32.2909 17.1613L32.3002 17.1726L32.3058 17.1763L32.3133 17.1875L32.3283 17.2024L32.332 17.2081L32.3395 17.2174L32.3451 17.2249L32.3525 17.2342L32.3582 17.2398L32.3638 17.2492L32.3694 17.2566L32.3768 17.266L32.3824 17.2734L32.3937 17.2921L32.3974 17.2996L32.4049 17.3089L32.4086 17.3164L32.4161 17.3276L32.4179 17.3332L32.4254 17.3463L32.4273 17.3519L32.4348 17.365L32.4366 17.3687L32.4385 17.3706L32.4404 17.3762L32.4441 17.3818L32.446 17.3874L32.4516 17.3986L32.4534 17.4061L32.4572 17.4098L32.459 17.4173L32.4628 17.4285L32.4665 17.4341L32.4684 17.4397V17.4435L32.4703 17.4453L32.4815 17.479H32.4833L32.4852 17.4864L32.4889 17.4977V17.5033L32.4927 17.5089V17.5145L32.4945 17.5182V17.5201L32.4964 17.5257L32.4983 17.5331V17.5369L32.5002 17.5388V17.5444L32.5058 17.5612V17.5668L32.5076 17.5761L32.5095 17.5799V17.5855L32.517 17.6322V17.634C32.5226 17.6695 32.5244 17.705 32.5263 17.7387V28.323C32.5263 28.6687 32.3152 28.9657 32.0125 29.0909L23.773 33.2705L23.7599 33.2779L23.7412 33.2873H23.7375L23.7207 33.2947L23.7188 33.2966L23.702 33.3041H23.7001L23.6814 33.3116L23.6646 33.3172L23.6627 33.319L23.6441 33.3246H23.6422L23.6254 33.3302L23.6216 33.3321L23.6067 33.3358L23.603 33.3377L23.588 33.3415L23.5824 33.3433L23.5488 33.3508H23.5432L23.5301 33.3527L23.5226 33.3545L23.5095 33.3564L23.5021 33.3583L23.4909 33.3601H23.4834L23.4703 33.362H23.4628L23.4498 33.3639H23.4423L23.4292 33.3657H23.3414L23.3302 33.3639H23.3208L23.3096 33.362H23.3021L23.2891 33.3601H23.2816L23.2685 33.3583L23.2629 33.3564L23.2498 33.3545L23.2424 33.3527L23.2293 33.3508H23.2237L23.1882 33.3433L23.1844 33.3415L23.1695 33.3377L23.1658 33.3358L23.1489 33.3321L23.1452 33.3302L23.1284 33.3246H23.1265L23.1097 33.319L23.1078 33.3172L23.0892 33.3116L23.0518 33.2966V33.2947L23.035 33.2873H23.0312L23.0126 33.2779L22.9995 33.2705L14.7581 29.0909C14.4573 28.9657 14.2461 28.6687 14.2461 28.323V17.7387C14.2461 17.7013 14.2499 17.6639 14.2555 17.6266V17.621L14.2592 17.5967L14.2611 17.5911V17.5855L14.263 17.5817V17.5799L14.2648 17.5743V17.5668L14.2667 17.563V17.5612L14.2686 17.5556V17.55L14.2704 17.5444L14.2723 17.5425V17.5388L14.2742 17.5331L14.276 17.5257V17.5201L14.2872 17.4864L14.2891 17.4827V17.479L14.2929 17.4678V17.4659L14.2947 17.4622L14.3003 17.4453L14.3022 17.4435L14.3041 17.4397L14.3097 17.4229L14.3134 17.4173L14.3153 17.4098L14.3171 17.4061L14.319 17.4042L14.3227 17.393L14.3265 17.3874V17.3855L14.3284 17.3818L14.3302 17.3762L14.334 17.3706L14.3358 17.365L14.3396 17.3575L14.3452 17.35L14.3601 17.3202L14.3657 17.3127L14.3695 17.3052L14.3751 17.2977L14.3788 17.2921L14.3881 17.2772L14.39 17.2734L14.3937 17.2697L14.3975 17.2641L14.4012 17.2566H14.4031L14.4068 17.2492L14.4124 17.2436L14.4162 17.2361L14.4218 17.2286L14.4274 17.2249V17.223L14.433 17.2174L14.4386 17.2099L14.4405 17.2081L14.4423 17.2043L14.4479 17.1968L14.4535 17.1931V17.1912L14.4591 17.1856L14.4647 17.1782L14.476 17.1669L14.4816 17.1632V17.1613L14.4946 17.1483L14.5002 17.1445L14.5059 17.1389L14.5096 17.1333H14.5115L14.5171 17.1277L14.5245 17.1221V17.1202L14.5301 17.1165L14.5413 17.1053L14.5488 17.0997L14.5544 17.096L14.56 17.0903L14.5675 17.0847L14.5731 17.0791L14.5806 17.0754L14.5862 17.0698H14.5881L14.5937 17.0661L14.5993 17.0605L14.6049 17.0586L14.6123 17.0511L14.6198 17.0474H14.6217L14.6254 17.0436L14.6329 17.038L14.6553 17.0268L14.6609 17.0212L14.6721 17.0156L14.674 17.0137L14.7076 16.9969L23.0126 12.7837C23.2554 12.6604 23.532 12.6698 23.7599 12.7837ZM15.6063 7.145C15.6063 7.49064 15.7464 7.80266 15.9706 8.02687C16.1949 8.25294 16.5087 8.39307 16.8525 8.39307C17.1982 8.39307 17.5102 8.25294 17.7363 8.02874C17.9586 7.80266 18.0987 7.49064 18.0987 7.145C18.0987 7.03476 18.0894 6.93761 18.0688 6.85353C18.0483 6.76572 18.0128 6.67417 17.9661 6.58262L17.9493 6.54898C17.8465 6.35654 17.6914 6.19586 17.5065 6.08189C17.3196 5.96605 17.0935 5.89879 16.8525 5.89879C16.6115 5.89879 16.3873 5.96605 16.1986 6.08189C16.0043 6.20147 15.8436 6.37523 15.739 6.57888C15.6923 6.67417 15.6586 6.76572 15.6362 6.85353C15.6175 6.93761 15.6063 7.03476 15.6063 7.145ZM14.0201 7.81387C13.9696 7.59901 13.9435 7.37481 13.9435 7.145C13.9435 6.92266 13.9734 6.69659 14.0275 6.47051C14.0817 6.23883 14.1602 6.02397 14.2592 5.82966C14.5059 5.35136 14.8795 4.94592 15.3354 4.66566C15.7782 4.39475 16.2995 4.23594 16.8525 4.23594C17.4056 4.23594 17.9268 4.39475 18.3696 4.66566C18.8106 4.93658 19.1749 5.32333 19.4178 5.77921L19.4458 5.82966C19.5449 6.02397 19.6233 6.23883 19.6794 6.47051C19.7336 6.69659 19.7616 6.92266 19.7616 7.145C19.7616 7.9484 19.4346 8.67706 18.9096 9.20208C18.379 9.72896 17.6541 10.0541 16.8525 10.0541C16.0771 10.0541 15.369 9.74951 14.8478 9.25252L7.71992 13.3424L7.68816 24.3415C7.68816 24.7974 7.31821 25.1692 6.86047 25.1692C6.40458 25.1692 6.03278 24.7974 6.03278 24.3415L6.06454 12.922C6.04211 12.6119 6.19346 12.3017 6.48119 12.1392L14.0201 7.81387ZM39.1628 25.3149C39.1628 25.6587 39.3029 25.9726 39.5271 26.1968L39.5589 26.2286C39.7793 26.4341 40.0801 26.5611 40.409 26.5611C40.7546 26.5611 41.0666 26.421 41.2908 26.1968C41.5151 25.9726 41.6552 25.6587 41.6552 25.3149C41.6552 25.2047 41.6458 25.1057 41.6253 25.0216C41.6047 24.9338 41.5692 24.8422 41.5225 24.7507L41.5057 24.717C41.4029 24.5265 41.2479 24.3639 41.0629 24.25C40.8761 24.136 40.65 24.0687 40.409 24.0687C40.168 24.0687 39.9437 24.136 39.755 24.25C39.5607 24.3695 39.4001 24.5433 39.2973 24.7488C39.2506 24.8422 39.2151 24.9338 39.1945 25.0216C39.174 25.1057 39.1628 25.2047 39.1628 25.3149ZM38.3519 27.372C37.8269 26.8451 37.4999 26.1183 37.4999 25.3149C37.4999 25.0926 37.5298 24.8646 37.584 24.6386C37.6382 24.4088 37.7166 24.192 37.8157 23.9977C38.0623 23.5194 38.436 23.1158 38.8919 22.8356C39.1086 22.7029 39.3421 22.5983 39.5888 22.5254L39.6112 14.3102L30.0974 8.78169C29.7013 8.55375 29.5668 8.04555 29.7947 7.64946C30.0246 7.25336 30.5328 7.11697 30.9288 7.34678L40.8555 13.1163C41.1358 13.277 41.2852 13.5778 41.2684 13.8786L41.2441 22.5292C41.487 22.602 41.715 22.7048 41.9261 22.8356C42.367 23.1046 42.7314 23.4914 42.9743 23.9491L43.0023 23.9977C43.1013 24.192 43.1798 24.4088 43.2358 24.6386C43.29 24.8646 43.318 25.0926 43.318 25.3149C43.318 26.1183 42.9911 26.8451 42.466 27.372C41.9392 27.897 41.2124 28.224 40.409 28.224C39.6336 28.224 38.9274 27.9176 38.4042 27.4187L38.3519 27.372ZM11.6491 36.6317C11.6491 36.9754 11.7892 37.2875 12.0134 37.5135C12.2395 37.7377 12.5515 37.8779 12.8953 37.8779C13.241 37.8779 13.5548 37.7377 13.7791 37.5135C14.0033 37.2875 14.1415 36.9754 14.1415 36.6317C14.1415 36.5214 14.1322 36.4224 14.1116 36.3383C14.0911 36.2505 14.0556 36.159 14.0089 36.0674L13.992 36.0338C13.8893 35.8413 13.7342 35.6807 13.5492 35.5667C13.3624 35.4527 13.1382 35.3855 12.8953 35.3855C12.6543 35.3855 12.4301 35.4527 12.2414 35.5667C12.0471 35.6863 11.8864 35.86 11.7836 36.0637C11.7369 36.159 11.7014 36.2505 11.6809 36.3383C11.6603 36.4224 11.6491 36.5214 11.6491 36.6317ZM10.8401 38.6869C10.3132 38.1619 9.98625 37.4332 9.98625 36.6317C9.98625 36.4075 10.0161 36.1814 10.0703 35.9553C10.1245 35.7236 10.203 35.5088 10.302 35.3145C10.5486 34.8362 10.9223 34.4307 11.3782 34.1505C11.8229 33.8795 12.3423 33.7226 12.8953 33.7226C13.4483 33.7226 13.9696 33.8795 14.4124 34.1505C14.8534 34.4214 15.2177 34.8081 15.4606 35.2659L15.4886 35.3145C15.5876 35.5088 15.6661 35.7236 15.7222 35.9553C15.7763 36.1814 15.8044 36.4075 15.8044 36.6317C15.8044 36.8671 15.7763 37.095 15.724 37.3155L22.8257 41.4408L32.3712 35.9646C32.7692 35.7386 33.2774 35.875 33.5053 36.2729C33.7314 36.6728 33.5931 37.1791 33.1952 37.407L23.2368 43.1205C22.9546 43.2812 22.6183 43.2588 22.3661 43.0925L14.8889 38.7485C14.3657 39.238 13.6651 39.5407 12.8953 39.5407C12.0938 39.5407 11.3651 39.2137 10.8401 38.6869ZM30.8635 19.0895L26.2448 21.4324C26.2785 21.6081 26.2953 21.7818 26.2953 21.9537C26.2953 22.7571 25.9683 23.4858 25.4433 24.0108C25.1051 24.3471 24.6866 24.6031 24.2177 24.7432V31.1854L30.8635 27.8148V19.0895ZM24.483 21.3577C24.3802 21.1671 24.2251 21.0046 24.0402 20.8906C23.8514 20.7748 23.6272 20.7075 23.3862 20.7075C23.1452 20.7075 22.9191 20.7748 22.7323 20.8906C22.5455 21.0046 22.3923 21.1671 22.2876 21.3577L22.2727 21.3913C22.226 21.4829 22.1905 21.5744 22.1699 21.6623C22.1494 21.7463 22.14 21.8435 22.14 21.9537C22.14 22.2994 22.2802 22.6114 22.5044 22.8356C22.7286 23.0617 23.0406 23.2018 23.3862 23.2018C23.73 23.2018 24.0439 23.0617 24.2681 22.8356C24.4923 22.6114 24.6324 22.2994 24.6324 21.9537C24.6324 21.8435 24.6212 21.7463 24.6025 21.6623C24.5801 21.5744 24.5465 21.4829 24.4998 21.3913L24.483 21.3577ZM25.4938 19.9546L29.862 17.7387L23.3862 14.4541L16.9086 17.7387L21.2768 19.9546C21.4525 19.7696 21.6524 19.6089 21.8691 19.4744C22.3119 19.2035 22.8332 19.0447 23.3862 19.0447C23.9393 19.0447 24.4605 19.2035 24.9033 19.4744C25.1201 19.6089 25.32 19.7696 25.4938 19.9546ZM20.5276 21.4324L15.9071 19.0895V27.8148L22.5548 31.1854V24.7432C22.0858 24.6031 21.6655 24.3471 21.3291 24.0108C20.8041 23.4858 20.4772 22.7571 20.4772 21.9537C20.4772 21.7818 20.494 21.6081 20.5276 21.4324ZM103.713 8.83401C107.065 10.8332 110.516 12.7576 113.903 14.7063L115.469 13.802C115.376 13.3779 115.389 12.9407 115.499 12.5315C115.676 11.8645 116.112 11.2648 116.758 10.8911L116.82 10.8593C117.453 10.5137 118.165 10.4464 118.812 10.6183C119.479 10.7977 120.08 11.233 120.454 11.8795C120.827 12.5259 120.904 13.2639 120.725 13.9328C120.547 14.5979 120.11 15.1996 119.462 15.5732C118.815 15.9469 118.077 16.0235 117.412 15.846C117.003 15.7358 116.618 15.5284 116.295 15.2369L114.731 16.1393L114.733 27.9082L116.297 28.8125C116.62 28.5211 117.003 28.3137 117.412 28.2053C118.057 28.0334 118.767 28.0988 119.396 28.4388C119.45 28.4631 119.501 28.493 119.548 28.5285C120.149 28.9041 120.555 29.4814 120.725 30.1185C120.902 30.7837 120.826 31.5198 120.454 32.17C120.08 32.8183 119.479 33.2518 118.812 33.4311C118.146 33.6086 117.408 33.532 116.762 33.1602C116.114 32.7847 115.676 32.1831 115.499 31.5179C115.389 31.1087 115.376 30.6734 115.467 30.2493L113.901 29.345L103.711 35.2266L103.709 37.0352C104.122 37.1679 104.492 37.3977 104.793 37.6966C105.284 38.1899 105.589 38.8681 105.589 39.6117C105.589 40.3572 105.284 41.0354 104.795 41.5249L104.743 41.5716C104.257 42.0331 103.603 42.3171 102.882 42.3171C102.138 42.3171 101.462 42.0126 100.972 41.5249C100.483 41.0335 100.178 40.3572 100.178 39.6117C100.178 38.8644 100.483 38.188 100.969 37.7004C101.271 37.3996 101.641 37.1679 102.054 37.0352V35.2192C98.7022 33.2181 95.2495 31.2937 91.8602 29.345L90.2964 30.2474C90.3879 30.6734 90.3749 31.1087 90.2665 31.5179C90.0871 32.1849 89.6518 32.7865 89.0054 33.1602L88.9456 33.192C88.3122 33.5376 87.6003 33.603 86.952 33.4311C86.285 33.2518 85.6853 32.8183 85.3116 32.1719C84.9379 31.5235 84.8613 30.7855 85.0388 30.1185C85.2182 29.4515 85.6535 28.8499 86.3018 28.4762C86.9501 28.1025 87.6863 28.0278 88.3514 28.2053C88.7625 28.3155 89.1474 28.5211 89.4687 28.8125L91.0344 27.9101L91.0307 16.1412L89.4668 15.2369C89.1455 15.5303 88.7606 15.7358 88.3514 15.8441C87.7068 16.0179 86.9987 15.9525 86.3672 15.6106C86.3149 15.5863 86.2645 15.5564 86.2177 15.5228C85.6161 15.1454 85.2088 14.5699 85.0388 13.9328C84.8613 13.2658 84.9379 12.5296 85.3116 11.8813C85.6853 11.233 86.285 10.7977 86.952 10.6183C87.619 10.4408 88.3552 10.5174 89.0016 10.8911C89.6499 11.2648 90.0871 11.8664 90.2665 12.5315C90.3749 12.9407 90.3879 13.376 90.2964 13.802L91.8621 14.7063L102.05 8.82466V7.01421C101.639 6.88156 101.271 6.65175 100.972 6.35281C100.479 5.85955 100.176 5.1832 100.176 4.43959C100.176 3.69411 100.479 3.01963 100.969 2.52825C101.462 2.03686 102.138 1.73232 102.882 1.73232C103.627 1.73232 104.302 2.03686 104.793 2.52638C105.284 3.01963 105.589 3.69411 105.589 4.43959C105.589 5.1832 105.284 5.85955 104.795 6.34907C104.494 6.64988 104.124 6.88156 103.713 7.01421V8.83401ZM98.9358 18.7924C99.3318 19.0185 99.4682 19.5248 99.2422 19.9209C99.0142 20.317 98.5079 20.4534 98.1118 20.2273L92.6935 17.0978V26.9498L98.1081 23.824C98.5042 23.5942 99.0124 23.7305 99.2422 24.1266C99.4701 24.5227 99.3356 25.0291 98.9395 25.2589L93.5212 28.3884L102.054 33.3153V27.0581C102.054 26.6004 102.426 26.2304 102.882 26.2304C103.34 26.2304 103.709 26.6004 103.709 27.0581L103.711 33.3153L112.246 28.3865L106.828 25.2589C106.432 25.0309 106.295 24.5246 106.523 24.1285C106.751 23.7324 107.257 23.596 107.654 23.824L113.07 26.9516V17.0997L107.655 20.2255C107.259 20.4553 106.753 20.3208 106.523 19.9247C106.293 19.5286 106.428 19.0204 106.824 18.7906L112.244 15.6629L107.977 13.1985L103.713 10.736V16.9932C103.713 17.4509 103.341 17.8246 102.882 17.8246C102.424 17.8246 102.05 17.4509 102.05 16.9932V10.736L93.5175 15.6648L98.9358 18.7924ZM102.882 19.3193C103.627 19.3193 104.302 19.622 104.793 20.1115C105.284 20.6048 105.589 21.2811 105.589 22.0247C105.589 22.7702 105.284 23.4447 104.795 23.9361C104.302 24.4274 103.627 24.732 102.882 24.732C102.138 24.732 101.462 24.4274 100.972 23.9379C100.479 23.4447 100.176 22.7702 100.176 22.0247C100.176 21.2811 100.479 20.6048 100.969 20.1152C101.462 19.622 102.138 19.3193 102.882 19.3193ZM103.622 21.2848C103.433 21.098 103.171 20.9822 102.882 20.9822C102.592 20.9822 102.331 21.098 102.142 21.2848C101.955 21.4735 101.839 21.7351 101.839 22.0247C101.839 22.3143 101.955 22.5759 102.142 22.7646C102.331 22.9514 102.592 23.0691 102.882 23.0691C103.171 23.0691 103.433 22.9514 103.622 22.7646C103.808 22.5759 103.926 22.3143 103.926 22.0247C103.926 21.7351 103.808 21.4735 103.622 21.2848ZM88.5364 13.7927L88.5383 13.7908L88.5495 13.7721L88.5588 13.7534L88.57 13.7366C88.7045 13.4919 88.7288 13.2135 88.6616 12.9612C88.5924 12.7015 88.4243 12.468 88.1777 12.326C87.9292 12.1821 87.6414 12.1541 87.3817 12.2232C87.1351 12.2886 86.9128 12.4456 86.767 12.6754L86.7185 12.7576C86.5989 12.9949 86.5783 13.2602 86.6437 13.5031C86.7072 13.746 86.8586 13.9646 87.0791 14.1084L87.1631 14.1551C87.4042 14.284 87.6751 14.3083 87.9236 14.2411C88.1702 14.1757 88.3944 14.0206 88.5364 13.7927ZM86.6437 30.5464C86.5746 30.8061 86.6026 31.0919 86.7465 31.3404C86.8904 31.5889 87.1239 31.7589 87.3817 31.8262C87.6246 31.8916 87.8899 31.871 88.1254 31.7533L88.215 31.6992C88.443 31.5534 88.5962 31.333 88.6616 31.0882C88.727 30.8472 88.7064 30.5819 88.5868 30.3465L88.5345 30.2549C88.3888 30.027 88.1665 29.8738 87.9236 29.8084C87.662 29.7392 87.3761 29.7673 87.1276 29.9111C86.881 30.0531 86.7129 30.2867 86.6437 30.5464ZM102.142 40.3516C102.331 40.5384 102.592 40.6543 102.882 40.6543C103.156 40.6543 103.405 40.5496 103.592 40.3796L103.62 40.3497C103.808 40.161 103.926 39.8994 103.926 39.6117C103.926 39.3221 103.808 39.0587 103.622 38.87C103.433 38.6831 103.171 38.5673 102.882 38.5673C102.592 38.5673 102.331 38.6831 102.142 38.87C101.953 39.0624 101.834 39.324 101.834 39.6117C101.834 39.8976 101.953 40.1591 102.142 40.3516ZM117.227 30.2568L117.225 30.2586L117.216 30.2773L117.205 30.296L117.195 30.3147C117.061 30.5576 117.035 30.836 117.102 31.0882C117.171 31.3479 117.339 31.5814 117.586 31.7253C117.834 31.8673 118.122 31.8972 118.384 31.8262C118.628 31.7608 118.853 31.6057 118.996 31.3741L119.045 31.2918C119.165 31.0564 119.185 30.7893 119.122 30.5464C119.056 30.3035 118.907 30.0849 118.686 29.941L118.6 29.8943C118.361 29.7654 118.088 29.743 117.842 29.8084C117.593 29.8738 117.369 30.0288 117.227 30.2568ZM119.122 13.5031C119.191 13.2434 119.161 12.9594 119.019 12.7109C118.873 12.4605 118.641 12.2924 118.384 12.2232C118.141 12.1578 117.875 12.1784 117.64 12.298L117.548 12.3503C117.322 12.496 117.167 12.7165 117.102 12.9612C117.038 13.2041 117.059 13.4676 117.177 13.7049L117.231 13.7945C117.377 14.0225 117.597 14.1757 117.842 14.2411C118.102 14.3121 118.389 14.2822 118.638 14.1383C118.884 13.9963 119.053 13.7628 119.122 13.5031ZM103.622 3.69972C103.433 3.51288 103.171 3.39517 102.882 3.39517C102.592 3.39517 102.331 3.51288 102.142 3.69972C101.955 3.88842 101.839 4.14999 101.839 4.43959C101.839 4.72919 101.955 4.99076 102.142 5.17947C102.331 5.3663 102.592 5.48401 102.882 5.48401C103.171 5.48401 103.433 5.3663 103.622 5.17947C103.808 4.99076 103.926 4.72919 103.926 4.43959C103.926 4.14999 103.808 3.88842 103.622 3.69972ZM-35.7048 101.294L-35.7758 101.417C-36.2261 102.163 -36.9323 102.666 -37.7152 102.875C-38.4962 103.084 -39.3556 103.002 -40.1179 102.583C-40.1684 102.561 -40.2169 102.533 -40.2599 102.499C-40.996 102.047 -41.493 101.348 -41.7004 100.573C-41.9153 99.7715 -41.8237 98.884 -41.3735 98.1049C-40.925 97.3276 -40.202 96.8045 -39.3986 96.5896C-38.5952 96.3748 -37.7077 96.4663 -36.9305 96.9166L-36.8763 96.9483C-36.1271 97.4005 -35.6245 98.1086 -35.4152 98.8896C-35.206 99.6706 -35.2863 100.53 -35.7048 101.294ZM-38.1449 101.27C-37.7544 101.167 -37.4032 100.913 -37.1827 100.539L-37.1752 100.528C-36.9566 100.149 -36.9137 99.7135 -37.0183 99.3193C-37.121 98.9363 -37.3639 98.5906 -37.7227 98.372L-37.76 98.3515C-38.1412 98.131 -38.5765 98.0862 -38.9689 98.1927C-39.3631 98.2973 -39.7181 98.5551 -39.9385 98.9363C-40.1571 99.3156 -40.202 99.7509 -40.0955 100.145C-39.9946 100.526 -39.7517 100.87 -39.3949 101.091L-39.3519 101.113C-38.9726 101.332 -38.5391 101.376 -38.1449 101.27ZM-76.3083 101.337C-76.7474 100.564 -76.8352 99.6855 -76.6222 98.8896C-76.4073 98.0899 -75.8842 97.3669 -75.1069 96.9166C-74.3278 96.4663 -73.4422 96.3748 -72.6388 96.5896C-71.8354 96.8045 -71.1124 97.3276 -70.6639 98.1049C-70.2137 98.884 -70.1221 99.7715 -70.337 100.573C-70.5518 101.375 -71.075 102.096 -71.8541 102.546C-72.6313 102.996 -73.5188 103.09 -74.3204 102.875C-75.1238 102.66 -75.8468 102.137 -76.2952 101.36L-76.3083 101.337ZM-75.0191 99.3193C-75.12 99.6986 -75.0826 100.117 -74.8846 100.487L-74.8342 100.573C-74.6137 100.928 -74.2699 101.169 -73.8925 101.27C-73.5113 101.373 -73.0947 101.333 -72.7248 101.135L-72.6239 101.077C-72.2764 100.859 -72.0409 100.519 -71.9419 100.145C-71.8354 99.7509 -71.8784 99.3156 -72.0989 98.9363C-72.3193 98.5551 -72.6724 98.2973 -73.0667 98.1927C-73.4609 98.0862 -73.8962 98.131 -74.2755 98.3515C-74.6567 98.5682 -74.9126 98.9232 -75.0191 99.3193ZM-56.0178 66.2323C-55.1228 66.2323 -54.3101 66.5985 -53.7197 67.187C-53.1293 67.7793 -52.7631 68.592 -52.7631 69.487C-52.7631 70.382 -53.1293 71.1966 -53.7178 71.7851C-54.3101 72.3774 -55.1228 72.7417 -56.0178 72.7417C-56.9146 72.7417 -57.7273 72.3774 -58.3159 71.7888C-58.9081 71.1966 -59.2725 70.382 -59.2725 69.487C-59.2725 68.592 -58.9081 67.7793 -58.3196 67.1889C-57.7273 66.5985 -56.9146 66.2323 -56.0178 66.2323ZM-54.8911 68.3604C-55.1789 68.0745 -55.5787 67.8951 -56.0178 67.8951C-56.4587 67.8951 -56.8585 68.0745 -57.1463 68.3604C-57.4321 68.6481 -57.6096 69.0461 -57.6096 69.487C-57.6096 69.9279 -57.4321 70.3278 -57.1463 70.6155C-56.8585 70.9014 -56.4587 71.0789 -56.0178 71.0789C-55.5787 71.0789 -55.1789 70.9014 -54.8911 70.6155C-54.6053 70.3278 -54.4259 69.9279 -54.4259 69.487C-54.4259 69.0461 -54.6053 68.6481 -54.8911 68.3604ZM-38.087 78.7579C-37.8067 78.9204 -37.6573 79.2212 -37.6741 79.522L-37.6946 86.3734C-37.6946 86.8292 -38.0646 87.201 -38.5223 87.201C-38.9782 87.201 -39.35 86.8292 -39.35 86.3734L-39.3313 79.9536L-44.8804 76.7288C-45.2765 76.499 -45.4129 75.9927 -45.1831 75.5966C-44.9533 75.2005 -44.4451 75.0641 -44.049 75.2939L-38.087 78.7579ZM-55.5525 110.627C-55.8347 110.789 -56.171 110.767 -56.4251 110.599L-62.3441 107.159C-62.7402 106.931 -62.8747 106.423 -62.6468 106.027C-62.4169 105.631 -61.9087 105.496 -61.5127 105.724L-55.9636 108.949L-50.3958 105.754C-49.9979 105.526 -49.4897 105.664 -49.2617 106.062C-49.0357 106.46 -49.1739 106.968 -49.5719 107.196L-55.5525 110.627ZM-72.7603 80.0508L-72.7789 86.4649C-72.7789 86.9208 -73.1489 87.2926 -73.6066 87.2926C-74.0644 87.2926 -74.4343 86.9208 -74.4343 86.4649L-74.4156 79.6304C-74.4381 79.3203 -74.2867 79.0101 -73.999 78.8475L-68.0183 75.4153C-67.6204 75.1874 -67.1122 75.3257 -66.8842 75.7236C-66.6582 76.1216 -66.7945 76.6298 -67.1925 76.8577L-72.7603 80.0508ZM-55.646 96.2178L-55.6553 96.2234H-55.6572L-55.6665 96.229H-55.6684L-55.6777 96.2328L-55.6889 96.2384L-55.6908 96.2402L-55.6983 96.2421L-55.7095 96.2477L-55.7319 96.2552L-55.7375 96.2589H-55.7431L-55.7487 96.2627H-55.7543L-55.7618 96.2664H-55.7655L-55.773 96.2701H-55.7767L-55.7842 96.2739H-55.788L-55.7973 96.2776H-55.7992L-55.8328 96.2869H-55.8347L-55.844 96.2888H-55.8459L-55.8571 96.2907H-55.859L-55.8814 96.2963H-55.8926V96.2982H-55.9038L-55.9169 96.3L-55.9281 96.3019H-55.9412V96.3038H-55.9524L-55.9636 96.3056H-55.9897L-55.9991 96.3075H-56.0365L-56.0477 96.3056H-56.0738L-56.085 96.3038H-56.0962V96.3019H-56.1075L-56.1205 96.3L-56.1317 96.2982H-56.1448V96.2963H-56.156L-56.1784 96.2907H-56.1803L-56.2027 96.2869H-56.2046L-56.2364 96.2776H-56.2401L-56.2476 96.2739H-56.2513L-56.2607 96.2701H-56.2644L-56.2719 96.2664H-56.2756L-56.2831 96.2627H-56.2868L-56.2943 96.2589H-56.2999L-56.3055 96.2552L-56.3279 96.2477L-56.3335 96.244L-56.3373 96.2421L-56.3466 96.2402L-56.3485 96.2384L-56.3597 96.2328L-56.369 96.229H-56.3709L-56.3802 96.2234H-56.3821L-56.3914 96.2178L-62.2899 93.2265L-66.0827 95.151L-56.4269 100.052L-46.7693 95.151L-50.1548 93.4339L-55.646 96.2178ZM-49.7475 87.9316H-49.7494L-55.2387 90.7155C-55.3209 90.7584 -55.4087 90.7846 -55.4965 90.7958V90.7977L-55.5451 90.8014V90.8033H-55.5806L-55.5824 90.8051H-55.5918L-55.6646 90.8033H-55.6665L-55.6889 90.8014L-55.702 90.7995H-55.7132L-55.7244 90.7977V90.7958H-55.7375L-55.7599 90.7921H-55.7618L-55.7711 90.7883H-55.773L-55.7954 90.7846H-55.7973L-55.8066 90.7808H-55.8085L-55.8179 90.779H-55.8216L-55.8291 90.7752H-55.8328L-55.8403 90.7734L-55.844 90.7715L-55.8534 90.7696L-55.8571 90.7678L-55.8646 90.7659L-55.8683 90.764L-55.8758 90.7622L-55.8795 90.7603L-55.887 90.7584L-55.8926 90.7566L-55.9038 90.751L-55.9206 90.7453L-55.9262 90.7416H-55.93L-55.9393 90.7379L-55.9412 90.736L-55.9505 90.7323H-55.9524L-55.9617 90.7267H-55.9636L-55.9729 90.7211L-55.9841 90.7155L-57.7946 89.7981L-61.8807 87.7261L-65.6754 89.6505L-61.9274 91.5525L-61.9162 91.5581L-56.0178 94.5494L-50.5285 91.7636L-50.5173 91.758L-46.362 89.6505L-49.7475 87.9316ZM-57.3331 88.1726L-55.6105 89.047L-50.1231 86.2613L-50.1118 86.2556L-50.0988 86.25L-50.0876 86.2444L-45.9547 84.1481L-55.6105 79.2493L-65.2681 84.1481L-57.3331 88.1726Z" fill="#FFA300"/>
</g>
</svg>
