<svg xmlns="http://www.w3.org/2000/svg" version="1.1" xmlns:xlink="http://www.w3.org/1999/xlink" width="512" height="512" x="0" y="0" viewBox="0 0 64 64" style="enable-background:new 0 0 512 512" xml:space="preserve" class=""><g><path d="m51.293 44.626-4.626 4.626-1.96-1.959a1 1 0 0 0-1.414 1.414l2.667 2.667a1 1 0 0 0 1.414 0l5.333-5.333a1 1 0 1 0-1.414-1.415Z" fill="#ffa300" opacity="1" data-original="#000000" class=""></path><path d="M48 36a12 12 0 0 0 0 24 11.857 11.857 0 0 0 6.8-2.119 1 1 0 0 0-1.14-1.642A9.864 9.864 0 0 1 48 58a10 10 0 1 1 10-10 9.864 9.864 0 0 1-1.761 5.66 1 1 0 0 0 1.642 1.14A11.857 11.857 0 0 0 60 48a12.014 12.014 0 0 0-12-12ZM46.115 13.992 31.928 28.179a2.753 2.753 0 0 0 3.893 3.893l14.187-14.187 2.405.618a1.005 1.005 0 0 0 .956-.261l6.338-6.338a1 1 0 0 0-.374-1.65l-4.127-1.46-1.46-4.128a1 1 0 0 0-1.65-.373l-6.338 6.338a1 1 0 0 0-.261.956Zm6.274-7.164 1.091 3.083a1.002 1.002 0 0 0 .61.609l3.082 1.09-4.814 4.814-2.404-.618a.996.996 0 0 0-.956.261L34.407 30.658a.753.753 0 1 1-1.065-1.065l14.59-14.59a1 1 0 0 0 .262-.957l-.618-2.404Z" fill="#ffa300" opacity="1" data-original="#000000" class=""></path><path d="M37.084 57.5A26 26 0 1 1 32 6a25.552 25.552 0 0 1 11.764 2.82 1 1 0 0 0 .912-1.78A27.54 27.54 0 0 0 32 4a28 28 0 1 0 5.476 55.46 1 1 0 0 0-.392-1.96ZM58.284 38.26a1.011 1.011 0 0 0 .197.02 1 1 0 0 0 .98-.804A27.998 27.998 0 0 0 60 32a27.54 27.54 0 0 0-3.04-12.676 1 1 0 0 0-1.78.912A25.552 25.552 0 0 1 58 32a25.994 25.994 0 0 1-.5 5.083 1 1 0 0 0 .784 1.177Z" fill="#ffa300" opacity="1" data-original="#000000" class=""></path><path d="M32 14a17.963 17.963 0 0 1 8.268 2.017 1 1 0 1 0 .924-1.774A19.998 19.998 0 1 0 32 52c.46 0 .921-.011 1.383-.054a1 1 0 0 0-.186-1.991C32.798 49.992 32.4 50 32 50a18 18 0 0 1 0-36ZM50.857 34.286q.048.004.094.004a1 1 0 0 0 .995-.907C51.989 32.92 52 32.46 52 32a19.964 19.964 0 0 0-2.243-9.192 1 1 0 1 0-1.774.924A17.963 17.963 0 0 1 50 32c0 .4-.008.798-.045 1.197a1 1 0 0 0 .902 1.089Z" fill="#ffa300" opacity="1" data-original="#000000" class=""></path><path d="M34.905 42.658a1.002 1.002 0 0 0-1.157-.813A10 10 0 1 1 32 22a9.824 9.824 0 0 1 2.323.271 1 1 0 1 0 .474-1.943A11.83 11.83 0 0 0 32 20a12 12 0 0 0 0 24 12.22 12.22 0 0 0 2.092-.185 1 1 0 0 0 .813-1.157ZM42.658 34.905a1.045 1.045 0 0 0 .173.015 1 1 0 0 0 .984-.828A12.22 12.22 0 0 0 44 32a11.831 11.831 0 0 0-.328-2.797 1 1 0 1 0-1.943.474A9.824 9.824 0 0 1 42 32a10.193 10.193 0 0 1-.155 1.748 1 1 0 0 0 .813 1.157Z" fill="#ffa300" opacity="1" data-original="#000000" class=""></path></g></svg>