<svg xmlns="http://www.w3.org/2000/svg" version="1.1" xmlns:xlink="http://www.w3.org/1999/xlink" width="512" height="512" x="0" y="0" viewBox="0 0 512 512" style="enable-background:new 0 0 512 512" xml:space="preserve" class=""><g><linearGradient id="a" x1="126.447" x2="369.521" y1="415.323" y2="172.25" gradientUnits="userSpaceOnUse"><stop stop-opacity="1" stop-color="#fcc60e" offset="0"></stop><stop stop-opacity="1" stop-color="#ffa300" offset="1"></stop></linearGradient><path fill="url(#a)" d="M149.112 57.435V34.18a8 8 0 0 1 16 0v23.255a8 8 0 0 1-16 0zm-73.39 23.951a7.998 7.998 0 0 0 10.929 2.928 8 8 0 0 0 2.928-10.928L77.95 53.247a8 8 0 1 0-13.856 8zM32.14 124.969 12 113.341a8 8 0 0 0-8 13.856l20.14 11.628a7.998 7.998 0 0 0 10.929-2.928 8.001 8.001 0 0 0-2.929-10.928zm195.434-40.655a7.998 7.998 0 0 0 10.929-2.928l11.627-20.14a8 8 0 0 0-2.928-10.928 7.998 7.998 0 0 0-10.928 2.928l-11.627 20.14a7.999 7.999 0 0 0 2.927 10.928zm58.517 55.583a7.97 7.97 0 0 0 3.993-1.073l20.14-11.628a8 8 0 0 0-8-13.856l-20.14 11.628a8 8 0 0 0 4.007 14.929zm225.907 306.484c.071 4.709-1.689 9.156-4.957 12.523l-20.944 21.584a17.553 17.553 0 0 1-12.635 5.336 17.544 17.544 0 0 1-12.256-4.961l-58.01-56.291c-3.367-3.267-5.26-7.659-5.331-12.368a17.56 17.56 0 0 1 1.901-8.25l-22.16-21.503c-19.137 14.656-43.045 23.38-68.956 23.38-38.749 0-73.024-19.5-93.544-49.198a24.09 24.09 0 0 1-6.553 3.771v9.636c0 10.605-6.905 19.622-16.452 22.807v9.28c0 13.257-10.786 24.043-24.043 24.043h-20.821c-13.257 0-24.043-10.786-24.043-24.043v-9.28c-9.548-3.186-16.453-12.202-16.453-22.807v-9.236c-9.614-3.148-16.58-12.199-16.58-22.851v-15.775c-2.453-41.199-13.122-59.438-22.539-75.531-8.865-15.15-17.239-29.461-17.239-57.114 0-58.85 47.877-106.728 106.727-106.728 58.266 0 105.769 46.936 106.704 104.984 13.763-5.933 28.921-9.227 44.835-9.227 62.658 0 113.634 50.976 113.634 113.634 0 21.358-5.927 41.357-16.217 58.444l24.015 23.302a17.657 17.657 0 0 1 6.052-1.178c4.702-.055 9.158 1.69 12.524 4.958l58.008 56.29c3.368 3.268 5.262 7.66 5.333 12.369zM396.745 363.89a114.353 114.353 0 0 1-7.112 7.936l20.714 20.1 7.415-7.642zM81.433 238.568c9.747 16.657 20.72 35.41 24.17 75.341h26.459v-92.707H117.12c-17.062 0-30.942-13.881-30.942-30.942s13.88-30.942 30.942-30.942 30.942 13.881 30.942 30.942v14.942h18.097V190.26c0-17.062 13.881-30.942 30.942-30.942s30.942 13.881 30.942 30.942-13.881 30.942-30.942 30.942H182.16v92.707h14.947a113.747 113.747 0 0 1-2.09-21.712c0-40.211 20.996-75.61 52.599-95.813.141-2.219.221-4.504.221-6.851 0-50.027-40.7-90.728-90.726-90.728-50.027 0-90.727 40.7-90.727 90.728.001 23.318 6.641 34.667 15.049 49.035zm50.63-48.308c0-8.239-6.703-14.942-14.942-14.942s-14.942 6.703-14.942 14.942 6.703 14.942 14.942 14.942h14.942zm34.097 30.942h-18.097v92.707h18.097zm30.943-16c8.239 0 14.942-6.703 14.942-14.942s-6.703-14.942-14.942-14.942-14.942 6.703-14.942 14.942v14.942zm-21.001 196.926v-8.045h-36.907v8.045c0 4.435 3.608 8.043 8.043 8.043h20.821c4.435 0 8.043-3.608 8.043-8.043zm16.452-32.087v-8.044h-69.812v8.044c0 4.435 3.608 8.042 8.044 8.042h53.726c4.434 0 8.042-3.607 8.042-8.042zm14.166-27.658a112.955 112.955 0 0 1-5.261-12.473h-95.296v8.045c0 4.435 3.608 8.043 8.043 8.043h85.814a8.054 8.054 0 0 0 6.7-3.615zm101.931 47.448c53.835 0 97.634-43.798 97.634-97.634s-43.798-97.634-97.634-97.634c-53.835 0-97.633 43.798-97.633 97.634s43.798 97.634 97.633 97.634zM496 446.622a1.57 1.57 0 0 0-.475-1.126l-58.009-56.291a1.568 1.568 0 0 0-1.113-.441l-.027.001c-.309.004-.754.09-1.126.474l-20.944 21.585a1.575 1.575 0 0 0-.441 1.141c.005.308.091.753.475 1.126l58.01 56.29c.623.604 1.662.59 2.267-.034l20.944-21.584c.371-.385.443-.832.439-1.141zM392.502 292.197c0 46.236-37.615 83.852-83.851 83.852S224.8 338.434 224.8 292.197c0-46.235 37.615-83.851 83.851-83.851s83.851 37.616 83.851 83.851zm-16 0c0-37.413-30.438-67.851-67.851-67.851S240.8 254.784 240.8 292.197s30.438 67.852 67.851 67.852 67.851-30.439 67.851-67.852z" opacity="1" data-original="url(#a)" class=""></path></g></svg>