<svg width="48" height="48" viewBox="0 0 48 48" fill="none" xmlns="http://www.w3.org/2000/svg">
<path d="M10 16C11.1867 16 12.3467 15.6481 13.3334 14.9888C14.3201 14.3295 15.0892 13.3925 15.5433 12.2961C15.9974 11.1997 16.1162 9.99335 15.8847 8.82946C15.6532 7.66557 15.0818 6.59648 14.2426 5.75736C13.4035 4.91825 12.3344 4.3468 11.1705 4.11529C10.0067 3.88378 8.80026 4.0026 7.7039 4.45673C6.60754 4.91085 5.67047 5.67989 5.01118 6.66658C4.35189 7.65328 4 8.81331 4 10C4.00179 11.5908 4.63451 13.1158 5.75934 14.2407C6.88417 15.3655 8.40925 15.9982 10 16ZM5.3866 9.33334C5.53176 8.3382 5.9943 7.41651 6.70541 6.70539C7.41652 5.99427 8.3382 5.53172 9.33333 5.38656V6.66667H10.6667V5.38656C11.6618 5.53172 12.5835 5.99427 13.2946 6.70539C14.0057 7.41651 14.4682 8.3382 14.6134 9.33334H13.3333V10.6667H14.6134C14.4682 11.6618 14.0057 12.5835 13.2946 13.2946C12.5835 14.0057 11.6618 14.4682 10.6667 14.6134V13.3333H9.33333V14.6134C8.3382 14.4682 7.41652 14.0057 6.70541 13.2946C5.9943 12.5835 5.53176 11.6618 5.3866 10.6667H6.66667V9.33334H5.3866Z" fill="#FFA300"/>
<path d="M38 4C36.8133 4 35.6533 4.35189 34.6666 5.01118C33.6799 5.67047 32.9109 6.60754 32.4567 7.7039C32.0026 8.80026 31.8838 10.0067 32.1153 11.1705C32.3468 12.3344 32.9182 13.4035 33.7574 14.2426C34.5965 15.0818 35.6656 15.6532 36.8295 15.8847C37.9933 16.1162 39.1997 15.9974 40.2961 15.5433C41.3925 15.0892 42.3295 14.3201 42.9888 13.3334C43.6481 12.3467 44 11.1867 44 10C43.9982 8.40925 43.3655 6.88417 42.2407 5.75934C41.1158 4.63451 39.5908 4.00179 38 4ZM38 14.6667C37.077 14.6667 36.1748 14.393 35.4073 13.8802C34.6399 13.3674 34.0418 12.6386 33.6886 11.7859C33.3354 10.9331 33.2429 9.99482 33.423 9.08958C33.6031 8.18433 34.0475 7.35281 34.7002 6.70017C35.3528 6.04752 36.1843 5.60307 37.0896 5.423C37.9948 5.24294 38.9331 5.33535 39.7859 5.68856C40.6386 6.04177 41.3674 6.63991 41.8802 7.40734C42.393 8.17477 42.6667 9.07702 42.6667 10C42.6652 11.2372 42.1731 12.4234 41.2982 13.2982C40.4234 14.1731 39.2372 14.6652 38 14.6667Z" fill="#FFA300"/>
<path d="M10 44C11.1867 44 12.3467 43.6481 13.3334 42.9888C14.3201 42.3295 15.0892 41.3925 15.5433 40.2961C15.9974 39.1997 16.1162 37.9933 15.8847 36.8295C15.6532 35.6656 15.0818 34.5965 14.2426 33.7574C13.4035 32.9182 12.3344 32.3468 11.1705 32.1153C10.0067 31.8838 8.80026 32.0026 7.7039 32.4567C6.60754 32.9109 5.67047 33.6799 5.01118 34.6666C4.35189 35.6533 4 36.8133 4 38C4.00179 39.5908 4.63451 41.1158 5.75934 42.2407C6.88417 43.3655 8.40925 43.9982 10 44ZM10 33.3333C10.923 33.3333 11.8252 33.607 12.5927 34.1198C13.3601 34.6326 13.9582 35.3614 14.3114 36.2141C14.6646 37.0669 14.7571 38.0052 14.577 38.9104C14.3969 39.8157 13.9525 40.6472 13.2998 41.2998C12.6472 41.9525 11.8157 42.3969 10.9104 42.577C10.0052 42.7571 9.06687 42.6646 8.21414 42.3114C7.36142 41.9582 6.63259 41.3601 6.11981 40.5927C5.60703 39.8252 5.33333 38.923 5.33333 38C5.33478 36.7628 5.82691 35.5766 6.70176 34.7018C7.57662 33.8269 8.76277 33.3348 10 33.3333Z" fill="#FFA300"/>
<path d="M38 32C36.8133 32 35.6533 32.3519 34.6666 33.0112C33.6799 33.6705 32.9109 34.6075 32.4567 35.7039C32.0026 36.8003 31.8838 38.0067 32.1153 39.1705C32.3468 40.3344 32.9182 41.4035 33.7574 42.2426C34.5965 43.0818 35.6656 43.6532 36.8295 43.8847C37.9933 44.1162 39.1997 43.9974 40.2961 43.5433C41.3925 43.0892 42.3295 42.3201 42.9888 41.3334C43.6481 40.3467 44 39.1867 44 38C43.9982 36.4093 43.3655 34.8842 42.2407 33.7593C41.1158 32.6345 39.5908 32.0018 38 32ZM38 42.6667C37.077 42.6667 36.1748 42.393 35.4073 41.8802C34.6399 41.3674 34.0418 40.6386 33.6886 39.7859C33.3354 38.9331 33.2429 37.9948 33.423 37.0896C33.6031 36.1843 34.0475 35.3528 34.7002 34.7002C35.3528 34.0475 36.1843 33.6031 37.0896 33.423C37.9948 33.2429 38.9331 33.3354 39.7859 33.6886C40.6386 34.0418 41.3674 34.6399 41.8802 35.4073C42.393 36.1748 42.6667 37.077 42.6667 38C42.6652 39.2372 42.1731 40.4234 41.2982 41.2982C40.4234 42.1731 39.2372 42.6652 38 42.6667Z" fill="#FFA300"/>
<path d="M39.4152 35.6436L38.0006 37.0576L36.5859 35.6436L35.6432 36.5862L37.0579 38.0002L35.6432 39.4142L36.5859 40.3569L38.0006 38.9429L39.4152 40.3569L40.3579 39.4142L38.9432 38.0002L40.3579 36.5862L39.4152 35.6436Z" fill="#FFA300"/>
<path d="M23.3333 9.72429L22.4713 8.86233L21.5286 9.80499L23.5286 11.805C23.5905 11.8669 23.664 11.916 23.7449 11.9495C23.8257 11.9831 23.9124 12.0003 24 12.0003C24.0875 12.0003 24.1742 11.9831 24.2551 11.9495C24.336 11.916 24.4094 11.8669 24.4713 11.805L26.4713 9.80499L25.5286 8.86233L24.6666 9.72429V6.66699H23.3333V9.72429Z" fill="#FFA300"/>
<path d="M18 24C18 25.1867 18.3519 26.3467 19.0112 27.3334C19.6705 28.3201 20.6075 29.0892 21.7039 29.5433C22.8003 29.9974 24.0067 30.1162 25.1705 29.8847C26.3344 29.6532 27.4035 29.0818 28.2426 28.2426C29.0818 27.4035 29.6532 26.3344 29.8847 25.1705C30.1162 24.0067 29.9974 22.8003 29.5433 21.7039C29.0892 20.6075 28.3201 19.6705 27.3334 19.0112C26.3467 18.3519 25.1867 18 24 18C22.4093 18.0018 20.8842 18.6345 19.7593 19.7593C18.6345 20.8842 18.0018 22.4093 18 24ZM24 19.3333C24.923 19.3333 25.8252 19.607 26.5927 20.1198C27.3601 20.6326 27.9582 21.3614 28.3114 22.2141C28.6646 23.0669 28.7571 24.0052 28.577 24.9104C28.3969 25.8157 27.9525 26.6472 27.2998 27.2998C26.6472 27.9525 25.8157 28.3969 24.9104 28.577C24.0052 28.7571 23.0669 28.6646 22.2141 28.3114C21.3614 27.9582 20.6326 27.3601 20.1198 26.5927C19.607 25.8252 19.3333 24.923 19.3333 24C19.3348 22.7628 19.8269 21.5766 20.7018 20.7018C21.5766 19.8269 22.7628 19.3348 24 19.3333Z" fill="#FFA300"/>
<path d="M20.1793 16.0465L18.5019 15.2497C18.3947 15.1989 18.2758 15.1776 18.1576 15.188C18.0394 15.1984 17.9261 15.2402 17.8294 15.3089C16.8541 16.0017 16.0021 16.8534 15.3089 17.8284C15.2402 17.9252 15.1985 18.0385 15.1881 18.1567C15.1778 18.2749 15.1991 18.3938 15.25 18.501L16.0469 20.1794L15.6764 21.072L13.7903 21.6963C13.6573 21.7404 13.5415 21.8252 13.4595 21.9388C13.3775 22.0524 13.3333 22.189 13.3333 22.3291V25.6702C13.3333 25.8104 13.3774 25.947 13.4595 26.0606C13.5415 26.1742 13.6573 26.259 13.7903 26.3031L15.6764 26.9274L16.0469 27.82L15.25 29.4977C15.1991 29.6048 15.1778 29.7236 15.1881 29.8417C15.1985 29.9598 15.2402 30.073 15.3089 30.1696C16.0019 31.145 16.8538 31.9972 17.8291 32.6904C17.9259 32.7589 18.0391 32.8005 18.1572 32.8109C18.2753 32.8213 18.394 32.8002 18.5013 32.7497L20.1793 31.9528L21.0722 32.3232L21.6966 34.2093C21.7406 34.3423 21.8255 34.4581 21.9391 34.5402C22.0527 34.6222 22.1893 34.6664 22.3294 34.6663H25.6706C25.8107 34.6664 25.9473 34.6222 26.0609 34.5402C26.1745 34.4581 26.2593 34.3423 26.3034 34.2093L26.9179 32.3532C27.2352 32.2418 27.5459 32.1127 27.8486 31.9665L29.4987 32.7497C29.6058 32.8006 29.7247 32.822 29.8428 32.8116C29.961 32.8012 30.0743 32.7593 30.1709 32.6904C31.146 31.9975 31.9978 31.1458 32.6911 30.1709C32.7598 30.0742 32.8015 29.9608 32.8118 29.8426C32.8222 29.7244 32.8008 29.6056 32.75 29.4984L31.9665 27.848C32.1132 27.5456 32.2424 27.2349 32.3535 26.9176L34.2096 26.3031C34.3426 26.259 34.4584 26.1742 34.5405 26.0606C34.6225 25.947 34.6667 25.8104 34.6666 25.6702V22.3291C34.6667 22.189 34.6225 22.0524 34.5405 21.9388C34.4584 21.8252 34.3426 21.7403 34.2096 21.6963L32.3535 21.0817C32.2424 20.7644 32.1132 20.4538 31.9665 20.1514L32.75 18.501C32.8008 18.3938 32.8222 18.275 32.8118 18.1567C32.8015 18.0385 32.7598 17.9252 32.6911 17.8285C31.9978 16.8536 31.146 16.0019 30.1709 15.309C30.0744 15.2399 29.9611 15.198 29.8429 15.1876C29.7246 15.1772 29.6058 15.1986 29.4987 15.2497L27.8486 16.0329C27.5459 15.8866 27.2352 15.7575 26.918 15.6462L26.3034 13.79C26.2594 13.657 26.1745 13.5412 26.0609 13.4592C25.9473 13.3771 25.8107 13.333 25.6706 13.333H22.3294C22.1893 13.333 22.0527 13.3771 21.9391 13.4592C21.8255 13.5412 21.7406 13.657 21.6966 13.79L21.0722 15.6761L20.1793 16.0465ZM21.8649 16.7907C21.9532 16.754 22.0326 16.6987 22.0977 16.6286C22.1628 16.5585 22.212 16.4752 22.2421 16.3844L22.8109 14.6663H25.1891L25.7578 16.3844C25.7913 16.4855 25.8486 16.5771 25.9249 16.6516C26.0011 16.726 26.094 16.781 26.1959 16.8122C26.6558 16.9532 27.1011 17.138 27.5257 17.3643C27.6175 17.4131 27.7195 17.4398 27.8235 17.4421C27.9275 17.4445 28.0306 17.4225 28.1246 17.3779L29.7086 16.626C30.3315 17.1086 30.8909 17.6679 31.3737 18.2907L30.6214 19.8754C30.5768 19.9695 30.5548 20.0727 30.5572 20.1768C30.5597 20.2809 30.5864 20.383 30.6354 20.475C30.8618 20.899 31.0466 21.344 31.1872 21.8037C31.2182 21.9057 31.2733 21.9987 31.3478 22.075C31.4223 22.1512 31.514 22.2085 31.6152 22.2419L33.3333 22.8109V25.1885L31.6152 25.7575C31.514 25.7909 31.4223 25.8481 31.3478 25.9244C31.2733 26.0006 31.2182 26.0937 31.1872 26.1956C31.0466 26.6553 30.8618 27.1004 30.6354 27.5244C30.5864 27.6163 30.5597 27.7184 30.5572 27.8226C30.5548 27.9267 30.5768 28.0299 30.6214 28.124L31.3737 29.7087C30.8909 30.3314 30.3315 30.8908 29.7086 31.3734L28.1246 30.6214C28.0307 30.5765 27.9276 30.5543 27.8235 30.5567C27.7195 30.5591 27.6174 30.5859 27.5257 30.6351C27.1012 30.8613 26.6559 31.0462 26.1959 31.1872C26.0941 31.2183 26.0011 31.2734 25.9249 31.3478C25.8487 31.4222 25.7914 31.5138 25.7578 31.6149L25.1891 33.333H22.8109L22.2422 31.6149C22.2121 31.5241 22.1628 31.4408 22.0977 31.3708C22.0326 31.3007 21.9532 31.2454 21.8649 31.2087L20.4166 30.6077C20.3305 30.5719 20.2378 30.5546 20.1445 30.557C20.0513 30.5593 19.9595 30.5813 19.8753 30.6214L18.2913 31.3734C17.6683 30.8907 17.1088 30.3312 16.6263 29.708L17.3786 28.124C17.4186 28.0397 17.4405 27.9479 17.4428 27.8546C17.4451 27.7613 17.4278 27.6685 17.3919 27.5824L16.7906 26.1344C16.754 26.0462 16.6987 25.9668 16.6287 25.9018C16.5587 25.8367 16.4755 25.7875 16.3847 25.7575L14.6666 25.1885V22.8109L16.3847 22.2419C16.4755 22.2118 16.5587 22.1626 16.6287 22.0976C16.6988 22.0325 16.754 21.9532 16.7907 21.8649L17.3919 20.417C17.4278 20.3308 17.4452 20.2381 17.4429 20.1447C17.4406 20.0514 17.4187 19.9596 17.3786 19.8753L16.6263 18.2907C17.1089 17.6677 17.6684 17.1083 18.2916 16.6259L19.875 17.3779C19.9593 17.4177 20.0511 17.4395 20.1444 17.4419C20.2376 17.4442 20.3304 17.4271 20.4166 17.3916L21.8649 16.7907Z" fill="#FFA300"/>
<path d="M24 22H21.3333V23.3333H24V22Z" fill="#FFA300"/>
<path d="M26.6666 22H25.3333V23.3333H26.6666V22Z" fill="#FFA300"/>
<path d="M22 24.667H20.6667V26.0003H22V24.667Z" fill="#FFA300"/>
<path d="M27.3333 24.667H23.3333V26.0003H27.3333V24.667Z" fill="#FFA300"/>
<path d="M24.6667 38.276L25.5287 39.138L26.4713 38.1953L24.4713 36.1953C24.4094 36.1334 24.336 36.0843 24.2551 36.0508C24.1742 36.0172 24.0875 36 24 36C23.9124 36 23.8257 36.0172 23.7449 36.0508C23.664 36.0843 23.5905 36.1334 23.5286 36.1953L21.5286 38.1953L22.4713 39.138L23.3333 38.276V41.3333H24.6667V38.276Z" fill="#FFA300"/>
<path d="M38.1953 21.5283L36.1953 23.5283C36.1334 23.5902 36.0843 23.6637 36.0508 23.7446C36.0172 23.8254 36 23.9121 36 23.9997C36 24.0872 36.0172 24.1739 36.0508 24.2548C36.0843 24.3357 36.1334 24.4091 36.1953 24.471L38.1953 26.471L39.138 25.5283L38.276 24.6663H41.3333V23.333H38.276L39.138 22.471L38.1953 21.5283Z" fill="#FFA300"/>
<path d="M9.80469 26.471L11.8047 24.471C11.8666 24.4091 11.9157 24.3357 11.9492 24.2548C11.9828 24.1739 12 24.0872 12 23.9997C12 23.9121 11.9828 23.8254 11.9492 23.7446C11.9157 23.6637 11.8666 23.5902 11.8047 23.5283L9.80469 21.5283L8.86202 22.471L9.72398 23.333H6.66669V24.6664H9.72398L8.86202 25.5284L9.80469 26.471Z" fill="#FFA300"/>
<path d="M9.33333 40.667C9.34343 40.667 9.35351 40.667 9.36361 40.6663C9.45611 40.6622 9.54674 40.6388 9.6297 40.5977C9.71265 40.5565 9.78611 40.4985 9.84538 40.4274L13.1787 36.4274L12.1546 35.5732L9.28841 39.0127L7.80467 37.529L6.862 38.4717L8.862 40.4717C8.92384 40.5336 8.99731 40.5828 9.07819 40.6163C9.15907 40.6498 9.24578 40.6671 9.33333 40.667Z" fill="#FFA300"/>
<path d="M8.47129 12.4717L9.659 11.284C9.88147 11.3502 10.1184 11.3502 10.3409 11.284L12.1953 13.1383L13.138 12.1957L11.2836 10.3412C11.315 10.2303 11.3317 10.1157 11.3333 10.0003C11.3333 9.6467 11.1928 9.30757 10.9428 9.05752C10.6927 8.80747 10.3536 8.66699 9.99996 8.66699C9.64634 8.66699 9.3072 8.80747 9.05715 9.05752C8.8071 9.30757 8.66663 9.6467 8.66663 10.0003C8.6682 10.1156 8.68491 10.2303 8.71635 10.3412L7.52863 11.529L8.47129 12.4717Z" fill="#FFA300"/>
<path d="M38.6666 6.66699H37.3333V10.667H38.6666V6.66699Z" fill="#FFA300"/>
<path d="M38.6666 12H37.3333V13.3333H38.6666V12Z" fill="#FFA300"/>
<path d="M24.6666 4H23.3333V5.33333H24.6666V4Z" fill="#FFA300"/>
<path d="M44 23.333H42.6667V24.6663H44V23.333Z" fill="#FFA300"/>
<path d="M24.6666 42.667H23.3333V44.0003H24.6666V42.667Z" fill="#FFA300"/>
<path d="M5.33333 23.333H4V24.6663H5.33333V23.333Z" fill="#FFA300"/>
</svg>
