<svg xmlns="http://www.w3.org/2000/svg" version="1.1" xmlns:xlink="http://www.w3.org/1999/xlink"
    width="512" height="512" x="0" y="0" viewBox="0 0 682.667 682.667"
    style="enable-background:new 0 0 512 512" xml:space="preserve" class=""><g><defs><clipPath id="a" clipPathUnits="userSpaceOnUse"><path d="M0 512h512V0H0Z" fill="#ffa300" opacity="1" data-original="#000000"></path></clipPath></defs><g clip-path="url(#a)" transform="matrix(1.33333 0 0 -1.33333 0 682.667)"><path d="M0 0h-158.076a33.133 33.133 0 0 0-23.429 9.704l-54.136 54.136a8.28 8.28 0 0 1-5.857 2.427H-271.2v115.965h99.4" style="stroke-width:15;stroke-linecap:round;stroke-linejoin:round;stroke-miterlimit:10;stroke-dasharray:none;stroke-opacity:1" transform="translate(427.8 40.634)" fill="none" stroke="#ffa300" stroke-width="15" stroke-linecap="round" stroke-linejoin="round" stroke-miterlimit="10" stroke-dasharray="none" stroke-opacity="" data-original="#000000" opacity="1" class=""></path><path d="M0 0h119.721c18.054 0 33.315-14.155 33.81-32.202.513-18.725-14.512-34.065-33.121-34.065h-13.492" style="stroke-width:15;stroke-linecap:round;stroke-linejoin:round;stroke-miterlimit:10;stroke-dasharray:none;stroke-opacity:1" transform="translate(350.957 106.9)" fill="none" stroke="#ffa300" stroke-width="15" stroke-linecap="round" stroke-linejoin="round" stroke-miterlimit="10" stroke-dasharray="none" stroke-opacity="" data-original="#000000" opacity="1" class=""></path><path d="M0 0c0 18.299-14.834 33.133-33.133 33.133h-70.706" style="stroke-width:15;stroke-linecap:round;stroke-linejoin:round;stroke-miterlimit:10;stroke-dasharray:none;stroke-opacity:1" transform="translate(454.8 106.9)" fill="none" stroke="#ffa300" stroke-width="15" stroke-linecap="round" stroke-linejoin="round" stroke-miterlimit="10" stroke-dasharray="none" stroke-opacity="" data-original="#000000" opacity="1" class=""></path><path d="m0 0 42.517-42.513c6.02-6.19 14.433-10.042 23.75-10.042 18.299 0 33.133 14.835 33.133 33.134 0 9.317-3.851 17.73-10.041 23.75L23.838 69.846C17.812 76.089 9.363 79.979 0 79.979" style="stroke-width:15;stroke-linecap:round;stroke-linejoin:round;stroke-miterlimit:10;stroke-dasharray:none;stroke-opacity:1" transform="translate(256 142.888)" fill="none" stroke="#ffa300" stroke-width="15" stroke-linecap="round" stroke-linejoin="round" stroke-miterlimit="10" stroke-dasharray="none" stroke-opacity="" data-original="#000000" opacity="1" class=""></path><path d="M0 0h25.133a8 8 0 0 1 8 8v133.101a8 8 0 0 1-8 8H0Z" style="stroke-width:15;stroke-linecap:round;stroke-linejoin:round;stroke-miterlimit:10;stroke-dasharray:none;stroke-opacity:1" transform="translate(123.467 90.333)" fill="none" stroke="#ffa300" stroke-width="15" stroke-linecap="round" stroke-linejoin="round" stroke-miterlimit="10" stroke-dasharray="none" stroke-opacity="" data-original="#000000" opacity="1" class=""></path><path d="M0 0h99.967a8 8 0 0 1 8 8v166.233a8 8 0 0 1-8 8H0a8 8 0 0 1-8-8V8a8 8 0 0 1 8-8Z" style="stroke-width:15;stroke-linecap:round;stroke-linejoin:round;stroke-miterlimit:10;stroke-dasharray:none;stroke-opacity:1" transform="translate(15.5 73.767)" fill="none" stroke="#ffa300" stroke-width="15" stroke-linecap="round" stroke-linejoin="round" stroke-miterlimit="10" stroke-dasharray="none" stroke-opacity="" data-original="#000000" opacity="1" class=""></path><path d="M0 0c14.408-20.287 22.879-45.086 22.879-71.864 0-68.621-55.629-124.25-124.25-124.25-68.622 0-124.25 55.629-124.25 124.25 0 68.622 55.628 124.25 124.25 124.25 31.02 0 59.386-11.367 81.158-30.165" style="stroke-width:15;stroke-linecap:round;stroke-linejoin:round;stroke-miterlimit:10;stroke-dasharray:none;stroke-opacity:1" transform="translate(456.766 418.98)" fill="none" stroke="#ffa300" stroke-width="15" stroke-linecap="round" stroke-linejoin="round" stroke-miterlimit="10" stroke-dasharray="none" stroke-opacity="" data-original="#000000" opacity="1" class=""></path><path d="M0 0c0-50.322-40.794-91.116-91.117-91.116-50.322 0-91.116 40.794-91.116 91.116 0 50.323 40.794 91.117 91.116 91.117C-40.794 91.117 0 50.323 0 0Z" style="stroke-width:15;stroke-linecap:round;stroke-linejoin:round;stroke-miterlimit:10;stroke-dasharray:none;stroke-opacity:1" transform="translate(446.511 347.116)" fill="none" stroke="#ffa300" stroke-width="15" stroke-linecap="round" stroke-linejoin="round" stroke-miterlimit="10" stroke-dasharray="none" stroke-opacity="" data-original="#000000" opacity="1" class=""></path><path d="M0 0h33.133" style="stroke-width:15;stroke-linecap:round;stroke-linejoin:round;stroke-miterlimit:10;stroke-dasharray:none;stroke-opacity:1" transform="translate(371.96 338.833)" fill="none" stroke="#ffa300" stroke-width="15" stroke-linecap="round" stroke-linejoin="round" stroke-miterlimit="10" stroke-dasharray="none" stroke-opacity="" data-original="#000000" opacity="1" class=""></path><path d="M0 0v-49.699" style="stroke-width:15;stroke-linecap:round;stroke-linejoin:round;stroke-miterlimit:10;stroke-dasharray:none;stroke-opacity:1" transform="translate(355.394 405.1)" fill="none" stroke="#ffa300" stroke-width="15" stroke-linecap="round" stroke-linejoin="round" stroke-miterlimit="10" stroke-dasharray="none" stroke-opacity="" data-original="#000000" opacity="1" class=""></path><path d="M0 0c0-9.149-7.417-16.566-16.566-16.566-9.15 0-16.567 7.417-16.567 16.566s7.417 16.567 16.567 16.567C-7.417 16.567 0 9.149 0 0Z" style="stroke-width:15;stroke-linecap:round;stroke-linejoin:round;stroke-miterlimit:10;stroke-dasharray:none;stroke-opacity:1" transform="translate(371.96 338.833)" fill="none" stroke="#ffa300" stroke-width="15" stroke-linecap="round" stroke-linejoin="round" stroke-miterlimit="10" stroke-dasharray="none" stroke-opacity="" data-original="#000000" opacity="1" class=""></path><path d="M0 0h-33.133" style="stroke-width:15;stroke-linecap:round;stroke-linejoin:round;stroke-miterlimit:10;stroke-dasharray:none;stroke-opacity:1" transform="translate(90.334 106.9)" fill="none" stroke="#ffa300" stroke-width="15" stroke-linecap="round" stroke-linejoin="round" stroke-miterlimit="10" stroke-dasharray="none" stroke-opacity="" data-original="#000000" opacity="1" class=""></path></g></g></svg>