<svg width="48" height="48" viewBox="0 0 48 48" fill="none" xmlns="http://www.w3.org/2000/svg">
<path d="M42.318 19.8876L38.6153 16.7994C38.0661 16.3288 37.3868 16.0365 36.6674 15.9612C36.3091 15.9182 35.9457 15.9627 35.6083 16.0907C35.2709 16.2188 34.9696 16.4266 34.73 16.6965L31.8502 20.1517L20.8529 33.3395L20.8596 33.345C20.7157 33.5123 20.6375 33.7261 20.6396 33.9467L20.7848 41.0979C20.7898 41.3384 20.8888 41.5673 21.0607 41.7356C21.2325 41.9038 21.4634 41.998 21.7039 41.998C21.7657 41.9983 21.8273 41.9921 21.8878 41.9796L28.7669 40.5808C28.9701 40.5371 29.1522 40.425 29.2828 40.2634L29.2895 40.2689L40.2317 27.1466L43.1115 23.6914C43.9804 22.6529 43.6299 20.9819 42.318 19.8876ZM22.6004 39.9588L22.5176 35.9013L26.5004 39.1647L22.6004 39.9588ZM28.4599 38.3921L22.8583 33.8046L32.6718 22.0371L38.2324 26.6748L28.4599 38.3921ZM41.7023 22.5144L39.4094 25.2631L33.8489 20.6278L36.1423 17.8785C36.1949 17.8393 36.2551 17.8116 36.3191 17.7973C36.3831 17.7829 36.4494 17.7822 36.5136 17.7951C36.8563 17.8395 37.178 17.985 37.4376 18.213L41.1404 21.3012C41.7163 21.7797 41.8321 22.3594 41.7023 22.5144Z" fill="#FFA300"/>
<path d="M17.6046 34.6666C17.5591 34.6377 17.5111 34.6129 17.4613 34.5925C17.4557 34.5925 17.4508 34.5863 17.4453 34.5845C17.3407 34.5431 17.2294 34.5213 17.1169 34.5202H17.0991C16.9868 34.5202 16.8755 34.541 16.7707 34.5814C16.7653 34.5827 16.76 34.5843 16.7548 34.5863C16.6431 34.6318 16.5417 34.6991 16.4564 34.7843L16.4521 34.7885L14.1237 37.1169C13.8772 37.3616 13.544 37.4988 13.1966 37.4988C12.8493 37.4988 12.5161 37.3616 12.2696 37.1169L11.6268 36.4736C11.3826 36.2273 11.2456 35.8945 11.2456 35.5477C11.2456 35.2009 11.3826 34.8681 11.6268 34.6219L13.9552 32.2935H13.9583V32.2904C14.0427 32.2053 14.1097 32.1046 14.1556 31.9939C14.1556 31.9878 14.1586 31.9822 14.1605 31.9767C14.2009 31.8719 14.2217 31.7606 14.2217 31.6483C14.222 31.6428 14.222 31.6373 14.2217 31.6318C14.2219 31.5188 14.2012 31.4068 14.1605 31.3015L14.1537 31.2892C14.1332 31.2382 14.1079 31.1892 14.0784 31.1428C13.3157 29.9692 12.7757 28.6652 12.4853 27.2961C12.4822 27.282 12.4761 27.2697 12.4724 27.2562C12.4616 27.2113 12.4475 27.1673 12.4301 27.1245C12.4203 27.1024 12.4074 27.0835 12.3964 27.0632C12.3807 27.0305 12.3629 26.9988 12.3431 26.9683C12.3296 26.9493 12.3131 26.9327 12.2984 26.9143C12.2766 26.8856 12.253 26.8582 12.2279 26.8322C12.2144 26.8188 12.1985 26.8083 12.1844 26.7961C12.1543 26.7688 12.1224 26.7436 12.0888 26.7207C12.0766 26.7128 12.0631 26.7072 12.0502 26.6999C12.0127 26.6765 11.9733 26.656 11.9326 26.6386C11.9173 26.6325 11.9007 26.6294 11.8854 26.6239C11.8455 26.6087 11.8046 26.5966 11.7629 26.5878C11.7334 26.5822 11.7016 26.5816 11.6734 26.5786C11.6452 26.5755 11.6164 26.57 11.5864 26.57H8.28622C7.93828 26.5695 7.60473 26.4311 7.3587 26.185C7.11267 25.939 6.97424 25.6055 6.97375 25.2575V24.3568C6.97424 24.0089 7.11267 23.6753 7.3587 23.4293C7.60473 23.1833 7.93828 23.0448 8.28622 23.0443H11.587H11.5919C11.6847 23.0426 11.7766 23.0267 11.8646 22.9972C11.8799 22.9923 11.8946 22.9892 11.9087 22.9837C11.9918 22.9522 12.0699 22.9087 12.1403 22.8544C12.1538 22.8446 12.1654 22.8342 12.1783 22.8231C12.2475 22.7652 12.308 22.6975 12.3578 22.6222C12.3639 22.6124 12.3682 22.6019 12.3737 22.5921C12.4243 22.5087 12.4611 22.4177 12.4828 22.3225V22.3176C12.7736 20.9488 13.3136 19.645 14.0759 18.4715C14.1054 18.4251 14.1306 18.3761 14.1513 18.3251L14.1574 18.3128C14.1994 18.2076 14.2213 18.0953 14.2217 17.982C14.222 17.9766 14.222 17.9713 14.2217 17.966C14.2204 17.8535 14.1986 17.7423 14.1574 17.6376C14.1574 17.6315 14.1543 17.626 14.1525 17.6204C14.1068 17.509 14.0393 17.4077 13.954 17.3227L13.9491 17.3171L11.6238 14.9918C11.379 14.7454 11.2416 14.4121 11.2416 14.0648C11.2416 13.7174 11.379 13.3842 11.6238 13.1377L12.2665 12.4943C12.5129 12.2503 12.8456 12.1134 13.1924 12.1134C13.5391 12.1134 13.8718 12.2503 14.1182 12.4943L16.4533 14.8288C16.457 14.8331 16.4625 14.8337 16.4662 14.838C16.5436 14.9115 16.6332 14.971 16.7309 15.0139C16.7529 15.0231 16.7744 15.031 16.7964 15.039C16.8943 15.0768 16.9979 15.0976 17.1028 15.1003C17.2077 15.0975 17.3113 15.0768 17.4092 15.039C17.4392 15.028 17.4655 15.0133 17.4943 14.9998C17.5311 14.9858 17.5669 14.9695 17.6016 14.9508C18.7748 14.1883 20.0784 13.6483 21.4471 13.3577C21.4587 13.3577 21.4679 13.3497 21.4789 13.3473C21.527 13.336 21.5742 13.3208 21.6199 13.3019C21.6425 13.2921 21.6627 13.2786 21.6848 13.267C21.7159 13.2516 21.7462 13.2346 21.7755 13.2161C21.7993 13.1983 21.8222 13.1793 21.8441 13.1591C21.8662 13.1408 21.8901 13.123 21.9103 13.1028C21.9305 13.0826 21.9483 13.0574 21.9667 13.0348C21.985 13.0121 22.0053 12.99 22.0218 12.9649C22.0384 12.9398 22.0494 12.9147 22.0629 12.8895C22.0763 12.8644 22.0929 12.8369 22.1045 12.8087C22.1162 12.7778 22.126 12.7463 22.1339 12.7143C22.1413 12.6892 22.1511 12.6647 22.1566 12.6383C22.1642 12.5942 22.1687 12.5495 22.1701 12.5048C22.1701 12.4894 22.1744 12.4747 22.1744 12.4588V9.15066C22.1747 8.80257 22.3132 8.46883 22.5594 8.22275C22.8056 7.97666 23.1394 7.83835 23.4875 7.83819H24.3876C24.5602 7.83779 24.7313 7.87143 24.8909 7.93719C25.0506 8.00296 25.1957 8.09955 25.318 8.22145C25.4403 8.34335 25.5374 8.48816 25.6037 8.6476C25.67 8.80704 25.7042 8.97799 25.7043 9.15066V12.4502C25.7043 12.4704 25.7086 12.4888 25.7098 12.5115C25.7113 12.5526 25.7154 12.5935 25.7221 12.634C25.7291 12.6633 25.7377 12.6921 25.7478 12.7204C25.7564 12.7486 25.7625 12.7774 25.7736 12.8044C25.7871 12.834 25.8022 12.8628 25.8189 12.8908C25.8304 12.9147 25.843 12.938 25.8569 12.9606C25.8928 13.0075 25.93 13.0535 25.9684 13.0985C25.9892 13.1184 26.0111 13.1372 26.034 13.1549C26.0563 13.1752 26.0796 13.1944 26.1038 13.2125C26.1308 13.2308 26.1608 13.2449 26.1896 13.2609C26.2184 13.2768 26.2349 13.2878 26.2595 13.2988C26.3015 13.3157 26.3447 13.3295 26.3887 13.3399C26.4034 13.3442 26.4163 13.3509 26.431 13.354C27.8001 13.6447 29.104 14.1847 30.2777 14.9471C30.3119 14.9652 30.3471 14.9814 30.3831 14.9955C30.4125 15.0096 30.4401 15.0243 30.4701 15.0353C30.6666 15.1149 30.8864 15.1149 31.0829 15.0353C31.1055 15.0274 31.1264 15.02 31.1484 15.0108C31.2463 14.9682 31.3359 14.9086 31.4131 14.835C31.4168 14.8313 31.4223 14.8301 31.426 14.8258L33.7581 12.4937C34.0047 12.2494 34.3379 12.1123 34.6851 12.1123C35.0323 12.1123 35.3655 12.2494 35.6122 12.4937L36.2555 13.1371C36.4212 13.3045 36.5385 13.5137 36.595 13.7424C36.6515 13.971 36.6452 14.2107 36.5766 14.4361C36.6471 14.4361 36.7169 14.4361 36.7886 14.4416C37.3313 14.4925 37.8614 14.6348 38.3566 14.8625C38.4995 14.3323 38.5007 13.7738 38.3601 13.2429C38.2194 12.7121 37.9419 12.2274 37.5551 11.8375L36.9124 11.1941C36.3208 10.6063 35.5206 10.2764 34.6866 10.2764C33.8527 10.2764 33.0525 10.6063 32.4609 11.1941L30.6282 13.0274C29.6575 12.4712 28.62 12.0407 27.5407 11.7462V9.15066C27.5397 8.31525 27.2074 7.51434 26.6166 6.92367C26.0258 6.333 25.2248 6.00081 24.3894 6H23.4911C22.6557 6.00081 21.8547 6.333 21.264 6.92367C20.6732 7.51434 20.3408 8.31525 20.3399 9.15066V11.7419C19.2605 12.0359 18.2229 12.4663 17.2523 13.0225L15.4141 11.1843C14.8227 10.5971 14.023 10.2676 13.1896 10.2676C12.3562 10.2676 11.5565 10.5971 10.9651 11.1843L10.3223 11.8277C9.73458 12.4192 9.4047 13.2192 9.4047 14.0531C9.4047 14.887 9.73458 15.687 10.3223 16.2786L12.1581 18.118C11.6021 19.0888 11.1718 20.1262 10.8775 21.2055H8.28622C7.45112 21.2065 6.65049 21.5386 6.05987 22.129C5.46926 22.7194 5.13686 23.5199 5.13556 24.355V25.2557C5.13653 26.091 5.46879 26.8918 6.05944 27.4825C6.65009 28.0731 7.45091 28.4054 8.28622 28.4063H10.8775C11.1718 29.4856 11.6021 30.5231 12.1581 31.4939L10.3199 33.3321C9.73258 33.9234 9.40297 34.7229 9.40297 35.5563C9.40297 36.3897 9.73258 37.1892 10.3199 37.7805L10.9626 38.4239C11.5542 39.0115 12.3542 39.3412 13.1881 39.3412C14.0219 39.3412 14.8219 39.0115 15.4135 38.4239L17.2548 36.5881C17.872 36.9392 18.5167 37.2398 19.1824 37.487L19.142 35.4932C18.6093 35.2571 18.0954 34.9808 17.6046 34.6666Z" fill="#FFA300"/>
<path d="M17.2511 24.804C17.2494 23.3972 17.6917 22.0258 18.5149 20.8851C19.3381 19.7444 20.5002 18.8925 21.8358 18.4507C23.1713 18.0089 24.6123 17.9998 25.9533 18.4247C27.2944 18.8495 28.4672 19.6867 29.3047 20.8169L30.5118 19.3691C29.714 18.4031 28.7131 17.6249 27.5804 17.0897C26.4477 16.5545 25.211 16.2755 23.9582 16.2725C22.7054 16.2695 21.4674 16.5426 20.3321 17.0725C19.1969 17.6023 18.1924 18.3758 17.39 19.3379C16.5876 20.3 16.0071 21.4271 15.6898 22.6391C15.3725 23.851 15.3262 25.118 15.5541 26.3498C15.782 27.5817 16.2786 28.7482 17.0086 29.7664C17.7385 30.7846 18.6838 31.6294 19.7773 32.2407L20.982 30.7965C19.8635 30.2444 18.9216 29.3909 18.2623 28.332C17.6031 27.2732 17.2529 26.0512 17.2511 24.804Z" fill="#FFA300"/>
</svg>
