<svg xmlns="http://www.w3.org/2000/svg" version="1.1" xmlns:xlink="http://www.w3.org/1999/xlink" width="512" height="512" x="0" y="0" viewBox="0 0 60 60" style="enable-background:new 0 0 512 512" xml:space="preserve" class=""><g><path d="M27 32h1a1 1 0 0 0 0-2h-1a1 1 0 0 0 0 2ZM33 30h-1a1 1 0 0 0 0 2h1a1 1 0 0 0 0-2ZM33 35h-6a1 1 0 0 0 0 2h6a1 1 0 0 0 0-2Z" fill="#ffa300" opacity="1" data-original="#000000" class=""></path><path d="M57 27h-1.208A26.1 26.1 0 0 0 33 4.208V3a3 3 0 0 0-6 0v1.208A26.1 26.1 0 0 0 4.208 27H3a3 3 0 0 0 0 6h1.208A26.1 26.1 0 0 0 27 55.792V57a3 3 0 0 0 6 0v-1.208A26.1 26.1 0 0 0 55.792 33H57a3 3 0 0 0 0-6ZM33 6.221A24.092 24.092 0 0 1 53.779 27h-2.01A21.949 21.949 0 0 0 33 8.23ZM29 3a1 1 0 0 1 2 0v11a1 1 0 0 1-2 0Zm-2 3.221V8.23A21.949 21.949 0 0 0 8.231 27h-2.01A24.092 24.092 0 0 1 27 6.221ZM3 31a1 1 0 0 1 0-2h11a1 1 0 0 1 0 2Zm24 22.779A24.092 24.092 0 0 1 6.221 33h2.01A21.949 21.949 0 0 0 27 51.77ZM31 57a1 1 0 0 1-2 0V46a1 1 0 0 1 2 0Zm-1-14a3 3 0 0 0-3 3v3.753A19.954 19.954 0 0 1 10.248 33H14a3 3 0 0 0 0-6h-3.752A19.954 19.954 0 0 1 27 10.247V14a3 3 0 0 0 6 0v-3.753A19.954 19.954 0 0 1 49.752 27H46a3 3 0 0 0 0 6h3.752A19.954 19.954 0 0 1 33 49.753V46a3 3 0 0 0-3-3Zm3 10.779V51.77A21.949 21.949 0 0 0 51.769 33h2.01A24.092 24.092 0 0 1 33 53.779ZM57 31H46a1 1 0 0 1 0-2h11a1 1 0 0 1 0 2Z" fill="#ffa300" opacity="1" data-original="#000000" class=""></path><path d="M38 38V22a3 3 0 0 0-3-3h-5a1 1 0 0 0-.707.293l-7 7A1 1 0 0 0 22 27v11a3 3 0 0 0 3 3h10a3 3 0 0 0 3-3Zm-9-15.586V25a1 1 0 0 1-1 1h-2.586ZM24 38V28h4a3 3 0 0 0 3-3v-4h4a1 1 0 0 1 1 1v16a1 1 0 0 1-1 1H25a1 1 0 0 1-1-1Z" fill="#ffa300" opacity="1" data-original="#000000" class=""></path></g></svg>