<svg width="48" height="48" viewBox="0 0 48 48" fill="none" xmlns="http://www.w3.org/2000/svg">
<path d="M39.1693 8.00752C39.0092 8.03066 38.8613 8.10658 38.7492 8.22327L34.7634 12.209C31.9221 9.61309 28.1483 8.01887 23.9986 8.01887C15.177 8.01887 8.01019 15.1857 8.01019 24.0072C8.01019 28.1566 9.59249 31.9407 12.189 34.7835L8.22594 38.7465C8.15591 38.8131 8.09986 38.893 8.06108 38.9815C8.0223 39.0701 8.00156 39.1654 8.00009 39.2621C7.99861 39.3587 8.01641 39.4546 8.05246 39.5443C8.08852 39.634 8.14209 39.7156 8.21005 39.7843C8.27801 39.853 8.35899 39.9075 8.44825 39.9445C8.53752 39.9815 8.63327 40.0004 8.72991 40C8.82656 39.9996 8.92215 39.9799 9.01109 39.9421C9.10004 39.9043 9.18055 39.8491 9.24792 39.7799L39.7712 9.25661C39.8839 9.15076 39.9599 9.01172 39.9881 8.85971C40.0164 8.7077 39.9955 8.55063 39.9284 8.41133C39.8612 8.27204 39.7515 8.15778 39.615 8.08516C39.4785 8.01254 39.3223 7.98534 39.1693 8.00752ZM23.9986 9.47236C27.7542 9.47236 31.1627 10.8956 33.7415 13.231L13.2109 33.7615C10.8795 31.1828 9.46367 27.7611 9.46367 24.0072C9.46367 15.9712 15.9626 9.47236 23.9986 9.47236ZM36.8642 15.15C36.7377 15.1589 36.6157 15.2008 36.5104 15.2714C36.4051 15.342 36.32 15.439 36.2638 15.5527C36.2075 15.6663 36.182 15.7927 36.1897 15.9193C36.1974 16.0459 36.2381 16.1682 36.3078 16.2742C37.7169 18.5137 38.5334 21.1641 38.5334 24.0072C38.5334 32.0432 32.0345 38.5421 23.9986 38.5421C21.1561 38.5421 18.5047 37.7251 16.2655 36.3165C16.1852 36.2566 16.0933 36.2141 15.9956 36.1915C15.898 36.1688 15.7967 36.1666 15.6982 36.185C15.5997 36.2034 15.5061 36.242 15.4232 36.2983C15.3403 36.3546 15.2699 36.4275 15.2165 36.5123C15.1631 36.5971 15.1279 36.692 15.1129 36.7911C15.098 36.8902 15.1037 36.9913 15.1297 37.0881C15.1557 37.1849 15.2014 37.2752 15.264 37.3535C15.3266 37.4317 15.4047 37.4962 15.4934 37.5428C17.9556 39.0918 20.8765 39.9956 23.9986 39.9956C32.8201 39.9956 39.9869 32.8287 39.9869 24.0072C39.9869 20.8847 39.0837 17.9646 37.5342 15.5021C37.4656 15.3875 37.3668 15.2941 37.2486 15.232C37.1304 15.1699 36.9974 15.1415 36.8642 15.15Z" fill="#FFA300"/>
</svg>
