<svg width="80" height="63" viewBox="0 0 80 63" fill="none" xmlns="http://www.w3.org/2000/svg">
<path d="M26.593 0H1.57247C1.20812 0 0.862943 0.158205 0.628031 0.43147L0.30203 0.810206C0.105471 1.03553 0 1.32797 0 1.63V60.5881C0 60.9381 0.143824 61.2689 0.402707 61.5086L0.810208 61.8873C1.04033 62.1031 1.34236 62.2181 1.65877 62.2181H14.0036C14.3201 62.2181 14.6221 62.0983 14.8522 61.8873L15.2597 61.5086C15.5138 61.2689 15.6624 60.9381 15.6624 60.5881V40.7021H30.2413C43.382 40.7021 51.5129 30.5769 51.5129 21.19C51.5081 6.53918 43.8231 0 26.593 0ZM38.1756 19.5888C38.1756 23.9083 34.743 26.9286 29.829 26.9286H15.6624V13.1838H29.829C35.0546 13.1838 38.1756 15.5761 38.1756 19.5888Z" fill="#24272B"/>
<path d="M45.712 62.8414C45.736 62.8414 45.7599 62.8414 45.7839 62.8414C46.7667 62.7743 69.9079 61.1731 75.7759 54.7154C78.6956 51.4985 80.1913 47.3372 79.9804 42.9937C79.7694 38.6551 77.8854 34.6567 74.6685 31.7371C71.4516 28.8175 67.2903 27.3217 62.9517 27.5327C58.613 27.7388 54.6147 29.6277 51.6903 32.8446C45.8606 39.2687 44.6956 60.8087 44.6477 61.7196C44.6333 62.0264 44.7484 62.3188 44.9641 62.5346C45.1655 62.7311 45.4339 62.8414 45.712 62.8414Z" fill="#7F4BD8"/>
</svg>
