<svg width="182" height="32" viewBox="0 0 182 32" fill="none" xmlns="http://www.w3.org/2000/svg">
<path d="M76.5122 14.0257C76.5172 14.0257 76.5222 14.0257 76.5272 14.0257C76.9241 13.9981 86.2746 13.3488 88.6084 10.7692C89.7592 9.49574 90.3482 7.84621 90.2659 6.129C90.1835 4.40928 89.4397 2.82744 88.1716 1.66926C85.5532 -0.717288 81.487 -0.521752 79.1107 2.10797C76.7843 4.68002 76.315 13.4265 76.2976 13.7975C76.2951 13.8602 76.3175 13.9204 76.3625 13.9655C76.3999 14.0031 76.4548 14.0257 76.5122 14.0257Z" fill="#7F4BD8"/>
<path d="M7.4567 15.1162H0.804528C0.742124 15.1162 0.679721 15.1438 0.639783 15.1914L0.552419 15.2917C0.517474 15.3318 0.5 15.3819 0.5 15.4346V31.1753C0.5 31.2354 0.524962 31.2956 0.569892 31.3357L0.679721 31.436C0.719659 31.4736 0.772078 31.4937 0.826993 31.4937H4.1094C4.16431 31.4937 4.21673 31.4736 4.25667 31.436L4.3665 31.3357C4.41143 31.2931 4.43639 31.2354 4.43639 31.1753V25.2515H8.4252C12.3841 25.2515 13.9541 22.4664 13.9666 20.6589C13.9941 16.8259 11.9597 15.1162 7.4567 15.1162ZM8.31786 22.3059H4.43639V18.4052H8.31786C9.7781 18.4052 10.6517 19.0871 10.6517 20.2302C10.6492 21.4536 9.69073 22.3059 8.31786 22.3059Z" fill="#24272B"/>
<path d="M23.1174 15.5874C18.5095 15.5874 15.7588 18.4503 15.7588 23.2484C15.7588 28.3223 18.6518 31.3507 23.4968 31.3507C26.1227 31.3507 28.1071 30.4733 29.5624 28.6683C29.6347 28.5781 29.6248 28.4477 29.5399 28.3675L27.2135 26.2191C27.1686 26.1765 27.1062 26.1564 27.0438 26.1614C26.9814 26.1664 26.924 26.2015 26.889 26.2517C26.0578 27.4098 24.942 27.9965 23.5766 27.9965C21.3601 27.9965 20.2643 27.1416 19.9598 25.1461H29.797C29.9018 25.1461 29.9917 25.0709 30.0117 24.9681C30.104 24.4868 30.124 23.1807 30.124 22.7596C30.124 18.2046 27.5704 15.5874 23.1174 15.5874ZM19.9548 22.1454C20.157 20.6287 20.8758 18.9391 23.0899 18.9391C24.8522 18.9391 25.8207 19.9895 26.0428 22.1454H19.9548Z" fill="#24272B"/>
<path d="M42.0606 15.8556C41.5514 15.6726 41.0896 15.5874 40.6079 15.5874C39.1402 15.5874 37.8846 16.347 36.9486 17.7935L36.8887 16.1088C36.8837 15.991 36.7888 15.8983 36.6715 15.8983H33.0995C32.9797 15.8983 32.8799 15.996 32.8799 16.1189V31.293C32.8799 31.4133 32.9772 31.5136 33.0995 31.5136H36.8986C37.0185 31.5136 37.1183 31.4158 37.1183 31.293V22.1178C37.1183 20.4207 38.3714 19.4455 40.558 19.4455C41.1021 19.4455 41.6413 19.5257 41.9358 19.6084C42.0007 19.626 42.0731 19.6135 42.1255 19.5708C42.1779 19.5282 42.2104 19.4655 42.2104 19.3954V16.0612C42.2054 15.9684 42.148 15.8857 42.0606 15.8556Z" fill="#24272B"/>
<path d="M57.8857 27.3998L55.0152 25.818C54.9628 25.7879 54.9004 25.7829 54.8429 25.8004C54.7855 25.818 54.7381 25.8606 54.7132 25.9132C54.0092 27.3873 52.901 28.1343 51.4208 28.1343C48.6775 28.1343 47.699 25.6926 47.699 23.4089C47.699 19.9042 49.5636 18.6558 51.3059 18.6558C52.7362 18.6558 53.7771 19.3903 54.486 20.9045C54.511 20.9596 54.5584 20.9998 54.6158 21.0198C54.6732 21.0399 54.7356 21.0323 54.788 21.0048L57.7709 19.3928C57.8757 19.3352 57.9157 19.2048 57.8608 19.0995C56.5852 16.6002 54.2988 15.2791 51.251 15.2791C46.4859 15.2791 43.4082 18.4929 43.4082 23.4665C43.4082 28.3549 46.4859 31.5136 51.251 31.5136C54.3587 31.5136 56.7475 30.1549 57.9731 27.6906C58.028 27.5828 57.9881 27.455 57.8857 27.3998Z" fill="#24272B"/>
<path d="M80.3733 15.9158H76.5741C76.4543 15.9158 76.3545 16.0135 76.3545 16.1364V31.2955C76.3545 31.4158 76.4518 31.5161 76.5741 31.5161H80.3733C80.4931 31.5161 80.5929 31.4183 80.5929 31.2955V16.1364C80.5929 16.0135 80.4956 15.9158 80.3733 15.9158Z" fill="#24272B"/>
<path d="M98.3908 15.9158H94.5367C94.4419 15.9158 94.357 15.9784 94.3271 16.0687L91.167 26.2566L87.5576 16.0612C87.5276 15.9734 87.4452 15.9158 87.3529 15.9158H83.3291C83.2567 15.9158 83.1893 15.9509 83.1494 16.011C83.1095 16.0712 83.0995 16.1464 83.1244 16.2141L88.8655 31.3732C88.898 31.4584 88.9779 31.5136 89.0702 31.5136H92.6247C92.7146 31.5136 92.7969 31.4584 92.8294 31.3732L98.5979 16.2141C98.6229 16.1464 98.6154 16.0712 98.573 16.011C98.5305 15.9509 98.4631 15.9158 98.3908 15.9158Z" fill="#24272B"/>
<path d="M150.38 15.7654C145.53 15.7654 142.395 18.9566 142.395 23.8977C142.395 28.8212 145.53 31.9999 150.38 31.9999C155.23 31.9999 158.362 28.8187 158.362 23.8977C158.362 18.9566 155.23 15.7654 150.38 15.7654ZM150.38 28.6207C147.656 28.6207 146.688 26.179 146.688 23.8952C146.688 20.917 148.068 19.1421 150.38 19.1421C152.691 19.1421 154.071 20.9195 154.071 23.8952C154.071 26.1815 153.1 28.6207 150.38 28.6207Z" fill="#24272B"/>
<path d="M181.459 15.9884C181.419 15.9333 181.352 15.8982 181.282 15.8982H177.483C177.383 15.8982 177.298 15.9659 177.271 16.0611L174.585 26.1413L171.899 16.0611C171.874 15.9659 171.787 15.8982 171.687 15.8982H168.602C168.499 15.8982 168.412 15.9684 168.389 16.0687L166.103 26.0836L163.457 16.0611C163.432 15.9659 163.345 15.8982 163.245 15.8982H159.308C159.239 15.8982 159.174 15.9308 159.131 15.9884C159.089 16.0436 159.079 16.1163 159.099 16.184L163.826 31.3581C163.854 31.4484 163.939 31.511 164.034 31.511H167.531C167.628 31.511 167.713 31.4459 167.74 31.3531L170.479 21.7894L172.371 31.3331C172.391 31.4358 172.48 31.5085 172.585 31.5085H176.524C176.619 31.5085 176.704 31.4459 176.731 31.3556L181.487 16.1815C181.511 16.1188 181.501 16.0461 181.459 15.9884Z" fill="#24272B"/>
<path d="M66.7844 15.7478C62.1765 15.7478 59.4258 18.6107 59.4258 23.4088C59.4258 28.4827 62.3188 31.5111 67.1638 31.5111C69.7922 31.5111 71.7741 30.6337 73.2293 28.8287C73.3017 28.7385 73.2917 28.6081 73.2069 28.5279L70.8805 26.3795C70.8356 26.3369 70.7732 26.3168 70.7108 26.3218C70.6484 26.3268 70.5909 26.3619 70.556 26.4121C69.7248 27.5702 68.609 28.1569 67.2436 28.1569C64.9971 28.1569 63.9313 27.3271 63.6268 25.309H73.4665C73.5713 25.309 73.6612 25.2338 73.6811 25.1311C73.7735 24.6522 73.7935 23.3436 73.7935 22.9225C73.791 18.365 71.2374 15.7478 66.7844 15.7478ZM63.6218 22.3033C63.824 20.7866 64.5428 19.097 66.7569 19.097C68.5192 19.097 69.4877 20.1474 69.7098 22.3033H63.6218Z" fill="#24272B"/>
<path d="M106.937 15.7478C102.329 15.7478 99.5786 18.6107 99.5786 23.4088C99.5786 28.4827 102.472 31.5111 107.317 31.5111C109.945 31.5111 111.927 30.6337 113.382 28.8287C113.455 28.7385 113.445 28.6081 113.36 28.5279L111.033 26.3795C110.988 26.3369 110.929 26.3168 110.864 26.3218C110.801 26.3268 110.746 26.3619 110.709 26.4121C109.878 27.5702 108.762 28.1569 107.396 28.1569C105.15 28.1569 104.084 27.3271 103.78 25.309H113.619C113.724 25.309 113.814 25.2338 113.834 25.1311C113.926 24.6522 113.946 23.3436 113.946 22.9225C113.946 18.365 111.39 15.7478 106.937 15.7478ZM103.775 22.3033C103.977 20.7866 104.696 19.097 106.91 19.097C108.672 19.097 109.64 20.1474 109.863 22.3033H103.775Z" fill="#24272B"/>
<path d="M134.557 15.7605C132.707 15.7605 131.107 16.5151 130.081 17.8487L130.019 16.2819C130.014 16.1641 129.919 16.0714 129.802 16.0714H126.23C126.11 16.0714 126.01 16.1691 126.01 16.292V31.4661C126.01 31.5864 126.108 31.6867 126.23 31.6867H130.029C130.149 31.6867 130.249 31.5889 130.249 31.4661V22.3385C130.249 20.4584 131.472 19.1949 133.294 19.1949C134.802 19.1949 135.778 20.2077 135.778 21.7745V31.4661C135.778 31.5864 135.875 31.6867 135.997 31.6867H139.796C139.916 31.6867 140.016 31.5889 140.016 31.4661V21.2079C140.009 17.949 137.817 15.7605 134.557 15.7605Z" fill="#24272B"/>
</svg>
