<svg width="76" height="60" viewBox="0 0 76 60" fill="none" xmlns="http://www.w3.org/2000/svg">
<path d="M25.567 0.856201H2.35953C2.02158 0.856201 1.70141 1.00294 1.48352 1.25641L1.18115 1.6077C0.998829 1.81669 0.901001 2.08794 0.901001 2.36809V57.0539C0.901001 57.3785 1.0344 57.6853 1.27453 57.9077L1.6525 58.259C1.86594 58.4591 2.14609 58.5658 2.43957 58.5658H13.8899C14.1834 58.5658 14.4635 58.4546 14.677 58.259L15.0549 57.9077C15.2906 57.6853 15.4285 57.3785 15.4285 57.0539V38.6089H28.9509C41.1394 38.6089 48.6811 29.2174 48.6811 20.5107C48.6766 6.92153 41.5485 0.856201 25.567 0.856201ZM36.3103 19.0255C36.3103 23.032 33.1264 25.8335 28.5685 25.8335H15.4285V13.0847H28.5685C33.4155 13.0847 36.3103 15.3036 36.3103 19.0255Z" fill="#24272B"/>
<path d="M43.3005 59.1438C43.3228 59.1438 43.345 59.1438 43.3672 59.1438C44.2788 59.0816 65.7432 57.5964 71.186 51.6066C73.894 48.6229 75.2814 44.7631 75.0857 40.7344C74.8901 36.7101 73.1425 33.0015 70.1588 30.2935C67.175 27.5854 63.3153 26.198 59.291 26.3937C55.2667 26.5849 51.5581 28.3369 48.8456 31.3207C43.4384 37.2793 42.3578 57.2584 42.3134 58.1033C42.3 58.3879 42.4068 58.6591 42.6069 58.8592C42.7936 59.0415 43.0426 59.1438 43.3005 59.1438Z" fill="#7F4BD8"/>
</svg>
