<svg width="30" height="34" viewBox="0 0 30 34" fill="none" xmlns="http://www.w3.org/2000/svg">
<g filter="url(#filter0_d_4758_92865)">
<path d="M17.746 15.5651V16.7803H14.031C13.7948 16.7803 13.5683 16.8741 13.4012 17.0412C13.2342 17.2082 13.1404 17.4347 13.1404 17.671V24.7031C13.1407 24.8044 13.1588 24.9049 13.1938 25H9.63123C9.55249 25 9.47698 24.9687 9.42131 24.913C9.36563 24.8574 9.33435 24.7819 9.33435 24.7031V11.1613C9.33441 11.1021 9.35216 11.0443 9.38531 10.9953C9.41846 10.9463 9.4655 10.9083 9.5204 10.8862L14.1597 9.0198C14.1951 9.00638 14.2327 8.99967 14.2705 9.00001H17.4491C17.5279 9.00001 17.6034 9.03129 17.6591 9.08697C17.7147 9.14264 17.746 9.21816 17.746 9.29689V10.8387H12.8732C12.7945 10.8387 12.7189 10.87 12.6633 10.9257C12.6076 10.9813 12.5763 11.0568 12.5763 11.1356V12.4973C12.5763 12.576 12.6076 12.6515 12.6633 12.7072C12.7189 12.7629 12.7945 12.7942 12.8732 12.7942H17.746V13.6096H12.8732C12.8342 13.6096 12.7956 13.6173 12.7596 13.6322C12.7236 13.6471 12.6908 13.669 12.6633 13.6966C12.6357 13.7241 12.6138 13.7569 12.5989 13.7929C12.584 13.8289 12.5763 13.8675 12.5763 13.9065V15.2682C12.5763 15.3469 12.6076 15.4224 12.6633 15.4781C12.7189 15.5338 12.7945 15.5651 12.8732 15.5651H17.746ZM13.1701 14.9713H17.746V14.2034H13.1701V14.9713ZM13.1701 12.2004H17.746V11.4325H13.1701V12.2004ZM20.6654 17.671V24.7031C20.6654 24.7819 20.6341 24.8574 20.5784 24.913C20.5227 24.9687 20.4472 25 20.3685 25H14.035C13.9563 25 13.8807 24.9687 13.8251 24.913C13.7694 24.8574 13.7381 24.7819 13.7381 24.7031V17.671C13.7381 17.5922 13.7694 17.5167 13.8251 17.461C13.8807 17.4054 13.9563 17.3741 14.035 17.3741H20.3685C20.4472 17.3741 20.5227 17.4054 20.5784 17.461C20.6341 17.5167 20.6654 17.5922 20.6654 17.671ZM16.0775 22.235H15.2225C15.1438 22.235 15.0683 22.2663 15.0126 22.322C14.9569 22.3777 14.9256 22.4532 14.9256 22.5319V23.3889H15.5194V22.8288H16.0775V22.235ZM16.0775 20.4537H15.2225C15.1438 20.4537 15.0683 20.485 15.0126 20.5407C14.9569 20.5964 14.9256 20.6719 14.9256 20.7506V21.6076H15.5194V21.0554H16.0775V20.4537ZM16.0775 18.6823H15.2225C15.1438 18.6823 15.0683 18.7136 15.0126 18.7693C14.9569 18.825 14.9256 18.9005 14.9256 18.9792V19.8362H15.5194V19.284H16.0775V18.6823ZM17.7915 22.2271H16.9345C16.894 22.227 16.8539 22.2353 16.8167 22.2513C16.7794 22.2673 16.7459 22.2908 16.7181 22.3203C16.6902 22.3498 16.6688 22.3846 16.6549 22.4227C16.6411 22.4608 16.6352 22.5014 16.6377 22.5418V23.3988H17.2314V22.8288H17.7915V22.2271ZM17.7915 20.4458H16.9345C16.894 20.4458 16.8539 20.454 16.8167 20.47C16.7794 20.486 16.7459 20.5095 16.7181 20.539C16.6902 20.5685 16.6688 20.6033 16.6549 20.6414C16.6411 20.6795 16.6352 20.7201 16.6377 20.7605V21.6175H17.2314V21.0554H17.7915V20.4458ZM17.7915 18.6744H16.9345C16.8949 18.6744 16.8556 18.6823 16.8191 18.6978C16.7825 18.7132 16.7494 18.7357 16.7218 18.7642C16.6941 18.7926 16.6724 18.8262 16.6579 18.8632C16.6435 18.9001 16.6366 18.9396 16.6377 18.9792V19.8362H17.2314V19.284H17.7915V18.6744ZM19.46 22.2192H18.603C18.5243 22.2192 18.4488 22.2505 18.3931 22.3062C18.3374 22.3618 18.3061 22.4373 18.3061 22.5161V23.3731H18.8999V22.8288H19.46V22.2192ZM19.46 20.4379H18.603C18.5243 20.4379 18.4488 20.4692 18.3931 20.5249C18.3374 20.5805 18.3061 20.6561 18.3061 20.7348V21.5918H18.8999V21.0554H19.46V20.4379ZM19.46 18.6665H18.603C18.5243 18.6665 18.4488 18.6978 18.3931 18.7535C18.3374 18.8091 18.3061 18.8847 18.3061 18.9634V19.8204H18.8999V19.284H19.46V18.6665Z" fill="#373D3F"/>
</g>
<defs>
<filter id="filter0_d_4758_92865" x="-3.57143" y="-1.57143" width="37.1429" height="37.1429" filterUnits="userSpaceOnUse" color-interpolation-filters="sRGB">
<feFlood flood-opacity="0" result="BackgroundImageFix"/>
<feColorMatrix in="SourceAlpha" type="matrix" values="0 0 0 0 0 0 0 0 0 0 0 0 0 0 0 0 0 0 127 0" result="hardAlpha"/>
<feOffset/>
<feGaussianBlur stdDeviation="4.28571"/>
<feComposite in2="hardAlpha" operator="out"/>
<feColorMatrix type="matrix" values="0 0 0 0 0.141176 0 0 0 0 0.152941 0 0 0 0 0.168627 0 0 0 0.08 0"/>
<feBlend mode="normal" in2="BackgroundImageFix" result="effect1_dropShadow_4758_92865"/>
<feBlend mode="normal" in="SourceGraphic" in2="effect1_dropShadow_4758_92865" result="shape"/>
</filter>
</defs>
</svg>
