<svg width="16" height="14" viewBox="0 0 16 14" fill="none" xmlns="http://www.w3.org/2000/svg">
<path d="M5.3186 0.71582H0.314495C0.241624 0.71582 0.172589 0.747461 0.125606 0.802114L0.0604061 0.877862C0.0210943 0.922926 0 0.981415 0 1.04182V12.8334C0 12.9034 0.0287648 12.9696 0.0805413 13.0175L0.162042 13.0933C0.208065 13.1364 0.268471 13.1594 0.331754 13.1594H2.80073C2.86401 13.1594 2.92442 13.1355 2.97044 13.0933L3.05194 13.0175C3.10276 12.9696 3.13248 12.9034 3.13248 12.8334V8.85624H6.04827C8.67641 8.85624 10.3026 6.83121 10.3026 4.95383C10.3016 2.02366 8.76462 0.71582 5.3186 0.71582ZM7.63512 4.63358C7.63512 5.49748 6.9486 6.10154 5.96581 6.10154H3.13248V3.35259H5.96581C7.01093 3.35259 7.63512 3.83104 7.63512 4.63358Z" fill="#24272B"/>
<path d="M9.1423 13.2842C9.14709 13.2842 9.15189 13.2842 9.15668 13.2842C9.35324 13.2708 13.9815 12.9505 15.1551 11.659C15.739 11.0156 16.0382 10.1833 15.996 9.31464C15.9538 8.4469 15.577 7.64724 14.9336 7.06332C14.2902 6.47939 13.458 6.18024 12.5902 6.22243C11.7225 6.26366 10.9228 6.64144 10.338 7.28481C9.17202 8.56963 8.93903 12.8776 8.92944 13.0598C8.92656 13.1212 8.94958 13.1797 8.99272 13.2228C9.03299 13.2621 9.08669 13.2842 9.1423 13.2842Z" fill="#7F4BD8"/>
</svg>
