<svg width="58" height="24" viewBox="0 0 58 24" fill="none" xmlns="http://www.w3.org/2000/svg">
<g clip-path="url(#clip0_5377_27732)">
<path d="M57.8373 12.4006C57.8373 8.29909 55.8506 5.06275 52.0536 5.06275C48.2404 5.06275 45.9333 8.2992 45.9333 12.3686C45.9333 17.1909 48.6571 19.6262 52.5662 19.6262C54.4728 19.6262 55.9147 19.1936 57.0041 18.5849V15.3805C55.9148 15.9253 54.6651 16.2618 53.0789 16.2618C51.5248 16.2618 50.147 15.717 49.9708 13.8265H57.8053C57.8053 13.6181 57.8373 12.7851 57.8373 12.4006ZM49.9227 10.8786C49.9227 9.06815 51.0282 8.31508 52.0376 8.31508C53.0148 8.31508 54.0563 9.06815 54.0563 10.8786H49.9227ZM39.7492 5.06275C38.179 5.06275 37.1696 5.79971 36.609 6.31249L36.4006 5.31914H32.8759V24L36.8812 23.151L36.8973 18.6169C37.4741 19.0335 38.3232 19.6262 39.7331 19.6262C42.601 19.6262 45.2124 17.3191 45.2124 12.2404C45.1964 7.59412 42.5529 5.06275 39.7491 5.06275H39.7492ZM38.7878 16.1015C37.8426 16.1015 37.2817 15.7651 36.8973 15.3485L36.8812 9.40453C37.2978 8.93996 37.8746 8.61958 38.7878 8.61958C40.2458 8.61958 41.2551 10.2537 41.2551 12.3525C41.2551 14.4994 40.2618 16.1015 38.7878 16.1015ZM27.3645 4.11749L31.3859 3.25234V0L27.3645 0.849161V4.11749ZM27.3645 5.33514H31.3859V19.3538H27.3645V5.33514ZM23.0548 6.52067L22.7984 5.33514H19.3378V19.3538H23.3432V9.85322C24.2884 8.61958 25.8906 8.84387 26.3873 9.02005V5.33514C25.8746 5.14284 24.0001 4.79036 23.0548 6.52067ZM15.044 1.85851L11.1348 2.69156L11.1188 15.5247C11.1188 17.896 12.8972 19.6422 15.2684 19.6422C16.5821 19.6422 17.5434 19.4019 18.0721 19.1136V15.8612C17.5595 16.0695 15.028 16.8065 15.028 14.4353V8.74766H18.0721V5.33514H15.028L15.044 1.85851ZM4.21355 9.40453C4.21355 8.77977 4.72623 8.53937 5.5755 8.53937C6.79303 8.53937 8.33105 8.90796 9.54869 9.56483V5.79971C8.21896 5.27104 6.90523 5.06275 5.5755 5.06275C2.32305 5.06275 0.160156 6.76107 0.160156 9.59694C0.160156 14.0187 6.24825 13.3138 6.24825 15.2205C6.24825 15.9573 5.60749 16.1977 4.71023 16.1977C3.3805 16.1977 1.68218 15.6529 0.336342 14.916V18.7291C1.82637 19.3699 3.3324 19.6422 4.71023 19.6422C8.04266 19.6422 10.3338 17.9921 10.3338 15.1243C10.3178 10.3499 4.21355 11.1989 4.21355 9.40453Z" fill="#635BFF"/>
</g>
<defs>
<clipPath id="clip0_5377_27732">
<rect width="57.6771" height="24" fill="white" transform="translate(0.160156)"/>
</clipPath>
</defs>
</svg>
