<svg width="39" height="16" viewBox="0 0 39 16" fill="none" xmlns="http://www.w3.org/2000/svg">
<path id="Vector" d="M38.7256 8.26706C38.7256 5.53272 37.4011 3.37516 34.8698 3.37516C32.3276 3.37516 30.7896 5.5328 30.7896 8.24573C30.7896 11.4606 32.6054 13.0841 35.2115 13.0841C36.4826 13.0841 37.4439 12.7958 38.1702 12.3899V10.2537C37.4439 10.6169 36.6108 10.8412 35.5534 10.8412C34.5173 10.8412 33.5987 10.478 33.4813 9.21768H38.7043C38.7043 9.07874 38.7256 8.52337 38.7256 8.26706ZM33.4492 7.25237C33.4492 6.04544 34.1862 5.54339 34.8591 5.54339C35.5106 5.54339 36.2049 6.04544 36.2049 7.25237H33.4492ZM26.6669 3.37516C25.62 3.37516 24.9471 3.86647 24.5734 4.20833L24.4344 3.54609H22.0847V16L24.7549 15.434L24.7656 12.4112C25.1501 12.689 25.7162 13.0841 26.6561 13.0841C28.568 13.0841 30.309 11.5461 30.309 8.16026C30.2983 5.06275 28.536 3.37516 26.6668 3.37516H26.6669ZM26.026 10.7343C25.3958 10.7343 25.0219 10.5101 24.7656 10.2324L24.7549 6.26969C25.0326 5.95997 25.4171 5.74639 26.026 5.74639C26.9979 5.74639 27.6708 6.83579 27.6708 8.23499C27.6708 9.66625 27.0086 10.7343 26.026 10.7343ZM18.4104 2.745L21.0913 2.16823V0L18.4104 0.566107V2.745ZM18.4104 3.55676H21.0913V12.9026H18.4104V3.55676ZM15.5373 4.34711L15.3664 3.55676H13.0593V12.9026H15.7295V6.56881C16.3596 5.74639 17.4278 5.89591 17.7589 6.01337V3.55676C17.4171 3.42856 16.1675 3.19357 15.5373 4.34711ZM10.1967 1.23901L7.59061 1.79437L7.57994 10.3498C7.57994 11.9307 8.76555 13.0948 10.3463 13.0948C11.2222 13.0948 11.863 12.9346 12.2154 12.7424V10.5741C11.8737 10.713 10.1861 11.2043 10.1861 9.62352V5.83177H12.2154V3.55676H10.1861L10.1967 1.23901ZM2.97643 6.26969C2.97643 5.85318 3.31822 5.69291 3.8844 5.69291C4.69608 5.69291 5.72143 5.93864 6.53319 6.37655V3.86647C5.64671 3.51402 4.77088 3.37516 3.8844 3.37516C1.7161 3.37516 0.27417 4.50738 0.27417 6.39796C0.27417 9.3458 4.3329 8.8759 4.3329 10.147C4.3329 10.6382 3.90573 10.7985 3.30755 10.7985C2.42107 10.7985 1.28885 10.4353 0.391627 9.94397V12.486C1.38498 12.9133 2.389 13.0948 3.30755 13.0948C5.52917 13.0948 7.05657 11.9947 7.05657 10.0828C7.0459 6.89993 2.97643 7.46596 2.97643 6.26969Z" fill="#635BFF"/>
</svg>
