<svg width="12" height="14" viewBox="0 0 12 14" fill="none" xmlns="http://www.w3.org/2000/svg">
<path d="M10.7333 1.86667H8.2218L7.67539 0.773833C7.55973 0.540768 7.38112 0.34475 7.15978 0.207985C6.93844 0.0712195 6.68323 -0.000827031 6.42304 7.16268e-06H4.77695C4.51677 -0.000827031 4.26155 0.0712195 4.04021 0.207985C3.81888 0.34475 3.64026 0.540768 3.52461 0.773833L2.97819 1.86667H0.466666C0.342899 1.86667 0.2242 1.91584 0.136684 2.00336C0.0491666 2.09087 0 2.20957 0 2.33334C0 2.45711 0.0491666 2.57581 0.136684 2.66332C0.2242 2.75084 0.342899 2.80001 0.466666 2.80001H0.933333V11.6667C0.934059 12.2853 1.18012 12.8784 1.61755 13.3158C2.05498 13.7532 2.64805 13.9993 3.26667 14H7.93333C8.55194 13.9993 9.14502 13.7532 9.58244 13.3158C10.0199 12.8784 10.2659 12.2853 10.2667 11.6667V2.80001H10.7333C10.8571 2.80001 10.9758 2.75084 11.0633 2.66332C11.1508 2.57581 11.2 2.45711 11.2 2.33334C11.2 2.20957 11.1508 2.09087 11.0633 2.00336C10.9758 1.91584 10.8571 1.86667 10.7333 1.86667ZM4.3595 1.19128C4.39799 1.11354 4.45752 1.04816 4.53131 1.00256C4.6051 0.956966 4.69021 0.932983 4.77695 0.93334H6.42304C6.50979 0.932983 6.59489 0.956966 6.66868 1.00256C6.74248 1.04816 6.802 1.11354 6.84049 1.19128L7.17819 1.86667H4.02181L4.3595 1.19128ZM9.33333 11.6667C9.33292 12.0378 9.18529 12.3937 8.92283 12.6562C8.66037 12.9186 8.30451 13.0663 7.93333 13.0667H3.26667C2.89549 13.0663 2.53963 12.9186 2.27716 12.6562C2.0147 12.3937 1.86707 12.0378 1.86667 11.6667V2.80001H9.33333V11.6667ZM3.73333 5.13334V10.7333C3.73333 10.8571 3.68417 10.9758 3.59665 11.0633C3.50913 11.1508 3.39043 11.2 3.26667 11.2C3.1429 11.2 3.0242 11.1508 2.93668 11.0633C2.84917 10.9758 2.8 10.8571 2.8 10.7333V5.13334C2.8 5.00957 2.84917 4.89087 2.93668 4.80335C3.0242 4.71584 3.1429 4.66667 3.26667 4.66667C3.39043 4.66667 3.50913 4.71584 3.59665 4.80335C3.68417 4.89087 3.73333 5.00957 3.73333 5.13334ZM6.06666 5.13334V10.7333C6.06666 10.8571 6.0175 10.9758 5.92998 11.0633C5.84246 11.1508 5.72377 11.2 5.6 11.2C5.47623 11.2 5.35753 11.1508 5.27001 11.0633C5.1825 10.9758 5.13333 10.8571 5.13333 10.7333V5.13334C5.13333 5.00957 5.1825 4.89087 5.27001 4.80335C5.35753 4.71584 5.47623 4.66667 5.6 4.66667C5.72377 4.66667 5.84246 4.71584 5.92998 4.80335C6.0175 4.89087 6.06666 5.00957 6.06666 5.13334ZM7.93333 4.66667C7.99462 4.66664 8.05532 4.67868 8.11196 4.70212C8.16859 4.72556 8.22005 4.75994 8.26339 4.80328C8.30673 4.84662 8.3411 4.89808 8.36454 4.95471C8.38798 5.01135 8.40003 5.07204 8.4 5.13334V10.7333C8.4 10.8571 8.35083 10.9758 8.26331 11.0633C8.1758 11.1508 8.0571 11.2 7.93333 11.2C7.80956 11.2 7.69086 11.1508 7.60335 11.0633C7.51583 10.9758 7.46666 10.8571 7.46666 10.7333V5.13334C7.46663 5.07204 7.47868 5.01135 7.50211 4.95471C7.52555 4.89808 7.55993 4.84662 7.60327 4.80328C7.64661 4.75994 7.69807 4.72556 7.7547 4.70212C7.81134 4.67868 7.87204 4.66664 7.93333 4.66667Z" fill="#E53935"/>
</svg>