<svg width="326" height="285" viewBox="0 0 326 285" fill="none" xmlns="http://www.w3.org/2000/svg">
<path fill-rule="evenodd" clip-rule="evenodd" d="M172.452 4.62153C198.144 -6.97613 229.127 5.47144 254.573 17.5995C281.1 30.2432 307.172 48.2011 319.65 74.7804C331.888 100.846 322.976 130.921 321.269 159.659C319.658 186.762 324.117 215.773 309.896 238.913C295.768 261.903 271.164 279.647 244.585 284.44C219.535 288.958 197.888 264.675 172.452 263.699C148.497 262.781 127.008 283.442 103.447 279.029C77.2316 274.119 53.6133 258.419 36.2576 238.192C17.2442 216.032 -5.06974 188.2 1.02328 159.659C7.35044 130.021 40.9773 115.315 66.1131 98.3413C83.5908 86.5385 108.5 90.3387 124.32 76.3966C146.312 57.0137 145.724 16.6867 172.452 4.62153Z" fill="#F5F7FF"/>
<path d="M172.091 91.9542H127.461C126.811 91.9542 126.196 92.2364 125.776 92.7238L125.195 93.3994C124.844 93.8013 124.656 94.323 124.656 94.8617V200.027C124.656 200.651 124.913 201.241 125.375 201.669L126.101 202.344C126.512 202.729 127.051 202.934 127.615 202.934H149.635C150.199 202.934 150.738 202.72 151.148 202.344L151.875 201.669C152.329 201.241 152.594 200.651 152.594 200.027V164.556H178.598C202.038 164.556 216.541 146.495 216.541 129.751C216.532 103.618 202.825 91.9542 172.091 91.9542ZM192.751 126.895C192.751 134.6 186.628 139.987 177.863 139.987H152.594V115.471H177.863C187.184 115.471 192.751 119.738 192.751 126.895Z" fill="#24272B"/>
<path d="M206.194 204.046C206.236 204.046 206.279 204.046 206.322 204.046C208.075 203.926 249.352 201.07 259.819 189.551C265.027 183.813 267.695 176.391 267.319 168.643C266.943 160.904 263.582 153.772 257.844 148.564C252.106 143.357 244.683 140.689 236.944 141.065C229.205 141.433 222.073 144.802 216.857 150.54C206.459 161.999 204.381 200.42 204.295 202.045C204.269 202.592 204.475 203.114 204.86 203.499C205.219 203.849 205.698 204.046 206.194 204.046Z" fill="#7F4BD8"/>
</svg>
