<svg width="67" height="54" viewBox="0 0 67 54" fill="none" xmlns="http://www.w3.org/2000/svg">
<path d="M22.1608 0.816406H1.3104C1.00677 0.816406 0.719119 0.948244 0.523359 1.17596L0.251692 1.49158C0.0878927 1.67935 0 1.92305 0 2.17474V51.3065C0 51.5982 0.119853 51.8738 0.335589 52.0736L0.675174 52.3892C0.866939 52.569 1.11863 52.6649 1.38231 52.6649H11.6697C11.9334 52.6649 12.1851 52.565 12.3768 52.3892L12.7164 52.0736C12.9282 51.8738 13.052 51.5982 13.052 51.3065V34.7348H25.2011C36.1517 34.7348 42.9274 26.2972 42.9274 18.4748C42.9234 6.26573 36.5192 0.816406 22.1608 0.816406ZM31.813 17.1404C31.813 20.74 28.9525 23.2569 24.8575 23.2569H13.052V11.8029H24.8575C29.2122 11.8029 31.813 13.7965 31.813 17.1404Z" fill="#24272B"/>
<path d="M38.093 53.1844C38.113 53.1844 38.1329 53.1844 38.1529 53.1844C38.9719 53.1285 58.2563 51.7941 63.1463 46.4127C65.5793 43.732 66.8258 40.2643 66.65 36.6447C66.4742 33.0291 64.9041 29.6972 62.2234 27.2642C59.5427 24.8312 56.075 23.5847 52.4594 23.7605C48.8438 23.9323 45.5119 25.5064 43.0749 28.1871C38.2168 33.5405 37.246 51.4905 37.2061 52.2496C37.1941 52.5053 37.29 52.749 37.4698 52.9287C37.6376 53.0925 37.8613 53.1844 38.093 53.1844Z" fill="#7F4BD8"/>
</svg>
