<svg width="28" height="28" viewBox="0 0 28 28" fill="none" xmlns="http://www.w3.org/2000/svg">
<path d="M27.5146 2.90181C27.0943 1.98998 25.973 1.56968 25.0612 2.02559C24.8161 2.16524 24.6053 2.30626 24.43 2.51572C24.3246 2.58554 24.1849 2.62113 24.0795 2.69096L22.8884 0.20194C22.8528 0.132116 22.783 0.0622921 22.6776 0.0266966C22.6077 -0.00889887 22.5023 -0.00889887 22.3969 0.0266966L19.6286 1.35883C19.593 1.39442 19.5588 1.39442 19.5232 1.42865C19.4876 1.46425 19.4876 1.49848 19.4533 1.53407C19.4533 1.56967 19.4177 1.6039 19.4177 1.63949V1.67509V1.74491C19.4876 2.02557 19.6286 2.30625 19.7682 2.58552C19.8038 2.65534 19.8737 2.72517 19.9435 2.76076C20.0489 2.86618 20.1543 2.9716 20.2241 3.14686C20.5048 3.7082 20.2597 4.40917 19.6628 4.68844C19.1014 4.9691 18.4005 4.72404 18.1212 4.16271C18.0514 3.98747 18.0158 3.81222 18.0158 3.63698V3.60138C18.0158 3.56579 18.0158 3.49596 17.9802 3.46174C17.8748 3.18107 17.7693 2.93601 17.5941 2.69094C17.5941 2.69094 17.5941 2.65535 17.5585 2.65535L17.5229 2.61975C17.4873 2.58416 17.4873 2.58416 17.4531 2.54993C17.4531 2.54993 17.4175 2.51433 17.3832 2.51433C17.3476 2.51433 17.3476 2.51433 17.3134 2.47874H17.2436H17.208C17.1724 2.47874 17.1382 2.47874 17.1026 2.51433L17.067 2.54993L14.3329 3.84645C14.1576 3.91628 14.0878 4.12711 14.1576 4.30237L15.4898 7.10626L15.5253 7.14186C15.5609 7.17745 15.5609 7.21168 15.5952 7.21168C15.6308 7.24728 15.6308 7.24728 15.665 7.28151C15.7006 7.28151 15.7348 7.3171 15.7704 7.3171H15.806H15.8758H15.9114H15.947C16.1921 7.24728 16.4728 7.10626 16.7178 6.96661C16.7534 6.93102 16.8233 6.89679 16.8575 6.86119C16.9629 6.72155 17.0683 6.61613 17.2436 6.5463C17.5243 6.40665 17.8391 6.40665 18.1198 6.51071C18.4005 6.61613 18.6456 6.8256 18.7852 7.10626C18.9248 7.38692 18.9248 7.7018 18.8208 7.98247C18.7154 8.26314 18.5059 8.5082 18.2252 8.61363C18.05 8.68345 17.9103 8.71905 17.7351 8.71905H17.5599C17.245 8.82447 16.9985 8.96412 16.7891 9.10515L16.7535 9.14074C16.7535 9.14074 16.7535 9.17634 16.7179 9.17634C16.6823 9.17634 16.6823 9.21193 16.6823 9.24616L16.6467 9.28176C16.6467 9.31735 16.6111 9.31735 16.6111 9.35158V9.4214V9.49123V9.56105V9.59665L17.9432 12.4005C17.9788 12.4704 18.0486 12.5402 18.1541 12.5758C18.1897 12.5758 18.2239 12.6114 18.2595 12.6114C18.2951 12.6114 18.3649 12.6114 18.3991 12.5758L20.8882 11.3847C20.958 11.4901 21.0278 11.5955 21.0634 11.7352C21.0634 12.0158 21.099 12.2609 21.2387 12.506C21.4495 12.9619 21.8342 13.2768 22.2902 13.452C22.501 13.5218 22.7105 13.5574 22.9213 13.5574C23.202 13.5574 23.4471 13.4876 23.6921 13.3822C24.148 13.1713 24.4629 12.7866 24.6382 12.3307C24.8134 11.8748 24.7778 11.3847 24.5683 10.9288C24.4287 10.6837 24.2877 10.4387 24.0782 10.2976C24.0084 10.1922 23.9386 10.0525 23.903 9.94713L26.392 8.75603C26.4619 8.72044 26.5317 8.65061 26.5673 8.54519C26.6029 8.47537 26.6029 8.36995 26.5673 8.26453L25.3762 5.7413C25.4816 5.67148 25.587 5.63588 25.7267 5.56606C26.0073 5.56606 26.2524 5.53046 26.5331 5.39082C26.989 5.17998 27.3039 4.82948 27.4791 4.33936C27.7598 3.84787 27.7241 3.32215 27.5146 2.90181ZM26.9533 4.0587C26.8479 4.33936 26.6384 4.58443 26.3577 4.68986C26.2181 4.75968 26.1127 4.79528 25.9716 4.79528C25.9018 4.75968 25.7964 4.75968 25.691 4.79528C25.3761 4.9007 25.0954 5.04034 24.8503 5.21558C24.8147 5.21558 24.8147 5.25118 24.8147 5.25118L24.7791 5.28677C24.7435 5.32237 24.7435 5.32237 24.7435 5.3566C24.7435 5.3566 24.7435 5.39219 24.7079 5.39219V5.46201V5.53184V5.56743V5.63726L25.8991 8.12628L23.41 9.31737C23.3744 9.31737 23.3402 9.35297 23.3402 9.3872L23.3046 9.42279C23.3046 9.45839 23.269 9.45839 23.269 9.49262C23.269 9.52821 23.2334 9.52821 23.2334 9.56244V9.59803V9.70345V9.73905V9.77465C23.3032 10.0197 23.4442 10.3004 23.5839 10.5454C23.6195 10.6153 23.6893 10.6851 23.7591 10.7207C23.8646 10.8261 23.97 10.9315 24.0398 11.1068C24.1794 11.3874 24.1794 11.7023 24.0754 11.983C23.97 12.2637 23.7605 12.5087 23.4798 12.6142C23.1992 12.7538 22.8843 12.7538 22.6036 12.6497C22.3229 12.5443 22.0779 12.3349 21.9382 12.0542C21.8684 11.879 21.8328 11.7037 21.8328 11.5285C21.8328 11.4586 21.8328 11.423 21.7972 11.3532C21.6918 11.0383 21.5521 10.7577 21.3769 10.5126L21.3413 10.477C21.3413 10.477 21.3413 10.4414 21.3057 10.4414C21.2701 10.4058 21.2701 10.4058 21.2359 10.4058H21.2003H21.1305H21.0949H21.0251H20.9895L18.5004 11.5969L17.4489 9.38858C17.5543 9.31875 17.6598 9.28316 17.7994 9.21333C18.0801 9.21333 18.3252 9.17774 18.6058 9.03809C19.0617 8.82725 19.3766 8.47675 19.5519 7.98663C19.7271 7.53072 19.6915 7.0406 19.4821 6.58468C19.2712 6.12877 18.8865 5.81389 18.4306 5.63865C17.9747 5.4634 17.4845 5.499 17.0286 5.70847C16.7835 5.84812 16.5385 5.98913 16.3974 6.19859C16.292 6.26842 16.1524 6.30401 16.047 6.37383L15.0311 4.2011L17.2039 3.14963C17.2737 3.25505 17.3435 3.36047 17.3791 3.50012C17.3791 3.78078 17.4147 4.02585 17.5543 4.30652C17.8692 4.97189 18.536 5.35798 19.2014 5.35798C19.482 5.35798 19.7271 5.28816 20.0078 5.18274C20.9196 4.76244 21.3043 3.64116 20.884 2.72933C20.7444 2.48426 20.6034 2.27342 20.3939 2.09817C20.3241 1.99275 20.2542 1.85311 20.2186 1.74769L22.427 0.696225L23.6181 3.18524L23.6537 3.22084C23.6893 3.25643 23.6893 3.29066 23.7236 3.32626L23.7592 3.36185C23.7947 3.39745 23.8646 3.39745 23.8988 3.39745H23.9344H24.0042H24.0398H24.0754H24.111C24.3561 3.32763 24.6367 3.18661 24.8818 3.04696C24.9174 3.01137 24.9872 2.97714 25.0215 2.94154C25.1269 2.8019 25.2323 2.69648 25.4076 2.62665C25.9689 2.34599 26.6699 2.59106 26.9492 3.18799C27.0231 3.46181 27.0587 3.77803 26.9533 4.0587Z" fill="#373D3F"/>
<path d="M20.9953 15.4837H17.9107H17.8751H17.8052C17.8052 15.4837 17.7696 15.4837 17.7696 15.5192C17.734 15.5192 17.734 15.5548 17.6998 15.5548L17.6642 15.5904C17.6286 15.626 17.6286 15.626 17.6286 15.6603V15.6959C17.6286 15.6959 17.6286 15.7315 17.593 15.7315C17.5574 16.0121 17.5232 16.327 17.5574 16.6433C17.5574 16.7131 17.593 16.7829 17.6273 16.8541C17.6971 16.9938 17.7327 17.1348 17.7327 17.31C17.7327 17.9412 17.2069 18.4669 16.5758 18.4669C15.9446 18.4669 15.4189 17.9412 15.4189 17.31C15.4189 17.0992 15.4545 16.9595 15.5585 16.8199C15.5941 16.7843 15.5941 16.7145 15.5941 16.6447C15.6297 16.3298 15.6297 16.0135 15.5941 15.7328C15.5941 15.6972 15.5941 15.6972 15.5585 15.663V15.6274C15.5585 15.5918 15.5229 15.5576 15.4887 15.5576C15.4887 15.5576 15.4887 15.522 15.4531 15.522C15.4175 15.4864 15.4175 15.4864 15.3833 15.4864C15.3833 15.4864 15.3477 15.4508 15.3135 15.4508H15.2436H15.208H12.4739V13.033C12.6136 13.033 12.719 12.9974 12.86 13.033C13.1051 13.1384 13.3501 13.2083 13.6308 13.2083C14.6467 13.2083 15.4531 12.3676 15.4531 11.3504C15.4531 10.3345 14.6467 9.52814 13.6308 9.52814C13.3502 9.52814 13.0695 9.59796 12.86 9.70338H12.4739V6.9351C12.4739 6.75985 12.3343 6.58461 12.1234 6.58461H9.3551V6.19851C9.49475 5.95344 9.53034 5.70839 9.53034 5.42772C9.53034 4.41187 8.72393 3.60547 7.70807 3.60547C6.6922 3.60547 5.85018 4.41187 5.85018 5.42772C5.85018 5.70838 5.92 5.98906 6.02542 6.19851V6.58461L3.29541 6.58187C3.12016 6.58187 2.94492 6.72152 2.94492 6.93236V10.0169C2.94492 10.0525 2.94492 10.0867 2.98051 10.1223C2.98051 10.1579 3.01611 10.1922 3.05034 10.2278C3.08593 10.2634 3.12016 10.2634 3.15576 10.2976C3.19135 10.2976 3.19135 10.3332 3.22558 10.3332C3.50625 10.3688 3.82114 10.403 4.13742 10.3688C4.20725 10.3688 4.27707 10.3332 4.34827 10.299C4.48792 10.2291 4.62893 10.1935 4.80418 10.1935C5.43535 10.1935 5.96109 10.7193 5.96109 11.3504C5.96109 11.9816 5.43535 12.5073 4.80418 12.5073C4.59334 12.5073 4.45369 12.4717 4.31406 12.3677C4.27846 12.3321 4.24423 12.3321 4.17441 12.3321C3.85951 12.2965 3.57885 12.2965 3.29818 12.3321H3.26258H3.22699H3.19139C3.15579 12.3321 3.12156 12.3321 3.12156 12.3677C3.08597 12.3677 3.08597 12.4033 3.08597 12.4033L3.05037 12.4389C3.01478 12.4744 3.01478 12.4745 3.01478 12.5087V12.5443C3.01478 12.5799 2.97918 12.6141 2.97918 12.6497V18.5025H2.59308C2.34801 18.3628 2.10295 18.3272 1.82228 18.3272C0.806412 18.3272 0 19.1336 0 20.1495C0 21.1653 0.806412 22.0073 1.82228 22.0073C2.10294 22.0073 2.38363 21.9375 2.59308 21.8321H2.97918V24.6004C2.97918 24.7756 3.11883 24.9509 3.32967 24.9509H6.41428H6.48411C6.58953 24.9153 6.65935 24.8811 6.69495 24.8112C6.73054 24.7756 6.73054 24.7414 6.73054 24.7058V24.6702C6.76614 24.3896 6.76614 24.1089 6.73054 23.794C6.73054 23.7584 6.73054 23.7242 6.69495 23.6886V23.653C6.62512 23.5133 6.58953 23.3381 6.58953 23.1629C6.58953 22.5317 7.11527 22.006 7.74643 22.006C8.3776 22.006 8.90333 22.5317 8.90333 23.1629C8.90333 23.3381 8.86774 23.5133 8.79791 23.6188C8.76232 23.6544 8.72809 23.7242 8.72809 23.794C8.69249 24.1445 8.69249 24.4594 8.76369 24.7401V24.7757C8.76369 24.8455 8.79928 24.9153 8.86911 24.9509H8.9047C8.97453 24.9865 9.04435 25.0207 9.11554 25.0207H14.9684C14.9684 25.1604 15.004 25.2658 14.9684 25.4068C14.863 25.6519 14.7932 25.8969 14.7932 26.1776C14.7932 27.1935 15.6338 27.9999 16.651 27.9999C17.6669 27.9999 18.4733 27.1935 18.4733 26.1776C18.4733 25.8969 18.4035 25.6163 18.2981 25.4068V25.0207H21.0664C21.2416 25.0207 21.4169 24.8811 21.4169 24.6702V21.5857V21.5158V21.4802C21.4169 21.4446 21.3813 21.4104 21.3813 21.3748C21.3457 21.3392 21.3457 21.305 21.3115 21.305C21.2759 21.2694 21.2417 21.2694 21.2061 21.2694H21.1705H21.1349H21.0993C20.8186 21.2338 20.5379 21.2338 20.223 21.2694C20.1874 21.2694 20.1532 21.2694 20.1176 21.305H20.082C19.9424 21.3748 19.7671 21.4104 19.5919 21.4104C18.9607 21.4104 18.435 20.8847 18.435 20.2535C18.435 19.6224 18.9607 19.0966 19.5919 19.0966C19.7671 19.0966 19.9424 19.1322 20.082 19.2021C20.1176 19.2377 20.1874 19.2719 20.2573 19.2719C20.6078 19.3075 20.9226 19.3075 21.2033 19.2363C21.2389 19.2363 21.2389 19.2363 21.2389 19.2007C21.2745 19.2007 21.2745 19.2007 21.3087 19.1651C21.3443 19.1651 21.3443 19.1295 21.3443 19.1295C21.3799 19.1295 21.3799 19.0939 21.4142 19.0597C21.4142 19.0597 21.4142 19.0241 21.4498 19.0241C21.4498 18.9885 21.4853 18.9543 21.4853 18.9543V18.9187V18.8488V15.7643C21.3101 15.6246 21.1705 15.4837 20.9953 15.4837ZM4.03216 13.0659C4.27723 13.1713 4.52229 13.2411 4.80297 13.2411C5.81883 13.2411 6.62524 12.4005 6.62524 11.3832C6.62524 10.3674 5.81883 9.56098 4.80297 9.56098C4.5223 9.56098 4.24162 9.6308 4.03216 9.73622H3.64606V7.31842H6.38018C6.45 7.31842 6.51983 7.28283 6.59102 7.2486C6.66085 7.213 6.69644 7.14318 6.69644 7.03776V7.00217C6.73204 6.7215 6.73204 6.44083 6.69644 6.12595C6.69644 6.09035 6.66085 6.02053 6.66085 5.9863C6.59102 5.84665 6.5212 5.67141 6.5212 5.49618C6.5212 4.86502 7.04693 4.33929 7.6781 4.33929C8.30927 4.33929 8.835 4.86502 8.835 5.49618C8.835 5.67142 8.79941 5.84667 8.72958 5.9863C8.69399 6.02189 8.65976 6.09172 8.65976 6.16154C8.62416 6.51203 8.62416 6.82691 8.69535 7.10758C8.69535 7.14317 8.69535 7.14317 8.73095 7.1774V7.213C8.73095 7.24859 8.76655 7.24859 8.76655 7.28282L8.83774 7.35401C8.87333 7.35401 8.90756 7.38961 8.90756 7.38961H8.94316H9.01298H11.7471V10.1237C11.7471 10.1593 11.7471 10.1935 11.7827 10.2291C11.7827 10.2291 11.7827 10.2647 11.8183 10.2647C11.8183 10.3003 11.8539 10.3003 11.8539 10.3003C11.8895 10.3359 11.8895 10.3359 11.9237 10.3701C11.9237 10.3701 11.9593 10.3701 11.9593 10.4057C11.9949 10.4413 12.0291 10.4413 12.0647 10.4413H12.1003C12.381 10.4769 12.6617 10.4769 12.9409 10.4413C13.0108 10.4413 13.0806 10.4057 13.1518 10.3715C13.2914 10.3017 13.4325 10.2661 13.6077 10.2661C14.2389 10.2661 14.7646 10.7918 14.7646 11.423C14.7646 12.0541 14.2389 12.5798 13.6077 12.5798C13.3969 12.5798 13.2572 12.5442 13.1176 12.4402H13.082C13.0464 12.4046 12.9766 12.4046 12.9423 12.4046C12.6274 12.369 12.3112 12.369 12.0305 12.4046C11.9949 12.4046 11.9949 12.4046 11.9607 12.4402H11.9251C11.8895 12.4402 11.8552 12.4758 11.8552 12.51C11.8552 12.51 11.8197 12.51 11.8197 12.5456C11.7841 12.5812 11.7841 12.5812 11.7841 12.6154C11.7841 12.6154 11.7841 12.651 11.7485 12.651V12.7209V12.7565V15.4905H9.33063V15.1044C9.47028 14.8594 9.50587 14.6143 9.50587 14.3336C9.50587 13.3178 8.69946 12.5114 7.6836 12.5114C6.66773 12.5114 5.82571 13.3178 5.82571 14.3336C5.82571 14.6143 5.89553 14.895 6.00095 15.1044V15.4905L3.64607 15.4837V13.0659C3.75149 13.0659 3.89113 13.0303 4.03216 13.0659ZM7.71233 21.3023C6.69646 21.3023 5.85444 22.1087 5.85444 23.1246C5.85444 23.4052 5.92427 23.6859 6.02969 23.8953V24.2814H3.64606V21.5132V21.4433V21.4077C3.64606 21.3721 3.61047 21.3379 3.61047 21.3023C3.57487 21.2667 3.57487 21.2325 3.54064 21.2325C3.50504 21.1969 3.47082 21.1969 3.43522 21.1969H3.39962H3.36403H3.32843C3.04777 21.1613 2.76708 21.1613 2.4522 21.1969C2.41661 21.1969 2.34678 21.2325 2.31255 21.2325C2.1729 21.3023 1.99766 21.3721 1.82242 21.3721C1.19126 21.3721 0.665521 20.8464 0.665521 20.2152C0.665521 19.5841 1.19126 19.0584 1.82242 19.0584C1.99767 19.0584 2.17292 19.094 2.31255 19.1638C2.34815 19.1994 2.41797 19.2336 2.4878 19.2336C2.83829 19.2692 3.15317 19.2692 3.43385 19.198C3.46944 19.198 3.46944 19.198 3.46944 19.1624C3.50504 19.1624 3.50504 19.1624 3.53927 19.1268C3.57486 19.1268 3.57486 19.0912 3.57486 19.0912C3.61046 19.0912 3.61046 19.0556 3.64469 19.0214C3.64469 19.0214 3.64469 18.9858 3.68028 18.9858C3.68028 18.9502 3.71588 18.916 3.71588 18.916V18.8804V18.8106V16.0765H6.45C6.62524 16.0765 6.76489 15.9368 6.80049 15.7958V15.7602C6.83608 15.4796 6.83608 15.1989 6.80049 14.884C6.80049 14.8484 6.76489 14.7786 6.76489 14.7444C6.69507 14.6047 6.62524 14.4295 6.62524 14.2542C6.62524 13.6231 7.15098 13.0973 7.78215 13.0973C8.41331 13.0973 8.93905 13.6231 8.93905 14.2542C8.93905 14.4295 8.90345 14.6047 8.83363 14.7444C8.79803 14.78 8.7638 14.8498 8.7638 14.9196C8.72821 15.2701 8.72821 15.585 8.7994 15.8656V15.9012C8.7994 15.9368 8.7994 15.9368 8.835 15.9711L8.87059 16.0066C8.87059 16.0422 8.90619 16.0422 8.94042 16.0765C8.94042 16.0765 8.97601 16.0765 8.97601 16.1121C9.01161 16.1121 9.01161 16.1477 9.04584 16.1477H9.08143H9.11703H11.8511V18.5655H11.465C11.22 18.4258 10.9749 18.3902 10.6942 18.3902C9.67838 18.3902 8.87197 19.1966 8.87197 20.2125C8.87197 21.2283 9.67838 22.0703 10.6942 22.0703C10.9749 22.0703 11.2556 22.0005 11.465 21.8951H11.8511V24.3129H9.3977V23.9268C9.53735 23.6817 9.57295 23.4367 9.57295 23.1204C9.53461 22.1428 8.72819 21.3023 7.71233 21.3023ZM20.2245 18.6038C19.9795 18.4642 19.7344 18.4286 19.4537 18.4286C18.4379 18.4286 17.6315 19.235 17.6315 20.2508C17.6315 21.2667 18.4379 22.1087 19.4537 22.1087C19.7344 22.1087 20.0151 22.0389 20.2245 21.9335H20.6106V24.3513H17.8765H17.8409C17.8053 24.3513 17.7711 24.3513 17.7711 24.3869C17.7711 24.3869 17.7355 24.3869 17.7355 24.4224C17.6999 24.4224 17.6999 24.458 17.6657 24.458L17.6301 24.4936C17.5945 24.5292 17.5945 24.5292 17.5945 24.5635V24.5991C17.5945 24.5991 17.5945 24.6347 17.5589 24.6347C17.5233 24.9153 17.4891 25.2302 17.5233 25.5465C17.5233 25.6163 17.5589 25.6861 17.5931 25.7573C17.6629 25.897 17.6985 26.038 17.6985 26.2132C17.6985 26.8444 17.1728 27.3701 16.5416 27.3701C15.9105 27.3701 15.3847 26.8444 15.3847 26.2132C15.3847 26.0024 15.4203 25.8627 15.5244 25.7231C15.5627 25.6478 15.5627 25.578 15.5627 25.5424C15.5983 25.2617 15.5983 24.9468 15.5627 24.7018V24.632V24.5964C15.5627 24.5608 15.5627 24.5608 15.5271 24.5265C15.5271 24.4909 15.4915 24.4909 15.4915 24.4567L15.4559 24.4211C15.4203 24.4211 15.4203 24.3855 15.3861 24.3855L15.3505 24.3499H15.2807H15.2451H12.511V21.6159V21.546V21.5104C12.511 21.4748 12.4754 21.4748 12.4754 21.4406C12.4754 21.405 12.4398 21.405 12.4398 21.3708L12.3344 21.2654H12.2988C12.2632 21.2654 12.2632 21.2298 12.2289 21.2298C11.914 21.1942 11.5978 21.1599 11.2829 21.2298C11.2473 21.2298 11.1775 21.2654 11.1432 21.2654C11.0036 21.3352 10.8283 21.405 10.6531 21.405C10.0219 21.405 9.49621 20.8793 9.49621 20.2481C9.49621 19.617 10.0219 19.0912 10.6531 19.0912C10.8284 19.0912 11.0036 19.1268 11.1432 19.1967C11.1788 19.2323 11.2487 19.2665 11.3185 19.2665C11.6334 19.3021 11.914 19.3021 12.1947 19.2665H12.2303H12.2659H12.3015C12.3371 19.2665 12.3713 19.2309 12.4069 19.2309C12.4069 19.2309 12.4425 19.2309 12.4425 19.1953C12.4781 19.1597 12.4781 19.1597 12.5124 19.1255C12.5124 19.1255 12.5123 19.0899 12.5479 19.0899C12.5479 19.0543 12.5835 19.0543 12.5835 19.02V18.9502V18.9146V16.1805H15.0014C15.0014 16.3202 15.037 16.4256 15.0014 16.5666C14.896 16.8117 14.8261 17.0568 14.8261 17.3374C14.8261 18.3533 15.6667 19.1597 16.684 19.1597C17.6999 19.1597 18.5063 18.3533 18.5063 17.3374C18.5063 17.0568 18.4365 16.7761 18.331 16.5666V16.1805H20.7489V18.5983C20.5052 18.6038 20.3998 18.6038 20.2245 18.6038Z" fill="#373D3F"/>
</svg>
