<svg width="26" height="30" viewBox="0 0 26 30" fill="none" xmlns="http://www.w3.org/2000/svg">
<path d="M5.66667 25.666H3.66667C2.19391 25.666 1 24.4721 1 22.9993V4.33268C1 2.85992 2.19391 1.66602 3.66667 1.66602H22.3333C23.8061 1.66602 25 2.85992 25 4.33268V22.9993C25 24.4721 23.8061 25.666 22.3333 25.666H20.3333M13 24.3327C15.2092 24.3327 17 22.5419 17 20.3327C17 18.1235 15.2092 16.3327 13 16.3327C10.7908 16.3327 9 18.1235 9 20.3327C9 22.5419 10.7908 24.3327 13 24.3327ZM13 24.3327L13.0285 24.3324L8.77156 28.5895L5.00032 24.8181L9.0262 20.7923M13 24.3327L17.2571 28.5895L21.0283 24.8181L17.0024 20.7923M9 6.99935H17M6.33333 11.666H19.6667" stroke="white" stroke-width="1.73333" stroke-linecap="round" stroke-linejoin="round"/>
</svg>
