<svg width="28" height="28" viewBox="0 0 28 28" fill="none" xmlns="http://www.w3.org/2000/svg">
<path d="M23.807 17.7266H22.873V18.6606H23.807V17.7266Z" fill="#373D3F"/>
<path d="M23.807 19.5938H22.873V20.5277H23.807V19.5938Z" fill="#373D3F"/>
<path d="M23.807 21.4629H22.873V22.3969H23.807V21.4629Z" fill="#373D3F"/>
<path d="M23.807 23.3301H22.873V24.2641H23.807V23.3301Z" fill="#373D3F"/>
<path d="M23.807 25.1973H22.873V26.1313H23.807V25.1973Z" fill="#373D3F"/>
<path d="M21.9379 17.7266H21.0039V18.6606H21.9379V17.7266Z" fill="#373D3F"/>
<path d="M21.9379 19.5938H21.0039V20.5277H21.9379V19.5938Z" fill="#373D3F"/>
<path d="M20.0707 17.7266H19.1367V18.6606H20.0707V17.7266Z" fill="#373D3F"/>
<path d="M23.807 15.8574H22.873V16.7914H23.807V15.8574Z" fill="#373D3F"/>
<path d="M5.12736 17.7266H4.19336V18.6606H5.12736V17.7266Z" fill="#373D3F"/>
<path d="M5.12736 19.5938H4.19336V20.5277H5.12736V19.5938Z" fill="#373D3F"/>
<path d="M5.12736 21.4629H4.19336V22.3969H5.12736V21.4629Z" fill="#373D3F"/>
<path d="M5.12736 23.3301H4.19336V24.2641H5.12736V23.3301Z" fill="#373D3F"/>
<path d="M5.12736 25.1973H4.19336V26.1313H5.12736V25.1973Z" fill="#373D3F"/>
<path d="M8.86369 23.3301H7.92969V24.2641H8.86369V23.3301Z" fill="#373D3F"/>
<path d="M10.7309 21.4629H9.79688V22.3969H10.7309V21.4629Z" fill="#373D3F"/>
<path d="M8.86369 25.1973H7.92969V26.1313H8.86369V25.1973Z" fill="#373D3F"/>
<path d="M10.7309 23.3301H9.79688V24.2641H10.7309V23.3301Z" fill="#373D3F"/>
<path d="M10.7309 25.1973H9.79688V26.1313H10.7309V25.1973Z" fill="#373D3F"/>
<path d="M18.2035 23.3301H17.2695V24.2641H18.2035V23.3301Z" fill="#373D3F"/>
<path d="M18.2035 21.4629H17.2695V22.3969H18.2035V21.4629Z" fill="#373D3F"/>
<path d="M18.2035 25.1973H17.2695V26.1313H18.2035V25.1973Z" fill="#373D3F"/>
<path d="M20.0707 23.3301H19.1367V24.2641H20.0707V23.3301Z" fill="#373D3F"/>
<path d="M20.0707 25.1973H19.1367V26.1313H20.0707V25.1973Z" fill="#373D3F"/>
<path d="M6.9965 17.7266H6.0625V18.6606H6.9965V17.7266Z" fill="#373D3F"/>
<path d="M6.9965 19.5938H6.0625V20.5277H6.9965V19.5938Z" fill="#373D3F"/>
<path d="M8.86369 17.7266H7.92969V18.6606H8.86369V17.7266Z" fill="#373D3F"/>
<path d="M5.12736 15.8574H4.19336V16.7914H5.12736V15.8574Z" fill="#373D3F"/>
<path d="M27.0758 27.066H25.6748V13.056C25.675 12.9726 25.6528 12.8906 25.6105 12.8187C25.5683 12.7467 25.5075 12.6874 25.4346 12.6468C25.3617 12.6063 25.2792 12.5861 25.1958 12.5882C25.1124 12.5904 25.0311 12.6148 24.9603 12.6591L21.5886 14.7652C22.8925 12.9379 23.4947 10.702 23.2849 8.46692C23.075 6.23185 22.0672 4.14713 20.4459 2.59443C18.8245 1.04172 16.6982 0.124917 14.4562 0.0118596C12.2141 -0.101198 10.0063 0.597055 8.23704 1.97879L8.81612 2.70731C9.68191 1.98311 10.6847 1.4407 11.7646 1.11243C12.8446 0.784151 13.9796 0.676734 15.1019 0.796583C16.2243 0.916432 17.311 1.26109 18.2973 1.81001C19.2836 2.35892 20.1492 3.10084 20.8425 3.99153C21.5359 4.88221 22.0427 5.90341 22.3329 6.99421C22.623 8.08502 22.6905 9.22309 22.5314 10.3405C22.3722 11.458 21.9896 12.532 21.4064 13.4983C20.8232 14.4647 20.0513 15.3038 19.1368 15.9654V15.391C19.1368 15.2672 19.0876 15.1484 19 15.0608C18.9124 14.9732 18.7937 14.924 18.6698 14.924H13.9998C12.8914 14.924 11.808 14.5953 10.8864 13.9796C9.96483 13.3638 9.24655 12.4886 8.8224 11.4646C8.39825 10.4406 8.28727 9.3138 8.5035 8.22673C8.71973 7.13967 9.25346 6.14113 10.0372 5.3574C10.8209 4.57366 11.8195 4.03994 12.9065 3.8237C13.9936 3.60747 15.1204 3.71845 16.1444 4.1426C17.1684 4.56676 18.0436 5.28503 18.6594 6.20661C19.2751 7.12818 19.6038 8.21165 19.6038 9.32002C19.6079 10.51 19.2279 11.6696 18.5204 12.6264L19.2769 13.1774C20.1011 12.0607 20.5432 10.708 20.5378 9.32002C20.5398 8.17578 20.2415 7.05105 19.6726 6.05822C19.1038 5.0654 18.2843 4.23925 17.2962 3.66235C16.308 3.08544 15.1857 2.77797 14.0415 2.77067C12.8973 2.76338 11.7712 3.0565 10.7758 3.62076C9.78032 4.18501 8.9504 5.00064 8.36893 5.98613C7.78746 6.97161 7.47481 8.09245 7.46223 9.23662C7.44964 10.3808 7.73756 11.5082 8.29721 12.5063C8.85686 13.5043 9.66864 14.338 10.6514 14.924H9.32982C9.20596 14.924 9.08718 14.9732 8.9996 15.0608C8.91202 15.1484 8.86282 15.2672 8.86282 15.391V15.9654C7.18113 14.6623 6.05613 12.77 5.71466 10.67C5.3732 8.57013 5.84068 6.41885 7.02284 4.65002L6.24762 4.11764C5.18684 5.69771 4.63406 7.56412 4.66327 9.46701C4.69248 11.3699 5.3023 13.2185 6.41107 14.7652L3.03934 12.6591C2.96858 12.6148 2.88726 12.5904 2.80385 12.5882C2.72044 12.5861 2.63797 12.6063 2.56503 12.6468C2.49209 12.6874 2.43134 12.7467 2.38909 12.8187C2.34685 12.8906 2.32466 12.9726 2.32483 13.056V27.066H0.923828V28H27.0758V27.066ZM24.7408 27.066H21.9388V21.462C21.9441 21.3602 21.916 21.2594 21.8586 21.1751C21.8013 21.0907 21.7179 21.0275 21.6212 20.995L20.0708 20.528V19.594H19.1368V20.1918L18.2028 19.8789V17.9829L24.7408 13.8966V27.066ZM8.00354 21.462L11.6648 20.2431V27.066H6.99482V21.7982L7.92882 21.4854V22.4194H8.86282V21.462H8.00354ZM10.7308 18.193H17.2688V19.127H10.7308V18.193ZM15.4008 24.731H12.5988V23.797H15.4008V24.731ZM15.4008 22.863H12.5988V21.929H15.4008V22.863ZM15.4008 20.995H12.5988V20.061H15.4008V20.995ZM12.5988 25.665H15.4008V27.066H12.5988V25.665ZM16.3348 20.2431L19.9961 21.462H19.1368V22.396H20.0708V21.462L21.0048 21.7749V27.066H16.3348V20.2431ZM18.2028 15.858V16.8854L17.6004 17.259H10.3992L9.79682 16.8854V15.858H18.2028ZM3.25883 13.8966L9.79682 17.9829V19.8789L8.86282 20.1918V19.594H7.92882V20.528L6.37838 21.0417C6.2893 21.0717 6.21134 21.1278 6.15469 21.2028C6.09803 21.2778 6.06532 21.3681 6.06082 21.462V27.066H3.25883V13.8966Z" fill="#373D3F"/>
<path d="M13.5321 6.98519H16.3341V6.05119H14.4661V5.11719H13.5321V6.05119C13.0366 6.05119 12.5615 6.24799 12.2112 6.59831C11.8609 6.94863 11.6641 7.42376 11.6641 7.91918C11.6641 8.41461 11.8609 8.88974 12.2112 9.24006C12.5615 9.59038 13.0366 9.78718 13.5321 9.78718H14.4661C14.7138 9.78718 14.9513 9.88559 15.1265 10.0607C15.3017 10.2359 15.4001 10.4735 15.4001 10.7212C15.4001 10.9689 15.3017 11.2065 15.1265 11.3816C14.9513 11.5568 14.7138 11.6552 14.4661 11.6552H11.6641V12.5892H13.5321V13.5232H14.4661V12.5892C14.9615 12.5892 15.4366 12.3924 15.7869 12.0421C16.1373 11.6917 16.3341 11.2166 16.3341 10.7212C16.3341 10.2258 16.1373 9.75063 15.7869 9.40031C15.4366 9.04999 14.9615 8.85318 14.4661 8.85318H13.5321C13.2843 8.85318 13.0468 8.75478 12.8716 8.57962C12.6965 8.40446 12.5981 8.1669 12.5981 7.91918C12.5981 7.67147 12.6965 7.43391 12.8716 7.25875C13.0468 7.08359 13.2843 6.98519 13.5321 6.98519Z" fill="#373D3F"/>
</svg>
