<svg width="26" height="28" viewBox="0 0 26 28" fill="none" xmlns="http://www.w3.org/2000/svg">
<path d="M9.54184 20.583L10.7301 19.89C10.813 19.8414 10.873 19.762 10.8978 19.6693C10.9225 19.5766 10.9093 19.4778 10.8607 19.3947L10.4273 18.6541C10.6656 18.4396 10.8819 18.203 11.0735 17.9461L11.8803 18.3019C11.9668 18.3398 12.0683 18.3416 12.1566 18.308C12.2466 18.2727 12.3182 18.2039 12.357 18.1165L12.9105 16.8577C12.9493 16.7694 12.9511 16.6706 12.9167 16.5805C12.8813 16.4913 12.8125 16.4198 12.7251 16.381L11.9403 16.0367C12.0075 15.7233 12.0428 15.4046 12.0472 15.0833L12.907 14.8962C13.0006 14.8759 13.0827 14.8194 13.1348 14.7381C13.186 14.6578 13.2037 14.5598 13.1833 14.4663L12.8911 13.1227C12.8497 12.9276 12.6598 12.7978 12.4612 12.8464L11.6252 13.0273C11.551 12.8587 11.4708 12.7007 11.3833 12.5497H11.3824C11.3101 12.4262 11.2324 12.3088 11.1503 12.1948L11.7373 11.5381C11.8009 11.4666 11.8336 11.3721 11.8283 11.2768C11.8229 11.1805 11.7797 11.0914 11.7082 11.0269L10.6815 10.1115C10.5323 9.97912 10.3037 9.99321 10.1704 10.1407L9.59921 10.7807C9.31934 10.6182 9.02714 10.4858 8.72702 10.3834L8.81529 9.50857C8.82411 9.41322 8.79588 9.31788 8.73494 9.24375C8.67405 9.16957 8.58663 9.12193 8.49128 9.11219L7.12386 8.97537C6.912 8.96304 6.7487 9.10161 6.72748 9.29938L6.64272 10.1495C6.32669 10.1831 6.01242 10.2493 5.70341 10.3464L5.25939 9.5845C5.21084 9.50149 5.1314 9.44152 5.03871 9.41679C4.94687 9.39206 4.84717 9.4053 4.76507 9.45385L3.57769 10.1468C3.40466 10.2475 3.34637 10.469 3.44704 10.6412L3.87963 11.3837C3.6413 11.5973 3.42497 11.8339 3.23343 12.0908L2.4266 11.7359C2.33742 11.6979 2.23856 11.6962 2.14939 11.7297C2.06021 11.765 1.98874 11.8339 1.94987 11.9213L1.39726 13.1801C1.31691 13.3628 1.39992 13.5765 1.58263 13.6568L2.36656 14.0011C2.30035 14.3153 2.26414 14.634 2.25973 14.9536L1.39986 15.1407C1.20476 15.1831 1.08118 15.3756 1.12356 15.5707L1.41576 16.9152C1.43608 17.0088 1.49255 17.0909 1.57381 17.1429C1.65325 17.1941 1.75126 17.2144 1.84569 17.1915L2.68258 17.0096C2.75671 17.1782 2.83706 17.3362 2.92448 17.4854C2.99601 17.6099 3.07455 17.7282 3.15665 17.8421L2.57049 18.4988C2.43808 18.6481 2.45132 18.8767 2.59963 19.01L3.62546 19.9254C3.69783 19.9889 3.80466 20.0146 3.88677 20.0163C3.98302 20.011 4.07214 19.9678 4.13659 19.8963L4.70775 19.2562C4.98762 19.4178 5.27983 19.5511 5.57995 19.6535L5.49168 20.5284C5.47227 20.727 5.61701 20.9044 5.81568 20.9247L7.18402 21.0625C7.19635 21.0634 7.20784 21.0642 7.22023 21.0642C7.30324 21.0642 7.38444 21.0351 7.44889 20.9821C7.52308 20.9212 7.57072 20.8338 7.58045 20.7385L7.66522 19.8874C7.98124 19.8539 8.29467 19.7877 8.60362 19.6915L9.04764 20.4524C9.14727 20.6253 9.36886 20.6836 9.54184 20.583ZM9.07841 19.0707C8.99014 18.918 8.80211 18.8536 8.63699 18.9145C8.20797 19.0778 7.76479 19.1697 7.32162 19.1882C7.14151 19.1952 6.99411 19.3338 6.97555 19.513L6.8961 20.3057L6.24725 20.2404L6.32935 19.431C6.34701 19.2544 6.23401 19.092 6.06363 19.0461C5.63545 18.9296 5.22324 18.7424 4.8401 18.4872C4.69004 18.3884 4.49052 18.4131 4.3696 18.5473L3.83725 19.1449L3.35085 18.7106L3.89553 18.1006C4.01295 17.9682 4.01827 17.7713 3.90787 17.6336C3.77897 17.4738 3.65629 17.3061 3.54946 17.1216C3.4338 16.9247 3.33404 16.7102 3.24311 16.4657C3.17956 16.2953 2.99945 16.1955 2.82732 16.2379L2.04515 16.4083L1.90658 15.77L2.70284 15.597C2.87587 15.5599 2.99595 15.4028 2.98712 15.2262C2.96505 14.776 3.01626 14.3267 3.13809 13.8897C3.18664 13.7167 3.10103 13.534 2.93591 13.4615L2.20495 13.1402L2.46626 12.5435L3.21397 12.8719C3.37993 12.9434 3.56621 12.8869 3.6624 12.7386C3.90871 12.3607 4.21416 12.0279 4.569 11.7481C4.71114 11.6368 4.74911 11.4373 4.65818 11.282L4.25388 10.589L4.81713 10.2606L5.2285 10.9668C5.31767 11.1204 5.5057 11.1857 5.66991 11.123C6.09894 10.9588 6.54211 10.867 6.98613 10.8485C7.16624 10.8414 7.31364 10.7028 7.3322 10.5236L7.41165 9.73088L8.0596 9.79617L7.97749 10.6057C7.95984 10.7822 8.07284 10.9447 8.24322 10.9906C8.67139 11.1062 9.08276 11.2942 9.46675 11.5494C9.61856 11.6491 9.81633 11.6236 9.93725 11.4893L10.4696 10.8917L10.9569 11.326L10.4113 11.936C10.2939 12.0684 10.2886 12.2662 10.3998 12.4039C10.5296 12.5637 10.6514 12.7323 10.7582 12.915C10.8739 13.1119 10.9737 13.3264 11.0646 13.571C11.1273 13.7404 11.3056 13.8384 11.4804 13.7987L12.2616 13.6293L12.4002 14.2666L11.6039 14.4397C11.4309 14.4767 11.3108 14.6338 11.3197 14.8104C11.3417 15.2632 11.2905 15.7126 11.1687 16.1469C11.1192 16.3208 11.2058 16.5036 11.3709 16.5759L12.1027 16.8973L11.8405 17.494L11.0928 17.1647C10.933 17.0941 10.7414 17.1488 10.6443 17.2981C10.398 17.6759 10.0926 18.0096 9.73773 18.2894C9.59649 18.4015 9.55852 18.6002 9.64946 18.7564L10.0538 19.4476L9.48966 19.7761L9.07841 19.0707Z" fill="#373D3F"/>
<path d="M9.12289 13.8689C8.48902 12.7866 7.09246 12.4167 6.00575 13.0497C4.91995 13.6835 4.55181 15.0818 5.18476 16.1685C5.49196 16.6938 5.98543 17.069 6.57425 17.2234C6.76761 17.2747 6.96356 17.2994 7.15775 17.2994C7.55679 17.2994 7.9496 17.1935 8.30359 16.9878C9.38855 16.3539 9.75578 14.9548 9.12283 13.8698L9.12289 13.8689ZM7.93817 16.3628C7.19663 16.7971 6.24058 16.5429 5.8098 15.804C5.37721 15.0624 5.62884 14.1073 6.36948 13.6747C6.61579 13.5308 6.88502 13.4629 7.15165 13.4629C7.68751 13.4629 8.20922 13.7392 8.49791 14.2335C8.93044 14.9751 8.67972 15.9302 7.93817 16.3628Z" fill="#373D3F"/>
<path d="M6.75385 21.7216C6.65942 21.5442 6.44049 21.4824 6.26389 21.5742L5.56648 21.9494C5.41376 21.832 5.24955 21.7305 5.07566 21.6466L5.09864 20.8557C5.10215 20.7603 5.06684 20.6667 5.00063 20.597C4.93534 20.5272 4.8444 20.4867 4.74815 20.484L3.17238 20.4372C2.99052 20.4054 2.80605 20.5882 2.80073 20.7877L2.77691 21.5787C2.59771 21.652 2.42824 21.7429 2.26844 21.8523L1.59486 21.4366C1.51366 21.3845 1.4139 21.3694 1.32206 21.3915C1.22847 21.4136 1.14818 21.4719 1.09697 21.554L0.268908 22.8958C0.164736 23.0653 0.216852 23.2886 0.387229 23.3937L1.05108 23.8033C1.03784 23.8996 1.02992 23.9975 1.02726 24.0955C1.02375 24.1953 1.02635 24.2941 1.03433 24.3912L0.34666 24.7611C0.261895 24.807 0.199258 24.8838 0.17187 24.9756C0.143635 25.0675 0.154216 25.1672 0.199258 25.2511L0.946968 26.6388C1.04231 26.8162 1.26299 26.8798 1.43694 26.7862L2.13344 26.411C2.28616 26.5284 2.45037 26.6299 2.62516 26.7138L2.60218 27.5048C2.59868 27.6001 2.63398 27.6937 2.70019 27.7634C2.76549 27.8331 2.85642 27.8737 2.95267 27.8764L4.52844 27.9232C4.53195 27.9241 4.53551 27.9241 4.53902 27.9241C4.63086 27.9241 4.71998 27.8888 4.78709 27.8253C4.8568 27.7591 4.89743 27.6681 4.90009 27.5728L4.92306 26.7818C5.10227 26.7085 5.27174 26.6167 5.43244 26.5081L6.10512 26.9239C6.18632 26.9751 6.28341 26.991 6.37791 26.969C6.47151 26.9469 6.5518 26.8886 6.60216 26.8065L7.43107 25.4647C7.48228 25.3835 7.49818 25.2846 7.47611 25.1919C7.45404 25.0983 7.39491 25.0171 7.31365 24.9668L6.6489 24.5572C6.66214 24.4609 6.67096 24.3638 6.67362 24.265C6.67362 24.2641 6.67362 24.2641 6.67362 24.2632C6.67628 24.1644 6.67453 24.0664 6.66655 23.9693L7.35422 23.5994C7.43899 23.5535 7.50162 23.4766 7.52901 23.3849C7.55725 23.293 7.54667 23.1933 7.50162 23.1094L6.75385 21.7216ZM6.10681 23.4492C5.96999 23.5233 5.8958 23.6752 5.92144 23.8279C5.94442 23.9621 5.955 24.1015 5.95143 24.2437C5.94611 24.3841 5.92761 24.5209 5.89671 24.6533C5.8614 24.8051 5.9267 24.9614 6.05917 25.0435L6.62592 25.3931L6.17749 26.1187L5.60282 25.7638C5.47041 25.6817 5.30269 25.6932 5.18262 25.7921C4.96901 25.9686 4.72711 26.0984 4.46314 26.1787C4.31484 26.2246 4.21242 26.3588 4.208 26.5141L4.18769 27.1895L3.3358 27.1647L3.35521 26.4885C3.36053 26.334 3.26519 26.1928 3.12039 26.1389C2.85998 26.0418 2.626 25.8979 2.42473 25.7107C2.31264 25.6057 2.14402 25.5836 2.0072 25.6569L1.41221 25.9773L1.00791 25.226L1.59407 24.9109C1.73089 24.8367 1.80508 24.6849 1.77944 24.5321C1.75647 24.398 1.74504 24.2594 1.74945 24.1164C1.75387 23.9751 1.77328 23.8374 1.80332 23.705C1.83773 23.554 1.77243 23.3978 1.64087 23.3166L1.07502 22.9679L1.52261 22.2414L2.09819 22.5963C2.22975 22.6775 2.39922 22.666 2.51839 22.5671C2.73114 22.3915 2.97214 22.2617 3.23695 22.1814C3.38526 22.1363 3.48768 22.0012 3.49209 21.8459L3.51241 21.1706L4.36508 21.1955L4.34567 21.8717C4.34035 22.0262 4.43569 22.1674 4.5805 22.2213C4.84005 22.3175 5.07397 22.4614 5.27524 22.6494C5.38824 22.7554 5.55771 22.7774 5.69278 22.7033L6.28867 22.3829L6.69297 23.1341L6.10681 23.4492Z" fill="#373D3F"/>
<path d="M3.89036 22.8038C3.52137 22.7773 3.17439 22.9256 2.90607 23.1772C2.63944 23.4297 2.48588 23.7705 2.47529 24.1377C2.46381 24.5049 2.59712 24.8545 2.8487 25.122C3.10027 25.3886 3.44193 25.5422 3.80916 25.5527C3.82331 25.5536 3.8374 25.5536 3.85155 25.5536C4.20288 25.5536 4.53571 25.4212 4.79345 25.1793C5.06008 24.9269 5.21365 24.5861 5.22423 24.2189C5.2463 23.4606 4.64781 22.8259 3.89036 22.8038ZM3.83033 24.8307C3.65644 24.8254 3.49489 24.7521 3.37482 24.6259C3.25565 24.4987 3.19296 24.3328 3.19737 24.1589C3.20269 23.985 3.27591 23.8235 3.40215 23.7034C3.52397 23.5886 3.68202 23.526 3.84883 23.526C3.8559 23.526 3.86207 23.526 3.86914 23.526C4.22845 23.5374 4.51183 23.8385 4.5021 24.1977C4.49067 24.5579 4.18166 24.8404 3.83033 24.8307Z" fill="#373D3F"/>
<path d="M25.8454 15.8C25.8454 13.3388 23.8423 11.3358 21.3802 11.3358C20.2019 11.3358 19.0951 11.802 18.2699 12.6063C18.2569 12.3401 18.2475 12.1037 18.2406 11.9008H18.4325C19.0011 11.9008 19.4636 11.4382 19.4636 10.8706V10.6958C19.4636 10.1273 19.0011 9.66471 18.4325 9.66471H18.3743V8.47735H18.4325C19.0011 8.47735 19.4636 8.01477 19.4636 7.44627V7.27148C19.4636 6.70382 19.0011 6.24125 18.4325 6.24125H18.0325L18.3293 4.44741C18.3469 4.34233 18.3169 4.23556 18.2481 4.1543C18.1801 4.0731 18.0786 4.02631 17.9726 4.02631H16.9813V3.32631H17.9143C18.1139 3.32631 18.2763 3.16385 18.2763 2.9644V1.65696C18.2763 1.45744 18.1138 1.29505 17.9143 1.29505H16.9813V0.361911C16.9813 0.162395 16.8188 0 16.6194 0H15.3128C15.1133 0 14.9509 0.162455 14.9509 0.361911V1.29505H14.0178C13.8183 1.29505 13.6559 1.4575 13.6559 1.65696V2.96434C13.6559 3.16385 13.8184 3.32625 14.0178 3.32625H14.9509V4.02631H13.9595C13.8536 4.02631 13.7529 4.0731 13.6841 4.1543C13.6152 4.2355 13.5852 4.34233 13.6029 4.44741L13.8989 6.24125H13.4987C12.9302 6.24125 12.4676 6.70382 12.4676 7.27148V7.44627C12.4676 8.01477 12.9302 8.47735 13.4987 8.47735H13.557V9.66471H13.4987C12.9302 9.66471 12.4676 10.1273 12.4676 10.6958V10.8706C12.4676 11.4382 12.9302 11.9008 13.4987 11.9008H13.6906C13.6164 13.8098 13.2734 18.134 12.3512 20.6898H11.4965C11.297 20.6898 11.1346 20.8522 11.1346 21.0517V22.9603C11.1346 22.9607 11.1349 22.9612 11.1349 22.9616C11.1349 22.9621 11.1346 22.9624 11.1346 22.9629C11.1346 22.9682 11.1311 23.5403 10.747 23.9163C10.4987 24.1594 10.1199 24.2623 9.6581 24.2694H9.63736C9.63356 24.2694 9.63041 24.2715 9.6266 24.2716C9.52545 24.2462 9.44933 24.3091 9.38488 24.3727C9.38458 24.373 9.3844 24.3735 9.38404 24.3738C9.31723 24.4395 9.27539 24.5305 9.27539 24.6313V27.6381C9.27539 27.8376 9.43785 28 9.6373 28H22.2938C22.4933 28 22.6557 27.8375 22.6557 27.6381V24.6313C22.6557 24.5305 22.6139 24.4395 22.5471 24.3738C22.5468 24.3735 22.5466 24.373 22.5463 24.3727C22.4825 24.3097 22.3852 24.2493 22.3058 24.2718C22.3016 24.2716 22.298 24.2694 22.2938 24.2694H22.2727C21.8068 24.2631 21.4332 24.1593 21.185 23.9163C20.8028 23.542 20.7974 22.9735 20.7974 22.9629C20.7974 22.9624 20.7971 22.9621 20.7971 22.9616C20.7971 22.9612 20.7974 22.9607 20.7974 22.9603V21.0517C20.7974 20.8522 20.635 20.6898 20.4355 20.6898H19.5805C19.4693 20.3854 19.3652 20.0685 19.2715 19.7365C19.9159 20.0837 20.6329 20.2652 21.3802 20.2652C23.8423 20.2652 25.8454 18.2621 25.8454 15.8ZM14.3797 2.60242V2.01893H15.3128C15.5123 2.01893 15.6747 1.85647 15.6747 1.65702V0.723883H16.2573V1.65696C16.2573 1.85647 16.4198 2.01887 16.6192 2.01887H17.5523V2.60236H16.6192C16.4197 2.60236 16.2573 2.76482 16.2573 2.96427V4.02625H15.6747V2.9644C15.6747 2.76488 15.5122 2.60248 15.3128 2.60248L14.3797 2.60242ZM17.5463 4.75025L17.3 6.24125H14.6322L14.3858 4.75025H17.5463ZM13.4986 7.75346C13.3292 7.75346 13.1914 7.61574 13.1914 7.44627V7.27148C13.1914 7.10201 13.3292 6.96513 13.4986 6.96513H14.325H17.6063H18.4326C18.6021 6.96513 18.7398 7.10195 18.7398 7.27148V7.44627C18.7398 7.61574 18.6021 7.75346 18.4326 7.75346H18.0124H13.9189H13.4986ZM17.6504 8.47735V9.66471H14.2808V8.47735H17.6504ZM13.4986 11.1769C13.3292 11.1769 13.1914 11.04 13.1914 10.8705V10.6957C13.1914 10.5263 13.3292 10.3885 13.4986 10.3885H13.9188H18.0124H18.4325C18.602 10.3885 18.7397 10.5263 18.7397 10.6957V10.8705C18.7397 11.04 18.602 11.1769 18.4325 11.1769H13.4986ZM14.4136 11.9008H17.5175C17.5728 13.5962 17.812 17.7539 18.8131 20.6897H13.1181C14.0105 18.0112 14.3425 13.7757 14.4136 11.9008ZM21.9319 24.9933V27.2762H9.99928V24.9933H21.9319ZM20.5389 24.2694H11.3932C11.6529 23.9457 11.7696 23.5855 11.8187 23.3222H20.1135C20.1626 23.5855 20.2792 23.9457 20.5389 24.2694ZM20.0737 21.4137V22.5984H11.8585V21.4137H20.0737ZM19.1017 18.767C19.0768 18.748 19.0482 18.7392 19.0205 18.7275C18.6344 16.9948 18.4339 15.1052 18.3315 13.6405C19.0344 12.6506 20.1627 12.0597 21.3802 12.0597C23.4433 12.0597 25.1215 13.737 25.1215 15.8C25.1215 17.8631 23.4433 19.5413 21.3802 19.5413C20.5477 19.5413 19.7603 19.2737 19.1017 18.767Z" fill="#373D3F"/>
<path d="M21.6833 18.4885V17.8698C22.0914 17.8249 22.4095 17.6919 22.6381 17.4695C22.8667 17.2478 22.9811 16.9511 22.9811 16.5788C22.9811 15.9021 22.6022 15.5095 21.8448 15.4022L21.3203 15.3282C21.1051 15.2965 20.9493 15.2395 20.853 15.1569C20.7566 15.0737 20.7084 14.9603 20.7084 14.8169C20.7084 14.656 20.7667 14.5311 20.883 14.4441C20.9996 14.3565 21.1677 14.3127 21.3875 14.3127C21.6205 14.3127 21.7976 14.3576 21.9186 14.4474C22.0396 14.5372 22.1091 14.6757 22.127 14.8641H22.9137C22.8869 14.501 22.7681 14.2142 22.5573 14.0034C22.3468 13.7926 22.0553 13.6672 21.6832 13.6273V13.1094H21.0848V13.6339C20.7083 13.6831 20.4157 13.8161 20.2074 14.0341C19.9988 14.2515 19.8947 14.5324 19.8947 14.8778C19.8947 15.5501 20.3004 15.94 21.1118 16.0478L21.6161 16.1151C21.8088 16.1376 21.9476 16.1912 22.033 16.2761C22.1181 16.3616 22.1605 16.4825 22.1605 16.6397C22.1605 16.8143 22.0967 16.9463 21.9689 17.036C21.8414 17.1258 21.6541 17.1707 21.4075 17.1707C21.134 17.1707 20.9312 17.1237 20.7989 17.0295C20.6667 16.9353 20.5873 16.7782 20.5602 16.5587H19.7871C19.8049 16.9441 19.9259 17.2501 20.1501 17.4768C20.3744 17.7029 20.6858 17.8365 21.0847 17.8765V18.4886H21.6833V18.4885Z" fill="#373D3F"/>
</svg>
