<svg width="32" height="32" viewBox="0 0 32 32" fill="none" xmlns="http://www.w3.org/2000/svg">
<path d="M18.6654 9.33203H15.332C14.8016 9.33203 14.2929 9.54274 13.9178 9.91782C13.5427 10.2929 13.332 10.8016 13.332 11.332C13.332 11.8625 13.5427 12.3712 13.9178 12.7462C14.2929 13.1213 14.8016 13.332 15.332 13.332H16.6654C17.1958 13.332 17.7045 13.5427 18.0796 13.9178C18.4547 14.2929 18.6654 14.8016 18.6654 15.332C18.6654 15.8625 18.4547 16.3712 18.0796 16.7462C17.7045 17.1213 17.1958 17.332 16.6654 17.332H13.332" stroke="white" stroke-width="1.73333" stroke-linecap="round" stroke-linejoin="round"/>
<path d="M16 8V9.33333M16 17.3333V18.6667M8 28H24M28 21.3333V5.33333C28 4.97971 27.8595 4.64057 27.6095 4.39052C27.3594 4.14048 27.0203 4 26.6667 4H5.33333C4.97971 4 4.64057 4.14048 4.39052 4.39052C4.14048 4.64057 4 4.97971 4 5.33333V21.3333C4 21.687 4.14048 22.0261 4.39052 22.2761C4.64057 22.5262 4.97971 22.6667 5.33333 22.6667H26.6667C27.0203 22.6667 27.3594 22.5262 27.6095 22.2761C27.8595 22.0261 28 21.687 28 21.3333Z" stroke="white" stroke-width="1.73333" stroke-linecap="round" stroke-linejoin="round"/>
</svg>
