<svg width="14" height="11" viewBox="0 0 14 11" fill="none" xmlns="http://www.w3.org/2000/svg">
<path d="M4.21294 11.0006C6.86747 11.0517 8.65017 8.0182 7.33232 5.73212L12.3634 1.7213L12.1432 2.60974C12.0064 3.17129 12.8616 3.39033 13.0073 2.82324L13.5411 0.664964C13.6056 0.383643 13.3799 0.105669 13.0907 0.11344L10.8688 0.205733C10.2972 0.236869 10.3139 1.08641 10.8866 1.09529C10.9055 1.09529 11.7674 1.0597 11.7674 1.0597L6.80631 5.01502C4.66556 2.67436 0.634159 4.23776 0.654373 7.44348C0.654373 9.40494 2.25133 11.0017 4.21304 11.0017L4.21294 11.0006ZM4.21294 4.77368C5.68423 4.77368 6.88194 5.97123 6.88194 7.44234C6.75627 10.9738 1.66863 10.9738 1.54394 7.44234C1.54394 5.97123 2.74164 4.77368 4.21294 4.77368Z" fill="#373D3F"/>
</svg>
