<svg width="32" height="32" viewBox="0 0 32 32" fill="none" xmlns="http://www.w3.org/2000/svg">
<path d="M2.66602 18.6667C2.66602 13.6384 2.66602 11.1242 4.22811 9.56209C5.79022 8 8.30436 8 13.3327 8H18.666C23.6943 8 26.2085 8 27.7705 9.56209C29.3327 11.1242 29.3327 13.6384 29.3327 18.6667C29.3327 23.6949 29.3327 26.2092 27.7705 27.7712C26.2085 29.3333 23.6943 29.3333 18.666 29.3333H13.3327C8.30436 29.3333 5.79022 29.3333 4.22811 27.7712C2.66602 26.2092 2.66602 23.6949 2.66602 18.6667Z" stroke="white" stroke-width="1.73333"/>
<path d="M21.3327 7.99935C21.3327 5.48519 21.3327 4.22811 20.5516 3.44707C19.7705 2.66602 18.5135 2.66602 15.9993 2.66602C13.4852 2.66602 12.2281 2.66602 11.4471 3.44707C10.666 4.22811 10.666 5.48519 10.666 7.99935" stroke="white" stroke-width="1.73333"/>
<path d="M15.9987 23.1098C17.4715 23.1098 18.6654 22.1148 18.6654 20.8876C18.6654 19.6603 17.4715 18.6654 15.9987 18.6654C14.5259 18.6654 13.332 17.6704 13.332 16.4431C13.332 15.2159 14.5259 14.221 15.9987 14.221M15.9987 23.1098C14.5259 23.1098 13.332 22.1148 13.332 20.8876M15.9987 23.1098V23.9987M15.9987 14.221V13.332M15.9987 14.221C17.4715 14.221 18.6654 15.2159 18.6654 16.4431" stroke="white" stroke-width="1.73333" stroke-linecap="round"/>
</svg>
