<svg width="28" height="22" viewBox="0 0 28 22" fill="none" xmlns="http://www.w3.org/2000/svg">
<path d="M4.43165 7.31969H3.31958C2.73462 7.3297 2.73462 8.19922 3.31958 8.20924H3.76441C3.77776 8.80859 4.66965 8.78522 4.65408 8.187C5.94633 7.90679 5.76615 6.00647 4.43166 5.98535H3.98683C3.69658 5.98424 3.69547 5.54168 3.98683 5.54057H5.0989C5.68275 5.53057 5.68386 4.66104 5.0989 4.65102H4.65406C4.64072 4.05167 3.74883 4.07504 3.7644 4.67326C2.47215 4.95347 2.65233 6.85379 3.98681 6.87491H4.43165C4.72189 6.87602 4.723 7.31858 4.43165 7.31969Z" fill="#373D3F"/>
<path d="M4.20926 9.98471C5.72502 9.98471 7.01838 9.03065 7.53106 7.69299L10.8096 8.8483L9.96106 9.11517C9.40502 9.30086 9.6697 10.1315 10.228 9.96359L12.3476 9.29641C12.6256 9.20968 12.7413 8.86609 12.5867 8.62479L11.3512 6.77563C11.0264 6.29305 10.2902 6.78453 10.6116 7.26934L11.1054 8.00879L7.74345 6.82456C7.99589 4.73746 6.3111 2.85388 4.20813 2.86726C-0.512654 3.06296 -0.511515 9.78898 4.20813 9.98369L4.20926 9.98471ZM4.20926 3.75784C5.68055 3.75784 6.87825 4.95539 6.87825 6.4265C6.75259 9.95795 1.66495 9.95795 1.54026 6.4265C1.54026 4.95539 2.73796 3.75784 4.20926 3.75784Z" fill="#373D3F"/>
<path d="M23.5645 5.54057H24.6766C25.2616 5.53057 25.2616 4.66104 24.6766 4.65102H24.2318C24.2184 4.05167 23.3265 4.07504 23.3421 4.67326C22.0499 4.95347 22.23 6.85379 23.5645 6.87491H24.0094C24.2996 6.87602 24.3007 7.31858 24.0094 7.31969H22.8973C22.3134 7.32969 22.3123 8.19922 22.8973 8.20924H23.3421C23.3555 8.80859 24.2474 8.78522 24.2318 8.187C25.524 7.90679 25.3439 6.00647 24.0094 5.98535H23.5645C23.2743 5.98424 23.2732 5.54168 23.5645 5.54057Z" fill="#373D3F"/>
<path d="M23.788 2.86727C21.6861 2.85281 20.0013 4.73755 20.2526 6.82457L16.8907 8.00881L17.3845 7.26935C17.7048 6.78566 16.9697 6.29195 16.6449 6.77564L15.4094 8.6248C15.2537 8.8661 15.3705 9.2108 15.6485 9.29642L17.7681 9.9636C18.3242 10.1304 18.5933 9.302 18.035 9.11518L17.1865 8.84832L20.465 7.69301C21.9074 11.3312 27.2743 10.3861 27.3455 6.42651C27.3455 4.46505 25.7485 2.8683 23.7868 2.8683L23.788 2.86727ZM23.788 9.09415C22.3167 9.09415 21.119 7.89659 21.119 6.42549C21.2446 2.89403 26.3323 2.89403 26.457 6.42549C26.457 7.89659 25.2593 9.09415 23.788 9.09415Z" fill="#373D3F"/>
<path d="M24.0094 19.3295H22.8973C22.3134 19.3395 22.3123 20.209 22.8973 20.219H23.3421C23.3555 20.8184 24.2474 20.795 24.2318 20.1968C25.524 19.9166 25.3439 18.0162 24.0094 17.9951H23.5645C23.2743 17.994 23.2732 17.5514 23.5645 17.5503H24.6766C25.2616 17.5403 25.2616 16.6708 24.6766 16.6608H24.2318C24.2184 16.0614 23.3265 16.0848 23.3421 16.683C22.0499 16.9632 22.23 18.8636 23.5645 18.8847H24.0094C24.2996 18.8858 24.3007 19.3283 24.0094 19.3295Z" fill="#373D3F"/>
<path d="M17.1247 11.2018L14.9028 11.1095C14.6159 11.1028 14.3879 11.3786 14.4524 11.661L14.9862 13.8193C15.1308 14.3842 15.9871 14.1696 15.8503 13.6058L15.6301 12.7174L20.6612 16.7282C19.3434 19.0143 21.125 22.0478 23.7806 21.9966C28.5014 21.8009 28.5002 15.0749 23.7806 14.8802C22.7575 14.8802 21.8367 15.316 21.1872 16.0099L16.2262 12.0546L17.088 12.0902C17.6774 12.098 17.7008 11.2307 17.1247 11.2018ZM26.4496 18.4395C26.3239 21.9721 21.2363 21.9698 21.1116 18.4395C21.2373 14.908 26.3249 14.908 26.4496 18.4395Z" fill="#373D3F"/>
<path d="M7.87058 8.73995C7.22669 10.1855 6.87305 11.7232 6.87305 13.071C6.87305 13.5436 6.97536 14.005 7.17553 14.4443C7.42353 14.9724 8.22423 14.6021 7.98401 14.074C7.37015 12.4072 8.12858 10.6658 8.72688 8.90886C8.73467 8.42295 8.04072 8.29509 7.86947 8.74096L7.87058 8.73995Z" fill="#373D3F"/>
<path d="M20.0425 14.5247C20.2327 14.677 20.5141 14.6481 20.6675 14.4557C21.7007 13.1125 20.7921 10.3439 20.1215 8.72586C19.8746 8.19768 19.0795 8.54906 19.3086 9.08834C19.9058 10.426 20.2349 11.8404 20.2349 13.0701C20.2349 13.4115 20.1515 13.6761 19.9725 13.8996C19.819 14.092 19.8501 14.3711 20.0414 14.5246L20.0425 14.5247Z" fill="#373D3F"/>
<path d="M15.8466 16.7843C16.5595 16.4341 17.2445 16.1739 17.8795 15.9448C18.1108 15.8614 18.2298 15.6068 18.1464 15.3755C18.063 15.1442 17.8083 15.0253 17.577 15.1087C16.9187 15.3466 16.2069 15.6168 15.4552 15.986C13.5157 16.9389 11.3627 16.8833 9.65912 15.8214C9.1609 15.5201 8.69606 16.2573 9.18761 16.5764C11.1816 17.8284 13.7148 17.8451 15.8469 16.7854L15.8466 16.7843Z" fill="#373D3F"/>
<path d="M9.67513 7.00751C9.80858 7.00751 9.9398 6.94747 10.0277 6.83405C10.5248 6.18913 11.0674 5.66986 11.6402 5.27288C11.7881 5.38518 16.2343 5.37851 16.3667 5.27288C16.9394 5.66983 17.4821 6.18913 17.9792 6.83405C18.0671 6.94747 18.1983 7.00751 18.3317 7.00751C18.6876 7.01863 18.9134 6.57051 18.6843 6.29143C18.176 5.63205 17.6211 5.08719 17.0317 4.65354C17.1563 4.37 17.1418 4.00529 16.9983 3.73396C17.5722 2.79994 17.898 1.18092 16.9361 0.406031C16.132 -0.307832 14.7475 -0.0431865 14.217 0.908622C13.9601 1.3534 13.6654 1.41565 13.0894 1.23552C12.6468 1.08096 12.2676 0.854138 11.7849 0.761824C11.1977 0.647295 10.4616 0.804079 10.1424 1.40674C9.82654 1.99718 10.1279 2.66769 10.2291 2.89342C10.3837 3.22701 10.5883 3.60507 10.9353 3.88195C10.8764 4.13547 10.8708 4.41679 10.9776 4.65363C10.3882 5.08728 9.83213 5.63214 9.32501 6.29152C9.09592 6.5695 9.32167 7.01873 9.67754 7.0076L9.67513 7.00751ZM16.005 4.44782H12.0016C11.7125 4.44671 11.7103 4.00415 12.0016 4.00304H16.005C16.2941 4.00416 16.2963 4.44671 16.005 4.44782ZM10.9272 1.82476C11.3943 1.29214 12.2472 1.91594 12.8011 2.07828C13.1858 2.20949 13.9154 2.36516 14.487 1.93818C14.7917 1.71134 14.9074 1.43448 15.122 1.17538C15.42 0.842903 16.0261 0.79286 16.3497 1.07642C16.9325 1.68354 16.6211 2.47858 16.2919 3.15686C16.3086 3.06569 12.116 3.13574 12.0016 3.11461C11.837 3.11461 11.6824 3.15241 11.5423 3.21691C11.1886 3.00119 10.7783 2.15277 10.9273 1.82587L10.9272 1.82476Z" fill="#373D3F"/>
<path d="M4.43165 19.3295H3.31958C2.73462 19.3395 2.73462 20.209 3.31958 20.219H3.76441C3.77776 20.8184 4.66965 20.795 4.65408 20.1968C5.94633 19.9166 5.76615 18.0162 4.43166 17.9951H3.98683C3.69658 17.994 3.69547 17.5514 3.98683 17.5503H5.0989C5.68275 17.5403 5.68386 16.6708 5.0989 16.6608H4.65406C4.64072 16.0614 3.74883 16.0848 3.7644 16.683C2.47215 16.9632 2.65233 18.8636 3.98681 18.8847H4.43165C4.72189 18.8858 4.723 19.3283 4.43165 19.3295Z" fill="#373D3F"/>
<path d="M4.21294 22.0006C6.86747 22.0517 8.65017 19.0182 7.33232 16.7321L12.3634 12.7213L12.1432 13.6097C12.0064 14.1713 12.8616 14.3903 13.0073 13.8232L13.5411 11.665C13.6056 11.3836 13.3799 11.1057 13.0907 11.1134L10.8688 11.2057C10.2972 11.2369 10.3139 12.0864 10.8866 12.0953C10.9055 12.0953 11.7674 12.0597 11.7674 12.0597L6.80631 16.015C4.66556 13.6744 0.634159 15.2378 0.654373 18.4435C0.654373 20.4049 2.25133 22.0017 4.21304 22.0017L4.21294 22.0006ZM4.21294 15.7737C5.68423 15.7737 6.88194 16.9712 6.88194 18.4423C6.75627 21.9738 1.66863 21.9738 1.54394 18.4423C1.54394 16.9712 2.74164 15.7737 4.21294 15.7737Z" fill="#373D3F"/>
</svg>
