<svg width="26" height="28" viewBox="0 0 26 28" fill="none" xmlns="http://www.w3.org/2000/svg">
<path d="M14.2201 28.0005H2.97661C2.43858 27.9998 1.92277 27.7858 1.54233 27.4054C1.16189 27.0249 0.947889 26.5091 0.947266 25.9711V25.6622C0.947889 25.1241 1.16189 24.6083 1.54233 24.2279C1.92277 23.8474 2.43858 23.6334 2.97661 23.6328H14.2201C14.7581 23.6334 15.2739 23.8474 15.6544 24.2279C16.0348 24.6083 16.2488 25.1241 16.2494 25.6622V25.9711C16.2488 26.5091 16.0348 27.0249 15.6544 27.4054C15.2739 27.7858 14.7581 27.9998 14.2201 28.0005ZM2.97661 24.7097C2.72409 24.71 2.482 24.8104 2.30345 24.989C2.12489 25.1676 2.02446 25.4097 2.0242 25.6622V25.9711C2.02446 26.2236 2.12489 26.4657 2.30345 26.6443C2.482 26.8228 2.72409 26.9233 2.97661 26.9235H14.2201C14.4726 26.9233 14.7147 26.8228 14.8933 26.6443C15.0718 26.4657 15.1722 26.2236 15.1725 25.9711V25.6622C15.1722 25.4097 15.0718 25.1676 14.8933 24.989C14.7147 24.8104 14.4726 24.71 14.2201 24.7097H2.97661Z" fill="#373D3F"/>
<path d="M13.1217 24.7091H4.07179C3.56962 24.7086 3.08817 24.5089 2.73308 24.1538C2.37799 23.7987 2.17827 23.3172 2.17773 22.815V22.2359C2.17836 21.7337 2.37811 21.2523 2.73318 20.8972C3.08825 20.5422 3.56964 20.3424 4.07179 20.3418H13.1217C13.6238 20.3424 14.1052 20.5422 14.4603 20.8972C14.8154 21.2523 15.0151 21.7337 15.0158 22.2359V22.815C15.0152 23.3172 14.8155 23.7987 14.4604 24.1538C14.1053 24.5089 13.6239 24.7086 13.1217 24.7091ZM4.07179 21.4187C3.85513 21.4189 3.64739 21.5051 3.49419 21.6583C3.34099 21.8115 3.25484 22.0192 3.25467 22.2359V22.815C3.25484 23.0317 3.34099 23.2394 3.49419 23.3926C3.64739 23.5458 3.85513 23.632 4.07179 23.6322H13.1217C13.3384 23.632 13.5461 23.5458 13.6993 23.3926C13.8525 23.2394 13.9386 23.0317 13.9388 22.815V22.2359C13.9386 22.0192 13.8525 21.8115 13.6993 21.6583C13.5461 21.5051 13.3384 21.4189 13.1217 21.4187H4.07179Z" fill="#373D3F"/>
<path d="M20.156 9.17842C19.8924 9.17918 19.6313 9.12763 19.3878 9.02676C19.1443 8.9259 18.9233 8.77772 18.7374 8.59082L13.5719 3.42422C13.3856 3.23796 13.2379 3.01683 13.1371 2.77347C13.0363 2.53011 12.9844 2.26927 12.9844 2.00586C12.9844 1.74245 13.0363 1.48161 13.1371 1.23825C13.2379 0.994889 13.3856 0.773765 13.5719 0.587503C13.7581 0.401242 13.9793 0.253491 14.2226 0.152687C14.466 0.0518831 14.7268 -3.39929e-09 14.9902 0C15.2536 3.39929e-09 15.5145 0.0518831 15.7578 0.152687C16.0012 0.253491 16.2223 0.401242 16.4086 0.587503L21.5741 5.75478C21.8546 6.03534 22.0455 6.39273 22.1229 6.78179C22.2002 7.17084 22.1605 7.5741 22.0087 7.94058C21.8569 8.30707 21.5999 8.62033 21.2701 8.84078C20.9404 9.06122 20.5526 9.17896 20.156 9.1791V9.17842ZM14.989 1.07684C14.8053 1.07685 14.6257 1.13135 14.473 1.23343C14.3203 1.33552 14.2012 1.48061 14.1309 1.65036C14.0606 1.8201 14.0423 2.00687 14.0782 2.18706C14.114 2.36724 14.2025 2.53274 14.3325 2.66262L19.499 7.82923C19.5839 7.92125 19.6864 7.99519 19.8005 8.04659C19.9146 8.09799 20.038 8.1258 20.1631 8.12834C20.2882 8.13089 20.4126 8.10812 20.5287 8.0614C20.6448 8.01468 20.7503 7.94498 20.8388 7.85648C20.9273 7.76798 20.997 7.66251 21.0437 7.54639C21.0904 7.43028 21.1132 7.30592 21.1107 7.18079C21.1081 7.05565 21.0803 6.93232 21.0289 6.81821C20.9775 6.70409 20.9036 6.60154 20.8115 6.51671L15.646 1.3491C15.56 1.26248 15.4576 1.19381 15.3448 1.14707C15.2321 1.10033 15.1111 1.07646 14.989 1.07684Z" fill="#373D3F"/>
<path d="M10.6042 18.7303C10.3408 18.7308 10.0799 18.6792 9.83644 18.5785C9.59301 18.4779 9.37186 18.3301 9.18571 18.1437L4.01913 12.9771C3.82911 12.7917 3.67777 12.5704 3.57392 12.326C3.47006 12.0817 3.41574 11.8191 3.4141 11.5536C3.41247 11.2881 3.46355 11.025 3.56439 10.7793C3.66523 10.5337 3.81383 10.3106 4.00156 10.1228C4.18929 9.93507 4.41242 9.78645 4.65802 9.68558C4.90362 9.58471 5.1668 9.53359 5.4323 9.53519C5.6978 9.5368 5.96034 9.59109 6.2047 9.69492C6.44907 9.79875 6.67039 9.95005 6.85584 10.1401L12.0244 15.307C12.3999 15.6836 12.6107 16.1936 12.6107 16.7254C12.6107 17.2571 12.3999 17.7672 12.0244 18.1437C11.8381 18.3303 11.6167 18.4783 11.373 18.5789C11.1292 18.6796 10.8679 18.7311 10.6042 18.7303ZM5.43765 10.6301C5.25363 10.6297 5.07362 10.6839 4.92051 10.786C4.76739 10.8881 4.64806 11.0334 4.57766 11.2034C4.50727 11.3734 4.48899 11.5606 4.52514 11.741C4.5613 11.9214 4.65026 12.0871 4.78073 12.2169L9.9473 17.3821C10.124 17.5424 10.3557 17.6286 10.5942 17.6227C10.8327 17.6169 11.0598 17.5196 11.2286 17.3509C11.3973 17.1822 11.4946 16.955 11.5004 16.7165C11.5063 16.478 11.4201 16.2463 11.2598 16.0696L6.09458 10.9017C6.00836 10.8154 5.90595 10.7469 5.79321 10.7003C5.68047 10.6537 5.55964 10.6298 5.43765 10.6301Z" fill="#373D3F"/>
<path d="M6.90707 11.4937C6.81455 11.4936 6.72361 11.4697 6.64303 11.4243C6.56244 11.3788 6.49493 11.3133 6.44701 11.2342C6.39908 11.155 6.37236 11.0649 6.36941 10.9724C6.36647 10.8799 6.3874 10.7883 6.43019 10.7062C7.3052 9.02688 8.39795 7.52691 9.67714 6.24771C10.9563 4.96851 12.4563 3.8761 14.1356 3.00041C14.2623 2.93441 14.41 2.92142 14.5462 2.9643C14.6824 3.00719 14.7961 3.10244 14.8621 3.22909C14.9281 3.35575 14.941 3.50344 14.8982 3.63967C14.8553 3.7759 14.76 3.88951 14.6334 3.95552C11.4719 5.60458 9.03334 8.04249 7.38496 11.204C7.33944 11.2914 7.27082 11.3646 7.18655 11.4157C7.10229 11.4668 7.00562 11.4938 6.90707 11.4937Z" fill="#373D3F"/>
<path d="M11.2207 15.7807C11.1001 15.7808 10.983 15.7405 10.8881 15.6661C10.7931 15.5917 10.7259 15.4877 10.6972 15.3706C10.6684 15.2535 10.6798 15.1301 10.7295 15.0202C10.7792 14.9104 10.8644 14.8204 10.9713 14.7647C14.1328 13.1156 16.5714 10.6777 18.2197 7.5162C18.2524 7.45349 18.2971 7.39783 18.3513 7.35239C18.4055 7.30696 18.4681 7.27265 18.5356 7.25141C18.6031 7.23018 18.674 7.22244 18.7445 7.22863C18.8149 7.23483 18.8835 7.25484 18.9462 7.28752C19.0089 7.3202 19.0645 7.36492 19.11 7.41911C19.1554 7.47331 19.1897 7.53592 19.211 7.60337C19.2322 7.67083 19.2399 7.74181 19.2337 7.81225C19.2275 7.8827 19.2075 7.95123 19.1748 8.01395C18.2992 9.69296 17.2071 11.1933 15.9282 12.4725C14.6494 13.7517 13.1484 14.8441 11.4691 15.7194C11.3924 15.7596 11.3072 15.7806 11.2207 15.7807Z" fill="#373D3F"/>
<path d="M22.8629 21.6192C22.583 21.6197 22.3058 21.5649 22.0472 21.458C21.7886 21.351 21.5536 21.194 21.3559 20.996L13.9422 13.5806C13.8866 13.5321 13.8416 13.4726 13.8099 13.406C13.7782 13.3393 13.7606 13.2668 13.7581 13.1931C13.7556 13.1193 13.7683 13.0459 13.7954 12.9772C13.8225 12.9086 13.8634 12.8462 13.9156 12.794C13.9678 12.7419 14.0302 12.701 14.0988 12.6739C14.1675 12.6469 14.241 12.6342 14.3147 12.6367C14.3885 12.6393 14.4609 12.6569 14.5276 12.6886C14.5942 12.7203 14.6536 12.7654 14.7021 12.821L22.1175 20.2347C22.3153 20.432 22.5832 20.5428 22.8626 20.5428C23.1419 20.5428 23.4099 20.432 23.6077 20.2347L23.6672 20.1751C23.8646 19.9773 23.9755 19.7093 23.9755 19.4299C23.9755 19.1504 23.8646 18.8824 23.6672 18.6846L16.2539 11.2729C16.1554 11.1714 16.1008 11.0352 16.1018 10.8938C16.1029 10.7523 16.1596 10.617 16.2596 10.517C16.3596 10.417 16.495 10.3604 16.6365 10.3594C16.7779 10.3584 16.9141 10.4131 17.0155 10.5116L24.4288 17.9233C24.8283 18.3231 25.0527 18.8651 25.0527 19.4302C25.0527 19.9953 24.8283 20.5373 24.4288 20.9371L24.3693 20.9963C24.1716 21.1942 23.9367 21.3512 23.6782 21.4581C23.4197 21.565 23.1426 21.6197 22.8629 21.6192Z" fill="#373D3F"/>
</svg>
