<svg width="32" height="32" viewBox="0 0 32 32" fill="none" xmlns="http://www.w3.org/2000/svg">
<path d="M5.331 28H26.6643M15.9976 28V9.33333M15.9976 9.33333C17.4704 9.33333 18.6643 8.13943 18.6643 6.66667M15.9976 9.33333C14.525 9.33333 13.331 8.13943 13.331 6.66667M18.6643 6.66667C18.6643 5.19391 17.4704 4 15.9976 4C14.525 4 13.331 5.19391 13.331 6.66667M18.6643 6.66667H26.6643M13.331 6.66667H5.331M7.99767 22.6667C10.0144 22.6667 11.6825 21.5445 11.9578 19.6684C11.9753 19.5495 11.984 19.49 11.9772 19.3581C11.9724 19.2671 11.9416 19.1008 11.9133 19.014C11.8724 18.8885 11.8229 18.8004 11.7237 18.624L7.99767 12L4.27163 18.624C4.17969 18.7875 4.13373 18.8692 4.09121 19.0112C4.06505 19.0985 4.03477 19.3081 4.03516 19.3992C4.03577 19.5475 4.04473 19.5865 4.06268 19.6648C4.40263 21.1467 6.03509 22.6667 7.99767 22.6667ZM23.9976 22.6667C26.0144 22.6667 27.6826 21.5445 27.9578 19.6684C27.9752 19.5495 27.984 19.49 27.9771 19.3581C27.9724 19.2671 27.9416 19.1008 27.9134 19.014C27.8724 18.8885 27.8228 18.8004 27.7236 18.624L23.9976 12L20.2716 18.624C20.1798 18.7875 20.1338 18.8692 20.0912 19.0112C20.0651 19.0985 20.0348 19.3081 20.0351 19.3992C20.0358 19.5475 20.0447 19.5865 20.0627 19.6648C20.4027 21.1467 22.0351 22.6667 23.9976 22.6667Z" stroke="white" stroke-width="1.73333" stroke-linecap="round" stroke-linejoin="round"/>
</svg>
