<svg width="28" height="28" viewBox="0 0 28 28" fill="none" xmlns="http://www.w3.org/2000/svg">
<g clip-path="url(#clip0_7258_6246)">
<path d="M-0.126953 24.6725C-0.126953 24.9756 0.00666782 25.2233 0.179397 25.2331H0.228283L2.29126 25.383C2.99195 25.4026 3.73176 25.4351 4.44875 25.383C6.66077 25.2395 8.81679 24.626 10.773 23.5835C12.7293 22.5411 14.4408 21.0935 15.7935 19.3374C16.7033 18.1648 17.4458 16.8717 17.9999 15.4949C18.5361 14.1182 18.8783 12.6736 19.0167 11.2026C19.0818 10.4734 19.1046 9.74108 19.0851 9.00924L18.9776 6.94623C18.8994 5.76643 18.8179 4.58337 18.7397 3.40032C19.9047 4.45945 21.1394 5.43937 22.4354 6.33351C22.4973 6.36936 22.7124 6.22922 22.9308 6.0076C23.1492 5.78598 23.286 5.57414 23.2567 5.51222V5.49592C21.9961 3.65026 20.5633 1.92826 18.9776 0.35305C18.7509 0.126965 18.4438 0 18.1237 0C17.8036 0 17.4965 0.126965 17.2698 0.35305C15.694 1.93897 14.2721 3.67079 13.0233 5.52525C12.9809 5.58066 13.1178 5.79576 13.3329 6.01086C13.548 6.22596 13.7598 6.36285 13.8152 6.32048C15.1101 5.43211 16.3437 4.4576 17.5077 3.40358C17.4274 4.60075 17.3448 5.79685 17.2601 6.99185L17.1493 9.05487C17.1105 9.698 17.0387 10.3387 16.9342 10.9745C16.7114 12.2398 16.3383 13.4739 15.8228 14.6508C15.2997 15.8094 14.6435 16.9031 13.8674 17.9099C12.2888 19.9269 10.2414 21.5279 7.90334 22.5736C6.71995 23.1008 5.47829 23.4858 4.20432 23.7209C2.94307 23.9327 1.56449 24.0077 0.179397 24.1119C0.00666782 24.1217 -0.126953 24.3694 -0.126953 24.6725Z" fill="#373D3F"/>
<path d="M2.47925 16.3624C2.69109 16.5775 2.89641 16.7209 2.94204 16.6883C4.07798 15.9976 5.14529 15.1998 6.12939 14.3059C7.11462 15.206 8.18417 16.0093 9.32325 16.7046C9.3754 16.7307 9.58072 16.5807 9.79907 16.3787C10.0174 16.1766 10.1641 15.955 10.125 15.9028C9.43853 14.7612 8.64519 13.6874 7.75565 12.6959C8.6537 11.7109 9.45579 10.6425 10.151 9.50522C10.1771 9.45307 10.0272 9.24449 9.82514 9.02939C9.62308 8.81429 9.40147 8.66437 9.34932 8.70348C8.21536 9.39663 7.15024 10.1966 6.16849 11.0924C5.18042 10.1967 4.10872 9.39782 2.96811 8.70674C2.92248 8.67415 2.71716 8.82081 2.50533 9.03265C2.29349 9.24449 2.14357 9.45307 2.17942 9.49544C2.86552 10.6352 3.6589 11.7069 4.54875 12.6959C3.6509 13.6838 2.84985 14.7555 2.15661 15.8963C2.1175 15.955 2.26742 16.1473 2.47925 16.3624Z" fill="#373D3F"/>
<path d="M28.1274 23.1834C28.125 22.5474 27.9961 21.9181 27.7483 21.3323C27.5004 20.7465 27.1385 20.2158 26.6837 19.7712C26.2372 19.3324 25.7078 18.9868 25.1265 18.7546C24.5452 18.5224 23.9234 18.4082 23.2975 18.4186C22.6925 18.4279 22.0954 18.5575 21.5409 18.7998C20.9864 19.042 20.4857 19.3922 20.0678 19.8298C19.6724 20.2463 19.3644 20.7376 19.1618 21.275C18.9592 21.8123 18.8661 22.3847 18.888 22.9586C18.888 23.102 19.1357 23.2095 19.4388 23.2063C19.7419 23.203 19.9928 23.1215 20.0091 23.0237V22.9944C20.1437 22.248 20.5529 21.5791 21.1562 21.1195C21.7594 20.6598 22.5129 20.4427 23.2682 20.511C23.9396 20.576 24.5624 20.8895 25.0146 21.3901C25.4667 21.8906 25.7156 22.542 25.7123 23.2165C25.7091 23.891 25.4539 24.54 24.9969 25.0361C24.5399 25.5322 23.9141 25.8397 23.2421 25.8983C22.4877 25.9588 21.7378 25.7348 21.1402 25.2704C20.5425 24.806 20.1402 24.1348 20.0124 23.3888C19.9863 23.2877 19.7289 23.2095 19.4258 23.2063C19.1227 23.203 18.8717 23.3105 18.8587 23.4539V23.4898C18.8447 24.0669 18.9462 24.6409 19.1572 25.1782C19.3681 25.7155 19.6844 26.2052 20.0874 26.6185C20.5111 27.0544 21.0177 27.4011 21.5774 27.6384C22.1371 27.8757 22.7385 27.9988 23.3464 28.0004C23.9709 28.0027 24.5898 27.8812 25.1671 27.6429C25.7444 27.4046 26.2687 27.0542 26.7097 26.612C27.1614 26.1629 27.5193 25.6286 27.7627 25.04C28.006 24.4514 28.13 23.8203 28.1274 23.1834Z" fill="#373D3F"/>
</g>
<defs>
<clipPath id="clip0_7258_6246">
<rect width="28" height="28" fill="white"/>
</clipPath>
</defs>
</svg>
