<svg width="26" height="28" viewBox="0 0 26 28" fill="none" xmlns="http://www.w3.org/2000/svg">
<path fill-rule="evenodd" clip-rule="evenodd" d="M21.3083 9.54968C20.0826 8.91165 18.5967 9.07816 17.5417 9.97139C16.4866 10.8634 16.0715 12.306 16.4878 13.627C17.0552 15.4171 18.9513 16.4148 20.7398 15.8643C20.7592 15.8558 20.7809 15.8485 20.8015 15.8449C22.5669 15.2615 23.5434 13.3681 22.9989 11.5842C22.9904 11.5647 22.9831 11.5429 22.9783 11.5222C22.7012 10.6691 22.0999 9.96056 21.3061 9.5498L21.3083 9.54968ZM18.483 8.61756C19.532 8.28336 20.6706 8.38058 21.6484 8.88856C22.6248 9.39776 23.3617 10.2752 23.6945 11.3289C24.3878 13.5188 23.1827 15.8593 21.0035 16.5593L20.9865 16.5654L20.9853 16.5642C18.8074 17.2532 16.4842 16.0452 15.7885 13.8601L15.7825 13.8419C15.094 11.6508 16.3026 9.31258 18.483 8.61756ZM23.4595 19.1406L20.4624 20.0983L20.6378 20.6512L23.635 19.6936L23.4595 19.1406ZM25.2322 26.1565C25.3326 26.481 25.1547 26.8261 24.8329 26.9319L23.9024 27.2284C23.5793 27.3293 23.2345 27.1506 23.1292 26.8273L21.3517 21.2006L23.4535 20.5297L25.2322 26.1553V26.1565ZM20.3922 18.3168V18.3156C21.1291 18.2293 21.843 18.002 22.494 17.646L22.788 18.5757L20.6862 19.2465L20.3922 18.3168ZM4.38522 16.8548L2.90176 16.8536V20.8775H4.38522L4.38643 16.8548L4.38522 16.8548ZM2.5303 16.1086H4.75547V16.1074C4.96117 16.1074 5.12814 16.2739 5.12814 16.4805V21.2505C5.12814 21.4571 4.96117 21.6236 4.75547 21.6236H2.5303C2.32581 21.6236 2.15884 21.4571 2.15884 21.2505V16.4818C2.15884 16.2752 2.32582 16.1086 2.5303 16.1086ZM8.02013 14.8423L6.53667 14.8411V20.8761H8.02013V14.8411V14.8423ZM6.16521 14.0962L8.39159 14.0949C8.59608 14.0949 8.76305 14.2614 8.76305 14.468V21.2506C8.76305 21.4572 8.59607 21.6237 8.39159 21.6237H6.16521C5.96072 21.6237 5.79375 21.4572 5.79375 21.2506V14.4705C5.79375 14.2639 5.96073 14.0974 6.16521 14.0974V14.0962ZM11.655 13.6125L10.1716 13.61V20.8751H11.655V13.6125ZM9.80011 12.8663H12.0253L12.0265 12.8639C12.2322 12.8639 12.398 13.0304 12.398 13.237V21.2506C12.398 21.4572 12.2322 21.6237 12.0265 21.6237H9.80132C9.59563 21.6237 9.42865 21.4572 9.42865 21.2506V13.2407C9.42865 13.0341 9.59563 12.8676 9.80132 12.8676L9.80011 12.8663ZM14.0097 12.2331L13.8064 12.2307V20.8774H15.2899V16.2325C14.38 15.1072 13.9238 13.6817 14.0109 12.2341L14.0097 12.2331ZM11.7845 5.24273H14.8216C14.6474 3.63612 13.3854 2.36737 11.7857 2.19237V5.24273H11.7845ZM15.2123 5.98769H11.4141C11.2084 5.98769 11.0414 5.81998 11.0414 5.61461V1.7985C11.0414 1.59312 11.2084 1.42542 11.4141 1.42542C12.52 1.42542 13.58 1.86779 14.3616 2.65285C15.1444 3.43791 15.5837 4.50372 15.5837 5.61448C15.5837 5.82108 15.4167 5.98757 15.211 5.98757L15.2123 5.98769ZM12.5382 9.48895C11.7409 10.2886 10.6071 10.6508 9.49634 10.46C8.38679 10.2692 7.43695 9.5485 6.95051 8.52768C6.46406 7.50686 6.50161 6.31343 7.05093 5.32415C7.59905 4.33612 8.59126 3.67622 9.71169 3.55591V7.02202C9.71169 7.22861 9.87866 7.3951 10.0831 7.3951H13.5354C13.4519 8.18748 13.0997 8.92628 12.5382 9.48895ZM14.2976 7.02314H14.2964C14.2964 8.73426 13.2703 10.2777 11.6961 10.9326C10.1219 11.5864 8.31046 11.2255 7.1055 10.015C5.90055 8.80463 5.53978 6.98534 6.19197 5.40436C6.84416 3.82328 8.38084 2.79151 10.0844 2.79151C10.2889 2.79151 10.4558 2.95922 10.4558 3.16581V6.64871H13.926C14.1305 6.64871 14.2976 6.81655 14.2976 7.02314ZM17.6154 8.04396C19.1654 7.31356 20.9778 7.43023 22.4228 8.35143C23.8663 9.27381 24.7411 10.8744 24.7399 12.5928C24.7387 14.3112 23.8627 15.9105 22.4168 16.8305C20.972 17.7504 19.1581 17.8635 17.6106 17.1319C17.5948 17.1234 17.5803 17.1173 17.5646 17.1112C17.5222 17.0906 17.4811 17.0699 17.4412 17.0492C16.8785 16.7564 16.3764 16.3602 15.9614 15.8801C15.9505 15.8656 15.9384 15.851 15.9251 15.8376C15.0152 14.7572 14.6001 13.3426 14.7816 11.9391C14.7853 11.922 14.7877 11.905 14.7889 11.8868C15.0236 10.2328 16.0606 8.80361 17.5573 8.07193C17.5767 8.06464 17.5972 8.0549 17.6154 8.04396ZM3.67879 1.27229L1.26727 3.69436H3.67879V1.27229ZM4.4205 0.746071H16.0714C16.6147 0.747286 17.0563 1.18844 17.0587 1.73531V7.49463C15.5245 8.31009 14.4391 9.77813 14.1064 11.4893H13.436C13.2303 11.4893 13.0634 11.657 13.0634 11.8636V21.2505C13.0634 21.4571 13.2303 21.6236 13.436 21.6236H15.6612C15.8669 21.6236 16.0327 21.4571 16.0327 21.2505V16.9911C16.3485 17.2584 16.6921 17.4918 17.0587 17.685V23.3276H1.72825C1.18376 23.3264 0.743317 22.8841 0.742108 22.3384V4.43978H4.04907C4.25356 4.43978 4.42053 4.27329 4.42053 4.0667L4.4205 0.746071ZM0.111784 3.80129L3.78395 0.111806C3.79605 0.0996528 3.80936 0.0887154 3.82267 0.0789928L3.82872 0.0741317L3.83114 0.0717013L3.83598 0.0680552L3.85413 0.0559026L3.86623 0.0486107H3.86865L3.8747 0.0449649H3.87712L3.88438 0.0413189H3.88317C3.93399 0.0145828 3.99086 0.00121334 4.04894 0H16.0712C17.0247 0.00121521 17.7967 0.777781 17.7979 1.7342V7.16654C17.8656 7.14223 17.9334 7.11914 18.0012 7.09726H18.0024C19.7447 6.54187 21.647 6.85421 23.123 7.93702C24.5991 9.01985 25.4727 10.7455 25.4764 12.5819C25.48 14.4182 24.6112 16.1451 23.1387 17.234L23.4944 18.3593C23.7679 18.3205 24.028 18.4857 24.1115 18.7495L24.3922 19.6366C24.4709 19.8833 24.3717 20.1531 24.1527 20.2892L25.9374 25.9319L25.9362 25.9331C26.1624 26.6477 25.768 27.4121 25.0565 27.6394L24.1272 27.9359C23.4134 28.1632 22.6523 27.767 22.426 27.0512L20.6461 21.4231C20.3605 21.4888 20.0738 21.3223 19.9855 21.0415L19.7047 20.1544C19.6213 19.8906 19.7386 19.6051 19.9842 19.4786L19.6285 18.3533C19.0042 18.3411 18.3859 18.2269 17.7978 18.013V23.7004C17.7978 23.9058 17.632 24.0735 17.4263 24.0735H1.72786C0.774392 24.0723 0.00120805 23.2957 0 22.3381H0.00120999V4.10039C0.00120999 4.08945 0 4.07851 0 4.06758C0 3.96671 0.0399307 3.87192 0.11132 3.80143L0.111784 3.80129Z" fill="#373D3F"/>
</svg>
