<svg width="32" height="32" viewBox="0 0 32 32" fill="none" xmlns="http://www.w3.org/2000/svg">
<path d="M4 16C4 21.0283 4 26.2092 5.75736 27.7712C7.51472 29.3333 10.3431 29.3333 16 29.3333C21.6568 29.3333 24.4853 29.3333 26.2427 27.7712C28 26.2092 28 21.0283 28 16" stroke="white" stroke-width="1.73333"/>
<path d="M19.5464 18.9359L27.8099 16.4568C28.3577 16.2925 28.6317 16.2103 28.8345 16.0473C29.0116 15.9051 29.1495 15.7197 29.2348 15.5092C29.3327 15.2681 29.3327 14.9821 29.3327 14.4103C29.3327 12.1604 29.3327 11.0354 28.8931 10.1769C28.5105 9.42989 27.9028 8.82212 27.1557 8.43961C26.2972 8 25.1723 8 22.9224 8H9.07622C6.82638 8 5.70146 8 4.84292 8.43961C4.09591 8.82212 3.48814 9.42989 3.10563 10.1769C2.66602 11.0354 2.66602 12.1604 2.66602 14.4103C2.66602 14.9821 2.66602 15.2681 2.76383 15.5092C2.84926 15.7197 2.98707 15.9051 3.16419 16.0473C3.367 16.2103 3.64092 16.2925 4.18876 16.4568L12.4523 18.9359" stroke="white" stroke-width="1.73333"/>
<path d="M18.666 16.666H13.3327C12.9645 16.666 12.666 16.9645 12.666 17.3327V20.2147C12.666 20.4872 12.832 20.7324 13.0851 20.8336L14.0185 21.2071C15.2901 21.7156 16.7085 21.7156 17.9801 21.2071L18.9136 20.8336C19.1667 20.7324 19.3327 20.4872 19.3327 20.2147V17.3327C19.3327 16.9645 19.0341 16.666 18.666 16.666Z" stroke="white" stroke-width="1.73333" stroke-linecap="round"/>
<path d="M12.2285 5.33268C12.7776 3.7791 14.2593 2.66602 16.0009 2.66602C17.7425 2.66602 19.2242 3.7791 19.7733 5.33268" stroke="white" stroke-width="1.73333" stroke-linecap="round"/>
</svg>
