<svg width="28" height="24" viewBox="0 0 28 24" fill="none" xmlns="http://www.w3.org/2000/svg">
<path fill-rule="evenodd" clip-rule="evenodd" d="M14.3268 12.6348C14.6597 12.6052 14.9891 12.5683 15.3147 12.5265C15.672 12.4797 16.0317 12.4231 16.395 12.3567V8.70151C16.395 8.43576 16.502 8.1946 16.6745 8.01989C16.8471 7.84518 17.0852 7.73691 17.3477 7.73691H23.6739V6.39708C23.6739 6.21006 23.5876 6.03782 23.4479 5.91108C23.296 5.77328 23.0809 5.68716 22.8415 5.68716H1.67955C1.44016 5.68716 1.22509 5.77328 1.07319 5.91108C0.933447 6.03781 0.847172 6.21005 0.847172 6.39708V9.4434C0.847172 9.51476 0.864184 9.57874 0.896995 9.63287C0.932234 9.69193 0.986916 9.7436 1.05983 9.7879C1.07927 9.79651 1.0975 9.80758 1.11573 9.81988C2.5472 10.6405 4.06857 11.2877 5.64227 11.7614C7.12355 12.2068 8.65102 12.4983 10.1943 12.6349V12.0148C10.1943 11.7835 10.2879 11.5719 10.4386 11.4193C10.5893 11.2667 10.797 11.172 11.0267 11.172H13.4971C13.7268 11.172 13.9346 11.2668 14.0841 11.4193C14.2347 11.5719 14.3283 11.7835 14.3283 12.0148V12.6361L14.3268 12.6348ZM15.4241 13.3754C15.7522 13.3324 16.0754 13.2819 16.395 13.2266V20.1867H2.19816C1.93447 20.1867 1.69872 20.1018 1.53347 19.9652C1.39252 19.8484 1.30381 19.6946 1.30381 19.5297V10.8977C2.61253 11.5953 3.9881 12.1564 5.40386 12.5821C6.96291 13.0508 8.57192 13.3547 10.1939 13.495V13.9133C10.1939 14.3476 10.3689 14.7413 10.6508 15.0255C10.9327 15.3109 11.3216 15.4881 11.7493 15.4881H12.7713C13.2002 15.4881 13.5891 15.3109 13.8698 15.0255C14.1517 14.74 14.3267 14.3464 14.3267 13.9133V13.495C14.6888 13.463 15.0545 13.4236 15.424 13.3744L15.4241 13.3754ZM19.0939 21.3542C18.8594 21.3542 18.6698 21.1622 18.6698 20.9248C18.6698 20.6873 18.8594 20.4954 19.0939 20.4954H21.0029C21.2374 20.4954 21.427 20.6873 21.427 20.9248C21.427 21.1622 21.2375 21.3542 21.0029 21.3542H19.0939ZM22.6007 21.3542C22.3662 21.3542 22.1766 21.1622 22.1766 20.9248C22.1766 20.6873 22.3662 20.4954 22.6007 20.4954H25.2984C25.5329 20.4954 25.7225 20.6873 25.7225 20.9248C25.7225 21.1622 25.5329 21.3542 25.2984 21.3542H22.6007ZM19.0939 19.3463C18.8594 19.3463 18.6698 19.1543 18.6698 18.9169C18.6698 18.6794 18.8594 18.4875 19.0939 18.4875H25.2997C25.5342 18.4875 25.7238 18.6794 25.7238 18.9169C25.7238 19.1543 25.5342 19.3463 25.2997 19.3463H19.0939ZM19.0939 17.3383C18.8594 17.3383 18.6698 17.1464 18.6698 16.9089C18.6698 16.6715 18.8594 16.4796 19.0939 16.4796H22.3117C22.5463 16.4796 22.7358 16.6715 22.7358 16.9089C22.7358 17.1464 22.5463 17.3383 22.3117 17.3383H19.0939ZM23.985 17.3383C23.7505 17.3383 23.5609 17.1464 23.5609 16.9089C23.5609 16.6715 23.7505 16.4796 23.985 16.4796H25.2999C25.5344 16.4796 25.724 16.6715 25.724 16.9089C25.724 17.1464 25.5344 17.3383 25.2999 17.3383H23.985ZM22.8148 11.445V14.2809H21.5778V11.445H22.8148ZM21.1537 10.5862H22.8148V10.1174C22.8148 9.87999 23.0044 9.68805 23.2389 9.68805H25.3242C25.5587 9.68805 25.7483 9.87999 25.7483 10.1174V14.7103C25.7483 14.9477 25.5587 15.1397 25.3242 15.1397H19.0674C18.8328 15.1397 18.6433 14.9478 18.6433 14.7103V12.038C18.6433 11.8005 18.8328 11.6086 19.0674 11.6086H20.7285V11.0168C20.7285 10.7793 20.9181 10.5874 21.1526 10.5874L21.1537 10.5862ZM20.7296 14.2808H19.4926V12.4673H20.7296V14.2808ZM23.663 10.5468H24.9001V14.2808H23.663V10.5468ZM15.4265 4.8283V3.46387C15.4265 3.4491 15.4156 3.43065 15.3986 3.41589C15.3682 3.38882 15.3245 3.3716 15.2746 3.3716H9.24619C9.19637 3.3716 9.15262 3.38882 9.12224 3.41589C9.10523 3.43188 9.09429 3.44911 9.09429 3.46387V4.8283H15.4265ZM16.2747 3.46387C16.2747 3.19566 16.1532 2.95205 15.9612 2.77734C15.7814 2.6137 15.5371 2.51158 15.2747 2.51158H9.24621C8.98374 2.51158 8.73949 2.6137 8.55844 2.77734C8.36645 2.95204 8.24494 3.19564 8.24494 3.46387V4.8283H6.873V3.46387C6.873 2.89299 7.13305 2.37131 7.55228 1.99238C7.98366 1.60112 8.58274 1.35876 9.24621 1.35876H15.2747C15.9381 1.35876 16.5372 1.60113 16.9686 1.99238C17.3878 2.37254 17.6479 2.89299 17.6479 3.46387V4.8283H16.2747V3.46387ZM6.0249 4.8283V3.46387C6.0249 2.64077 6.39431 1.89395 6.98975 1.35507C7.57182 0.827251 8.37139 0.5 9.24752 0.5H15.276C16.1521 0.5 16.9505 0.827282 17.5337 1.35507C18.128 1.89395 18.4986 2.64077 18.4986 3.46387V4.8283H22.8428C23.2949 4.8283 23.7093 4.99809 24.013 5.2737C24.329 5.55914 24.5246 5.95777 24.5246 6.397V7.73683H27.0473C27.3098 7.73683 27.548 7.8451 27.7205 8.01981C27.8931 8.19452 28 8.43566 28 8.70143V22.5354C28 22.8012 27.8931 23.0423 27.7205 23.217C27.548 23.3917 27.3098 23.5 27.0473 23.5H17.3503C17.0878 23.5 16.8496 23.3917 16.6771 23.217C16.5045 23.0423 16.3976 22.8012 16.3976 22.5354V21.0467L2.19824 21.0455C1.73647 21.0455 1.31116 20.8867 1.00008 20.6296C0.664704 20.3528 0.455688 19.964 0.455688 19.5309V10.4019C0.342678 10.3084 0.249111 10.2001 0.1762 10.0796C0.0607605 9.88886 0 9.67354 0 9.44349V6.39716C0 5.95671 0.195642 5.55929 0.511574 5.27387C0.81415 4.9995 1.22852 4.82847 1.68177 4.82847H6.02602L6.0249 4.8283ZM13.4787 12.0319V13.9143C13.4787 14.1112 13.3985 14.2896 13.2709 14.42C13.1421 14.5492 12.9659 14.6304 12.7715 14.6304H11.7495C11.5551 14.6304 11.3789 14.5492 11.2501 14.42C11.1225 14.2896 11.0423 14.1112 11.0423 13.9143V12.0319H13.4787ZM27.0447 8.59562C27.0726 8.59562 27.0994 8.60792 27.1176 8.62638C27.137 8.64606 27.148 8.6719 27.148 8.7002V22.5342C27.148 22.5625 27.1358 22.5895 27.1176 22.608C27.0982 22.6277 27.0726 22.6388 27.0447 22.6388H17.3476C17.3197 22.6388 17.293 22.6264 17.2747 22.608C17.2553 22.5883 17.2444 22.5625 17.2444 22.5342V8.7002C17.2444 8.6719 17.2565 8.64484 17.2747 8.62638C17.2942 8.60669 17.3197 8.59562 17.3476 8.59562H27.0447Z" fill="#373D3F"/>
</svg>
