<svg width="28" height="26" viewBox="0 0 28 26" fill="none" xmlns="http://www.w3.org/2000/svg">
<path d="M27.2001 7.27247H26.3673C26.2778 7.27247 26.1972 7.21278 26.1763 7.1292C26.0211 6.54717 25.7883 5.98007 25.4809 5.44282C25.4361 5.36521 25.451 5.26671 25.5137 5.20403L26.1107 4.60708C26.2599 4.45785 26.3435 4.25787 26.3435 4.04296C26.3435 3.82806 26.2599 3.63107 26.1107 3.47885L24.8063 2.17749C24.5049 1.87305 23.9765 1.87305 23.6781 2.17749L23.0841 2.77146C23.0214 2.83414 22.9199 2.84906 22.8423 2.80429C22.32 2.50582 21.7589 2.27002 21.1679 2.10884C21.0873 2.08795 21.0306 2.00736 21.0306 1.91782V1.08507C21.0306 0.643327 20.6724 0.285156 20.2307 0.285156H18.3861C17.9473 0.285156 17.5892 0.643327 17.5892 1.08507V1.90886C17.5892 1.99841 17.5295 2.07899 17.4429 2.09989C16.8549 2.25808 16.2908 2.49089 15.7655 2.79235C15.6909 2.83712 15.5924 2.8222 15.5267 2.75653L14.9357 2.16555C14.6283 1.85514 14.1209 1.85514 13.8045 2.16555L12.5002 3.47288C12.3509 3.62211 12.2674 3.82209 12.2674 4.03699C12.2674 4.2519 12.3509 4.44889 12.5002 4.60111L12.5867 4.68767L10.8347 3.9176C10.7571 3.88477 10.6705 3.88477 10.5929 3.9176L0.179085 8.50219C0.0716342 8.54995 0 8.6574 0 8.77679V20.8292C0 20.9486 0.0686494 21.0561 0.179085 21.1038L10.5959 25.6914C10.6347 25.7093 10.6765 25.7153 10.7153 25.7153C10.7541 25.7153 10.7959 25.7063 10.8347 25.6914L21.2515 21.1038C21.3589 21.0561 21.4306 20.9486 21.4306 20.8292V15.791C21.932 15.6358 22.4125 15.4268 22.8603 15.1642C22.9349 15.1194 23.0334 15.1343 23.099 15.197L23.684 15.782C23.8363 15.9342 24.0362 16.0178 24.2511 16.0178H24.2541C24.466 16.0178 24.666 15.9342 24.8153 15.782L26.1196 14.4777C26.2718 14.3284 26.3554 14.1255 26.3554 13.9136C26.3554 13.6987 26.2718 13.4987 26.1196 13.3524L25.5256 12.7555C25.463 12.6928 25.448 12.5943 25.4898 12.5167C25.7913 11.9884 26.0241 11.4302 26.1763 10.8572C26.2002 10.7706 26.2778 10.7139 26.3703 10.7139H27.2031C27.6418 10.7139 28 10.3557 28 9.91398V8.0694C27.997 7.63064 27.6388 7.27247 27.2001 7.27247ZM10.7153 4.51456L13.315 5.6607C13.318 5.6607 13.318 5.66369 13.321 5.66369L16.7713 7.18293C16.7713 7.18293 16.7713 7.18293 16.7743 7.18293L20.6366 8.88424L10.763 13.236L0.841701 8.86335L10.7153 4.51456ZM21.2515 8.50219L17.3892 6.80088C17.9145 6.34421 18.5861 6.08752 19.2905 6.08752C20.8933 6.08752 22.1947 7.39186 22.1947 8.99169C22.1947 9.72296 21.9141 10.4184 21.4306 10.9497V8.77679C21.4306 8.6574 21.3619 8.54995 21.2515 8.50219ZM0.596951 9.40657L10.4168 13.7345V24.9571L0.596951 20.6352V9.40657ZM11.0138 24.9601V13.7763L20.8336 9.44836V20.6352L11.0138 24.9601ZM27.4001 9.91398C27.4001 10.0274 27.3105 10.1169 27.2001 10.1169H26.3673C26.0092 10.1169 25.6928 10.3557 25.5973 10.702C25.457 11.2273 25.2481 11.7377 24.9705 12.2212C24.7944 12.5316 24.8481 12.9226 25.1018 13.1763L25.6988 13.7763C25.7376 13.8151 25.7584 13.8628 25.7584 13.9165C25.7584 13.9703 25.7376 14.018 25.6988 14.0568L24.3914 15.3641C24.3526 15.4029 24.3049 15.4238 24.2511 15.4238C24.1974 15.4238 24.1467 15.4029 24.1079 15.3641L23.5229 14.7791C23.2662 14.5224 22.8692 14.4717 22.5618 14.6508C22.2066 14.8597 21.8275 15.0328 21.4335 15.1671V11.7556C22.2842 11.0959 22.7946 10.0781 22.7946 8.99169C22.7946 7.06055 21.2246 5.49057 19.2935 5.49057C18.3533 5.49057 17.4578 5.87262 16.8012 6.54121L13.7269 5.18613C13.697 5.02793 13.6254 4.87571 13.509 4.75931L12.927 4.17728C12.8882 4.13848 12.8673 4.09072 12.8673 4.03699C12.8673 3.98327 12.8882 3.93253 12.927 3.89671L14.2283 2.59237C14.3089 2.51477 14.4373 2.51178 14.5149 2.59237L15.1059 3.18335C15.3596 3.43706 15.7535 3.49078 16.064 3.31468C16.5445 3.04009 17.0579 2.82518 17.5951 2.68192C17.9444 2.59237 18.1861 2.27599 18.1861 1.91185V1.08806C18.1861 0.974635 18.2727 0.885092 18.3861 0.885092H20.2307C20.3441 0.885092 20.4336 0.97762 20.4336 1.08806V1.9208C20.4336 2.28196 20.6724 2.59834 21.0157 2.68788C21.5559 2.83414 22.0723 3.04904 22.5469 3.32364C22.8573 3.50571 23.2513 3.45198 23.5079 3.19529L24.1019 2.60133C24.1765 2.52671 24.3049 2.52372 24.3825 2.60431L25.6898 3.90865C25.7286 3.94745 25.7495 3.99521 25.7495 4.04893C25.7495 4.10266 25.7286 4.1534 25.6898 4.18922L25.0928 4.78617C24.8391 5.03987 24.7884 5.43088 24.9645 5.74129C25.2451 6.23079 25.46 6.75014 25.6003 7.28739C25.6958 7.63064 26.0122 7.86942 26.3673 7.86942H27.2001C27.3105 7.86942 27.4001 7.95896 27.4001 8.0694V9.91398Z" fill="#373D3F"/>
<path d="M19.4649 19.8979L17.5248 20.7545C17.3756 20.8202 17.3069 20.9963 17.3726 21.1485C17.4233 21.259 17.5308 21.3276 17.6472 21.3276C17.686 21.3276 17.7278 21.3187 17.7666 21.3037L19.7067 20.4471C19.8559 20.3815 19.9245 20.2054 19.8589 20.0531C19.7902 19.9009 19.6171 19.8323 19.4649 19.8979Z" fill="#373D3F"/>
<path d="M3.91369 20.7546L1.9736 19.898C1.82138 19.8323 1.64528 19.901 1.57961 20.0502C1.51395 20.2024 1.5826 20.3785 1.73184 20.4442L3.67193 21.3008C3.71073 21.3187 3.75252 21.3247 3.79132 21.3247C3.90474 21.3247 4.01517 21.259 4.06591 21.1456C4.13456 20.9964 4.06591 20.8203 3.91369 20.7546Z" fill="#373D3F"/>
</svg>
