<svg width="32" height="32" viewBox="0 0 32 32" fill="none" xmlns="http://www.w3.org/2000/svg">
<path d="M18.9579 13.0393L15.9979 14.5193M15.9979 14.5193L13.0379 13.0393M15.9979 14.5193V18.226M18.9579 4.14602L15.9979 2.66602L13.0379 4.14602M7.10453 24.8927L4.14453 23.4127V19.706M24.8912 24.8927L27.8512 23.4127V19.706" stroke="white" stroke-width="1.73333" stroke-linecap="round" stroke-linejoin="round"/>
<path d="M27.8545 9.21289L24.8945 10.6929" stroke="white" stroke-width="1.73333" stroke-linecap="round" stroke-linejoin="round"/>
<path d="M27.8545 9.21244L24.8945 7.73242" stroke="white" stroke-width="1.73333" stroke-linecap="round" stroke-linejoin="round"/>
<path d="M27.8555 9.21289V12.9196" stroke="white" stroke-width="1.73333" stroke-linecap="round" stroke-linejoin="round"/>
<path d="M4.14648 9.21244L7.10648 7.73242" stroke="white" stroke-width="1.73333" stroke-linecap="round" stroke-linejoin="round"/>
<path d="M4.14648 9.21289L7.10648 10.6929" stroke="white" stroke-width="1.73333" stroke-linecap="round" stroke-linejoin="round"/>
<path d="M4.14648 9.21289V12.9196" stroke="white" stroke-width="1.73333" stroke-linecap="round" stroke-linejoin="round"/>
<path d="M15.9991 29.9585L13.0391 28.4785" stroke="white" stroke-width="1.73333" stroke-linecap="round" stroke-linejoin="round"/>
<path d="M16 29.9585L18.96 28.4785" stroke="white" stroke-width="1.73333" stroke-linecap="round" stroke-linejoin="round"/>
<path d="M16 29.9586V26.252" stroke="white" stroke-width="1.73333" stroke-linecap="round" stroke-linejoin="round"/>
</svg>
