<svg width="32" height="32" viewBox="0 0 32 32" fill="none" xmlns="http://www.w3.org/2000/svg">
<path d="M10.666 22.6667V26.6667C10.666 27.0203 10.8065 27.3594 11.0565 27.6095C11.3066 27.8595 11.6457 28 11.9993 28H26.666C27.0196 28 27.3588 27.8595 27.6088 27.6095C27.8589 27.3594 27.9993 27.0203 27.9993 26.6667V5.33333C27.9993 4.97971 27.8589 4.64057 27.6088 4.39052C27.3588 4.14048 27.0196 4 26.666 4H11.9993C11.6457 4 11.3066 4.14048 11.0565 4.39052C10.8065 4.64057 10.666 4.97971 10.666 5.33333V9.33333" stroke="white" stroke-width="1.73333" stroke-linecap="round" stroke-linejoin="round"/>
<path d="M10.6667 9.33204C11.9852 9.33204 13.2741 9.72303 14.3705 10.4556C15.4668 11.1881 16.3213 12.2293 16.8259 13.4475C17.3304 14.6657 17.4625 16.0061 17.2052 17.2993C16.948 18.5925 16.3131 19.7804 15.3807 20.7128C14.4484 21.6451 13.2605 22.28 11.9673 22.5373C10.6741 22.7945 9.33362 22.6625 8.11544 22.1579C6.89727 21.6533 5.85608 20.7988 5.12354 19.7025C4.39099 18.6062 4 17.3173 4 15.9987C4 14.2306 4.70238 12.5349 5.95262 11.2847C7.20286 10.0344 8.89856 9.33204 10.6667 9.33204ZM10.6667 9.33204V15.9987L15.3867 20.7187C16.3214 19.7863 16.9583 18.5974 17.2165 17.3026C17.4747 16.0078 17.3427 14.6655 16.8371 13.4459C16.3316 12.2262 15.4752 11.1842 14.3767 10.4518C13.2782 9.71939 11.9869 9.32968 10.6667 9.33204Z" stroke="white" stroke-width="1.73333" stroke-linecap="round" stroke-linejoin="round"/>
</svg>
