<svg width="22" height="26" viewBox="0 0 22 26" fill="none" xmlns="http://www.w3.org/2000/svg">
<path d="M17.9639 0.565087H4.19061L4.45847 3.132C4.47415 3.28644 4.3614 3.42521 4.20695 3.44089L1.17837 3.5373V23.0288C6.77353 23.0288 12.3687 23.0288 17.9639 23.0288C17.9639 15.5409 17.9639 8.05299 17.9639 0.565087ZM4.60758 21.5367C4.4518 21.5367 4.32504 21.4099 4.32504 21.2541C4.32504 21.0984 4.4518 20.9716 4.60758 20.9716H8.10152C8.2573 20.9716 8.38406 21.0984 8.38406 21.2541C8.38406 21.4099 8.2573 21.5367 8.10152 21.5367H4.60758ZM4.60758 20.2814C4.4518 20.2814 4.32504 20.1547 4.32504 19.9989C4.32504 19.8431 4.4518 19.7163 4.60758 19.7163H8.10152C8.2573 19.7163 8.38406 19.8431 8.38406 19.9989C8.38406 20.1547 8.2573 20.2814 8.10152 20.2814H4.60758ZM4.60758 19.0265C4.4518 19.0265 4.32504 18.8997 4.32504 18.7439C4.32504 18.5882 4.4518 18.4614 4.60758 18.4614H8.10152C8.2573 18.4614 8.38406 18.5882 8.38406 18.7439C8.38406 18.8997 8.2573 19.0265 8.10152 19.0265H4.60758ZM2.90398 21.5374C2.7482 21.5374 2.62144 21.4106 2.62144 21.2548C2.62144 21.099 2.7482 20.9723 2.90398 20.9723H3.31129C3.46707 20.9723 3.59383 21.099 3.59383 21.2548C3.59383 21.4106 3.46707 21.5374 3.31129 21.5374H2.90398ZM2.90398 20.2821C2.7482 20.2821 2.62144 20.1553 2.62144 19.9995C2.62144 19.8438 2.7482 19.717 2.90398 19.717H3.31129C3.46707 19.717 3.59383 19.8438 3.59383 19.9995C3.59383 20.1553 3.46707 20.2821 3.31129 20.2821H2.90398ZM2.90398 19.0272C2.7482 19.0272 2.62144 18.9004 2.62144 18.7446C2.62144 18.5888 2.7482 18.4621 2.90398 18.4621H3.31129C3.46707 18.4621 3.59383 18.5888 3.59383 18.7446C3.59383 18.9004 3.46707 19.0272 3.31129 19.0272H2.90398ZM4.60758 17.7712C4.4518 17.7712 4.32504 17.6445 4.32504 17.4887C4.32504 17.3329 4.4518 17.2061 4.60758 17.2061H8.10152C8.2573 17.2061 8.38406 17.3329 8.38406 17.4887C8.38406 17.6445 8.2573 17.7712 8.10152 17.7712H4.60758ZM2.90398 17.7719C2.7482 17.7719 2.62144 17.6451 2.62144 17.4893C2.62144 17.3336 2.7482 17.2068 2.90398 17.2068H3.31129C3.46707 17.2068 3.59383 17.3336 3.59383 17.4893C3.59383 17.6451 3.46707 17.7719 3.31129 17.7719H2.90398ZM9.75808 21.54C9.6023 21.54 9.47554 21.4133 9.47554 21.2575C9.47554 21.1017 9.6023 20.9749 9.75808 20.9749H10.3619V18.1145V17.8319H10.927V20.9749H11.5387V18.4637V18.1812H12.1038V20.9749H12.7156V17.4893V17.2068H13.2807V20.9749H13.8938L13.8932 18.8684V18.5872H14.4556L14.4562 20.9749H15.0694V17.9674V17.6848H15.6345V20.9749H16.2382C16.394 20.9749 16.5208 21.1017 16.5208 21.2575C16.5208 21.4133 16.394 21.54 16.2382 21.54C14.0783 21.54 11.918 21.54 9.75808 21.54ZM2.90398 16.0519C2.7482 16.0519 2.62144 15.9252 2.62144 15.7694C2.62144 15.6136 2.7482 15.4869 2.90398 15.4869H16.2382C16.394 15.4869 16.5208 15.6136 16.5208 15.7694C16.5208 15.9252 16.394 16.0519 16.2382 16.0519H2.90398ZM2.90398 14.7456C2.7482 14.7456 2.62144 14.6189 2.62144 14.4631C2.62144 14.3073 2.7482 14.1805 2.90398 14.1805H16.2382C16.394 14.1805 16.5208 14.3073 16.5208 14.4631C16.5208 14.6189 16.394 14.7456 16.2382 14.7456H2.90398ZM2.90398 13.4393C2.7482 13.4393 2.62144 13.3126 2.62144 13.1568C2.62144 13.001 2.7482 12.8742 2.90398 12.8742H16.2382C16.394 12.8742 16.5208 13.001 16.5208 13.1568C16.5208 13.3126 16.394 13.4393 16.2382 13.4393H2.90398ZM2.90398 12.133C2.7482 12.133 2.62144 12.0063 2.62144 11.8505C2.62144 11.6947 2.7482 11.5679 2.90398 11.5679H7.85133C8.00711 11.5679 8.13387 11.6947 8.13387 11.8505C8.13387 12.0063 8.00711 12.133 7.85133 12.133H2.90398ZM2.90398 10.0134C2.7482 10.0134 2.62144 9.88669 2.62144 9.7309C2.62144 9.57512 2.7482 9.44836 2.90398 9.44836H9.83681C9.99259 9.44836 10.1193 9.57512 10.1193 9.7309C10.1193 9.88669 9.99259 10.0134 9.83681 10.0134H2.90398ZM2.90398 8.95333C2.7482 8.95333 2.62144 8.82656 2.62144 8.67078C2.62144 8.515 2.7482 8.38824 2.90398 8.38824H9.83681C9.99259 8.38824 10.1193 8.515 10.1193 8.67078C10.1193 8.82656 9.99259 8.95333 9.83681 8.95333H2.90398ZM2.90398 7.8932C2.7482 7.8932 2.62144 7.76644 2.62144 7.61066C2.62144 7.45488 2.7482 7.32812 2.90398 7.32812H8.64092C8.7967 7.32812 8.92346 7.45488 8.92346 7.61066C8.92346 7.76644 8.7967 7.8932 8.64092 7.8932H2.90398ZM2.90398 6.83308C2.7482 6.83308 2.62144 6.70632 2.62144 6.55054C2.62144 6.39476 2.7482 6.268 2.90398 6.268H6.58172C6.7375 6.268 6.86426 6.39476 6.86426 6.55054C6.86426 6.70632 6.7375 6.83308 6.58172 6.83308H2.90398ZM8.85107 6.54987C8.85107 5.30861 9.35478 4.18344 10.1681 3.37017C10.9813 2.5569 12.1065 2.05319 13.3478 2.05319C13.5035 2.05319 13.6303 2.17995 13.6303 2.33574V3.38952C14.3939 3.4569 15.0797 3.79449 15.5914 4.3062C16.1655 4.8803 16.5208 5.67355 16.5208 6.54987C16.5208 7.42619 16.1655 8.21945 15.5914 8.79354C15.0173 9.36763 14.2241 9.7229 13.3478 9.7229C12.4714 9.7229 11.6782 9.36763 11.1041 8.79354C10.5924 8.28183 10.2548 7.59598 10.1874 6.83241H9.13362C8.97783 6.83241 8.85107 6.70565 8.85107 6.54987ZM13.6303 3.95694V6.54987C13.6303 6.70565 13.5035 6.83241 13.3478 6.83241H10.7548C10.8205 7.43953 11.0947 7.98494 11.5037 8.39391C11.9754 8.86559 12.6279 9.15781 13.3478 9.15781C14.0676 9.15781 14.7201 8.86559 15.1918 8.39391C15.6635 7.92223 15.9557 7.26974 15.9557 6.54987C15.9557 5.83 15.6635 5.17752 15.1918 4.70583C14.7828 4.29686 14.2374 4.02266 13.6303 3.95694ZM10.5677 3.7698C9.91887 4.41862 9.49555 5.29427 9.42617 6.26733C10.6391 6.26733 11.8523 6.26733 13.0652 6.26733C13.0652 5.05443 13.0652 3.84119 13.0652 2.62829C12.0921 2.69767 11.2165 3.12099 10.5677 3.7698ZM3.65921 0.901003L1.59935 2.96087L3.8667 2.88915L3.65921 0.901003ZM18.5289 2.40612H21.1032C21.259 2.40612 21.3857 2.53288 21.3857 2.68867V25.7175C21.3857 25.8732 21.259 26 21.1032 26H3.75262C3.59683 26 3.47007 25.8732 3.47007 25.7175V23.5939H0.895824C0.740042 23.5939 0.613281 23.4671 0.613281 23.3113V3.26476C0.613615 3.19237 0.640968 3.11999 0.696009 3.06495L3.67823 0.0827282C3.7296 0.0316902 3.80032 0 3.87804 0H18.2464C18.4022 0 18.5289 0.126761 18.5289 0.282544V2.40612ZM4.03516 23.5939V25.4349H20.8206V2.97121H18.5289V23.3113C18.5289 23.4671 18.4022 23.5939 18.2464 23.5939H4.03516Z" fill="#373D3F"/>
</svg>
