<svg width="28" height="28" viewBox="0 0 28 28" fill="none" xmlns="http://www.w3.org/2000/svg">
<g clip-path="url(#clip0_7258_6259)">
<path d="M26.3809 22.6678C25.6048 22.6678 24.9565 23.2157 24.7983 23.9461H17.2596V20.1783H18.6261C19.4813 20.1783 20.1752 19.4843 20.1752 18.6291V17.2626H22.2357V18.7965C21.5052 18.9548 20.9574 19.603 20.9574 20.3791C20.9574 21.2709 21.6848 21.9983 22.5765 21.9983C23.4683 21.9983 24.1957 21.2709 24.1957 20.3791C24.1957 19.603 23.6478 18.9548 22.9174 18.7965V16.9217C22.9174 16.733 22.7652 16.5809 22.5765 16.5809H20.1783V14.347H24.7983C24.9565 15.0774 25.6048 15.6252 26.3809 15.6252C27.2726 15.6252 28 14.8978 28 14.0061C28 13.1143 27.2726 12.387 26.3809 12.387C25.6048 12.387 24.9565 12.9348 24.7983 13.6652H20.1783V11.4313H24.287C24.4757 11.4313 24.6278 11.2791 24.6278 11.0904V3.20174C25.3583 3.04348 25.9061 2.39522 25.9061 1.61913C25.9061 0.727391 25.1787 0 24.287 0C23.3952 0 22.6678 0.727391 22.6678 1.61913C22.6678 2.39522 23.2157 3.04348 23.9461 3.20174V10.7404H20.1783V9.37391C20.1783 8.51869 19.4813 7.82478 18.6291 7.82478H17.2626V5.76435H18.7965C18.9548 6.49478 19.603 7.04261 20.3791 7.04261C21.2709 7.04261 21.9983 6.31522 21.9983 5.42348C21.9983 4.53174 21.2709 3.80435 20.3791 3.80435C19.603 3.80435 18.9548 4.35217 18.7965 5.08261H16.9217C16.733 5.08261 16.5809 5.23478 16.5809 5.42348V7.82478H14.347V3.20174C15.0774 3.04348 15.6252 2.39522 15.6252 1.61913C15.6191 0.727391 14.8917 0 14 0C13.1083 0 12.3809 0.727391 12.3809 1.61913C12.3809 2.39522 12.9287 3.04348 13.6591 3.20174V7.82174H11.4252V3.71304C11.4252 3.52435 11.273 3.37217 11.0843 3.37217H3.20174C3.04348 2.64174 2.39522 2.09391 1.61913 2.09391C0.727391 2.09391 0 2.8213 0 3.71304C0 4.60478 0.727391 5.33217 1.61913 5.33217C2.39522 5.33217 3.04348 4.78435 3.20174 4.05391H10.7404V7.82174H9.37391C8.51869 7.82174 7.82478 8.51565 7.82478 9.37087V10.7374H5.76435V9.20348C6.49478 9.04522 7.04261 8.39696 7.04261 7.62087C7.04261 6.72913 6.31522 6.00174 5.42348 6.00174C4.53174 6.00174 3.80435 6.72913 3.80435 7.62087C3.80435 8.39696 4.35217 9.04522 5.08261 9.20348V11.0783C5.08261 11.267 5.23478 11.4191 5.42348 11.4191H7.82478V13.653H3.20174C3.04348 12.9226 2.39522 12.3748 1.61913 12.3748C0.727391 12.3809 0 13.1083 0 14C0 14.8917 0.727391 15.6191 1.61913 15.6191C2.39522 15.6191 3.04348 15.0713 3.20174 14.3409H7.82174V16.5748H3.71304C3.52435 16.5748 3.37217 16.727 3.37217 16.9157V24.7952C2.64174 24.9535 2.09391 25.6017 2.09391 26.3778C2.09391 27.2696 2.8213 27.997 3.71304 27.997C4.60478 27.997 5.33217 27.2696 5.33217 26.3778C5.33217 25.6017 4.78435 24.9535 4.05391 24.7952V17.2596H7.82174V18.6261C7.82174 19.4813 8.5187 20.1752 9.37087 20.1752H10.7374V22.2357H9.20348C9.04522 21.5052 8.39696 20.9574 7.62087 20.9574C6.72913 20.9574 6.00174 21.6848 6.00174 22.5765C6.00174 23.4683 6.72913 24.1957 7.62087 24.1957C8.39696 24.1957 9.04522 23.6478 9.20348 22.9174H11.0783C11.267 22.9174 11.4191 22.7652 11.4191 22.5765V20.1783H13.653V24.7983C12.9226 24.9565 12.3748 25.6048 12.3748 26.3809C12.3748 27.2726 13.1022 28 13.9939 28C14.8857 28 15.613 27.2726 15.613 26.3809C15.613 25.6048 15.0652 24.9565 14.3348 24.7983V20.1783H16.5687V24.287C16.5687 24.4757 16.7209 24.6278 16.9096 24.6278H24.7891C24.9474 25.3583 25.5957 25.9061 26.3717 25.9061C27.2635 25.9061 27.9909 25.1787 27.9909 24.287C27.9909 23.3952 27.2726 22.6678 26.3809 22.6678ZM23.517 20.3761C23.517 20.8935 23.097 21.3135 22.5796 21.3135C22.0622 21.3135 21.6422 20.8935 21.6422 20.3761C21.6422 19.8587 22.0622 19.4387 22.5796 19.4387C23.097 19.4387 23.517 19.8587 23.517 20.3761ZM26.3809 13.0626C26.8983 13.0626 27.3183 13.4826 27.3183 14C27.3183 14.5174 26.8983 14.9374 26.3809 14.9374C25.8635 14.9374 25.4435 14.5174 25.4435 14C25.4435 13.4826 25.8635 13.0626 26.3809 13.0626ZM23.3496 1.61913C23.3496 1.10174 23.7696 0.681739 24.287 0.681739C24.8043 0.681739 25.2243 1.10174 25.2243 1.61913C25.2243 2.13652 24.8043 2.55652 24.287 2.55652C23.7696 2.55652 23.3496 2.13652 23.3496 1.61913ZM20.3761 4.48304C20.8935 4.48304 21.3135 4.90304 21.3135 5.42043C21.3135 5.93783 20.8935 6.35783 20.3761 6.35783C19.8587 6.35783 19.4387 5.93783 19.4387 5.42043C19.4387 4.90304 19.8587 4.48304 20.3761 4.48304ZM13.0626 1.61913C13.0626 1.10174 13.4826 0.681739 14 0.681739C14.5174 0.681739 14.9374 1.10174 14.9374 1.61913C14.9374 2.13652 14.5174 2.55652 14 2.55652C13.4826 2.55652 13.0626 2.13652 13.0626 1.61913ZM1.61913 4.65043C1.10174 4.65043 0.681739 4.23043 0.681739 3.71304C0.681739 3.19565 1.10174 2.77565 1.61913 2.77565C2.13652 2.77565 2.55652 3.19565 2.55652 3.71304C2.55652 4.23043 2.13652 4.65043 1.61913 4.65043ZM4.48304 7.62391C4.48304 7.10652 4.90304 6.68652 5.42043 6.68652C5.93783 6.68652 6.35783 7.10652 6.35783 7.62391C6.35783 8.1413 5.93783 8.5613 5.42043 8.5613C4.90304 8.5613 4.48304 8.1413 4.48304 7.62391ZM1.61913 14.9374C1.10174 14.9374 0.681739 14.5174 0.681739 14C0.681739 13.4826 1.10174 13.0626 1.61913 13.0626C2.13652 13.0626 2.55652 13.4826 2.55652 14C2.55652 14.5174 2.13652 14.9374 1.61913 14.9374ZM4.65043 26.3809C4.65043 26.8983 4.23043 27.3183 3.71304 27.3183C3.19565 27.3183 2.77565 26.8983 2.77565 26.3809C2.77565 25.8635 3.19565 25.4435 3.71304 25.4435C4.23043 25.4435 4.65043 25.8635 4.65043 26.3809ZM7.62391 23.517C7.10652 23.517 6.68652 23.097 6.68652 22.5796C6.68652 22.0622 7.10652 21.6422 7.62391 21.6422C8.1413 21.6422 8.5613 22.0622 8.5613 22.5796C8.5613 23.097 8.1413 23.517 7.62391 23.517ZM14.9374 26.3809C14.9374 26.8983 14.5174 27.3183 14 27.3183C13.4826 27.3183 13.0626 26.8983 13.0626 26.3809C13.0626 25.8635 13.4826 25.4435 14 25.4435C14.5174 25.4435 14.9374 25.8635 14.9374 26.3809ZM8.50652 18.6261V9.37391C8.50652 8.89609 8.89609 8.50652 9.37391 8.50652H18.6261C19.1039 8.50652 19.4935 8.89609 19.4935 9.37391V18.6261C19.4935 19.1039 19.1039 19.4935 18.6261 19.4935H9.37391C8.89304 19.4935 8.50652 19.107 8.50652 18.6261ZM26.3809 25.2243C25.8635 25.2243 25.4435 24.8043 25.4435 24.287C25.4435 23.7696 25.8635 23.3496 26.3809 23.3496C26.8983 23.3496 27.3183 23.7696 27.3183 24.287C27.3152 24.8043 26.8952 25.2243 26.3809 25.2243ZM18.13 9.52913H9.87C9.6813 9.52913 9.52913 9.6813 9.52913 9.87V18.127C9.52913 18.3157 9.6813 18.4678 9.87 18.4678H18.127C18.3157 18.4678 18.4678 18.3157 18.4678 18.127V9.87C18.4709 9.6813 18.3187 9.52913 18.13 9.52913ZM17.7861 17.7861H10.2139V10.2139H17.7891V17.7861H17.7861Z" fill="#373D3F"/>
</g>
<defs>
<clipPath id="clip0_7258_6259">
<rect width="28" height="28" fill="white"/>
</clipPath>
</defs>
</svg>
