<svg width="32" height="32" viewBox="0 0 32 32" fill="none" xmlns="http://www.w3.org/2000/svg">
<path d="M9.33203 13.332C9.33203 11.4464 9.33203 10.5036 9.91782 9.91782C10.5036 9.33203 11.4464 9.33203 13.332 9.33203H18.6654C20.551 9.33203 21.4938 9.33203 22.0796 9.91782C22.6654 10.5036 22.6654 11.4464 22.6654 13.332V18.6654C22.6654 20.551 22.6654 21.4938 22.0796 22.0796C21.4938 22.6654 20.551 22.6654 18.6654 22.6654H13.332C11.4464 22.6654 10.5036 22.6654 9.91782 22.0796C9.33203 21.4938 9.33203 20.551 9.33203 18.6654V13.332Z" stroke="white" stroke-width="1.73333"/>
<path d="M16.5708 13.332L14.666 15.9987H17.3327L15.4279 18.6654" stroke="white" stroke-width="1.73333" stroke-linecap="round" stroke-linejoin="round"/>
<path d="M5.33203 15.9987C5.33203 10.9704 5.33203 8.45623 6.89412 6.89412C8.45623 5.33203 10.9704 5.33203 15.9987 5.33203C21.027 5.33203 23.5412 5.33203 25.1032 6.89412C26.6654 8.45623 26.6654 10.9704 26.6654 15.9987C26.6654 21.027 26.6654 23.5412 25.1032 25.1032C23.5412 26.6654 21.027 26.6654 15.9987 26.6654C10.9704 26.6654 8.45623 26.6654 6.89412 25.1032C5.33203 23.5412 5.33203 21.027 5.33203 15.9987Z" stroke="white" stroke-width="1.73333"/>
<path d="M5.33268 16H2.66602" stroke="white" stroke-width="1.73333" stroke-linecap="round"/>
<path d="M29.3327 16H26.666" stroke="white" stroke-width="1.73333" stroke-linecap="round"/>
<path d="M5.33268 12H2.66602" stroke="white" stroke-width="1.73333" stroke-linecap="round"/>
<path d="M29.3327 12H26.666" stroke="white" stroke-width="1.73333" stroke-linecap="round"/>
<path d="M5.33268 20H2.66602" stroke="white" stroke-width="1.73333" stroke-linecap="round"/>
<path d="M29.3327 20H26.666" stroke="white" stroke-width="1.73333" stroke-linecap="round"/>
<path d="M16 26.666V29.3327" stroke="white" stroke-width="1.73333" stroke-linecap="round"/>
<path d="M16 2.66602V5.33268" stroke="white" stroke-width="1.73333" stroke-linecap="round"/>
<path d="M12 26.666V29.3327" stroke="white" stroke-width="1.73333" stroke-linecap="round"/>
<path d="M12 2.66602V5.33268" stroke="white" stroke-width="1.73333" stroke-linecap="round"/>
<path d="M20 26.666V29.3327" stroke="white" stroke-width="1.73333" stroke-linecap="round"/>
<path d="M20 2.66602V5.33268" stroke="white" stroke-width="1.73333" stroke-linecap="round"/>
</svg>
