<svg xmlns="http://www.w3.org/2000/svg" width="18" height="18" viewBox="0 0 18 18" fill="none">
  <rect x="8.625" y="0" width="0.75" height="4.5" rx="0.375" fill="#C4C4C4"/>
  <rect y="9" width="0.75" height="4.5" rx="0.375" transform="rotate(-90 0 9)" fill="white"/>
  <rect x="4.825" y="16.5" width="0.75" height="4.5" rx="0.375" transform="rotate(-150 4.825 16.5)" fill="white"/>
  <rect x="13.825" y="16.125" width="0.75" height="4.5" rx="0.375" transform="rotate(150 13.825 16.125)" fill="#EFEFEF"/>
  <rect x="16.982" y="12.75" width="0.75" height="4.5" rx="0.375" transform="rotate(120 16.982 12.75)" fill="#D4D4D4"/>
  <rect x="16.607" y="4.5" width="0.75" height="4.5" rx="0.375" transform="rotate(60 16.607 4.5)" fill="#B0B0B0"/>
  <rect x="9.375" y="18" width="0.75" height="4.5" rx="0.375" transform="rotate(180 9.375 18)" fill="white"/>
  <rect x="18" y="8.625" width="0.75" height="4.5" rx="0.375" transform="rotate(90 18 8.625)" fill="#CDCDCD"/>
  <rect x="13.175" y="1.5" width="0.75" height="4.5" rx="0.375" transform="rotate(30 13.175 1.5)" fill="#B6B6B6"/>
  <rect x="4.175" y="1.5" width="0.75" height="4.5" rx="0.375" transform="rotate(-30 4.175 1.5)" fill="#D9D9D9"/>
  <rect x="1.018" y="5.25" width="0.75" height="4.5" rx="0.375" transform="rotate(-60 1.018 5.25)" fill="#EFEFEF"/>
  <rect x="1.393" y="13.5" width="0.75" height="4.5" rx="0.375" transform="rotate(-120 1.393 13.5)" fill="white"/>
</svg>
