<svg width="120" height="120" viewBox="0 0 120 120" fill="none" xmlns="http://www.w3.org/2000/svg">
<path d="M105.079 23.4127C103.693 20.4066 99.9969 19.021 96.9908 20.524C96.1829 20.9844 95.4878 21.4493 94.9101 22.1398C94.5625 22.37 94.1022 22.4874 93.7546 22.7175L89.8279 14.5119C89.7105 14.2817 89.4804 14.0516 89.1328 13.9342C88.9026 13.8169 88.5551 13.8169 88.2075 13.9342L79.0813 18.3259C78.9639 18.4432 78.8511 18.4432 78.7337 18.5561C78.6164 18.6734 78.6164 18.7863 78.5035 18.9036C78.5035 19.021 78.3862 19.1338 78.3862 19.2511V19.3685V19.5987C78.6164 20.524 79.0813 21.4493 79.5416 22.3699C79.659 22.6001 79.8892 22.8303 80.1194 22.9477C80.4669 23.2952 80.8144 23.6427 81.0446 24.2205C81.9699 26.0711 81.162 28.382 79.1941 29.3027C77.3435 30.228 75.0326 29.42 74.1119 27.5695C73.8817 26.9918 73.7643 26.414 73.7643 25.8363V25.719C73.7643 25.6016 73.7643 25.3714 73.647 25.2586C73.2995 24.3333 72.9519 23.5254 72.3741 22.7175C72.3741 22.7175 72.3741 22.6002 72.2568 22.6002L72.1394 22.4828C72.0221 22.3655 72.0221 22.3655 71.9093 22.2526C71.9093 22.2526 71.7919 22.1353 71.6791 22.1353C71.5617 22.1353 71.5617 22.1353 71.4489 22.0179H71.2187H71.1013C70.984 22.0179 70.8711 22.0179 70.7538 22.1353L70.6364 22.2526L61.6229 26.5269C61.0452 26.7571 60.815 27.4522 61.0452 28.0299L65.4369 37.2736L65.5542 37.3909C65.6716 37.5083 65.6716 37.6211 65.7844 37.6211C65.9018 37.7385 65.9018 37.7385 66.0146 37.8513C66.132 37.8513 66.2448 37.9687 66.3621 37.9687H66.4795H66.7097H66.827H66.9444C67.7523 37.7385 68.6776 37.2736 69.4855 36.8132C69.6028 36.6959 69.833 36.583 69.9458 36.4657C70.2934 36.0053 70.6409 35.6578 71.2187 35.4276C72.144 34.9672 73.1821 34.9672 74.1074 35.3102C75.0326 35.6578 75.8405 36.3483 76.3009 37.2736C76.7613 38.1988 76.7613 39.2369 76.4182 40.1622C76.0707 41.0875 75.3801 41.8954 74.4549 42.243C73.8771 42.4732 73.4168 42.5905 72.8391 42.5905H72.2613C71.2232 42.9381 70.4108 43.3984 69.7203 43.8634L69.6029 43.9807C69.6029 43.9807 69.6029 44.0981 69.4856 44.0981C69.3682 44.0981 69.3682 44.2154 69.3682 44.3283L69.2509 44.4456C69.2509 44.563 69.1335 44.563 69.1335 44.6758V44.906V45.1362V45.3664V45.4837L73.5252 54.7274C73.6425 54.9576 73.8727 55.1878 74.2203 55.3051C74.3376 55.3051 74.4505 55.4225 74.5678 55.4225C74.6852 55.4225 74.9153 55.4225 75.0282 55.3051L83.2338 51.3784C83.464 51.7259 83.6942 52.0735 83.8115 52.5339C83.8115 53.4591 83.9289 54.2671 84.3893 55.075C85.0843 56.578 86.3526 57.616 87.8556 58.1938C88.5507 58.424 89.2413 58.5413 89.9364 58.5413C90.8617 58.5413 91.6696 58.3111 92.4775 57.9636C93.9805 57.2685 95.0186 56.0002 95.5963 54.4972C96.174 52.9942 96.0567 51.3784 95.3661 49.8754C94.9057 49.0674 94.4408 48.2596 93.7503 47.7946C93.5201 47.4471 93.2899 46.9867 93.1726 46.6392L101.378 42.7124C101.608 42.5951 101.839 42.3649 101.956 42.0174C102.073 41.7872 102.073 41.4396 101.956 41.0921L98.0292 32.7737C98.3768 32.5435 98.7243 32.4262 99.1847 32.196C100.11 32.196 100.918 32.0786 101.843 31.6182C103.346 30.9232 104.384 29.7677 104.962 28.1519C105.887 26.5316 105.77 24.7984 105.079 23.4127ZM103.228 27.2266C102.881 28.1519 102.19 28.9598 101.265 29.3074C100.805 29.5376 100.457 29.6549 99.9922 29.6549C99.7621 29.5376 99.4145 29.5376 99.067 29.6549C98.0289 30.0024 97.1036 30.4628 96.2957 31.0405C96.1784 31.0405 96.1784 31.1579 96.1784 31.1579L96.061 31.2752C95.9437 31.3926 95.9437 31.3926 95.9437 31.5054C95.9437 31.5054 95.9437 31.6228 95.8263 31.6228V31.853V32.0832V32.2005V32.4307L99.753 40.6363L91.5474 44.563C91.4301 44.563 91.3172 44.6804 91.3172 44.7932L91.1999 44.9106C91.1999 45.0279 91.0825 45.0279 91.0825 45.1408C91.0825 45.2581 90.9652 45.2581 90.9652 45.3709V45.4883V45.8358V45.9532V46.0705C91.1954 46.8784 91.6603 47.8037 92.1206 48.6116C92.238 48.8418 92.4682 49.072 92.6984 49.1893C93.0459 49.5369 93.3935 49.8844 93.6236 50.4622C94.084 51.3875 94.084 52.4256 93.741 53.3509C93.3935 54.2761 92.7029 55.084 91.7776 55.4316C90.8524 55.892 89.8143 55.892 88.889 55.549C87.9637 55.2014 87.1558 54.5108 86.6955 53.5856C86.4653 53.0079 86.3479 52.4301 86.3479 51.8524C86.3479 51.6222 86.3479 51.5049 86.2306 51.2747C85.883 50.2366 85.4227 49.3113 84.8449 48.5034L84.7276 48.3861C84.7276 48.3861 84.7276 48.2687 84.6103 48.2687C84.4929 48.1514 84.4929 48.1514 84.3801 48.1514H84.2627H84.0325H83.9152H83.685H83.5676L75.362 52.0781L71.8956 44.7978C72.2432 44.5676 72.5907 44.4502 73.0511 44.22C73.9764 44.22 74.7843 44.1027 75.7096 43.6423C77.2126 42.9472 78.2507 41.7917 78.8284 40.1759C79.4061 38.6729 79.2888 37.0571 78.5982 35.5541C77.9031 34.0511 76.6349 33.013 75.1318 32.4353C73.6288 31.8575 72.013 31.9749 70.51 32.6655C69.7021 33.1258 68.8942 33.5907 68.4292 34.2813C68.0817 34.5114 67.6213 34.6288 67.2738 34.859L63.9248 27.6961L71.0877 24.2297C71.3179 24.5772 71.5481 24.9248 71.6654 25.3851C71.6654 26.3104 71.7828 27.1183 72.2432 28.0436C73.2813 30.2371 75.4794 31.51 77.6729 31.51C78.5982 31.51 79.4061 31.2798 80.3314 30.9323C83.3374 29.5466 84.6057 25.8501 83.22 22.844C82.7597 22.0361 82.2948 21.341 81.6043 20.7633C81.3741 20.4158 81.1439 19.9554 81.0265 19.6078L88.3069 16.1415L92.2336 24.3471L92.3509 24.4644C92.4683 24.5818 92.4683 24.6946 92.5811 24.812L92.6985 24.9293C92.8158 25.0467 93.046 25.0467 93.1588 25.0467H93.2762H93.5064H93.6237H93.7411H93.8584C94.6663 24.8165 95.5916 24.3516 96.3995 23.8912C96.5169 23.7738 96.747 23.661 96.8599 23.5437C97.2074 23.0833 97.555 22.7357 98.1327 22.5055C99.9833 21.5803 102.294 22.3882 103.215 24.3561C103.459 25.2588 103.576 26.3013 103.228 27.2266Z" fill="#373D3F"/>
<path d="M83.5858 64.8913H73.4168H73.2995H73.0693C73.0693 64.8913 72.952 64.8913 72.952 65.0086C72.8346 65.0086 72.8346 65.126 72.7218 65.126L72.6044 65.2433C72.4871 65.3607 72.4871 65.3607 72.4871 65.4735V65.5909C72.4871 65.5909 72.4871 65.7082 72.3697 65.7082C72.2524 66.6335 72.1395 67.6716 72.2524 68.7143C72.2524 68.9445 72.3697 69.1747 72.4826 69.4094C72.7127 69.8697 72.8301 70.3346 72.8301 70.9124C72.8301 72.9931 71.0969 74.7263 69.0162 74.7263C66.9354 74.7263 65.2022 72.9931 65.2022 70.9124C65.2022 70.2173 65.3196 69.7569 65.6626 69.2966C65.7799 69.1792 65.7799 68.949 65.7799 68.7189C65.8973 67.6807 65.8973 66.6381 65.7799 65.7128C65.7799 65.5955 65.7799 65.5955 65.6626 65.4826V65.3653C65.6626 65.2479 65.5452 65.1351 65.4324 65.1351C65.4324 65.1351 65.4324 65.0177 65.3151 65.0177C65.1977 64.9004 65.1977 64.9004 65.0849 64.9004C65.0849 64.9004 64.9675 64.783 64.8547 64.783H64.6245H64.5071H55.4936V56.8122C55.954 56.8122 56.3015 56.6949 56.7665 56.8122C57.5744 57.1597 58.3823 57.3899 59.3076 57.3899C62.6565 57.3899 65.315 54.6187 65.315 51.2651C65.315 47.9161 62.6565 45.2576 59.3076 45.2576C58.3823 45.2576 57.457 45.4878 56.7665 45.8353H55.4936V36.709C55.4936 36.1313 55.0332 35.5536 54.3382 35.5536H45.2119V34.2807C45.6723 33.4728 45.7896 32.6649 45.7896 31.7396C45.7896 28.3907 43.1311 25.7322 39.7821 25.7322C36.4331 25.7322 33.6573 28.3907 33.6573 31.7396C33.6573 32.6649 33.8875 33.5902 34.235 34.2807V35.5536L25.235 35.5446C24.6573 35.5446 24.0795 36.0049 24.0795 36.7V46.869C24.0795 46.9863 24.0795 47.0992 24.1969 47.2165C24.1969 47.3339 24.3142 47.4467 24.4271 47.5641C24.5444 47.6814 24.6573 47.6814 24.7746 47.7943C24.892 47.7943 24.892 47.9116 25.0048 47.9116C25.9301 48.029 26.9682 48.1418 28.0109 48.029C28.2411 48.029 28.4712 47.9116 28.7059 47.7988C29.1663 47.5686 29.6312 47.4512 30.209 47.4512C32.2897 47.4512 34.0229 49.1844 34.0229 51.2652C34.0229 53.3459 32.2897 55.0791 30.209 55.0791C29.5139 55.0791 29.0535 54.9618 28.5932 54.6187C28.4758 54.5014 28.363 54.5014 28.1328 54.5014C27.0947 54.384 26.1694 54.384 25.2441 54.5014H25.1268H25.0094H24.8921C24.7747 54.5014 24.6619 54.5014 24.6619 54.6187C24.5446 54.6187 24.5445 54.7361 24.5445 54.7361L24.4272 54.8534C24.3099 54.9708 24.3099 54.9708 24.3099 55.0836V55.201C24.3099 55.3183 24.1925 55.4312 24.1925 55.5485V74.8435H22.9196C22.1117 74.3832 21.3039 74.2658 20.3786 74.2658C17.0296 74.2658 14.3711 76.9243 14.3711 80.2733C14.3711 83.6223 17.0296 86.3981 20.3786 86.3981C21.3038 86.3981 22.2291 86.1679 22.9196 85.8204H24.1925V94.9467C24.1925 95.5244 24.6529 96.1021 25.348 96.1021H35.5169H35.7471C36.0947 95.9848 36.3249 95.872 36.4422 95.6418C36.5596 95.5244 36.5596 95.4116 36.5596 95.2942V95.1769C36.6769 94.2516 36.6769 93.3263 36.5596 92.2882C36.5596 92.1709 36.5596 92.058 36.4422 91.9407V91.8233C36.212 91.363 36.0947 90.7852 36.0947 90.2076C36.0947 88.1268 37.8279 86.3936 39.9086 86.3936C41.9894 86.3936 43.7226 88.1268 43.7226 90.2076C43.7226 90.7853 43.6052 91.363 43.375 91.7106C43.2577 91.8279 43.1448 92.0581 43.1448 92.2883C43.0275 93.4438 43.0275 94.4818 43.2622 95.4071V95.5245C43.2622 95.7547 43.3795 95.9849 43.6097 96.1022H43.7271C43.9573 96.2196 44.1874 96.3324 44.4221 96.3324H63.7172C63.7172 96.7928 63.8345 97.1403 63.7172 97.6052C63.3696 98.4132 63.1394 99.221 63.1394 100.146C63.1394 103.495 65.9107 106.154 69.2643 106.154C72.6133 106.154 75.2718 103.495 75.2718 100.146C75.2718 99.2211 75.0416 98.2958 74.694 97.6052V96.3324H83.8203C84.398 96.3324 84.9758 95.872 84.9758 95.1769V85.008V84.7778V84.6604C84.9758 84.5431 84.8584 84.4302 84.8584 84.3129C84.7411 84.1955 84.7411 84.0827 84.6283 84.0827C84.5109 83.9653 84.3981 83.9653 84.2807 83.9653H84.1634H84.046H83.9287C83.0034 83.848 82.0781 83.848 81.04 83.9653C80.9227 83.9653 80.8098 83.9653 80.6925 84.0827H80.5751C80.1147 84.3129 79.537 84.4302 78.9593 84.4302C76.8786 84.4302 75.1454 82.697 75.1454 80.6163C75.1454 78.5355 76.8786 76.8023 78.9593 76.8023C79.5371 76.8023 80.1148 76.9197 80.5751 77.1499C80.6925 77.2672 80.9227 77.3801 81.1528 77.3801C82.3083 77.4974 83.3464 77.4974 84.2717 77.2627C84.389 77.2627 84.389 77.2627 84.389 77.1454C84.5064 77.1454 84.5064 77.1454 84.6192 77.028C84.7366 77.028 84.7366 76.9107 84.7366 76.9107C84.8539 76.9107 84.8539 76.7933 84.9667 76.6805C84.9667 76.6805 84.9667 76.5631 85.0841 76.5631C85.0841 76.4458 85.2014 76.333 85.2014 76.333V76.2156V75.9854V65.8164C84.6237 65.3561 84.1635 64.8913 83.5858 64.8913ZM27.6639 56.9205C28.4718 57.268 29.2796 57.4982 30.2049 57.4982C33.5539 57.4982 36.2124 54.7269 36.2124 51.3733C36.2124 48.0244 33.5539 45.3659 30.2049 45.3659C29.2797 45.3659 28.3544 45.5961 27.6639 45.9436H26.391V37.9728H35.4045C35.6347 37.9728 35.8649 37.8554 36.0996 37.7426C36.3298 37.6252 36.4471 37.395 36.4471 37.0475V36.9302C36.5645 36.0049 36.5645 35.0796 36.4471 34.0415C36.4471 33.9242 36.3298 33.694 36.3298 33.5811C36.0996 33.1207 35.8694 32.543 35.8694 31.9653C35.8694 29.8846 37.6026 28.1514 39.6833 28.1514C41.7641 28.1514 43.4973 29.8846 43.4973 31.9653C43.4973 32.5431 43.3799 33.1208 43.1497 33.5811C43.0324 33.6985 42.9196 33.9287 42.9196 34.1589C42.8022 35.3143 42.8022 36.3524 43.0369 37.2777C43.0369 37.395 43.0369 37.395 43.1543 37.5079V37.6252C43.1543 37.7426 43.2716 37.7426 43.2716 37.8554L43.5063 38.0901C43.6236 38.0901 43.7365 38.2074 43.7365 38.2074H43.8538H44.084H53.0975V47.221C53.0975 47.3383 53.0975 47.4512 53.2149 47.5685C53.2149 47.5685 53.2149 47.6859 53.3322 47.6859C53.3322 47.8032 53.4496 47.8032 53.4496 47.8032C53.5669 47.9205 53.5669 47.9205 53.6798 48.0334C53.6798 48.0334 53.7971 48.0334 53.7971 48.1507C53.9145 48.2681 54.0273 48.2681 54.1447 48.2681H54.262C55.1873 48.3854 56.1126 48.3854 57.0333 48.2681C57.2635 48.2681 57.4936 48.1507 57.7283 48.0379C58.1887 47.8077 58.6536 47.6904 59.2314 47.6904C61.3121 47.6904 63.0453 49.4235 63.0453 51.5043C63.0453 53.5851 61.3121 55.3182 59.2314 55.3182C58.5363 55.3182 58.0759 55.2009 57.6156 54.8579H57.4982C57.3809 54.7405 57.1507 54.7405 57.0378 54.7405C55.9997 54.6232 54.9571 54.6232 54.0318 54.7405C53.9145 54.7405 53.9145 54.7405 53.8016 54.8579H53.6843C53.5669 54.8579 53.4541 54.9752 53.4541 55.0881C53.4541 55.0881 53.3367 55.0881 53.3367 55.2054C53.2194 55.3227 53.2194 55.3227 53.2194 55.4356C53.2194 55.4356 53.2194 55.5529 53.102 55.5529V55.7831V55.9005V64.914H45.1312V63.6411C45.5916 62.8332 45.7089 62.0253 45.7089 61.1C45.7089 57.7511 43.0504 55.0926 39.7015 55.0926C36.3525 55.0926 33.5766 57.7511 33.5766 61.1C33.5766 62.0253 33.8068 62.9506 34.1543 63.6411V64.914L26.391 64.8914V56.9206C26.7386 56.9206 27.1989 56.8031 27.6639 56.9205ZM39.7962 84.0738C36.4472 84.0738 33.6713 86.7323 33.6713 90.0813C33.6713 91.0065 33.9015 91.9318 34.2491 92.6223V93.8952H26.391V84.7689V84.5387V84.4214C26.391 84.304 26.2737 84.1912 26.2737 84.0738C26.1563 83.9565 26.1563 83.8436 26.0435 83.8436C25.9261 83.7263 25.8133 83.7263 25.6959 83.7263H25.5786H25.4612H25.3439C24.4186 83.6089 23.4933 83.6089 22.4552 83.7263C22.3379 83.7263 22.1077 83.8436 21.9948 83.8436C21.5345 84.0738 20.9567 84.304 20.379 84.304C18.2983 84.304 16.5651 82.5708 16.5651 80.4901C16.5651 78.4093 18.2983 76.6761 20.379 76.6761C20.9568 76.6761 21.5345 76.7935 21.9948 77.0237C22.1122 77.141 22.3424 77.2539 22.5726 77.2539C23.728 77.3712 24.7661 77.3712 25.6914 77.1365C25.8087 77.1365 25.8087 77.1365 25.8087 77.0192C25.9261 77.0192 25.9261 77.0192 26.0389 76.9018C26.1563 76.9018 26.1563 76.7845 26.1563 76.7845C26.2736 76.7845 26.2736 76.6671 26.3865 76.5543C26.3865 76.5543 26.3865 76.4369 26.5038 76.4369C26.5038 76.3196 26.6212 76.2067 26.6212 76.2067V76.0894V75.8592V66.8457H35.6347C36.2124 66.8457 36.6728 66.3853 36.7901 65.9204V65.8031C36.9075 64.8778 36.9075 63.9525 36.7901 62.9144C36.7901 62.7971 36.6728 62.5669 36.6728 62.454C36.4426 61.9937 36.2124 61.4159 36.2124 60.8382C36.2124 58.7575 37.9456 57.0243 40.0264 57.0243C42.1071 57.0243 43.8403 58.7575 43.8403 60.8382C43.8403 61.416 43.7229 61.9937 43.4928 62.454C43.3754 62.5714 43.2626 62.8016 43.2626 63.0318C43.1452 64.1872 43.1452 65.2253 43.3799 66.1506V66.2679C43.3799 66.3853 43.3799 66.3853 43.4973 66.4981L43.6146 66.6155C43.6146 66.7328 43.732 66.7328 43.8448 66.8457C43.8448 66.8457 43.9621 66.8457 43.9621 66.963C44.0795 66.963 44.0795 67.0804 44.1923 67.0804H44.3097H44.427H53.4405V75.0512H52.1677C51.3598 74.5908 50.5519 74.4735 49.6266 74.4735C46.2776 74.4735 43.6191 77.1319 43.6191 80.4809C43.6191 83.8299 46.2776 86.6058 49.6266 86.6058C50.5519 86.6058 51.4772 86.3756 52.1677 86.0281H53.4405V93.9989H45.3523V92.726C45.8127 91.9181 45.9301 91.1102 45.9301 90.0675C45.8037 86.8449 43.1452 84.0738 39.7962 84.0738ZM81.045 75.1777C80.237 74.7173 79.4292 74.5999 78.5039 74.5999C75.1549 74.5999 72.4964 77.2584 72.4964 80.6074C72.4964 83.9564 75.1549 86.7323 78.5039 86.7323C79.4291 86.7323 80.3545 86.5021 81.045 86.1545H82.3178V94.1254H73.3043H73.187C73.0696 94.1254 72.9568 94.1254 72.9568 94.2427C72.9568 94.2427 72.8394 94.2427 72.8394 94.3601C72.7221 94.3601 72.7221 94.4774 72.6092 94.4774L72.4919 94.5947C72.3745 94.7121 72.3745 94.7121 72.3745 94.825V94.9423C72.3745 94.9423 72.3745 95.0596 72.2572 95.0596C72.1398 95.9849 72.027 97.023 72.1398 98.0657C72.1398 98.2959 72.2572 98.5261 72.37 98.7608C72.6002 99.2212 72.7176 99.686 72.7176 100.264C72.7176 102.345 70.9844 104.078 68.9036 104.078C66.8229 104.078 65.0897 102.345 65.0897 100.264C65.0897 99.5687 65.207 99.1083 65.55 98.648C65.6764 98.3998 65.6764 98.1696 65.6764 98.0522C65.7938 97.127 65.7938 96.0889 65.6764 95.281V95.0508V94.9334C65.6764 94.8161 65.6764 94.8161 65.5591 94.7032C65.5591 94.5859 65.4417 94.5859 65.4417 94.473L65.3244 94.3557C65.207 94.3557 65.207 94.2383 65.0942 94.2383L64.9768 94.121H64.7467H64.6293H55.6158V85.1075V84.8773V84.7599C55.6158 84.6426 55.4984 84.6426 55.4984 84.5298C55.4984 84.4124 55.3811 84.4124 55.3811 84.2996L55.0336 83.952H54.9162C54.7989 83.952 54.7989 83.8347 54.686 83.8347C53.6479 83.7173 52.6053 83.6045 51.5672 83.8347C51.4499 83.8347 51.2197 83.952 51.1068 83.952C50.6464 84.1822 50.0687 84.4124 49.491 84.4124C47.4103 84.4124 45.6771 82.6792 45.6771 80.5985C45.6771 78.5177 47.4103 76.7845 49.491 76.7845C50.0688 76.7845 50.6465 76.9019 51.1068 77.1321C51.2242 77.2494 51.4544 77.3622 51.6846 77.3622C52.7227 77.4796 53.6479 77.4796 54.5732 77.3622H54.6906H54.8079H54.9252C55.0426 77.3622 55.1554 77.2449 55.2728 77.2449C55.2728 77.2449 55.3901 77.2449 55.3901 77.1276C55.5075 77.0102 55.5075 77.0102 55.6203 76.8974C55.6203 76.8974 55.6203 76.78 55.7377 76.78C55.7377 76.6627 55.855 76.6627 55.855 76.5498V76.3196V76.2023V67.1888H63.8258C63.8258 67.6492 63.9432 67.9967 63.8258 68.4616C63.4783 69.2695 63.2481 70.0774 63.2481 71.0027C63.2481 74.3517 66.0194 77.0102 69.373 77.0102C72.722 77.0102 75.3805 74.3517 75.3805 71.0027C75.3805 70.0774 75.1503 69.1521 74.8027 68.4616V67.1888H82.7735V75.1596C81.9701 75.1776 81.6227 75.1777 81.045 75.1777Z" fill="#373D3F"/>
</svg>
