<svg width="52" height="52" viewBox="0 0 52 52" fill="none" xmlns="http://www.w3.org/2000/svg">
<rect width="52" height="52" rx="26" fill="#442873"/>
<path d="M35.7668 18.0727C35.4666 17.4214 34.6657 17.1212 34.0144 17.4468C33.8393 17.5466 33.6887 17.6473 33.5635 17.7969C33.4882 17.8468 33.3885 17.8722 33.3132 17.9221L32.4624 16.1442C32.437 16.0943 32.3871 16.0445 32.3118 16.019C32.2619 15.9936 32.1866 15.9936 32.1113 16.019L30.1339 16.9706C30.1085 16.996 30.0841 16.996 30.0586 17.0204C30.0332 17.0459 30.0332 17.0703 30.0088 17.0957C30.0088 17.1212 29.9833 17.1456 29.9833 17.171V17.1965V17.2463C30.0332 17.4468 30.1339 17.6473 30.2337 17.8468C30.2591 17.8967 30.309 17.9465 30.3589 17.972C30.4342 18.0473 30.5095 18.1226 30.5593 18.2477C30.7598 18.6487 30.5848 19.1494 30.1584 19.3489C29.7574 19.5494 29.2567 19.3743 29.0572 18.9734C29.0074 18.8482 28.9819 18.723 28.9819 18.5978V18.5724C28.9819 18.547 28.9819 18.4971 28.9565 18.4727C28.8812 18.2722 28.8059 18.0971 28.6807 17.9221C28.6807 17.9221 28.6807 17.8967 28.6553 17.8967L28.6299 17.8712C28.6045 17.8458 28.6045 17.8458 28.58 17.8214C28.58 17.8214 28.5546 17.7959 28.5301 17.7959C28.5047 17.7959 28.5047 17.7959 28.4803 17.7705H28.4304H28.405C28.3795 17.7705 28.3551 17.7705 28.3297 17.7959L28.3042 17.8214L26.3513 18.7475C26.2261 18.7973 26.1763 18.9479 26.2261 19.0731L27.1777 21.0759L27.2031 21.1013C27.2285 21.1268 27.2285 21.1512 27.253 21.1512C27.2784 21.1766 27.2784 21.1766 27.3028 21.2011C27.3283 21.2011 27.3527 21.2265 27.3781 21.2265H27.4036H27.4534H27.4789H27.5043C27.6793 21.1766 27.8798 21.0759 28.0549 20.9762C28.0803 20.9507 28.1302 20.9263 28.1546 20.9009C28.2299 20.8011 28.3052 20.7258 28.4304 20.6759C28.6309 20.5762 28.8558 20.5762 29.0563 20.6505C29.2567 20.7258 29.4318 20.8754 29.5315 21.0759C29.6313 21.2764 29.6313 21.5013 29.557 21.7018C29.4817 21.9023 29.332 22.0773 29.1316 22.1526C29.0064 22.2025 28.9066 22.2279 28.7815 22.2279H28.6563C28.4314 22.3032 28.2553 22.403 28.1057 22.5037L28.0803 22.5291C28.0803 22.5291 28.0803 22.5545 28.0549 22.5545C28.0295 22.5545 28.0295 22.58 28.0295 22.6044L28.004 22.6298C28.004 22.6553 27.9786 22.6553 27.9786 22.6797V22.7296V22.7795V22.8293V22.8548L28.9301 24.8576C28.9556 24.9074 29.0054 24.9573 29.0807 24.9827C29.1062 24.9827 29.1306 25.0082 29.156 25.0082C29.1815 25.0082 29.2313 25.0082 29.2558 24.9827L31.0337 24.132C31.0835 24.2073 31.1334 24.2826 31.1588 24.3823C31.1588 24.5828 31.1843 24.7578 31.284 24.9329C31.4346 25.2585 31.7094 25.4834 32.0351 25.6086C32.1857 25.6585 32.3353 25.6839 32.4859 25.6839C32.6864 25.6839 32.8614 25.634 33.0365 25.5587C33.3621 25.4081 33.587 25.1333 33.7122 24.8077C33.8374 24.482 33.812 24.1319 33.6623 23.8063C33.5626 23.6312 33.4619 23.4562 33.3122 23.3555C33.2624 23.2802 33.2125 23.1804 33.1871 23.1051L34.965 22.2543C35.0148 22.2289 35.0647 22.179 35.0901 22.1037C35.1156 22.0538 35.1156 21.9785 35.0901 21.9032L34.2393 20.1009C34.3146 20.0511 34.3899 20.0256 34.4897 19.9758C34.6902 19.9758 34.8652 19.9503 35.0657 19.8506C35.3913 19.7 35.6163 19.4496 35.7414 19.0995C35.9419 18.7485 35.9164 18.373 35.7668 18.0727ZM35.3658 18.8991C35.2905 19.0995 35.1409 19.2746 34.9404 19.3499C34.8407 19.3998 34.7654 19.4252 34.6647 19.4252C34.6148 19.3998 34.5395 19.3998 34.4642 19.4252C34.2393 19.5005 34.0388 19.6002 33.8637 19.7254C33.8383 19.7254 33.8383 19.7508 33.8383 19.7508L33.8129 19.7763C33.7875 19.8017 33.7875 19.8017 33.7875 19.8261C33.7875 19.8261 33.7875 19.8516 33.762 19.8516V19.9014V19.9513V19.9767V20.0266L34.6128 21.8045L32.835 22.6553C32.8095 22.6553 32.7851 22.6807 32.7851 22.7052L32.7597 22.7306C32.7597 22.756 32.7342 22.756 32.7342 22.7805C32.7342 22.8059 32.7088 22.8059 32.7088 22.8303V22.8558V22.9311V22.9565V22.9819C32.7587 23.157 32.8594 23.3574 32.9591 23.5325C32.9846 23.5824 33.0344 23.6322 33.0843 23.6577C33.1596 23.733 33.2349 23.8083 33.2848 23.9334C33.3845 24.1339 33.3845 24.3588 33.3102 24.5593C33.2349 24.7598 33.0853 24.9348 32.8848 25.0101C32.6844 25.1099 32.4594 25.1099 32.259 25.0356C32.0585 24.9603 31.8834 24.8106 31.7837 24.6102C31.7338 24.485 31.7084 24.3598 31.7084 24.2346C31.7084 24.1848 31.7084 24.1593 31.683 24.1095C31.6077 23.8846 31.5079 23.6841 31.3827 23.509L31.3573 23.4836C31.3573 23.4836 31.3573 23.4582 31.3319 23.4582C31.3065 23.4328 31.3065 23.4328 31.282 23.4328H31.2566H31.2067H31.1813H31.1314H31.106L29.3281 24.2835L28.5771 22.7061C28.6524 22.6563 28.7277 22.6308 28.8274 22.581C29.0279 22.581 29.2029 22.5555 29.4034 22.4558C29.7291 22.3052 29.954 22.0548 30.0792 21.7047C30.2043 21.3791 30.1789 21.029 30.0293 20.7033C29.8787 20.3777 29.6039 20.1528 29.2782 20.0276C28.9526 19.9024 28.6025 19.9279 28.2768 20.0775C28.1018 20.1772 27.9268 20.278 27.826 20.4276C27.7507 20.4774 27.651 20.5029 27.5757 20.5527L26.85 19.0008L28.402 18.2497C28.4519 18.325 28.5018 18.4003 28.5272 18.5001C28.5272 18.7005 28.5526 18.8756 28.6524 19.0761C28.8773 19.5513 29.3535 19.8271 29.8288 19.8271C30.0293 19.8271 30.2043 19.7773 30.4048 19.702C31.0561 19.4017 31.3309 18.6008 31.0307 17.9495C30.9309 17.7745 30.8302 17.6238 30.6806 17.4987C30.6307 17.4234 30.5808 17.3236 30.5554 17.2483L32.1328 16.4973L32.9836 18.2752L33.009 18.3006C33.0345 18.326 33.0345 18.3505 33.0589 18.3759L33.0843 18.4013C33.1098 18.4267 33.1596 18.4267 33.1841 18.4267H33.2095H33.2594H33.2848H33.3102H33.3357C33.5107 18.3769 33.7112 18.2761 33.8862 18.1764C33.9117 18.151 33.9615 18.1265 33.986 18.1011C34.0613 18.0013 34.1366 17.926 34.2618 17.8762C34.6627 17.6757 35.1634 17.8507 35.3629 18.2771C35.4157 18.4727 35.4411 18.6986 35.3658 18.8991Z" fill="white"/>
<path d="M31.1098 27.0598H28.9065H28.8811H28.8312C28.8312 27.0598 28.8058 27.0598 28.8058 27.0852C28.7804 27.0852 28.7804 27.1107 28.7559 27.1107L28.7305 27.1361C28.7051 27.1615 28.7051 27.1615 28.7051 27.186V27.2114C28.7051 27.2114 28.7051 27.2368 28.6796 27.2368C28.6542 27.4373 28.6298 27.6622 28.6542 27.8881C28.6542 27.938 28.6797 27.9879 28.7041 28.0387C28.754 28.1385 28.7794 28.2392 28.7794 28.3644C28.7794 28.8152 28.4039 29.1907 27.953 29.1907C27.5022 29.1907 27.1267 28.8152 27.1267 28.3644C27.1267 28.2138 27.1521 28.114 27.2264 28.0143C27.2519 27.9889 27.2519 27.939 27.2519 27.8891C27.2773 27.6642 27.2773 27.4383 27.2519 27.2378C27.2519 27.2124 27.2519 27.2124 27.2264 27.1879V27.1625C27.2264 27.1371 27.201 27.1126 27.1766 27.1126C27.1766 27.1126 27.1766 27.0872 27.1511 27.0872C27.1257 27.0618 27.1257 27.0618 27.1013 27.0618C27.1013 27.0618 27.0758 27.0364 27.0514 27.0364H27.0015H26.9761H25.0232V25.3094C25.1229 25.3094 25.1982 25.2839 25.2989 25.3094C25.474 25.3847 25.649 25.4345 25.8495 25.4345C26.5751 25.4345 27.1511 24.8341 27.1511 24.1075C27.1511 23.3819 26.5751 22.8059 25.8495 22.8059C25.649 22.8059 25.4486 22.8557 25.2989 22.931H25.0232V20.9537C25.0232 20.8285 24.9234 20.7033 24.7728 20.7033H22.7955V20.4275C22.8952 20.2525 22.9206 20.0774 22.9206 19.877C22.9206 19.1514 22.3446 18.5753 21.619 18.5753C20.8934 18.5753 20.292 19.1514 20.292 19.877C20.292 20.0774 20.3418 20.2779 20.4171 20.4275V20.7033L18.4671 20.7014C18.342 20.7014 18.2168 20.8011 18.2168 20.9517V23.155C18.2168 23.1804 18.2168 23.2049 18.2422 23.2303C18.2422 23.2557 18.2676 23.2802 18.2921 23.3056C18.3175 23.331 18.342 23.331 18.3674 23.3555C18.3928 23.3555 18.3928 23.3809 18.4173 23.3809C18.6177 23.4063 18.8426 23.4308 19.0686 23.4063C19.1184 23.4063 19.1683 23.3809 19.2192 23.3564C19.3189 23.3066 19.4196 23.2811 19.5448 23.2811C19.9956 23.2811 20.3712 23.6567 20.3712 24.1075C20.3712 24.5583 19.9956 24.9339 19.5448 24.9339C19.3942 24.9339 19.2945 24.9084 19.1947 24.8341C19.1693 24.8087 19.1449 24.8087 19.095 24.8087C18.8701 24.7833 18.6696 24.7833 18.4691 24.8087H18.4437H18.4183H18.3928C18.3674 24.8087 18.343 24.8087 18.343 24.8341C18.3175 24.8341 18.3175 24.8595 18.3175 24.8595L18.2921 24.885C18.2667 24.9104 18.2667 24.9104 18.2667 24.9348V24.9603C18.2667 24.9857 18.2413 25.0101 18.2413 25.0356V29.2161H17.9655C17.7904 29.1164 17.6154 29.091 17.4149 29.091C16.6893 29.091 16.1133 29.667 16.1133 30.3926C16.1133 31.1182 16.6893 31.7196 17.4149 31.7196C17.6154 31.7196 17.8159 31.6698 17.9655 31.5945H18.2413V33.5718C18.2413 33.697 18.341 33.8222 18.4916 33.8222H20.6949H20.7448C20.8201 33.7968 20.8699 33.7723 20.8954 33.7224C20.9208 33.697 20.9208 33.6726 20.9208 33.6471V33.6217C20.9462 33.4212 20.9462 33.2207 20.9208 32.9958C20.9208 32.9704 20.9208 32.946 20.8954 32.9205V32.8951C20.8455 32.7954 20.8201 32.6702 20.8201 32.545C20.8201 32.0942 21.1956 31.7187 21.6464 31.7187C22.0972 31.7187 22.4728 32.0942 22.4728 32.545C22.4728 32.6702 22.4473 32.7954 22.3975 32.8707C22.372 32.8961 22.3476 32.946 22.3476 32.9958C22.3222 33.2462 22.3222 33.4711 22.373 33.6716V33.697C22.373 33.7469 22.3984 33.7968 22.4483 33.8222H22.4737C22.5236 33.8476 22.5735 33.8721 22.6243 33.8721H26.8049C26.8049 33.9718 26.8304 34.0471 26.8049 34.1478C26.7296 34.3229 26.6798 34.4979 26.6798 34.6984C26.6798 35.424 27.2802 36 28.0068 36C28.7324 36 29.3084 35.424 29.3084 34.6984C29.3084 34.4979 29.2586 34.2975 29.1833 34.1478V33.8721H31.1606C31.2858 33.8721 31.411 33.7723 31.411 33.6217V31.4184V31.3686V31.3431C31.411 31.3177 31.3855 31.2933 31.3855 31.2678C31.3601 31.2424 31.3601 31.218 31.3357 31.218C31.3102 31.1925 31.2858 31.1925 31.2604 31.1925H31.2349H31.2095H31.1841C30.9836 31.1671 30.7831 31.1671 30.5582 31.1925C30.5328 31.1925 30.5083 31.1925 30.4829 31.218H30.4575C30.3577 31.2678 30.2326 31.2933 30.1074 31.2933C29.6566 31.2933 29.281 30.9177 29.281 30.4669C29.281 30.0161 29.6566 29.6405 30.1074 29.6405C30.2326 29.6405 30.3577 29.666 30.4575 29.7159C30.4829 29.7413 30.5328 29.7657 30.5827 29.7657C30.833 29.7912 31.0579 29.7912 31.2584 29.7403C31.2838 29.7403 31.2838 29.7403 31.2838 29.7149C31.3093 29.7149 31.3093 29.7149 31.3337 29.6894C31.3591 29.6894 31.3591 29.664 31.3591 29.664C31.3846 29.664 31.3846 29.6386 31.409 29.6141C31.409 29.6141 31.409 29.5887 31.4344 29.5887C31.4344 29.5633 31.4599 29.5388 31.4599 29.5388V29.5134V29.4635V27.2603C31.3347 27.1605 31.235 27.0598 31.1098 27.0598ZM18.9934 25.3328C19.1684 25.4081 19.3435 25.458 19.5439 25.458C20.2696 25.458 20.8456 24.8575 20.8456 24.1309C20.8456 23.4053 20.2696 22.8293 19.5439 22.8293C19.3435 22.8293 19.143 22.8792 18.9934 22.9545H18.7176V21.2275H20.6705C20.7204 21.2275 20.7703 21.2021 20.8211 21.1776C20.871 21.1522 20.8964 21.1023 20.8964 21.027V21.0016C20.9218 20.8011 20.9218 20.6006 20.8964 20.3757C20.8964 20.3503 20.871 20.3004 20.871 20.276C20.8211 20.1762 20.7712 20.051 20.7712 19.9259C20.7712 19.475 21.1468 19.0995 21.5976 19.0995C22.0484 19.0995 22.424 19.475 22.424 19.9259C22.424 20.051 22.3985 20.1762 22.3487 20.276C22.3232 20.3014 22.2988 20.3513 22.2988 20.4011C22.2734 20.6515 22.2734 20.8764 22.3242 21.0769C22.3242 21.1023 22.3242 21.1023 22.3496 21.1267V21.1522C22.3496 21.1776 22.3751 21.1776 22.3751 21.202L22.4259 21.2529C22.4513 21.2529 22.4758 21.2783 22.4758 21.2783H22.5012H22.5511H24.504V23.2313C24.504 23.2567 24.504 23.2811 24.5294 23.3066C24.5294 23.3066 24.5294 23.332 24.5549 23.332C24.5549 23.3574 24.5803 23.3574 24.5803 23.3574C24.6057 23.3828 24.6057 23.3828 24.6302 23.4073C24.6302 23.4073 24.6556 23.4073 24.6556 23.4327C24.681 23.4581 24.7055 23.4581 24.7309 23.4581H24.7563C24.9568 23.4836 25.1573 23.4836 25.3568 23.4581C25.4066 23.4581 25.4565 23.4327 25.5074 23.4083C25.6071 23.3584 25.7078 23.333 25.833 23.333C26.2838 23.333 26.6594 23.7085 26.6594 24.1593C26.6594 24.6101 26.2838 24.9857 25.833 24.9857C25.6824 24.9857 25.5827 24.9602 25.4829 24.8859H25.4575C25.4321 24.8605 25.3822 24.8605 25.3577 24.8605C25.1328 24.8351 24.9069 24.8351 24.7064 24.8605C24.681 24.8605 24.681 24.8605 24.6566 24.8859H24.6311C24.6057 24.8859 24.5813 24.9113 24.5813 24.9358C24.5813 24.9358 24.5558 24.9358 24.5558 24.9612C24.5304 24.9866 24.5304 24.9866 24.5304 25.0111C24.5304 25.0111 24.5304 25.0365 24.505 25.0365V25.0864V25.1118V27.0647H22.778V26.789C22.8777 26.6139 22.9031 26.4389 22.9031 26.2384C22.9031 25.5128 22.3271 24.9368 21.6015 24.9368C20.8759 24.9368 20.2745 25.5128 20.2745 26.2384C20.2745 26.4389 20.3243 26.6393 20.3996 26.789V27.0647L18.7176 27.0599V25.3328C18.7929 25.3328 18.8926 25.3074 18.9934 25.3328ZM21.6221 31.216C20.8964 31.216 20.295 31.792 20.295 32.5176C20.295 32.7181 20.3449 32.9186 20.4202 33.0682V33.344H18.7176V31.3666V31.3168V31.2913C18.7176 31.2659 18.6922 31.2415 18.6922 31.216C18.6667 31.1906 18.6667 31.1662 18.6423 31.1662C18.6169 31.1407 18.5924 31.1407 18.567 31.1407H18.5416H18.5161H18.4907C18.2902 31.1153 18.0898 31.1153 17.8648 31.1407C17.8394 31.1407 17.7895 31.1662 17.7651 31.1662C17.6653 31.216 17.5402 31.2659 17.415 31.2659C16.9642 31.2659 16.5887 30.8904 16.5887 30.4396C16.5887 29.9887 16.9642 29.6132 17.415 29.6132C17.5402 29.6132 17.6654 29.6386 17.7651 29.6885C17.7905 29.7139 17.8404 29.7384 17.8903 29.7384C18.1406 29.7638 18.3655 29.7638 18.566 29.713C18.5914 29.713 18.5914 29.713 18.5914 29.6875C18.6169 29.6875 18.6169 29.6875 18.6413 29.6621C18.6667 29.6621 18.6667 29.6367 18.6667 29.6367C18.6922 29.6367 18.6922 29.6113 18.7166 29.5868C18.7166 29.5868 18.7166 29.5614 18.742 29.5614C18.742 29.536 18.7675 29.5115 18.7675 29.5115V29.4861V29.4362V27.4833H20.7204C20.8456 27.4833 20.9453 27.3835 20.9707 27.2828V27.2574C20.9962 27.0569 20.9962 26.8564 20.9707 26.6315C20.9707 26.6061 20.9453 26.5562 20.9453 26.5318C20.8954 26.432 20.8456 26.3068 20.8456 26.1817C20.8456 25.7308 21.2211 25.3553 21.6719 25.3553C22.1228 25.3553 22.4983 25.7308 22.4983 26.1817C22.4983 26.3068 22.4728 26.432 22.423 26.5318C22.3975 26.5572 22.3731 26.6071 22.3731 26.6569C22.3477 26.9073 22.3477 27.1322 22.3985 27.3327V27.3581C22.3985 27.3835 22.3985 27.3835 22.424 27.408L22.4494 27.4334C22.4494 27.4588 22.4748 27.4588 22.4993 27.4833C22.4993 27.4833 22.5247 27.4833 22.5247 27.5087C22.5501 27.5087 22.5501 27.5341 22.5746 27.5341H22.6H22.6254H24.5783V29.2611H24.3025C24.1275 29.1614 23.9525 29.136 23.752 29.136C23.0264 29.136 22.4504 29.712 22.4504 30.4376C22.4504 31.1632 23.0264 31.7646 23.752 31.7646C23.9525 31.7646 24.1529 31.7148 24.3025 31.6395H24.5783V33.3665H22.8259V33.0907C22.9256 32.9156 22.9511 32.7406 22.9511 32.5147C22.9237 31.8164 22.3477 31.216 21.6221 31.216ZM30.5593 29.2885C30.3842 29.1888 30.2092 29.1634 30.0087 29.1634C29.2831 29.1634 28.7071 29.7394 28.7071 30.465C28.7071 31.1906 29.2831 31.792 30.0087 31.792C30.2092 31.792 30.4097 31.7422 30.5593 31.6669H30.8351V33.3939H28.8821H28.8567C28.8313 33.3939 28.8068 33.3939 28.8068 33.4193C28.8068 33.4193 28.7814 33.4193 28.7814 33.4447C28.756 33.4447 28.756 33.4701 28.7315 33.4701L28.7061 33.4956C28.6807 33.521 28.6807 33.521 28.6807 33.5454V33.5709C28.6807 33.5709 28.6807 33.5963 28.6553 33.5963C28.6298 33.7968 28.6054 34.0217 28.6298 34.2476C28.6298 34.2975 28.6553 34.3474 28.6797 34.3982C28.7296 34.498 28.755 34.5987 28.755 34.7239C28.755 35.1747 28.3795 35.5502 27.9287 35.5502C27.4778 35.5502 27.1023 35.1747 27.1023 34.7239C27.1023 34.5733 27.1277 34.4735 27.2021 34.3738C27.2294 34.32 27.2294 34.2701 27.2294 34.2447C27.2549 34.0442 27.2549 33.8193 27.2294 33.6443V33.5944V33.569C27.2294 33.5435 27.2294 33.5435 27.204 33.5191C27.204 33.4937 27.1786 33.4937 27.1786 33.4692L27.1532 33.4438C27.1277 33.4438 27.1277 33.4184 27.1033 33.4184L27.0779 33.3929H27.028H27.0026H25.0496V31.44V31.3901V31.3647C25.0496 31.3393 25.0242 31.3393 25.0242 31.3148C25.0242 31.2894 24.9988 31.2894 24.9988 31.2649L24.9235 31.1896H24.8981C24.8726 31.1896 24.8726 31.1642 24.8482 31.1642C24.6233 31.1388 24.3974 31.1143 24.1724 31.1642C24.147 31.1642 24.0971 31.1896 24.0727 31.1896C23.9729 31.2395 23.8478 31.2894 23.7226 31.2894C23.2718 31.2894 22.8962 30.9139 22.8962 30.463C22.8962 30.0122 23.2718 29.6367 23.7226 29.6367C23.8478 29.6367 23.973 29.6621 24.0727 29.712C24.0981 29.7374 24.148 29.7619 24.1979 29.7619C24.4228 29.7873 24.6233 29.7873 24.8237 29.7619H24.8492H24.8746H24.9C24.9254 29.7619 24.9499 29.7364 24.9753 29.7364C24.9753 29.7364 25.0007 29.7364 25.0007 29.711C25.0262 29.6856 25.0262 29.6856 25.0506 29.6611C25.0506 29.6611 25.0506 29.6357 25.076 29.6357C25.076 29.6103 25.1015 29.6103 25.1015 29.5858V29.536V29.5105V27.5576H26.8285C26.8285 27.6574 26.8539 27.7327 26.8285 27.8334C26.7532 28.0084 26.7033 28.1835 26.7033 28.384C26.7033 29.1096 27.3037 29.6856 28.0304 29.6856C28.756 29.6856 29.332 29.1096 29.332 28.384C29.332 28.1835 29.2821 27.983 29.2068 27.8334V27.5576H30.9338V29.2846C30.7597 29.2885 30.6845 29.2885 30.5593 29.2885Z" fill="white"/>
</svg>
