<svg width="52" height="52" viewBox="0 0 52 52" fill="none" xmlns="http://www.w3.org/2000/svg">
<rect width="52" height="52" rx="26" fill="#442873"/>
<path d="M33.005 28.6613H32.3379V29.3285H33.005V28.6613Z" fill="white"/>
<path d="M33.005 29.9956H32.3379V30.6628H33.005V29.9956Z" fill="white"/>
<path d="M33.005 31.33H32.3379V31.9971H33.005V31.33Z" fill="white"/>
<path d="M33.005 32.6643H32.3379V33.3314H33.005V32.6643Z" fill="white"/>
<path d="M33.005 33.9986H32.3379V34.6657H33.005V33.9986Z" fill="white"/>
<path d="M31.671 28.6613H31.0039V29.3285H31.671V28.6613Z" fill="white"/>
<path d="M31.671 29.9956H31.0039V30.6628H31.671V29.9956Z" fill="white"/>
<path d="M30.3371 28.6613H29.6699V29.3285H30.3371V28.6613Z" fill="white"/>
<path d="M33.005 27.3272H32.3379V27.9943H33.005V27.3272Z" fill="white"/>
<path d="M19.6632 28.6613H18.9961V29.3285H19.6632V28.6613Z" fill="white"/>
<path d="M19.6632 29.9956H18.9961V30.6628H19.6632V29.9956Z" fill="white"/>
<path d="M19.6632 31.33H18.9961V31.9971H19.6632V31.33Z" fill="white"/>
<path d="M19.6632 32.6643H18.9961V33.3314H19.6632V32.6643Z" fill="white"/>
<path d="M19.6632 33.9986H18.9961V34.6657H19.6632V33.9986Z" fill="white"/>
<path d="M22.3312 32.6643H21.6641V33.3314H22.3312V32.6643Z" fill="white"/>
<path d="M23.6652 31.33H22.998V31.9971H23.6652V31.33Z" fill="white"/>
<path d="M22.3312 33.9986H21.6641V34.6657H22.3312V33.9986Z" fill="white"/>
<path d="M23.6652 32.6643H22.998V33.3314H23.6652V32.6643Z" fill="white"/>
<path d="M23.6652 33.9986H22.998V34.6657H23.6652V33.9986Z" fill="white"/>
<path d="M29.0031 32.6643H28.3359V33.3314H29.0031V32.6643Z" fill="white"/>
<path d="M29.0031 31.33H28.3359V31.9971H29.0031V31.33Z" fill="white"/>
<path d="M29.0031 33.9986H28.3359V34.6657H29.0031V33.9986Z" fill="white"/>
<path d="M30.3371 32.6643H29.6699V33.3314H30.3371V32.6643Z" fill="white"/>
<path d="M30.3371 33.9986H29.6699V34.6657H30.3371V33.9986Z" fill="white"/>
<path d="M20.9972 28.6613H20.3301V29.3285H20.9972V28.6613Z" fill="white"/>
<path d="M20.9972 29.9956H20.3301V30.6628H20.9972V29.9956Z" fill="white"/>
<path d="M22.3312 28.6613H21.6641V29.3285H22.3312V28.6613Z" fill="white"/>
<path d="M19.6632 27.3272H18.9961V27.9943H19.6632V27.3272Z" fill="white"/>
<path d="M35.3401 35.3329H34.3394V25.3257C34.3395 25.2661 34.3237 25.2076 34.2935 25.1562C34.2633 25.1048 34.22 25.0624 34.1679 25.0335C34.1158 25.0045 34.0568 24.9901 33.9973 24.9916C33.9377 24.9931 33.8796 25.0106 33.8291 25.0422L31.4207 26.5466C32.3521 25.2413 32.7822 23.6443 32.6323 22.0478C32.4824 20.4513 31.7626 18.9622 30.6045 17.8532C29.4464 16.7441 27.9276 16.0892 26.3261 16.0085C24.7246 15.9277 23.1477 16.4265 21.8839 17.4134L22.2975 17.9338C22.9159 17.4165 23.6322 17.0291 24.4036 16.7946C25.175 16.5601 25.9857 16.4834 26.7874 16.569C27.5891 16.6546 28.3653 16.9008 29.0698 17.2929C29.7742 17.6849 30.3926 18.2149 30.8878 18.8511C31.383 19.4873 31.7451 20.2167 31.9523 20.9959C32.1596 21.775 32.2078 22.5879 32.0941 23.3861C31.9804 24.1843 31.7071 24.9514 31.2905 25.6417C30.874 26.332 30.3226 26.9313 29.6694 27.4039V26.9936C29.6694 26.9051 29.6343 26.8203 29.5717 26.7577C29.5092 26.6952 29.4243 26.66 29.3359 26.66H26.0001C25.2085 26.66 24.4345 26.4252 23.7763 25.9854C23.118 25.5456 22.605 24.9204 22.302 24.189C21.999 23.4576 21.9198 22.6527 22.0742 21.8762C22.2287 21.0998 22.6099 20.3865 23.1697 19.8267C23.7295 19.2669 24.4428 18.8857 25.2192 18.7312C25.9957 18.5768 26.8005 18.656 27.532 18.959C28.2634 19.262 28.8886 19.775 29.3284 20.4333C29.7682 21.0916 30.003 21.8655 30.003 22.6572C30.0059 23.5072 29.7345 24.3354 29.2291 25.0188L29.7695 25.4125C30.3582 24.6148 30.674 23.6485 30.6701 22.6572C30.6716 21.8398 30.4585 21.0365 30.0522 20.3273C29.6458 19.6181 29.0605 19.028 28.3547 18.616C27.6489 18.2039 26.8472 17.9843 26.0299 17.9791C25.2126 17.9738 24.4083 18.1832 23.6973 18.5863C22.9862 18.9893 22.3934 19.5719 21.9781 20.2758C21.5628 20.9797 21.3394 21.7803 21.3304 22.5976C21.3215 23.4149 21.5271 24.2202 21.9269 24.9331C22.3266 25.6459 22.9065 26.2414 23.6084 26.66H22.6644C22.576 26.66 22.4911 26.6952 22.4286 26.7577C22.366 26.8203 22.3309 26.9051 22.3309 26.9936V27.4039C21.1297 26.4731 20.3261 25.1214 20.0822 23.6215C19.8383 22.1215 20.1722 20.5849 21.0166 19.3214L20.4629 18.9412C19.7052 20.0698 19.3103 21.4029 19.3312 22.7622C19.3521 24.1214 19.7876 25.4418 20.5796 26.5466L18.1712 25.0422C18.1207 25.0106 18.0626 24.9931 18.003 24.9916C17.9434 24.9901 17.8845 25.0045 17.8324 25.0335C17.7803 25.0624 17.7369 25.1048 17.7068 25.1562C17.6766 25.2076 17.6608 25.2661 17.6609 25.3257V35.3329H16.6602V36H35.3401V35.3329ZM33.6723 35.3329H31.6709V31.33C31.6747 31.2573 31.6545 31.1853 31.6136 31.125C31.5726 31.0648 31.5131 31.0196 31.444 30.9964L30.3366 30.6629V29.9957H29.6694V30.4227L29.0023 30.1992V28.8449L33.6723 25.9262V35.3329ZM21.7171 31.33L24.3323 30.4594V35.3329H20.9966V31.5702L21.6637 31.3467V32.0138H22.3309V31.33H21.7171ZM23.6651 28.995H28.3351V29.6621H23.6651V28.995ZM27.0009 33.665H24.9994V32.9979H27.0009V33.665ZM27.0009 32.3307H24.9994V31.6636H27.0009V32.3307ZM27.0009 30.9964H24.9994V30.3293H27.0009V30.9964ZM24.9994 34.3321H27.0009V35.3329H24.9994V34.3321ZM27.668 30.4594L30.2832 31.33H29.6694V31.9971H30.3366V31.33L31.0037 31.5535V35.3329H27.668V30.4594ZM29.0023 27.3272V28.061L28.572 28.3279H23.4283L22.998 28.061V27.3272H29.0023ZM18.328 25.9262L22.998 28.8449V30.1992L22.3309 30.4227V29.9957H21.6637V30.6629L20.5563 31.0298C20.4926 31.0512 20.437 31.0913 20.3965 31.1449C20.356 31.1984 20.3326 31.263 20.3294 31.33V35.3329H18.328V25.9262Z" fill="white"/>
<path d="M25.6663 20.9893H27.6677V20.3221H26.3335V19.655H25.6663V20.3221C25.3124 20.3221 24.9731 20.4627 24.7228 20.7129C24.4726 20.9631 24.332 21.3025 24.332 21.6564C24.332 22.0103 24.4726 22.3496 24.7228 22.5999C24.9731 22.8501 25.3124 22.9907 25.6663 22.9907H26.3335C26.5104 22.9907 26.6801 23.061 26.8052 23.1861C26.9303 23.3112 27.0006 23.4809 27.0006 23.6578C27.0006 23.8348 26.9303 24.0044 26.8052 24.1296C26.6801 24.2547 26.5104 24.325 26.3335 24.325H24.332V24.9921H25.6663V25.6592H26.3335V24.9921C26.6873 24.9921 27.0267 24.8515 27.2769 24.6013C27.5272 24.3511 27.6677 24.0117 27.6677 23.6578C27.6677 23.3039 27.5272 22.9646 27.2769 22.7143C27.0267 22.4641 26.6873 22.3235 26.3335 22.3235H25.6663C25.4894 22.3235 25.3197 22.2532 25.1946 22.1281C25.0695 22.003 24.9992 21.8333 24.9992 21.6564C24.9992 21.4795 25.0695 21.3098 25.1946 21.1847C25.3197 21.0595 25.4894 20.9893 25.6663 20.9893Z" fill="white"/>
</svg>
