<svg width="120" height="120" viewBox="0 0 120 120" fill="none" xmlns="http://www.w3.org/2000/svg">
<path d="M92.3311 72.2833H89.252V75.3624H92.3311V72.2833Z" fill="#373D3F"/>
<path d="M92.3311 78.4413H89.252V81.5204H92.3311V78.4413Z" fill="#373D3F"/>
<path d="M92.3311 84.5999H89.252V87.679H92.3311V84.5999Z" fill="#373D3F"/>
<path d="M92.3311 90.7584H89.252V93.8375H92.3311V90.7584Z" fill="#373D3F"/>
<path d="M92.3311 96.9169H89.252V99.996H92.3311V96.9169Z" fill="#373D3F"/>
<path d="M86.1729 72.2833H83.0938V75.3624H86.1729V72.2833Z" fill="#373D3F"/>
<path d="M86.1729 78.4413H83.0938V81.5204H86.1729V78.4413Z" fill="#373D3F"/>
<path d="M80.0166 72.2833H76.9375V75.3624H80.0166V72.2833Z" fill="#373D3F"/>
<path d="M92.3311 66.1254H89.252V69.2045H92.3311V66.1254Z" fill="#373D3F"/>
<path d="M30.7529 72.2833H27.6738V75.3624H30.7529V72.2833Z" fill="#373D3F"/>
<path d="M30.7529 78.4413H27.6738V81.5204H30.7529V78.4413Z" fill="#373D3F"/>
<path d="M30.7529 84.5999H27.6738V87.679H30.7529V84.5999Z" fill="#373D3F"/>
<path d="M30.7529 90.7584H27.6738V93.8375H30.7529V90.7584Z" fill="#373D3F"/>
<path d="M30.7529 96.9169H27.6738V99.996H30.7529V96.9169Z" fill="#373D3F"/>
<path d="M43.0674 90.7584H39.9883V93.8375H43.0674V90.7584Z" fill="#373D3F"/>
<path d="M49.2236 84.5999H46.1445V87.679H49.2236V84.5999Z" fill="#373D3F"/>
<path d="M43.0674 96.9169H39.9883V99.996H43.0674V96.9169Z" fill="#373D3F"/>
<path d="M49.2236 90.7584H46.1445V93.8375H49.2236V90.7584Z" fill="#373D3F"/>
<path d="M49.2236 96.9169H46.1445V99.996H49.2236V96.9169Z" fill="#373D3F"/>
<path d="M73.8604 90.7584H70.7812V93.8375H73.8604V90.7584Z" fill="#373D3F"/>
<path d="M73.8604 84.5999H70.7812V87.679H73.8604V84.5999Z" fill="#373D3F"/>
<path d="M73.8604 96.9169H70.7812V99.996H73.8604V96.9169Z" fill="#373D3F"/>
<path d="M80.0166 90.7584H76.9375V93.8375H80.0166V90.7584Z" fill="#373D3F"/>
<path d="M80.0166 96.9169H76.9375V99.996H80.0166V96.9169Z" fill="#373D3F"/>
<path d="M36.9092 72.2833H33.8301V75.3624H36.9092V72.2833Z" fill="#373D3F"/>
<path d="M36.9092 78.4413H33.8301V81.5204H36.9092V78.4413Z" fill="#373D3F"/>
<path d="M43.0674 72.2833H39.9883V75.3624H43.0674V72.2833Z" fill="#373D3F"/>
<path d="M30.7529 66.1254H27.6738V69.2045H30.7529V66.1254Z" fill="#373D3F"/>
<path d="M103.108 103.075H98.4892V56.888C98.4898 56.6129 98.4166 56.3427 98.2773 56.1055C98.1381 55.8683 97.9378 55.6727 97.6973 55.5391C97.4569 55.4055 97.185 55.3388 96.91 55.3459C96.635 55.3529 96.367 55.4336 96.1337 55.5794L85.0181 62.5228C89.3169 56.4985 91.3021 49.1275 90.6103 41.7591C89.9185 34.3907 86.596 27.5181 81.2509 22.3992C75.9059 17.2804 68.896 14.258 61.5047 13.8853C54.1133 13.5126 46.8349 15.8145 41.0021 20.3697L42.9111 22.7714C45.7654 20.3839 49.0712 18.5958 52.6315 17.5135C56.1917 16.4313 59.9335 16.0772 63.6336 16.4723C67.3336 16.8674 70.9162 18.0036 74.1677 19.8132C77.4192 21.6228 80.2729 24.0688 82.5586 27.0051C84.8444 29.9414 86.5154 33.308 87.4719 36.904C88.4285 40.5001 88.651 44.252 88.1262 47.9359C87.6014 51.6198 86.3401 55.1603 84.4174 58.3462C82.4948 61.5321 79.9501 64.2982 76.9354 66.4795V64.5858C76.9354 64.1775 76.7732 63.7859 76.4845 63.4972C76.1957 63.2084 75.8041 63.0462 75.3958 63.0462H60.0002C56.3463 63.0462 52.7744 61.9627 49.7362 59.9327C46.6981 57.9027 44.3301 55.0173 42.9318 51.6415C41.5335 48.2657 41.1677 44.551 41.8805 40.9673C42.5934 37.3835 44.3529 34.0917 46.9366 31.5079C49.5204 28.9242 52.8123 27.1647 56.396 26.4518C59.9797 25.739 63.6944 26.1048 67.0702 27.5031C70.446 28.9014 73.3314 31.2694 75.3614 34.3075C77.3914 37.3457 78.4749 40.9176 78.4749 44.5715C78.4883 48.4946 77.2357 52.3173 74.9032 55.4716L77.3972 57.2883C80.1142 53.6066 81.5719 49.1471 81.5541 44.5715C81.5607 40.7993 80.5772 37.0914 78.7019 33.8184C76.8265 30.5453 74.125 27.8218 70.8674 25.9199C67.6097 24.018 63.9099 23.0043 60.1377 22.9803C56.3656 22.9562 52.6532 23.9226 49.3715 25.7828C46.0898 27.6429 43.3538 30.3318 41.4369 33.5807C39.5199 36.8295 38.4892 40.5246 38.4477 44.2966C38.4062 48.0686 39.3554 51.7854 41.2004 55.0757C43.0454 58.3659 45.7216 61.1143 48.9616 63.0462H44.6046C44.1963 63.0462 43.8047 63.2084 43.516 63.4972C43.2273 63.7859 43.0651 64.1775 43.0651 64.5858V66.4795C37.5211 62.1834 33.8122 55.945 32.6865 49.0222C31.5608 42.0994 33.102 35.0072 36.9992 29.1759L34.4436 27.4208C30.9465 32.6299 29.1241 38.7829 29.2204 45.0561C29.3167 51.3294 31.3271 57.4236 34.9824 62.5228L23.8668 55.5794C23.6335 55.4336 23.3654 55.3529 23.0905 55.3459C22.8155 55.3388 22.5436 55.4055 22.3031 55.5391C22.0627 55.6727 21.8624 55.8683 21.7231 56.1055C21.5839 56.3427 21.5107 56.6129 21.5113 56.888V103.075H16.8926V106.154H103.108V103.075ZM95.4101 103.075H86.1727V84.6001C86.1903 84.2643 86.0974 83.9321 85.9084 83.6541C85.7193 83.3761 85.4445 83.1676 85.1258 83.0605L80.0145 81.5209V78.4418H76.9354V80.4125L73.8563 79.381V73.1303L95.4101 59.6592V103.075ZM40.2323 84.6001L52.3024 80.5818V103.075H36.9068V85.7085L39.986 84.677V87.7562H43.0651V84.6001H40.2323ZM49.2233 73.8231H70.7771V76.9023H49.2233V73.8231ZM64.6189 95.377H55.3816V92.2979H64.6189V95.377ZM64.6189 89.2187H55.3816V86.1396H64.6189V89.2187ZM64.6189 83.0605H55.3816V79.9814H64.6189V83.0605ZM55.3816 98.4561H64.6189V103.075H55.3816V98.4561ZM67.698 80.5818L79.7682 84.6001H76.9354V87.6792H80.0145V84.6001L83.0936 85.6316V103.075H67.698V80.5818ZM73.8563 66.1254V69.5124L71.8702 70.744H48.1302L46.1442 69.5124V66.1254H73.8563ZM24.5904 59.6592L46.1442 73.1303V79.381L43.0651 80.4125V78.4418H39.986V81.5209L34.8746 83.2145C34.581 83.3132 34.3239 83.4983 34.1372 83.7456C33.9504 83.9928 33.8425 84.2906 33.8277 84.6001V103.075H24.5904V59.6592Z" fill="#373D3F"/>
<path d="M58.459 36.8738H67.6964V33.7947H61.5381V30.7156H58.459V33.7947C56.8258 33.7947 55.2594 34.4435 54.1045 35.5984C52.9496 36.7533 52.3008 38.3197 52.3008 39.9529C52.3008 41.5862 52.9496 43.1526 54.1045 44.3075C55.2594 45.4624 56.8258 46.1112 58.459 46.1112H61.5381C62.3548 46.1112 63.138 46.4356 63.7154 47.013C64.2928 47.5905 64.6173 48.3736 64.6173 49.1903C64.6173 50.0069 64.2928 50.7901 63.7154 51.3675C63.138 51.945 62.3548 52.2694 61.5381 52.2694H52.3008V55.3485H58.459V58.4276H61.5381V55.3485C63.1714 55.3485 64.7378 54.6997 65.8927 53.5448C67.0476 52.3899 67.6964 50.8235 67.6964 49.1903C67.6964 47.557 67.0476 45.9906 65.8927 44.8358C64.7378 43.6809 63.1714 43.032 61.5381 43.032H58.459C57.6424 43.032 56.8592 42.7076 56.2818 42.1302C55.7043 41.5527 55.3799 40.7696 55.3799 39.9529C55.3799 39.1363 55.7043 38.3531 56.2818 37.7757C56.8592 37.1982 57.6424 36.8738 58.459 36.8738Z" fill="#373D3F"/>
</svg>
