<svg width="120" height="120" viewBox="0 0 120 120" fill="none" xmlns="http://www.w3.org/2000/svg">
<path d="M48.6001 81.7019L52.5173 79.4173C52.7908 79.2573 52.9887 78.9954 53.0702 78.6898C53.1517 78.3843 53.1081 78.0584 52.948 77.7847L51.5191 75.3431C52.3048 74.6359 53.018 73.856 53.6494 73.0091L56.3093 74.1818C56.5945 74.307 56.9292 74.3128 57.2202 74.2022C57.517 74.0858 57.7528 73.8587 57.8807 73.5707L59.7055 69.4207C59.8335 69.1297 59.8394 68.8039 59.7258 68.5069C59.6094 68.2129 59.3824 67.9773 59.0944 67.8491L56.5072 66.7142C56.7285 65.6812 56.8449 64.6305 56.8594 63.5712L59.6941 62.9543C60.0027 62.8873 60.2733 62.7012 60.445 62.4333C60.6138 62.1684 60.672 61.8455 60.605 61.5369L59.6417 57.1075C59.505 56.4643 58.8791 56.0366 58.2244 56.1966L55.4684 56.7932C55.2238 56.2373 54.9591 55.7165 54.6709 55.2188H54.6679C54.4294 54.8114 54.1732 54.4243 53.9026 54.0488L55.8379 51.8836C56.0474 51.6478 56.1552 51.3365 56.1377 51.0221C56.1202 50.7048 55.9777 50.411 55.7419 50.1986L52.3573 47.1807C51.8653 46.7442 51.1117 46.7906 50.6722 47.2768L48.7893 49.3867C47.8666 48.8512 46.9033 48.4147 45.9139 48.077L46.2049 45.1929C46.234 44.8786 46.1409 44.5643 45.94 44.3199C45.7393 44.0753 45.4511 43.9183 45.1368 43.8862L40.6288 43.4351C39.9304 43.3945 39.3921 43.8513 39.3221 44.5033L39.0427 47.3059C38.0008 47.4165 36.9648 47.6347 35.9461 47.9549L34.4823 45.4433C34.3222 45.1696 34.0603 44.9719 33.7548 44.8903C33.452 44.8088 33.1233 44.8525 32.8526 45.0125L28.9383 47.2971C28.3678 47.629 28.1757 48.3593 28.5075 48.9269L29.9336 51.3745C29.1479 52.0787 28.4348 52.8589 27.8033 53.7058L25.1434 52.5358C24.8495 52.4106 24.5236 52.4048 24.2296 52.5154C23.9356 52.6318 23.7 52.8589 23.5718 53.1469L21.7501 57.2969C21.4852 57.8992 21.7588 58.6036 22.3612 58.8685L24.9455 60.0034C24.7273 61.0394 24.6079 62.09 24.5933 63.1436L21.7586 63.7605C21.1154 63.9002 20.708 64.5347 20.8478 65.1779L21.8111 69.6103C21.878 69.9188 22.0642 70.1895 22.3321 70.3611C22.594 70.5299 22.9171 70.5969 23.2284 70.5212L25.9874 69.9216C26.2317 70.4775 26.4966 70.9983 26.7848 71.4903C27.0206 71.9007 27.2795 72.2905 27.5502 72.666L25.6178 74.8312C25.1813 75.3231 25.225 76.0768 25.7139 76.5162L29.0957 79.5341C29.3343 79.7436 29.6865 79.8281 29.9572 79.8339C30.2745 79.8163 30.5683 79.6738 30.7807 79.438L32.6637 77.3281C33.5863 77.8606 34.5496 78.3001 35.539 78.6378L35.248 81.5219C35.1841 82.1767 35.6612 82.7617 36.3162 82.8286L40.8271 83.2827C40.8678 83.2857 40.9057 83.2885 40.9465 83.2885C41.2202 83.2885 41.4879 83.1924 41.7003 83.0178C41.9449 82.8171 42.102 82.5289 42.1341 82.2145L42.4135 79.4089C43.4553 79.2983 44.4886 79.0801 45.5071 78.7629L46.9709 81.2716C47.2994 81.8416 48.0299 82.0336 48.6001 81.7019ZM47.0724 76.7166C46.7813 76.2131 46.1615 76.0006 45.6171 76.2015C44.2028 76.7399 42.7418 77.0426 41.2808 77.1036C40.687 77.127 40.2011 77.5838 40.1399 78.1746L39.878 80.788L37.7389 80.5728L38.0096 77.9041C38.0678 77.3221 37.6953 76.7865 37.1336 76.6352C35.722 76.2512 34.3631 75.6341 33.1 74.7929C32.6053 74.4671 31.9475 74.5484 31.5489 74.9909L29.7939 76.9611L28.1904 75.5292L29.9861 73.5183C30.3731 73.0818 30.3907 72.4328 30.0267 71.9788C29.6018 71.452 29.1974 70.8991 28.8452 70.2908C28.4639 69.6418 28.135 68.9346 27.8352 68.1284C27.6257 67.5667 27.032 67.2378 26.4645 67.3775L23.886 67.9392L23.4291 65.835L26.0541 65.2646C26.6246 65.1424 27.0204 64.6244 26.9913 64.0424C26.9186 62.558 27.0874 61.0767 27.489 59.6363C27.6491 59.0658 27.3668 58.4635 26.8225 58.2247L24.4128 57.1653L25.2742 55.1981L27.7392 56.2807C28.2863 56.5165 28.9004 56.3302 29.2175 55.8412C30.0295 54.5957 31.0365 53.4985 32.2063 52.5758C32.6749 52.2091 32.8 51.5513 32.5003 51.0393L31.1674 48.7547L33.0243 47.672L34.3804 50.0002C34.6744 50.5067 35.2943 50.722 35.8356 50.5153C37.25 49.9739 38.711 49.6714 40.1748 49.6102C40.7685 49.5869 41.2545 49.13 41.3157 48.5393L41.5776 45.9258L43.7137 46.1411L43.443 48.8097C43.3848 49.3917 43.7573 49.9273 44.319 50.0786C45.7305 50.4599 47.0867 51.0798 48.3526 51.9209C48.8531 52.2497 49.505 52.1654 49.9037 51.723L51.6586 49.7527L53.2651 51.1846L51.4665 53.1955C51.0794 53.632 51.0619 54.284 51.4286 54.738C51.8564 55.2648 52.258 55.8207 52.6102 56.4231C52.9915 57.072 53.3204 57.7792 53.6201 58.5854C53.8268 59.1441 54.4146 59.4672 54.9908 59.3363L57.5664 58.7776L58.0233 60.8788L55.3982 61.4492C54.8278 61.5714 54.432 62.0895 54.4611 62.6715C54.5338 64.1643 54.365 65.6457 53.9634 67.0776C53.8003 67.6508 54.0855 68.2533 54.6299 68.4919L57.0424 69.5513L56.178 71.5186L53.713 70.4331C53.1862 70.2003 52.5548 70.3807 52.2347 70.8726C51.4227 72.1181 50.4157 73.2183 49.2459 74.1408C48.7803 74.5103 48.6551 75.1653 48.9549 75.6803L50.2877 77.9591L48.4281 79.0418L47.0724 76.7166Z" fill="#373D3F"/>
<path d="M47.2188 59.5664C45.1291 55.9984 40.5251 54.779 36.9426 56.8656C33.363 58.9553 32.1494 63.5651 34.236 67.1476C35.2488 68.8793 36.8756 70.116 38.8167 70.6253C39.4542 70.7941 40.1001 70.8756 40.7404 70.8756C42.0559 70.8756 43.3508 70.5264 44.5178 69.8484C48.0946 67.7587 49.3052 63.1461 47.2186 59.5694L47.2188 59.5664ZM43.3131 67.788C40.8685 69.2199 37.7167 68.3818 36.2966 65.9457C34.8705 63.5011 35.7 60.3523 38.1417 58.9262C38.9537 58.4518 39.8412 58.2277 40.7202 58.2277C42.4868 58.2277 44.2067 59.1386 45.1584 60.7684C46.5843 63.2131 45.7578 66.3619 43.3131 67.788Z" fill="#373D3F"/>
<path d="M39.4064 85.4535C39.0951 84.8685 38.3734 84.6648 37.7912 84.9676L35.492 86.2045C34.9886 85.8175 34.4472 85.4828 33.874 85.2064L33.9497 82.5987C33.9613 82.2844 33.8449 81.9758 33.6266 81.746C33.4114 81.516 33.1116 81.3822 32.7943 81.3735L27.5995 81.2192C26.9999 81.1144 26.3918 81.7169 26.3743 82.3747L26.2957 84.9823C25.705 85.2239 25.1463 85.5237 24.6195 85.8844L22.3989 84.5137C22.1312 84.3421 21.8023 84.2925 21.4996 84.3652C21.191 84.438 20.9263 84.6301 20.7575 84.9008L18.0276 89.3244C17.6842 89.8831 17.856 90.6194 18.4177 90.9658L20.6062 92.3162C20.5626 92.6335 20.5365 92.9564 20.5277 93.2795C20.5161 93.6084 20.5247 93.9343 20.551 94.2544L18.284 95.4738C18.0045 95.6251 17.798 95.8784 17.7077 96.181C17.6147 96.4837 17.6495 96.8124 17.798 97.0891L20.263 101.664C20.5773 102.249 21.3048 102.458 21.8783 102.15L24.1744 100.913C24.6779 101.3 25.2192 101.635 25.7954 101.911L25.7197 104.519C25.7081 104.833 25.8245 105.142 26.0428 105.371C26.2581 105.601 26.5578 105.735 26.8752 105.744L32.07 105.898C32.0815 105.901 32.0933 105.901 32.1048 105.901C32.4076 105.901 32.7014 105.785 32.9226 105.575C33.1525 105.357 33.2864 105.057 33.2952 104.743L33.3709 102.135C33.9617 101.894 34.5204 101.591 35.0502 101.233L37.2678 102.604C37.5354 102.773 37.8556 102.825 38.1671 102.752C38.4756 102.68 38.7403 102.488 38.9064 102.217L41.639 97.7933C41.8078 97.5256 41.8602 97.1995 41.7875 96.8939C41.7147 96.5854 41.5198 96.3177 41.2519 96.1519L39.0604 94.8015C39.1041 94.4842 39.1332 94.1641 39.1419 93.8382C39.1419 93.8352 39.1419 93.8352 39.1419 93.8324C39.1507 93.5065 39.1449 93.1834 39.1186 92.8633L41.3857 91.6439C41.6651 91.4926 41.8716 91.2393 41.9619 90.9367C42.055 90.634 42.0201 90.3053 41.8716 90.0286L39.4064 85.4535ZM37.2733 91.1488C36.8223 91.3932 36.5777 91.8939 36.6622 92.3973C36.738 92.8396 36.7729 93.2994 36.7611 93.768C36.7436 94.2308 36.6826 94.6819 36.5807 95.1184C36.4643 95.6189 36.6796 96.1341 37.1163 96.4048L38.9847 97.5573L37.5063 99.9495L35.6118 98.7795C35.1753 98.5088 34.6224 98.5467 34.2266 98.8726C33.5224 99.4546 32.7249 99.8825 31.8547 100.147C31.3658 100.298 31.0281 100.741 31.0136 101.253L30.9466 103.479L28.1382 103.398L28.2022 101.168C28.2197 100.659 27.9054 100.194 27.4281 100.016C26.5696 99.6959 25.7982 99.2216 25.1347 98.6045C24.7652 98.2581 24.2093 98.1853 23.7582 98.4269L21.7967 99.4833L20.4639 97.0065L22.3963 95.9675C22.8473 95.7229 23.0919 95.2225 23.0074 94.719C22.9317 94.2767 22.894 93.8197 22.9085 93.3483C22.9231 92.8827 22.9871 92.4286 23.0861 91.9921C23.1995 91.4944 22.9843 90.9794 22.5506 90.7117L20.6851 89.5622L22.1607 87.167L24.0582 88.337C24.4919 88.6047 25.0506 88.5668 25.4435 88.241C26.1449 87.6617 26.9393 87.234 27.8123 86.9691C28.3013 86.8206 28.6389 86.3753 28.6535 85.8633L28.7204 83.6369L31.5314 83.719L31.4674 85.9482C31.4499 86.4575 31.7642 86.9231 32.2416 87.1007C33.0972 87.418 33.8684 87.8924 34.5319 88.5122C34.9045 88.8614 35.4631 88.9342 35.9084 88.6898L37.8729 87.6334L39.2057 90.1102L37.2733 91.1488Z" fill="#373D3F"/>
<path d="M29.9681 89.0269C28.7516 88.9396 27.6077 89.4285 26.7232 90.2579C25.8442 91.0902 25.3379 92.2136 25.303 93.4242C25.2652 94.6349 25.7047 95.7874 26.534 96.6691C27.3634 97.5481 28.4897 98.0544 29.7004 98.0893C29.747 98.0923 29.7935 98.0923 29.8401 98.0923C30.9983 98.0923 32.0956 97.6558 32.9453 96.8583C33.8243 96.0259 34.3305 94.9026 34.3654 93.6919C34.4382 91.1921 32.4651 89.0997 29.9681 89.0269ZM29.7701 95.7088C29.1969 95.6913 28.6643 95.4497 28.2685 95.0337C27.8756 94.6146 27.6689 94.0674 27.6835 93.4942C27.701 92.921 27.9424 92.3884 28.3586 91.9925C28.7602 91.6142 29.2812 91.4075 29.8311 91.4075C29.8545 91.4075 29.8748 91.4075 29.8981 91.4075C31.0826 91.4454 32.0168 92.4378 31.9848 93.6222C31.9471 94.8097 30.9284 95.7409 29.7701 95.7088Z" fill="#373D3F"/>
<path d="M102.345 65.9342C102.345 57.8204 95.7413 51.217 87.6245 51.217C83.7398 51.217 80.0911 52.7537 77.3708 55.4052C77.328 54.5278 77.2969 53.7483 77.2743 53.0796H77.907C79.7812 53.0796 81.3061 51.5546 81.3061 49.6832V49.107C81.3061 47.2328 79.7812 45.7079 77.907 45.7079H77.7148V41.7935H77.907C79.7812 41.7935 81.3061 40.2685 81.3061 38.3943V37.8181C81.3061 35.9467 79.7812 34.4217 77.907 34.4217H76.5883L77.5665 28.508C77.6247 28.1615 77.5259 27.8095 77.2989 27.5417C77.0748 27.274 76.7402 27.1197 76.3908 27.1197H73.1226V24.812H76.1986C76.8564 24.812 77.3917 24.2764 77.3917 23.6189V19.3087C77.3917 18.6509 76.8562 18.1155 76.1986 18.1155H73.1226V15.0393C73.1226 14.3815 72.587 13.8462 71.9294 13.8462H67.6222C66.9644 13.8462 66.4291 14.3817 66.4291 15.0393V18.1155H63.353C62.6953 18.1155 62.1599 18.6511 62.1599 19.3087V23.6187C62.1599 24.2764 62.6955 24.8118 63.353 24.8118H66.4291V27.1197H63.1609C62.8117 27.1197 62.4798 27.274 62.2528 27.5417C62.0258 27.8093 61.9269 28.1615 61.9851 28.508L62.961 34.4217H61.6417C59.7675 34.4217 58.2425 35.9467 58.2425 37.8181V38.3943C58.2425 40.2685 59.7675 41.7935 61.6417 41.7935H61.8338V45.7079H61.6417C59.7675 45.7079 58.2425 47.2328 58.2425 49.107V49.6832C58.2425 51.5546 59.7675 53.0796 61.6417 53.0796H62.2743C62.0297 59.3731 60.899 73.6284 57.8586 82.0542H55.0411C54.3833 82.0542 53.848 82.5898 53.848 83.2473V89.5394C53.848 89.5407 53.849 89.5423 53.849 89.5437C53.849 89.5453 53.848 89.5465 53.848 89.5481C53.848 89.5657 53.8364 91.4514 52.5703 92.6912C51.7517 93.4924 50.5028 93.8319 48.9804 93.8552H48.9121C48.8995 93.8552 48.8891 93.8621 48.8766 93.8623C48.5431 93.7788 48.2922 93.9859 48.0797 94.1956C48.0787 94.1966 48.0781 94.1984 48.0769 94.1994C47.8567 94.4161 47.7188 94.7158 47.7188 95.0483V104.961C47.7188 105.618 48.2543 106.154 48.9119 106.154H90.6364C91.2941 106.154 91.8295 105.618 91.8295 104.961V95.0483C91.8295 94.7158 91.6916 94.4161 91.4713 94.1994C91.4703 94.1984 91.4697 94.1966 91.4685 94.1956C91.2583 93.9881 90.9375 93.789 90.6758 93.8631C90.6619 93.8625 90.6501 93.8552 90.6362 93.8552H90.5668C89.0309 93.8344 87.7993 93.4922 86.9809 92.6912C85.7208 91.4572 85.7033 89.583 85.7033 89.5481C85.7033 89.5465 85.7023 89.5453 85.7023 89.5437C85.7023 89.5423 85.7033 89.5407 85.7033 89.5394V83.2473C85.7033 82.5896 85.1677 82.0542 84.5102 82.0542H81.6914C81.3249 81.0506 80.9816 80.0062 80.6727 78.9115C82.7972 80.0562 85.1609 80.6544 87.6245 80.6544C95.7411 80.6544 102.345 74.0508 102.345 65.9342ZM64.5459 22.4256V20.502H67.622C68.2797 20.502 68.8151 19.9664 68.8151 19.3089V16.2326H70.7359V19.3087C70.7359 19.9664 71.2715 20.5018 71.929 20.5018H75.0051V22.4254H71.929C71.2713 22.4254 70.7359 22.9609 70.7359 23.6185V27.1195H68.8151V23.6189C68.8151 22.9611 68.2795 22.4258 67.622 22.4258L64.5459 22.4256ZM74.9852 29.5063L74.1732 34.4217H65.3783L64.5663 29.5063H74.9852ZM61.6415 39.407C61.0828 39.407 60.6287 38.953 60.6287 38.3943V37.8181C60.6287 37.2594 61.0828 36.8081 61.6415 36.8081H64.3655H75.1831H77.9072C78.4659 36.8081 78.9199 37.2592 78.9199 37.8181V38.3943C78.9199 38.953 78.4659 39.407 77.9072 39.407H76.5219H63.0269H61.6415ZM75.3286 41.7935V45.7079H64.22V41.7935H75.3286ZM61.6415 50.693C61.0828 50.693 60.6287 50.2419 60.6287 49.683V49.1068C60.6287 48.5481 61.0828 48.0941 61.6415 48.0941H63.0267H76.5217H77.907C78.4657 48.0941 78.9197 48.5481 78.9197 49.1068V49.683C78.9197 50.2417 78.4657 50.693 77.907 50.693H61.6415ZM64.6577 53.0794H74.8905C75.0727 58.6687 75.8612 72.3755 79.1617 82.054H60.387C63.3289 73.2236 64.4235 59.2604 64.6577 53.0794ZM89.4433 96.2416V103.768H50.1052V96.2416H89.4433ZM84.851 93.8552H54.7006C55.5567 92.788 55.9414 91.6007 56.1032 90.7325H83.4484C83.6102 91.6007 83.9949 92.788 84.851 93.8552ZM83.3172 84.4406V88.3462H56.2344V84.4406H83.3172ZM80.113 75.7155C80.0307 75.6529 79.9364 75.6236 79.8453 75.5851C78.5723 69.8731 77.9114 63.6434 77.5739 58.8148C79.891 55.5515 83.6106 53.6034 87.6245 53.6034C94.4258 53.6034 99.9583 59.1329 99.9583 65.9342C99.9583 72.7355 94.4258 78.268 87.6245 78.268C84.8801 78.268 82.2842 77.386 80.113 75.7155Z" fill="#373D3F"/>
<path d="M88.6221 74.8011V72.7614C89.9677 72.6133 91.0163 72.1748 91.7699 71.442C92.5235 70.7109 92.9006 69.7328 92.9006 68.5054C92.9006 66.2745 91.6515 64.9803 89.1547 64.6265L87.4254 64.3827C86.716 64.2781 86.2026 64.0903 85.8849 63.8179C85.5671 63.5436 85.4083 63.1699 85.4083 62.6971C85.4083 62.1665 85.6006 61.7549 85.9839 61.4679C86.3684 61.1793 86.9225 61.0348 87.6472 61.0348C88.4152 61.0348 88.999 61.1829 89.398 61.4789C89.7969 61.7749 90.0261 62.2315 90.0849 62.8526H92.6786C92.5901 61.6557 92.1984 60.7101 91.5036 60.0151C90.8096 59.3203 89.8485 58.9069 88.6219 58.7751V57.0678H86.649V58.7969C85.4081 58.9593 84.4434 59.3978 83.7565 60.1163C83.0689 60.8329 82.7259 61.7589 82.7259 62.8978C82.7259 65.1142 84.0633 66.3994 86.7381 66.755L88.4006 66.9768C89.0361 67.0508 89.4935 67.2276 89.7749 67.5076C90.0556 67.7893 90.1955 68.1881 90.1955 68.7061C90.1955 69.2818 89.9852 69.7169 89.5639 70.0128C89.1433 70.3088 88.526 70.4569 87.713 70.4569C86.8113 70.4569 86.1428 70.3019 85.7067 69.9913C85.2708 69.6808 85.0091 69.1628 84.9198 68.439H82.3711C82.4299 69.7097 82.8287 70.7186 83.5678 71.4659C84.3071 72.2113 85.3339 72.6518 86.6488 72.7836V74.8014H88.6221V74.8011Z" fill="#373D3F"/>
</svg>
