<svg width="52" height="52" viewBox="0 0 52 52" fill="none" xmlns="http://www.w3.org/2000/svg">
<rect width="52" height="52" rx="26" fill="#442873"/>
<path d="M23.5287 30.702L24.3774 30.2071C24.4367 30.1724 24.4796 30.1156 24.4972 30.0494C24.5149 29.9832 24.5054 29.9126 24.4708 29.8533L24.1612 29.3243C24.3314 29.1711 24.4859 29.0021 24.6227 28.8186L25.1991 29.0727C25.2608 29.0998 25.3334 29.1011 25.3964 29.0771C25.4607 29.0519 25.5118 29.0027 25.5395 28.9403L25.9349 28.0411C25.9626 27.9781 25.9639 27.9075 25.9393 27.8431C25.9141 27.7794 25.8649 27.7284 25.8025 27.7006L25.2419 27.4547C25.2899 27.2309 25.3151 27.0033 25.3182 26.7737L25.9324 26.6401C25.9993 26.6256 26.0579 26.5852 26.0951 26.5272C26.1317 26.4698 26.1443 26.3998 26.1298 26.333L25.9211 25.3733C25.8914 25.2339 25.7558 25.1412 25.614 25.1759L25.0169 25.3052C24.9639 25.1847 24.9065 25.0719 24.8441 24.964H24.8434C24.7917 24.8758 24.7362 24.7919 24.6776 24.7105L25.0969 24.2414C25.1423 24.1903 25.1657 24.1229 25.1619 24.0548C25.1581 23.986 25.1272 23.9224 25.0761 23.8763L24.3428 23.2225C24.2362 23.1279 24.0729 23.1379 23.9777 23.2433L23.5697 23.7004C23.3698 23.5844 23.1611 23.4898 22.9467 23.4167L23.0098 22.7918C23.0161 22.7237 22.9959 22.6556 22.9524 22.6026C22.9089 22.5496 22.8464 22.5156 22.7783 22.5086L21.8016 22.4109C21.6503 22.4021 21.5336 22.5011 21.5185 22.6423L21.4579 23.2496C21.2322 23.2735 21.0077 23.3208 20.787 23.3902L20.4699 22.846C20.4352 22.7867 20.3784 22.7439 20.3122 22.7262C20.2466 22.7085 20.1754 22.718 20.1168 22.7527L19.2687 23.2477C19.1451 23.3196 19.1034 23.4778 19.1753 23.6008L19.4843 24.1311C19.3141 24.2837 19.1596 24.4527 19.0228 24.6362L18.4464 24.3827C18.3827 24.3556 18.3121 24.3543 18.2484 24.3783C18.1847 24.4035 18.1337 24.4527 18.1059 24.5151L17.7112 25.4143C17.6538 25.5448 17.7131 25.6974 17.8436 25.7548L18.4036 26.0007C18.3563 26.2252 18.3304 26.4528 18.3273 26.6811L17.7131 26.8148C17.5737 26.845 17.4854 26.9825 17.5157 27.1218L17.7244 28.0822C17.7389 28.1491 17.7793 28.2077 17.8373 28.2449C17.8941 28.2815 17.9641 28.296 18.0315 28.2796L18.6293 28.1497C18.6822 28.2701 18.7396 28.3829 18.8021 28.4895C18.8532 28.5784 18.9093 28.6629 18.9679 28.7443L18.5492 29.2134C18.4547 29.32 18.4641 29.4833 18.57 29.5785L19.3028 30.2324C19.3545 30.2777 19.4308 30.2961 19.4894 30.2973C19.5582 30.2935 19.6218 30.2626 19.6679 30.2115L20.0758 29.7544C20.2757 29.8698 20.4845 29.965 20.6988 30.0382L20.6358 30.663C20.6219 30.8049 20.7253 30.9317 20.8672 30.9462L21.8446 31.0445C21.8534 31.0452 21.8616 31.0458 21.8704 31.0458C21.9297 31.0458 21.9877 31.025 22.0338 30.9872C22.0868 30.9437 22.1208 30.8812 22.1277 30.8131L22.1883 30.2052C22.414 30.1813 22.6379 30.134 22.8586 30.0653L23.1757 30.6088C23.2469 30.7323 23.4052 30.7739 23.5287 30.702ZM23.1977 29.6219C23.1347 29.5128 23.0004 29.4668 22.8824 29.5103C22.576 29.6269 22.2594 29.6925 21.9429 29.7058C21.8142 29.7108 21.7089 29.8098 21.6957 29.9378L21.6389 30.504L21.1755 30.4574L21.2341 29.8792C21.2467 29.7531 21.166 29.637 21.0443 29.6043C20.7385 29.5211 20.444 29.3873 20.1704 29.2051C20.0632 29.1345 19.9207 29.1521 19.8343 29.248L19.454 29.6749L19.1066 29.3646L19.4957 28.9289C19.5795 28.8344 19.5833 28.6937 19.5045 28.5954C19.4124 28.4812 19.3248 28.3614 19.2485 28.2296C19.1659 28.089 19.0946 27.9358 19.0297 27.7611C18.9843 27.6394 18.8556 27.5682 18.7327 27.5984L18.174 27.7201L18.075 27.2642L18.6438 27.1406C18.7674 27.1142 18.8531 27.0019 18.8468 26.8758C18.8311 26.5542 18.8676 26.2333 18.9547 25.9212C18.9893 25.7976 18.9282 25.6671 18.8102 25.6153L18.2881 25.3858L18.4748 24.9595L19.0088 25.1941C19.1274 25.2452 19.2604 25.2048 19.3292 25.0989C19.5051 24.829 19.7233 24.5913 19.9767 24.3914C20.0783 24.3119 20.1054 24.1694 20.0404 24.0585L19.7516 23.5635L20.154 23.3289L20.4478 23.8334C20.5115 23.9431 20.6458 23.9897 20.7631 23.9449C21.0695 23.8277 21.3861 23.7621 21.7032 23.7488C21.8319 23.7438 21.9372 23.6448 21.9504 23.5168L22.0072 22.9506L22.47 22.9972L22.4113 23.5754C22.3987 23.7015 22.4794 23.8176 22.6011 23.8503C22.907 23.9329 23.2008 24.0672 23.4751 24.2495C23.5835 24.3207 23.7248 24.3025 23.8112 24.2066L24.1914 23.7797L24.5395 24.09L24.1498 24.5257C24.0659 24.6202 24.0621 24.7615 24.1416 24.8599C24.2342 24.974 24.3213 25.0945 24.3976 25.225C24.4802 25.3656 24.5514 25.5188 24.6164 25.6935C24.6612 25.8145 24.7885 25.8845 24.9134 25.8562L25.4714 25.7351L25.5704 26.1904L25.0017 26.314C24.8781 26.3404 24.7923 26.4527 24.7986 26.5788C24.8144 26.9022 24.7778 27.2232 24.6908 27.5334C24.6554 27.6576 24.7172 27.7882 24.8352 27.8399L25.3579 28.0694L25.1706 28.4957L24.6365 28.2605C24.5224 28.21 24.3856 28.2491 24.3162 28.3557C24.1403 28.6256 23.9221 28.8639 23.6686 29.0638C23.5678 29.1439 23.5406 29.2858 23.6056 29.3974L23.8944 29.8911L23.4915 30.1257L23.1977 29.6219Z" fill="white"/>
<path d="M23.2295 25.9061C22.7767 25.133 21.7792 24.8688 21.003 25.3209C20.2274 25.7737 19.9645 26.7725 20.4166 27.5487C20.636 27.9239 20.9885 28.1918 21.4091 28.3022C21.5472 28.3388 21.6871 28.3564 21.8258 28.3564C22.1109 28.3564 22.3914 28.2808 22.6443 28.1338C23.4193 27.6811 23.6816 26.6817 23.2295 25.9067L23.2295 25.9061ZM22.3833 27.6874C21.8536 27.9977 21.1707 27.8161 20.863 27.2883C20.554 26.7586 20.7338 26.0764 21.2628 25.7674C21.4387 25.6646 21.631 25.616 21.8215 25.616C22.2042 25.616 22.5769 25.8134 22.7831 26.1665C23.092 26.6962 22.9129 27.3784 22.3833 27.6874Z" fill="white"/>
<path d="M21.5368 31.5149C21.4693 31.3882 21.3129 31.344 21.1868 31.4096L20.6886 31.6776C20.5796 31.5938 20.4623 31.5213 20.3381 31.4614L20.3545 30.8964C20.357 30.8283 20.3318 30.7614 20.2845 30.7116C20.2378 30.6618 20.1729 30.6328 20.1041 30.6309L18.9786 30.5975C18.8487 30.5748 18.7169 30.7053 18.7131 30.8478L18.6961 31.4128C18.5681 31.4652 18.4471 31.5301 18.3329 31.6083L17.8518 31.3113C17.7938 31.2741 17.7225 31.2634 17.6569 31.2791C17.5901 31.2949 17.5327 31.3365 17.4962 31.3952L16.9047 32.3536C16.8303 32.4747 16.8675 32.6342 16.9892 32.7093L17.4634 33.0018C17.4539 33.0706 17.4483 33.1406 17.4464 33.2106C17.4439 33.2818 17.4457 33.3524 17.4514 33.4218L16.9602 33.686C16.8997 33.7188 16.8549 33.7737 16.8354 33.8392C16.8152 33.9048 16.8228 33.976 16.8549 34.036L17.389 35.0272C17.4571 35.1539 17.6147 35.1993 17.739 35.1325L18.2365 34.8645C18.3456 34.9483 18.4629 35.0209 18.5877 35.0807L18.5713 35.6457C18.5688 35.7138 18.594 35.7807 18.6413 35.8305C18.6879 35.8803 18.7529 35.9093 18.8216 35.9112L19.9472 35.9446C19.9497 35.9453 19.9522 35.9453 19.9547 35.9453C20.0203 35.9453 20.084 35.9201 20.1319 35.8747C20.1817 35.8274 20.2108 35.7624 20.2127 35.6943L20.2291 35.1293C20.3571 35.077 20.4781 35.0114 20.5929 34.9339L21.0734 35.2309C21.1314 35.2674 21.2007 35.2788 21.2682 35.263C21.3351 35.2473 21.3924 35.2056 21.4284 35.147L22.0205 34.1885C22.0571 34.1305 22.0684 34.0599 22.0527 33.9937C22.0369 33.9268 21.9947 33.8688 21.9366 33.8329L21.4618 33.5403C21.4712 33.4716 21.4776 33.4022 21.4795 33.3316C21.4795 33.331 21.4795 33.331 21.4795 33.3304C21.4814 33.2597 21.4801 33.1897 21.4744 33.1204L21.9656 32.8562C22.0261 32.8234 22.0709 32.7685 22.0904 32.703C22.1106 32.6374 22.1031 32.5661 22.0709 32.5062L21.5368 31.5149ZM21.0746 32.7489C20.9769 32.8019 20.9239 32.9103 20.9422 33.0194C20.9586 33.1153 20.9662 33.2149 20.9636 33.3164C20.9598 33.4167 20.9466 33.5144 20.9245 33.609C20.8993 33.7174 20.9459 33.8291 21.0406 33.8877L21.4454 34.1374L21.1251 34.6557L20.7146 34.4022C20.62 34.3436 20.5002 34.3518 20.4145 34.4224C20.2619 34.5485 20.0891 34.6412 19.9005 34.6986C19.7946 34.7313 19.7215 34.8272 19.7183 34.9382L19.7038 35.4205L19.0953 35.4029L19.1092 34.9198C19.113 34.8095 19.0449 34.7086 18.9414 34.6701C18.7554 34.6008 18.5883 34.498 18.4446 34.3643C18.3645 34.2892 18.244 34.2735 18.1463 34.3258L17.7213 34.5547L17.4325 34.0181L17.8512 33.793C17.949 33.74 18.0019 33.6315 17.9836 33.5224C17.9672 33.4266 17.9591 33.3276 17.9622 33.2255C17.9654 33.1246 17.9792 33.0262 18.0007 32.9316C18.0253 32.8238 17.9786 32.7122 17.8847 32.6542L17.4805 32.4052L17.8002 31.8862L18.2113 32.1397C18.3053 32.1977 18.4263 32.1895 18.5114 32.1189C18.6634 31.9934 18.8356 31.9007 19.0247 31.8433C19.1306 31.8111 19.2038 31.7147 19.2069 31.6037L19.2215 31.1213L19.8305 31.1391L19.8166 31.6221C19.8128 31.7325 19.8809 31.8333 19.9844 31.8718C20.1698 31.9406 20.3369 32.0433 20.4806 32.1777C20.5613 32.2533 20.6824 32.2691 20.7789 32.2161L21.2045 31.9872L21.4933 32.5239L21.0746 32.7489Z" fill="white"/>
<path d="M19.4917 32.2892C19.2282 32.2702 18.9803 32.3762 18.7887 32.5559C18.5982 32.7362 18.4885 32.9796 18.481 33.2419C18.4728 33.5042 18.568 33.7539 18.7477 33.945C18.9274 34.1354 19.1714 34.2451 19.4337 34.2527C19.4438 34.2533 19.4539 34.2533 19.464 34.2533C19.7149 34.2533 19.9527 34.1587 20.1368 33.986C20.3272 33.8056 20.4369 33.5622 20.4445 33.2999C20.4602 32.7583 20.0327 32.3049 19.4917 32.2892ZM19.4488 33.7369C19.3246 33.7331 19.2092 33.6808 19.1235 33.5906C19.0384 33.4998 18.9936 33.3813 18.9967 33.2571C19.0005 33.1329 19.0528 33.0175 19.143 32.9317C19.23 32.8497 19.3429 32.805 19.462 32.805C19.4671 32.805 19.4715 32.805 19.4766 32.805C19.7332 32.8132 19.9356 33.0282 19.9287 33.2848C19.9205 33.5421 19.6998 33.7439 19.4488 33.7369Z" fill="white"/>
<path d="M35.1735 27.2857C35.1735 25.5277 33.7428 24.097 31.9841 24.097C31.1425 24.097 30.3519 24.43 29.7625 25.0045C29.7532 24.8144 29.7465 24.6455 29.7416 24.5006H29.8787C30.2847 24.5006 30.6152 24.1702 30.6152 23.7647V23.6399C30.6152 23.2338 30.2847 22.9034 29.8787 22.9034H29.837V22.0552H29.8787C30.2847 22.0552 30.6152 21.7248 30.6152 21.3188V21.1939C30.6152 20.7884 30.2847 20.458 29.8787 20.458H29.593L29.8049 19.1767C29.8175 19.1017 29.7961 19.0254 29.7469 18.9674C29.6984 18.9094 29.6259 18.8759 29.5502 18.8759H28.842V18.3759H29.5085C29.651 18.3759 29.767 18.2599 29.767 18.1174V17.1835C29.767 17.041 29.651 16.925 29.5085 16.925H28.842V16.2585C28.842 16.116 28.726 16 28.5835 16H27.6503C27.5078 16 27.3918 16.116 27.3918 16.2585V16.925H26.7253C26.5828 16.925 26.4668 17.0411 26.4668 17.1835V18.1174C26.4668 18.2599 26.5828 18.3759 26.7253 18.3759H27.3918V18.8759H26.6837C26.608 18.8759 26.5361 18.9094 26.4869 18.9674C26.4377 19.0254 26.4163 19.1017 26.4289 19.1767L26.6404 20.458H26.3545C25.9485 20.458 25.618 20.7884 25.618 21.1939V21.3188C25.618 21.7248 25.9485 22.0552 26.3545 22.0552H26.3962V22.9034H26.3545C25.9485 22.9034 25.618 23.2338 25.618 23.6399V23.7647C25.618 24.1702 25.9485 24.5006 26.3545 24.5006H26.4916C26.4386 25.8642 26.1936 28.9528 25.5349 30.7784H24.9244C24.7819 30.7784 24.6659 30.8944 24.6659 31.0369V32.4002C24.6659 32.4005 24.6661 32.4008 24.6661 32.4011C24.6661 32.4015 24.6659 32.4017 24.6659 32.4021C24.6659 32.4059 24.6634 32.8145 24.3891 33.0831C24.2117 33.2567 23.9411 33.3302 23.6113 33.3353H23.5964C23.5937 33.3353 23.5915 33.3368 23.5888 33.3368C23.5165 33.3187 23.4621 33.3636 23.4161 33.409C23.4159 33.4093 23.4158 33.4097 23.4155 33.4099C23.3678 33.4568 23.3379 33.5218 23.3379 33.5938V35.7415C23.3379 35.884 23.4539 36 23.5964 36H32.6367C32.7792 36 32.8952 35.884 32.8952 35.7415V33.5938C32.8952 33.5218 32.8653 33.4568 32.8176 33.4099C32.8174 33.4097 32.8173 33.4093 32.817 33.409C32.7714 33.3641 32.702 33.3209 32.6453 33.337C32.6422 33.3369 32.6397 33.3353 32.6367 33.3353H32.6216C32.2889 33.3308 32.022 33.2566 31.8447 33.0831C31.5717 32.8157 31.5679 32.4096 31.5679 32.4021C31.5679 32.4017 31.5677 32.4015 31.5677 32.4011C31.5677 32.4008 31.5679 32.4005 31.5679 32.4002V31.0369C31.5679 30.8944 31.4518 30.7784 31.3094 30.7784H30.6986C30.6192 30.561 30.5449 30.3347 30.4779 30.0975C30.9382 30.3455 31.4504 30.4751 31.9841 30.4751C33.7427 30.4751 35.1735 29.0443 35.1735 27.2857ZM26.9838 17.8589V17.4421H27.6503C27.7928 17.4421 27.9088 17.3261 27.9088 17.1836V16.5171H28.3249V17.1835C28.3249 17.3261 28.441 17.442 28.5835 17.442H29.2499V17.8588H28.5835C28.4409 17.8588 28.3249 17.9749 28.3249 18.1173V18.8759H27.9088V18.1174C27.9088 17.9749 27.7927 17.8589 27.6503 17.8589L26.9838 17.8589ZM29.2456 19.393L29.0697 20.458H27.1641L26.9882 19.393H29.2456ZM26.3545 21.5382C26.2334 21.5382 26.1351 21.4398 26.1351 21.3188V21.1939C26.1351 21.0729 26.2334 20.9751 26.3545 20.9751H26.9447H29.2885H29.8787C29.9998 20.9751 30.0981 21.0728 30.0981 21.1939V21.3188C30.0981 21.4398 29.9998 21.5382 29.8787 21.5382H29.5786H26.6547H26.3545ZM29.32 22.0552V22.9034H26.9132V22.0552H29.32ZM26.3545 23.9835C26.2334 23.9835 26.1351 23.8857 26.1351 23.7647V23.6398C26.1351 23.5188 26.2334 23.4204 26.3545 23.4204H26.6546H29.5785H29.8787C29.9997 23.4204 30.0981 23.5188 30.0981 23.6398V23.7647C30.0981 23.8857 29.9997 23.9835 29.8787 23.9835H26.3545ZM27.008 24.5005H29.2251C29.2646 25.7115 29.4354 28.6814 30.1505 30.7784H26.0827C26.7201 28.8651 26.9573 25.8398 27.008 24.5005ZM32.3782 33.8523V35.483H23.8549V33.8523H32.3782ZM31.3832 33.3353H24.8506C25.0361 33.1041 25.1195 32.8468 25.1545 32.6587H31.0793C31.1144 32.8468 31.1977 33.1041 31.3832 33.3353ZM31.0509 31.2955V32.1417H25.1829V31.2955H31.0509ZM30.3566 29.405C30.3388 29.3915 30.3184 29.3851 30.2987 29.3768C30.0228 28.1392 29.8796 26.7894 29.8065 25.7432C30.3085 25.0362 31.1145 24.6141 31.9841 24.6141C33.4578 24.6141 34.6564 25.8121 34.6564 27.2857C34.6564 28.7594 33.4578 29.9581 31.9841 29.9581C31.3895 29.9581 30.8271 29.767 30.3566 29.405Z" fill="white"/>
<path d="M32.2001 29.2069V28.765C32.4916 28.7329 32.7188 28.6379 32.8821 28.4791C33.0454 28.3207 33.1271 28.1088 33.1271 27.8428C33.1271 27.3595 32.8565 27.0791 32.3155 27.0024L31.9408 26.9496C31.7871 26.9269 31.6759 26.8862 31.607 26.8272C31.5382 26.7678 31.5038 26.6868 31.5038 26.5844C31.5038 26.4694 31.5454 26.3802 31.6285 26.318C31.7118 26.2555 31.8318 26.2242 31.9889 26.2242C32.1553 26.2242 32.2817 26.2563 32.3682 26.3204C32.4546 26.3846 32.5043 26.4835 32.517 26.6181H33.079C33.0598 26.3587 32.975 26.1539 32.8244 26.0033C32.674 25.8527 32.4658 25.7632 32.2 25.7346V25.3647H31.7726V25.7393C31.5037 25.7745 31.2947 25.8695 31.1459 26.0252C30.9969 26.1805 30.9226 26.3811 30.9226 26.6279C30.9226 27.1081 31.2123 27.3865 31.7919 27.4636L32.1521 27.5116C32.2898 27.5277 32.3889 27.566 32.4499 27.6267C32.5107 27.6877 32.541 27.7741 32.541 27.8863C32.541 28.011 32.4954 28.1053 32.4041 28.1694C32.313 28.2336 32.1793 28.2657 32.0031 28.2657C31.8077 28.2657 31.6629 28.2321 31.5684 28.1648C31.474 28.0975 31.4173 27.9853 31.3979 27.8285H30.8457C30.8584 28.1038 30.9449 28.3224 31.105 28.4843C31.2652 28.6458 31.4877 28.7412 31.7725 28.7698V29.207H32.2001V29.2069Z" fill="white"/>
</svg>
