<svg width="120" height="120" viewBox="0 0 120 120" fill="none" xmlns="http://www.w3.org/2000/svg">
<path d="M19.8718 44.558H15.206C12.7517 44.6 12.7517 48.2487 15.206 48.2908H17.0723C17.1283 50.8058 20.8704 50.7077 20.8051 48.1975C26.227 47.0216 25.471 39.0475 19.8719 38.9589H18.0055C16.7878 38.9542 16.7831 37.0971 18.0055 37.0925H22.6714C25.1211 37.0505 25.1257 33.4018 22.6714 33.3597H20.805C20.749 30.8447 17.0069 30.9428 17.0723 33.453C11.6504 34.6289 12.4064 42.603 18.0055 42.6916H19.8718C21.0896 42.6963 21.0943 44.5534 19.8718 44.558Z" fill="#373D3F"/>
<path d="M18.9382 55.7567C25.2979 55.7567 30.7244 51.7532 32.8754 46.1401L46.6311 50.9881L43.0709 52.1079C40.738 52.8871 41.8485 56.3725 44.1907 55.668L53.084 52.8684C54.2505 52.5045 54.7358 51.0627 54.0872 50.0501L48.9034 42.2907C47.541 40.2657 44.452 42.328 45.8005 44.3624L47.8722 47.4653L33.7665 42.496C34.8257 33.7381 27.7569 25.8342 18.9335 25.8903C-0.87344 26.7115 -0.86866 54.9353 18.9335 55.7524L18.9382 55.7567ZM18.9382 29.6274C25.1113 29.6274 30.1365 34.6526 30.1365 40.8256C29.6092 55.6444 8.26311 55.6444 7.73992 40.8256C7.73992 34.6526 12.7651 29.6274 18.9382 29.6274Z" fill="#373D3F"/>
<path d="M100.125 37.0925H104.791C107.245 37.0505 107.245 33.4018 104.791 33.3597H102.924C102.868 30.8447 99.1263 30.9428 99.1916 33.453C93.7697 34.6289 94.5257 42.603 100.125 42.6916H101.991C103.209 42.6963 103.214 44.5534 101.991 44.558H97.3253C94.8757 44.6 94.871 48.2487 97.3253 48.2908H99.1917C99.2477 50.8058 102.99 50.7077 102.924 48.1975C108.346 47.0216 107.59 39.0475 101.991 38.9589H100.125C98.9071 38.9542 98.9024 37.0971 100.125 37.0925Z" fill="#373D3F"/>
<path d="M101.067 25.8943C92.2481 25.8337 85.1789 33.7424 86.2337 42.5L72.128 47.4693L74.1997 44.3664C75.5435 42.3367 72.4594 40.265 71.0968 42.2947L65.913 50.0542C65.2598 51.0667 65.7497 52.5131 66.9162 52.8724L75.8095 55.6721C78.1424 56.372 79.2716 52.8958 76.9293 52.1119L73.3691 50.9921L87.1248 46.1441C93.1765 61.4108 115.694 57.445 115.993 40.8297C115.993 32.599 109.293 25.8986 101.062 25.8986L101.067 25.8943ZM101.067 52.0236C94.8937 52.0236 89.8685 46.9984 89.8685 40.8254C90.3957 26.0066 111.742 26.0066 112.265 40.8254C112.265 46.9984 107.24 52.0236 101.067 52.0236Z" fill="#373D3F"/>
<path d="M101.991 94.9509H97.3253C94.8757 94.9929 94.871 98.6416 97.3253 98.6837H99.1917C99.2477 101.199 102.99 101.101 102.924 98.5903C108.346 97.4145 107.59 89.4404 101.991 89.3517H100.125C98.9071 89.3471 98.9024 87.49 100.125 87.4854H104.791C107.245 87.4434 107.245 83.7946 104.791 83.7526H102.924C102.868 81.2376 99.1263 81.3357 99.1916 83.8459C93.7697 85.0217 94.5257 92.9959 100.125 93.0845H101.991C103.209 93.0892 103.214 94.9462 101.991 94.9509Z" fill="#373D3F"/>
<path d="M73.1295 60.847L63.8069 60.4597C62.6031 60.4317 61.6466 61.5889 61.9173 62.774L64.1569 71.8306C64.7635 74.2009 68.3563 73.3004 67.7824 70.9347L66.8586 67.2066L87.9675 84.0369C82.4383 93.63 89.9131 106.359 101.055 106.144C120.862 105.323 120.858 77.0993 101.055 76.2823C96.7627 76.2823 92.8994 78.1113 90.1744 81.023L69.3593 64.4256L72.9754 64.575C75.4483 64.6076 75.5464 60.9684 73.1295 60.847ZM112.254 91.2179C111.726 106.041 90.3802 106.032 89.8571 91.2179C90.3843 76.3992 111.73 76.3992 112.254 91.2179Z" fill="#373D3F"/>
<path d="M34.281 50.516C31.5795 56.5817 30.0957 63.0341 30.0957 68.69C30.0957 70.6731 30.525 72.6093 31.3648 74.4524C32.4053 76.6688 35.7648 75.115 34.7569 72.8986C32.1814 65.9044 35.3635 58.5971 37.8738 51.2248C37.9065 49.1858 34.9949 48.6492 34.2764 50.5202L34.281 50.516Z" fill="#373D3F"/>
<path d="M85.3511 74.7936C86.149 75.4328 87.3294 75.3115 87.9734 74.5043C92.308 68.8678 88.496 57.25 85.6824 50.4606C84.6465 48.2442 81.3103 49.7187 82.2715 51.9816C84.7772 57.5947 86.1583 63.5299 86.1583 68.69C86.1583 70.1225 85.8083 71.233 85.0571 72.1709C84.4132 72.9781 84.5438 74.1492 85.3464 74.7931L85.3511 74.7936Z" fill="#373D3F"/>
<path d="M67.7637 84.2696C70.7546 82.7998 73.6289 81.7081 76.293 80.7469C77.2636 80.3969 77.7629 79.3284 77.4129 78.3579C77.0629 77.3874 75.9944 76.8881 75.0239 77.2381C72.2617 78.2366 69.2755 79.3705 66.1213 80.9195C57.9839 84.9182 48.9506 84.6848 41.8028 80.2289C39.7125 78.9644 37.7622 82.0579 39.8245 83.397C48.1906 88.6508 58.8192 88.7208 67.7647 84.2742L67.7637 84.2696Z" fill="#373D3F"/>
<path d="M41.8418 43.2512C42.4017 43.2512 42.9523 42.9993 43.3209 42.5233C45.4066 39.8171 47.6836 37.6381 50.0866 35.9723C50.7072 36.4436 69.362 36.4156 69.9174 35.9723C72.3204 37.638 74.5974 39.8171 76.6831 42.5233C77.0517 42.9993 77.6023 43.2512 78.1622 43.2512C79.6553 43.2979 80.6025 41.4175 79.6413 40.2464C77.5089 37.4795 75.1807 35.1931 72.7077 33.3735C73.2303 32.1836 73.1697 30.6533 72.5677 29.5147C74.9753 25.5953 76.3425 18.8016 72.3064 15.55C68.933 12.5545 63.1239 13.665 60.8982 17.659C59.8204 19.5253 58.5839 19.7866 56.167 19.0307C54.3099 18.3821 52.7188 17.4303 50.6938 17.043C48.2302 16.5624 45.1414 17.2203 43.8023 19.7492C42.4771 22.2268 43.7416 25.0404 44.1662 25.9876C44.8148 27.3874 45.6733 28.9738 47.1291 30.1357C46.8818 31.1995 46.8585 32.38 47.3064 33.3738C44.8335 35.1935 42.5006 37.4798 40.3728 40.2467C39.4116 41.4132 40.3588 43.2983 41.852 43.2516L41.8418 43.2512ZM68.3999 32.5102H51.6031C50.39 32.5055 50.3807 30.6485 51.6031 30.6438H68.3999C69.6131 30.6485 69.6224 32.5055 68.3999 32.5102ZM47.0952 21.5033C49.0548 19.2683 52.6336 21.8859 54.9572 22.5671C56.5717 23.1177 59.6326 23.7709 62.0308 21.9792C63.3093 21.0273 63.7946 19.8656 64.6951 18.7783C65.9456 17.3832 68.4886 17.1732 69.8463 18.3631C72.2913 20.9107 70.9848 24.2469 69.6037 27.0931C69.6737 26.7105 52.083 27.0044 51.6029 26.9158C50.9123 26.9158 50.2637 27.0744 49.6758 27.345C48.192 26.4398 46.4703 22.8797 47.0955 21.5079L47.0952 21.5033Z" fill="#373D3F"/>
<path d="M19.8718 94.9509H15.206C12.7517 94.9929 12.7517 98.6416 15.206 98.6837H17.0723C17.1283 101.199 20.8704 101.101 20.8051 98.5903C26.227 97.4145 25.471 89.4404 19.8719 89.3517H18.0055C16.7878 89.3471 16.7831 87.49 18.0055 87.4854H22.6714C25.1211 87.4434 25.1257 83.7946 22.6714 83.7526H20.805C20.749 81.2376 17.0069 81.3357 17.0723 83.8459C11.6504 85.0217 12.4064 92.9959 18.0055 93.0845H19.8718C21.0896 93.0892 21.0943 94.9462 19.8718 94.9509Z" fill="#373D3F"/>
<path d="M18.9387 106.149C30.0763 106.364 37.5559 93.6345 32.0267 84.0416L53.1356 67.2113L52.2117 70.9394C51.6378 73.2958 55.2259 74.2149 55.8372 71.8353L58.0768 62.7787C58.3475 61.5982 57.4003 60.4318 56.1872 60.4644L46.8646 60.8517C44.4663 60.9823 44.5363 64.5472 46.9393 64.5844C47.0186 64.5844 50.6347 64.4351 50.6347 64.4351L29.8197 81.0325C20.8378 71.2106 3.92332 77.7709 4.00813 91.2228C4.00813 99.4535 10.7085 106.154 18.9392 106.154L18.9387 106.149ZM18.9387 80.0198C25.1118 80.0198 30.137 85.045 30.137 91.218C29.6097 106.037 8.26364 106.037 7.74046 91.218C7.74046 85.045 12.7656 80.0198 18.9387 80.0198Z" fill="#373D3F"/>
</svg>
