<svg width="52" height="52" viewBox="0 0 52 52" fill="none" xmlns="http://www.w3.org/2000/svg">
<rect width="52" height="52" rx="26" fill="#442873"/>
<path d="M17.3063 22.6542H16.2953C15.7635 22.6633 15.7635 23.4539 16.2953 23.463H16.6997C16.7118 24.0079 17.5226 23.9866 17.5085 23.4427C18.6832 23.188 18.5194 21.4602 17.3063 21.441H16.9019C16.638 21.44 16.637 21.0377 16.9019 21.0367H17.9128C18.4436 21.0276 18.4446 20.237 17.9128 20.2279H17.5084C17.4963 19.683 16.6855 19.7042 16.6997 20.2481C15.5249 20.5029 15.6887 22.2306 16.9019 22.2498H17.3063C17.5701 22.2508 17.5711 22.6532 17.3063 22.6542Z" fill="white"/>
<path d="M17.104 25.0805C18.482 25.0805 19.6577 24.2131 20.1238 22.997L23.1041 24.0473L22.3328 24.29C21.8273 24.4588 22.0679 25.214 22.5754 25.0613L24.5023 24.4548C24.755 24.3759 24.8602 24.0635 24.7196 23.8441L23.5965 22.1629C23.3013 21.7242 22.632 22.171 22.9242 22.6118L23.3731 23.2841L20.3168 22.2074C20.5463 20.3098 19.0147 18.5973 17.103 18.6095C12.8115 18.7874 12.8125 24.9026 17.103 25.0796L17.104 25.0805ZM17.104 19.4192C18.4415 19.4192 19.5303 20.508 19.5303 21.8455C19.4161 25.0562 14.7911 25.0562 14.6777 21.8455C14.6777 20.508 15.7665 19.4192 17.104 19.4192Z" fill="white"/>
<path d="M34.6945 21.0367H35.7054C36.2372 21.0276 36.2372 20.237 35.7054 20.2279H35.301C35.2889 19.683 34.4781 19.7042 34.4923 20.2481C33.3175 20.5029 33.4813 22.2306 34.6945 22.2498H35.0988C35.3627 22.2508 35.3637 22.6532 35.0988 22.6542H34.0879C33.5571 22.6633 33.5561 23.4538 34.0879 23.463H34.4923C34.5044 24.0079 35.3152 23.9866 35.301 23.4427C36.4758 23.188 36.312 21.4602 35.0989 21.441H34.6945C34.4306 21.44 34.4296 21.0377 34.6945 21.0367Z" fill="white"/>
<path d="M34.8986 18.6104C32.9879 18.5972 31.4563 20.3108 31.6848 22.2083L28.6286 23.2849L29.0775 22.6126C29.3686 22.1729 28.7004 21.724 28.4052 22.1638L27.282 23.845C27.1405 24.0644 27.2466 24.3778 27.4994 24.4556L29.4262 25.0622C29.9317 25.2139 30.1763 24.4607 29.6689 24.2908L28.8975 24.0482L31.8779 22.9978C33.1891 26.3056 38.068 25.4463 38.1327 21.8464C38.1327 20.063 36.6809 18.6113 34.8976 18.6113L34.8986 18.6104ZM34.8986 24.2717C33.5611 24.2717 32.4723 23.1829 32.4723 21.8454C32.5866 18.6347 37.2116 18.6347 37.3249 21.8454C37.3249 23.1829 36.2361 24.2717 34.8986 24.2717Z" fill="white"/>
<path d="M35.0988 33.5726H34.0879C33.5571 33.5817 33.5561 34.3722 34.0879 34.3814H34.4923C34.5044 34.9263 35.3152 34.905 35.301 34.3611C36.4758 34.1064 36.312 32.3786 35.0989 32.3594H34.6945C34.4306 32.3584 34.4296 31.9561 34.6945 31.9551H35.7054C36.2372 31.946 36.2372 31.1554 35.7054 31.1463H35.301C35.2889 30.6014 34.4781 30.6226 34.4923 31.1665C33.3175 31.4213 33.4813 33.149 34.6945 33.1682H35.0988C35.3627 33.1692 35.3637 33.5716 35.0988 33.5726Z" fill="white"/>
<path d="M28.8456 26.1835L26.8257 26.0996C26.5649 26.0935 26.3576 26.3442 26.4163 26.601L26.9015 28.5633C27.0329 29.0768 27.8114 28.8817 27.687 28.3692L27.4869 27.5614L32.0605 31.208C30.8625 33.2865 32.482 36.0445 34.8962 35.9979C39.1877 35.82 39.1866 29.7048 34.8962 29.5278C33.9661 29.5278 33.129 29.9241 32.5386 30.5549L28.0287 26.9588L28.8122 26.9912C29.348 26.9983 29.3692 26.2098 28.8456 26.1835ZM37.3225 32.7638C37.2082 35.9756 32.5832 35.9735 32.4699 32.7638C32.5841 29.5531 37.2091 29.5531 37.3225 32.7638Z" fill="white"/>
<path d="M20.4283 23.9452C19.843 25.2594 19.5215 26.6574 19.5215 27.8829C19.5215 28.3125 19.6145 28.7321 19.7965 29.1314C20.0219 29.6116 20.7498 29.2749 20.5314 28.7947C19.9734 27.2793 20.6628 25.6961 21.2067 24.0987C21.2138 23.6569 20.583 23.5407 20.4273 23.9461L20.4283 23.9452Z" fill="white"/>
<path d="M31.4936 29.2053C31.6664 29.3438 31.9222 29.3175 32.0617 29.1426C33.0009 27.9213 32.1749 25.4042 31.5653 23.9331C31.3409 23.4529 30.6181 23.7724 30.8263 24.2627C31.3692 25.4788 31.6684 26.7648 31.6684 27.8828C31.6684 28.1932 31.5926 28.4338 31.4298 28.637C31.2903 28.8119 31.3186 29.0656 31.4925 29.2052L31.4936 29.2053Z" fill="white"/>
<path d="M27.683 31.2583C28.331 30.9399 28.9538 30.7033 29.531 30.4951C29.7413 30.4193 29.8495 30.1877 29.7737 29.9775C29.6978 29.7672 29.4663 29.659 29.2561 29.7348C28.6576 29.9512 28.0106 30.1969 27.3272 30.5325C25.5641 31.3989 23.6068 31.3483 22.0582 30.3829C21.6053 30.1089 21.1827 30.7791 21.6295 31.0693C23.4422 32.2076 25.745 32.2228 27.6832 31.2593L27.683 31.2583Z" fill="white"/>
<path d="M22.0665 22.3711C22.1878 22.3711 22.3071 22.3165 22.387 22.2133C22.8389 21.627 23.3322 21.1549 23.8529 20.794C23.9873 20.8961 28.0292 20.89 28.1496 20.794C28.6702 21.1549 29.1635 21.627 29.6154 22.2133C29.6953 22.3165 29.8146 22.3711 29.9359 22.3711C30.2594 22.3812 30.4647 21.9737 30.2564 21.72C29.7944 21.1205 29.2899 20.6251 28.7541 20.2309C28.8673 19.9731 28.8542 19.6415 28.7238 19.3948C29.2454 18.5456 29.5417 17.0736 28.6672 16.3691C27.9363 15.7201 26.6776 15.9607 26.1954 16.8261C25.9619 17.2305 25.694 17.2871 25.1703 17.1233C24.7679 16.9828 24.4232 16.7765 23.9844 16.6926C23.4507 16.5885 22.7814 16.731 22.4913 17.279C22.2042 17.8158 22.4781 18.4254 22.5701 18.6306C22.7107 18.9339 22.8967 19.2776 23.2121 19.5294C23.1585 19.7599 23.1535 20.0156 23.2505 20.231C22.7147 20.6252 22.2092 21.1206 21.7482 21.7201C21.54 21.9728 21.7452 22.3813 22.0687 22.3711L22.0665 22.3711ZM27.8208 20.0438H24.1815C23.9186 20.0428 23.9166 19.6405 24.1815 19.6395H27.8208C28.0836 19.6405 28.0856 20.0428 27.8208 20.0438ZM23.2047 17.659C23.6293 17.1748 24.4047 17.7419 24.9082 17.8895C25.258 18.0088 25.9212 18.1503 26.4408 17.7621C26.7178 17.5559 26.8229 17.3042 27.0181 17.0686C27.289 16.7663 27.84 16.7208 28.1342 16.9786C28.6639 17.5306 28.3808 18.2534 28.0816 18.8701C28.0967 18.7872 24.2854 18.8509 24.1814 18.8317C24.0318 18.8317 23.8913 18.8661 23.7639 18.9247C23.4424 18.7286 23.0693 17.9572 23.2048 17.66L23.2047 17.659Z" fill="white"/>
<path d="M17.3063 33.5726H16.2953C15.7635 33.5817 15.7635 34.3722 16.2953 34.3814H16.6997C16.7118 34.9263 17.5226 34.905 17.5085 34.3611C18.6832 34.1064 18.5194 32.3786 17.3063 32.3594H16.9019C16.638 32.3584 16.637 31.9561 16.9019 31.9551H17.9128C18.4436 31.946 18.4446 31.1554 17.9128 31.1463H17.5084C17.4963 30.6014 16.6855 30.6226 16.6997 31.1665C15.5249 31.4213 15.6887 33.149 16.9019 33.1682H17.3063C17.5701 33.1692 17.5711 33.5716 17.3063 33.5726Z" fill="white"/>
<path d="M17.1042 35.999C19.5173 36.0455 21.1379 33.2875 19.9399 31.209L24.5135 27.5624L24.3133 28.3702C24.189 28.8807 24.9664 29.0799 25.0988 28.5643L25.5841 26.602C25.6427 26.3463 25.4375 26.0935 25.1747 26.1006L23.1548 26.1845C22.6352 26.2128 22.6503 26.9852 23.171 26.9933C23.1881 26.9933 23.9716 26.9609 23.9716 26.9609L19.4617 30.557C17.5156 28.4289 13.8508 29.8504 13.8692 32.7649C13.8692 34.5483 15.3209 36 17.1043 36L17.1042 35.999ZM17.1042 30.3376C18.4417 30.3376 19.5305 31.4264 19.5305 32.7639C19.4162 35.9746 14.7912 35.9746 14.6779 32.7639C14.6779 31.4264 15.7667 30.3376 17.1042 30.3376Z" fill="white"/>
</svg>
