<svg width="120" height="120" viewBox="0 0 120 120" fill="none" xmlns="http://www.w3.org/2000/svg">
<path d="M64.0221 106.154H26.9557C25.182 106.152 23.4816 105.446 22.2274 104.192C20.9732 102.938 20.2677 101.237 20.2656 99.4635V98.445C20.2677 96.6713 20.9732 94.9708 22.2274 93.7166C23.4816 92.4625 25.182 91.7569 26.9557 91.7549H64.0221C65.7958 91.7569 67.4962 92.4625 68.7504 93.7166C70.0046 94.9708 70.7101 96.6713 70.7122 98.445V99.4635C70.7101 101.237 70.0046 102.938 68.7504 104.192C67.4962 105.446 65.7958 106.152 64.0221 106.154ZM26.9557 95.3052C26.1233 95.3061 25.3252 95.6372 24.7365 96.2258C24.1479 96.8144 23.8168 97.6125 23.8159 98.445V99.4635C23.8168 100.296 24.1479 101.094 24.7365 101.683C25.3252 102.271 26.1233 102.602 26.9557 102.603H64.0221C64.8545 102.602 65.6527 102.271 66.2413 101.683C66.8299 101.094 67.161 100.296 67.1619 99.4635V98.445C67.161 97.6125 66.8299 96.8144 66.2413 96.2258C65.6527 95.6372 64.8545 95.3061 64.0221 95.3052H26.9557Z" fill="#373D3F"/>
<path d="M60.4012 95.3048H30.5664C28.9109 95.3031 27.3237 94.6447 26.1531 93.474C24.9825 92.3034 24.324 90.7162 24.3223 89.0607V87.1513C24.3243 85.4959 24.9828 83.9089 26.1534 82.7383C27.3239 81.5678 28.911 80.9093 30.5664 80.9072H60.4012C62.0566 80.9093 63.6436 81.5678 64.8142 82.7383C65.9847 83.9089 66.6432 85.4959 66.6453 87.1513V89.0607C66.6435 90.7162 65.9851 92.3034 64.8145 93.474C63.6439 94.6447 62.0567 95.3031 60.4012 95.3048ZM30.5664 84.4575C29.8521 84.4581 29.1673 84.7421 28.6622 85.2472C28.1572 85.7522 27.8732 86.4371 27.8726 87.1513V89.0607C27.8732 89.775 28.1572 90.4598 28.6622 90.9649C29.1673 91.4699 29.8521 91.7539 30.5664 91.7545H60.4012C61.1154 91.7539 61.8003 91.4699 62.3053 90.9649C62.8104 90.4598 63.0944 89.775 63.095 89.0607V87.1513C63.0944 86.4371 62.8104 85.7522 62.3053 85.2472C61.8003 84.7421 61.1154 84.4581 60.4012 84.4575H30.5664Z" fill="#373D3F"/>
<path d="M83.5898 44.1044C82.7209 44.1068 81.8602 43.9369 81.0575 43.6044C80.2547 43.2719 79.526 42.7834 78.9134 42.1672L61.8841 25.1346C61.27 24.5206 60.7829 23.7916 60.4506 22.9893C60.1183 22.187 59.9473 21.3271 59.9473 20.4587C59.9473 19.5904 60.1183 18.7305 60.4506 17.9282C60.7829 17.1259 61.27 16.3969 61.8841 15.7829C62.4981 15.1688 63.2271 14.6817 64.0294 14.3494C64.8317 14.0171 65.6916 13.8461 66.5599 13.8461C67.4283 13.8461 68.2882 14.0171 69.0905 14.3494C69.8928 14.6817 70.6218 15.1688 71.2358 15.7829L88.2651 32.8177C89.1895 33.7426 89.819 34.9208 90.074 36.2034C90.329 37.486 90.1981 38.8154 89.6977 40.0236C89.1973 41.2318 88.35 42.2645 87.2628 42.9912C86.1757 43.718 84.8975 44.1061 83.5898 44.1066V44.1044ZM66.5561 17.396C65.9504 17.3961 65.3583 17.5758 64.8548 17.9123C64.3512 18.2488 63.9588 18.7272 63.7271 19.2868C63.4954 19.8464 63.4348 20.4621 63.5531 21.0561C63.6714 21.6501 63.9631 22.1957 64.3915 22.6239L81.4241 39.6565C81.7037 39.9599 82.0418 40.2036 82.418 40.3731C82.7942 40.5425 83.2008 40.6342 83.6133 40.6426C84.0259 40.651 84.4358 40.5759 84.8186 40.4219C85.2014 40.2679 85.5491 40.0381 85.8409 39.7463C86.1326 39.4546 86.3624 39.1069 86.5164 38.7241C86.6705 38.3413 86.7455 37.9313 86.7371 37.5188C86.7287 37.1063 86.6371 36.6997 86.4676 36.3235C86.2982 35.9473 86.0544 35.6092 85.751 35.3296L68.7217 18.2936C68.4382 18.0081 68.1007 17.7817 67.7289 17.6276C67.3572 17.4735 66.9585 17.3948 66.5561 17.396Z" fill="#373D3F"/>
<path d="M52.1002 75.5922C51.2318 75.5938 50.3716 75.4238 49.5691 75.0919C48.7666 74.7601 48.0375 74.2729 47.4238 73.6584L30.3912 56.6258C29.7648 56.0145 29.2659 55.285 28.9235 54.4794C28.5811 53.6739 28.402 52.8084 28.3966 51.9331C28.3912 51.0578 28.5596 50.1902 28.8921 49.3805C29.2245 48.5708 29.7144 47.8351 30.3333 47.2162C30.9522 46.5972 31.6878 46.1072 32.4974 45.7747C33.3071 45.4422 34.1747 45.2736 35.05 45.2789C35.9253 45.2842 36.7908 45.4632 37.5964 45.8055C38.402 46.1478 39.1316 46.6466 39.743 47.273L56.7822 64.3067C58.02 65.5481 58.715 67.2296 58.715 68.9826C58.715 70.7356 58.02 72.4171 56.7822 73.6584C56.168 74.2737 55.438 74.7614 54.6345 75.0932C53.8309 75.4251 52.9696 75.5947 52.1002 75.5922ZM35.0676 48.8884C34.461 48.887 33.8676 49.066 33.3628 49.4025C32.858 49.739 32.4646 50.218 32.2325 50.7785C32.0004 51.3391 31.9402 51.9559 32.0594 52.5508C32.1786 53.1456 32.4718 53.6917 32.902 54.1195L49.9346 71.1477C50.5172 71.6761 51.2808 71.9601 52.0671 71.941C52.8535 71.9218 53.6023 71.6009 54.1585 71.0447C54.7147 70.4885 55.0356 69.7397 55.0548 68.9533C55.0739 68.167 54.7899 67.4034 54.2615 66.8208L37.2333 49.7837C36.9491 49.4992 36.6115 49.2736 36.2398 49.12C35.8681 48.9663 35.4698 48.8876 35.0676 48.8884Z" fill="#373D3F"/>
<path d="M39.914 51.7339C39.609 51.7336 39.3092 51.6547 39.0435 51.5048C38.7779 51.355 38.5553 51.1392 38.3973 50.8783C38.2393 50.6173 38.1512 50.3201 38.1415 50.0153C38.1318 49.7104 38.2008 49.4082 38.3419 49.1377C41.2265 43.6015 44.829 38.6566 49.0461 34.4395C53.2632 30.2224 58.2081 26.621 63.7444 23.7342C64.1619 23.5166 64.6488 23.4737 65.0979 23.6151C65.547 23.7565 65.9216 24.0705 66.1392 24.4881C66.3568 24.9056 66.3996 25.3925 66.2582 25.8416C66.1168 26.2907 65.8028 26.6652 65.3853 26.8828C54.9629 32.3193 46.9237 40.3563 41.4895 50.7787C41.3394 51.0668 41.1132 51.3082 40.8354 51.4767C40.5576 51.6451 40.2389 51.7341 39.914 51.7339Z" fill="#373D3F"/>
<path d="M54.1346 65.868C53.737 65.8684 53.3509 65.7354 53.0379 65.4903C52.725 65.2451 52.5034 64.9021 52.4086 64.516C52.3138 64.1299 52.3514 63.7232 52.5153 63.361C52.6792 62.9988 52.9599 62.7022 53.3124 62.5185C63.7348 57.0821 71.7741 49.0451 77.2082 38.6227C77.316 38.4159 77.4634 38.2324 77.6421 38.0827C77.8207 37.9329 78.0271 37.8198 78.2495 37.7498C78.4719 37.6798 78.7059 37.6542 78.9381 37.6747C79.1704 37.6951 79.3963 37.7611 79.603 37.8688C79.8098 37.9766 79.9933 38.124 80.1431 38.3026C80.2928 38.4813 80.406 38.6877 80.476 38.9101C80.546 39.1324 80.5715 39.3664 80.5511 39.5987C80.5306 39.8309 80.4647 40.0569 80.3569 40.2636C77.4701 45.7988 73.8698 50.7448 69.6538 54.9619C65.4379 59.179 60.4896 62.7803 54.9533 65.6661C54.7007 65.7984 54.4198 65.8677 54.1346 65.868Z" fill="#373D3F"/>
<path d="M92.5147 85.1212C91.5921 85.1229 90.6782 84.9422 89.8256 84.5896C88.973 84.237 88.1985 83.7194 87.5465 83.0665L63.106 58.6204C62.9227 58.4604 62.7742 58.2645 62.6698 58.0447C62.5654 57.825 62.5073 57.5861 62.4991 57.3429C62.4908 57.0998 62.5327 56.8575 62.622 56.6312C62.7113 56.4049 62.8462 56.1994 63.0183 56.0274C63.1903 55.8554 63.3959 55.7206 63.6223 55.6314C63.8486 55.5422 64.0909 55.5005 64.334 55.5088C64.5772 55.5171 64.816 55.5754 65.0357 55.6799C65.2554 55.7844 65.4513 55.9329 65.6112 56.1163L90.0573 80.5568C90.7093 81.2072 91.5927 81.5725 92.5136 81.5725C93.4346 81.5725 94.318 81.2072 94.97 80.5568L95.1664 80.3605C95.8171 79.7084 96.1826 78.8248 96.1826 77.9035C96.1826 76.9823 95.8171 76.0987 95.1664 75.4466L70.7269 51.0127C70.4021 50.6781 70.222 50.2292 70.2255 49.7629C70.2291 49.2966 70.4159 48.8504 70.7457 48.5208C71.0755 48.1911 71.5218 48.0044 71.9881 48.0011C72.4544 47.9978 72.9032 48.1781 73.2377 48.5031L97.6771 72.937C98.9941 74.2548 99.7339 76.0416 99.7339 77.9046C99.7339 79.7677 98.9941 81.5545 97.6771 82.8723L97.4807 83.0676C96.8291 83.7201 96.0549 84.2374 95.2026 84.5899C94.3504 84.9423 93.437 85.1229 92.5147 85.1212Z" fill="#373D3F"/>
</svg>
