<svg width="52" height="52" viewBox="0 0 52 52" fill="none" xmlns="http://www.w3.org/2000/svg">
<rect width="52" height="52" rx="26" fill="#442873"/>
<path d="M26.8712 36H18.8401C18.4558 35.9995 18.0874 35.8467 17.8157 35.5749C17.5439 35.3032 17.3911 34.9347 17.3906 34.5504V34.3298C17.3911 33.9455 17.5439 33.577 17.8157 33.3053C18.0874 33.0336 18.4558 32.8807 18.8401 32.8802H26.8712C27.2555 32.8807 27.6239 33.0336 27.8957 33.3053C28.1674 33.577 28.3203 33.9455 28.3207 34.3298V34.5504C28.3203 34.9347 28.1674 35.3032 27.8957 35.5749C27.6239 35.8467 27.2555 35.9995 26.8712 36ZM18.8401 33.6495C18.6598 33.6497 18.4869 33.7214 18.3593 33.8489C18.2318 33.9765 18.16 34.1494 18.1599 34.3298V34.5504C18.16 34.7308 18.2318 34.9037 18.3593 35.0313C18.4869 35.1588 18.6598 35.2305 18.8401 35.2307H26.8712C27.0516 35.2305 27.2245 35.1588 27.352 35.0313C27.4796 34.9037 27.5513 34.7308 27.5515 34.5504V34.3298C27.5513 34.1494 27.4796 33.9765 27.352 33.8489C27.2245 33.7214 27.0516 33.6497 26.8712 33.6495H18.8401Z" fill="white"/>
<path d="M26.0866 33.6494H19.6224C19.2637 33.649 18.9198 33.5064 18.6662 33.2527C18.4126 32.9991 18.2699 32.6552 18.2695 32.2965V31.8828C18.27 31.5242 18.4127 31.1803 18.6663 30.9267C18.9199 30.6731 19.2637 30.5304 19.6224 30.5299H26.0866C26.4453 30.5304 26.7892 30.6731 27.0428 30.9267C27.2964 31.1803 27.4391 31.5242 27.4395 31.8828V32.2965C27.4391 32.6552 27.2965 32.9991 27.0428 33.2527C26.7892 33.5064 26.4453 33.649 26.0866 33.6494ZM19.6224 31.2992C19.4677 31.2993 19.3193 31.3608 19.2099 31.4703C19.1004 31.5797 19.0389 31.7281 19.0388 31.8828V32.2965C19.0389 32.4513 19.1004 32.5997 19.2099 32.7091C19.3193 32.8185 19.4677 32.8801 19.6224 32.8802H26.0866C26.2414 32.8801 26.3898 32.8185 26.4992 32.7091C26.6086 32.5997 26.6702 32.4513 26.6703 32.2965V31.8828C26.6702 31.7281 26.6086 31.5797 26.4992 31.4703C26.3898 31.3608 26.2414 31.2993 26.0866 31.2992H19.6224Z" fill="white"/>
<path d="M31.1108 22.556C30.9226 22.5565 30.7361 22.5197 30.5622 22.4476C30.3882 22.3756 30.2303 22.2698 30.0976 22.1363L26.4079 18.4459C26.2749 18.3128 26.1693 18.1549 26.0973 17.981C26.0253 17.8072 25.9883 17.6209 25.9883 17.4327C25.9883 17.2446 26.0253 17.0583 26.0973 16.8845C26.1693 16.7106 26.2749 16.5527 26.4079 16.4196C26.541 16.2866 26.6989 16.1811 26.8727 16.1091C27.0466 16.0371 27.2329 16 27.421 16C27.6092 16 27.7955 16.0371 27.9693 16.1091C28.1431 16.1811 28.3011 16.2866 28.4341 16.4196L32.1238 20.1105C32.3241 20.3109 32.4605 20.5662 32.5157 20.8441C32.571 21.122 32.5426 21.41 32.4342 21.6718C32.3258 21.9336 32.1422 22.1573 31.9067 22.3148C31.6711 22.4722 31.3942 22.5563 31.1108 22.5564V22.556ZM27.4202 16.7692C27.289 16.7692 27.1607 16.8081 27.0516 16.881C26.9425 16.9539 26.8574 17.0576 26.8072 17.1788C26.757 17.3001 26.7439 17.4335 26.7695 17.5622C26.7952 17.6909 26.8584 17.8091 26.9512 17.9019L30.6416 21.5923C30.7022 21.658 30.7754 21.7108 30.8569 21.7475C30.9385 21.7842 31.0265 21.8041 31.1159 21.8059C31.2053 21.8077 31.2941 21.7915 31.3771 21.7581C31.46 21.7247 31.5354 21.6749 31.5986 21.6117C31.6618 21.5485 31.7116 21.4732 31.7449 21.3902C31.7783 21.3073 31.7946 21.2185 31.7928 21.1291C31.7909 21.0397 31.7711 20.9516 31.7344 20.8701C31.6976 20.7886 31.6448 20.7153 31.5791 20.6548L27.8894 16.9636C27.828 16.9018 27.7549 16.8527 27.6743 16.8193C27.5938 16.7859 27.5074 16.7689 27.4202 16.7692Z" fill="white"/>
<path d="M24.2882 29.3783C24.1 29.3786 23.9136 29.3418 23.7397 29.2699C23.5659 29.198 23.4079 29.0924 23.2749 28.9593L19.5845 25.2689C19.4488 25.1365 19.3407 24.9784 19.2665 24.8039C19.1923 24.6293 19.1535 24.4418 19.1524 24.2522C19.1512 24.0625 19.1877 23.8745 19.2597 23.6991C19.3318 23.5237 19.4379 23.3643 19.572 23.2302C19.7061 23.096 19.8655 22.9899 20.0409 22.9178C20.2163 22.8458 20.4043 22.8093 20.5939 22.8104C20.7836 22.8116 20.9711 22.8503 21.1457 22.9245C21.3202 22.9987 21.4783 23.1067 21.6107 23.2425L25.3026 26.9331C25.5708 27.2021 25.7214 27.5664 25.7214 27.9462C25.7214 28.326 25.5708 28.6903 25.3026 28.9593C25.1695 29.0926 25.0113 29.1983 24.8372 29.2702C24.6631 29.3421 24.4765 29.3788 24.2882 29.3783ZM20.5978 23.5925C20.4663 23.5922 20.3377 23.6309 20.2284 23.7039C20.119 23.7768 20.0338 23.8805 19.9835 24.002C19.9332 24.1234 19.9201 24.2571 19.946 24.386C19.9718 24.5149 20.0353 24.6332 20.1285 24.7259L23.8189 28.4153C23.9452 28.5298 24.1106 28.5914 24.281 28.5872C24.4514 28.583 24.6136 28.5135 24.7341 28.393C24.8546 28.2725 24.9241 28.1102 24.9283 27.9399C24.9325 27.7695 24.8709 27.6041 24.7564 27.4778L21.067 23.7865C21.0054 23.7248 20.9323 23.6759 20.8517 23.6427C20.7712 23.6094 20.6849 23.5923 20.5978 23.5925Z" fill="white"/>
<path d="M21.6479 24.209C21.5818 24.2089 21.5169 24.1918 21.4593 24.1594C21.4017 24.1269 21.3535 24.0801 21.3193 24.0236C21.2851 23.9671 21.266 23.9027 21.2639 23.8366C21.2618 23.7706 21.2767 23.7051 21.3073 23.6465C21.9323 22.447 22.7128 21.3756 23.6265 20.4619C24.5402 19.5482 25.6116 18.7679 26.8111 18.1424C26.9016 18.0952 27.0071 18.086 27.1044 18.1166C27.2017 18.1472 27.2829 18.2153 27.33 18.3057C27.3772 18.3962 27.3864 18.5017 27.3558 18.599C27.3252 18.6963 27.2571 18.7775 27.1667 18.8246C24.9085 20.0025 23.1667 21.7438 21.9893 24.002C21.9567 24.0645 21.9077 24.1168 21.8475 24.1533C21.7873 24.1898 21.7183 24.209 21.6479 24.209Z" fill="white"/>
<path d="M24.7288 27.2713C24.6427 27.2714 24.559 27.2426 24.4912 27.1895C24.4234 27.1364 24.3754 27.0621 24.3548 26.9784C24.3343 26.8948 24.3424 26.8066 24.378 26.7282C24.4135 26.6497 24.4743 26.5854 24.5507 26.5456C26.8089 25.3677 28.5507 23.6264 29.7281 21.3682C29.7514 21.3234 29.7834 21.2836 29.8221 21.2512C29.8608 21.2187 29.9055 21.1942 29.9537 21.1791C30.0019 21.1639 30.0526 21.1584 30.1029 21.1628C30.1532 21.1672 30.2022 21.1815 30.247 21.2049C30.2918 21.2282 30.3315 21.2601 30.364 21.2989C30.3964 21.3376 30.4209 21.3823 30.4361 21.4305C30.4513 21.4786 30.4568 21.5293 30.4524 21.5797C30.4479 21.63 30.4337 21.6789 30.4103 21.7237C29.7848 22.923 29.0048 23.9947 28.0913 24.9084C27.1778 25.8221 26.1057 26.6024 24.9062 27.2276C24.8515 27.2563 24.7906 27.2713 24.7288 27.2713Z" fill="white"/>
<path d="M33.0446 31.443C32.8447 31.4433 32.6467 31.4042 32.462 31.3278C32.2773 31.2514 32.1094 31.1392 31.9682 30.9978L26.6727 25.7011C26.633 25.6664 26.6009 25.624 26.5782 25.5764C26.5556 25.5288 26.543 25.477 26.5412 25.4243C26.5395 25.3717 26.5485 25.3192 26.5679 25.2701C26.5872 25.2211 26.6164 25.1766 26.6537 25.1393C26.691 25.102 26.7356 25.0728 26.7846 25.0535C26.8336 25.0342 26.8861 25.0251 26.9388 25.0269C26.9915 25.0287 27.0432 25.0414 27.0908 25.064C27.1384 25.0866 27.1809 25.1188 27.2155 25.1586L32.5122 30.454C32.6535 30.5949 32.8449 30.6741 33.0444 30.6741C33.2439 30.6741 33.4353 30.5949 33.5766 30.454L33.6192 30.4115C33.7601 30.2702 33.8393 30.0787 33.8393 29.8791C33.8393 29.6795 33.7601 29.4881 33.6192 29.3468L28.3239 24.0528C28.2536 23.9803 28.2145 23.883 28.2153 23.782C28.2161 23.681 28.2565 23.5843 28.328 23.5129C28.3995 23.4414 28.4962 23.401 28.5972 23.4003C28.6982 23.3996 28.7955 23.4386 28.8679 23.509L34.1631 28.803C34.4485 29.0886 34.6088 29.4757 34.6088 29.8794C34.6088 30.283 34.4485 30.6702 34.1631 30.9557L34.1206 30.998C33.9794 31.1394 33.8117 31.2515 33.627 31.3278C33.4424 31.4042 33.2444 31.4433 33.0446 31.443Z" fill="white"/>
</svg>
