<svg width="120" height="120" viewBox="0 0 120 120" fill="none" xmlns="http://www.w3.org/2000/svg">
<path d="M13.4258 95.1834C13.4258 96.1826 13.8663 96.9992 14.4357 97.0314H14.5969L21.398 97.5257C23.708 97.5901 26.147 97.6976 28.5107 97.5257C35.8032 97.0526 42.911 95.0302 49.3603 91.5934C55.8095 88.1567 61.452 83.3845 65.9114 77.5951C68.9108 73.7297 71.3588 69.4665 73.1853 64.9276C74.9531 60.389 76.0813 55.6267 76.5375 50.7774C76.752 48.3735 76.8274 45.9592 76.7631 43.5466L76.4086 36.7455C76.1507 32.856 75.8821 28.9559 75.6242 25.0557C79.4652 28.5473 83.5356 31.7778 87.8082 34.7255C88.0124 34.8437 88.7215 34.3817 89.4413 33.6511C90.1612 32.9205 90.6125 32.2221 90.5158 32.018V31.9643C86.3597 25.8797 81.6362 20.2028 76.4086 15.0098C75.6613 14.2645 74.649 13.8459 73.5936 13.8459C72.5382 13.8459 71.5258 14.2645 70.7786 15.0098C65.5834 20.2381 60.8958 25.9474 56.7788 32.061C56.6392 32.2436 57.0904 32.9527 57.7995 33.6619C58.5087 34.371 59.207 34.8222 59.3897 34.6826C63.6585 31.7539 67.7255 28.5413 71.5629 25.0665C71.2979 29.0132 71.0257 32.9563 70.7464 36.8959L70.381 43.697C70.2532 45.8172 70.0165 47.9294 69.6719 50.0254C68.9374 54.1966 67.7074 58.2653 66.0081 62.1449C64.2836 65.9644 62.1202 69.5701 59.5616 72.8891C54.3573 79.5386 47.6077 84.8165 39.8996 88.2641C35.9983 90.0018 31.9049 91.2713 27.7049 92.0461C23.5469 92.7445 19.002 92.9916 14.4357 93.3354C13.8663 93.3677 13.4258 94.1842 13.4258 95.1834Z" fill="#373D3F"/>
<path d="M22.0197 67.7858C22.7181 68.4949 23.395 68.9676 23.5454 68.8602C27.2903 66.583 30.809 63.9531 34.0533 61.0061C37.3013 63.9736 40.8274 66.6218 44.5826 68.9139C44.7546 68.9999 45.4314 68.5056 46.1513 67.8395C46.8712 67.1733 47.3547 66.4427 47.2257 66.2708C44.9627 62.5073 42.3473 58.9673 39.4147 55.6985C42.3753 52.4512 45.0196 48.9291 47.3117 45.1799C47.3976 45.008 46.9034 44.3203 46.2373 43.6112C45.5711 42.9021 44.8405 42.4078 44.6686 42.5368C40.9302 44.8219 37.4188 47.459 34.1822 50.4123C30.9248 47.4594 27.3917 44.8258 23.6314 42.5475C23.4809 42.4401 22.8041 42.9236 22.1057 43.6219C21.4073 44.3203 20.9131 45.008 21.0313 45.1476C23.2932 48.9052 25.9087 52.4382 28.8423 55.6985C25.8823 58.9553 23.2415 62.4884 20.956 66.2493C20.8271 66.4427 21.3213 67.0766 22.0197 67.7858Z" fill="#373D3F"/>
<path d="M106.575 90.274C106.567 88.177 106.142 86.1025 105.325 84.1713C104.507 82.2401 103.314 80.4906 101.815 79.0247C100.343 77.5783 98.5978 76.4391 96.6812 75.6736C94.7647 74.9081 92.715 74.5315 90.6515 74.5659C88.6569 74.5966 86.6884 75.0237 84.8604 75.8224C83.0325 76.6211 81.3816 77.7754 80.004 79.2181C78.7006 80.5911 77.685 82.211 77.017 83.9824C76.3491 85.7537 76.0422 87.6409 76.1146 89.5326C76.1146 90.0054 76.9311 90.3599 77.9304 90.3492C78.9296 90.3384 79.7569 90.0698 79.8106 89.7475V89.6508C80.2543 87.1903 81.6034 84.9851 83.592 83.4697C85.5807 81.9544 88.0648 81.2387 90.5549 81.4637C92.7682 81.6781 94.8216 82.7117 96.3122 84.3618C97.8029 86.0119 98.6233 88.1593 98.6125 90.383C98.6018 92.6067 97.7606 94.7461 96.254 96.3817C94.7475 98.0172 92.6842 99.0309 90.4689 99.2239C87.9816 99.4234 85.5097 98.6851 83.5393 97.1541C81.5689 95.6231 80.2426 93.4103 79.8213 90.9509C79.7354 90.6178 78.8866 90.3599 77.8874 90.3492C76.8882 90.3384 76.0609 90.693 76.0179 91.1657V91.2839C75.9717 93.1864 76.3062 95.0788 77.0018 96.8501C77.6974 98.6214 78.7401 100.236 80.0685 101.598C81.4656 103.035 83.1357 104.178 84.9808 104.961C86.8259 105.743 88.8087 106.149 90.8127 106.154C92.8717 106.162 94.9117 105.761 96.8149 104.975C98.7181 104.19 100.447 103.035 101.901 101.577C103.39 100.096 104.57 98.3349 105.372 96.3945C106.174 94.4541 106.583 92.3737 106.575 90.274Z" fill="#373D3F"/>
</svg>
