<svg width="52" height="52" viewBox="0 0 52 52" fill="none" xmlns="http://www.w3.org/2000/svg">
<rect width="51.9996" height="52" rx="25.9998" fill="#442873"/>
<path fill-rule="evenodd" clip-rule="evenodd" d="M31.9606 22.8212C31.0813 22.3655 30.0153 22.4844 29.2584 23.1224C28.5015 23.7596 28.2037 24.79 28.5023 25.7335C28.9095 27.0122 30.2697 27.7249 31.5528 27.3316C31.5667 27.3256 31.5823 27.3204 31.5971 27.3178C32.8636 26.9011 33.5641 25.5487 33.1735 24.2744C33.1674 24.2605 33.1622 24.2449 33.1587 24.2301C32.9599 23.6208 32.5285 23.1147 31.9591 22.8213L31.9606 22.8212ZM29.9337 22.1554C30.6863 21.9167 31.5032 21.9861 32.2046 22.349C32.9051 22.7127 33.4338 23.3394 33.6725 24.092C34.1699 25.6563 33.3053 27.3281 31.742 27.8281L31.7298 27.8324L31.7289 27.8315C30.1664 28.3237 28.4998 27.4609 28.0007 25.9001L27.9964 25.8871C27.5024 24.322 28.3695 22.6518 29.9337 22.1554ZM33.504 29.6719L31.3538 30.3559L31.4796 30.7509L33.6298 30.0668L33.504 29.6719ZM34.7757 34.6832C34.8477 34.915 34.7201 35.1615 34.4892 35.2371L33.8217 35.4489C33.5899 35.5209 33.3425 35.3933 33.267 35.1624L31.9918 31.1433L33.4996 30.6641L34.7757 34.6823V34.6832ZM31.3034 29.0834V29.0826C31.8321 29.0209 32.3442 28.8586 32.8113 28.6043L33.0222 29.2683L31.5144 29.7475L31.3034 29.0834ZM19.8198 28.0392L18.7556 28.0383V30.9125H19.8198L19.8207 28.0392L19.8198 28.0392ZM18.4891 27.5062H20.0855V27.5053C20.233 27.5053 20.3528 27.6242 20.3528 27.7718V31.1789C20.3528 31.3265 20.233 31.4454 20.0855 31.4454H18.4891C18.3424 31.4454 18.2226 31.3265 18.2226 31.1789V27.7727C18.2226 27.6251 18.3424 27.5062 18.4891 27.5062ZM22.4276 26.6017L21.3633 26.6008V30.9115H22.4276V26.6008V26.6017ZM21.0968 26.0687L22.694 26.0678C22.8408 26.0678 22.9605 26.1867 22.9605 26.3343V31.179C22.9605 31.3266 22.8407 31.4455 22.694 31.4455H21.0968C20.9501 31.4455 20.8303 31.3266 20.8303 31.179V26.3361C20.8303 26.1885 20.9501 26.0696 21.0968 26.0696V26.0687ZM25.0353 25.7232L23.971 25.7215V30.9108H25.0353V25.7232ZM23.7045 25.1902H25.3009L25.3018 25.1885C25.4493 25.1885 25.5683 25.3074 25.5683 25.455V31.179C25.5683 31.3266 25.4493 31.4455 25.3018 31.4455H23.7054C23.5578 31.4455 23.4381 31.3266 23.4381 31.179V25.4576C23.4381 25.3101 23.5578 25.1911 23.7054 25.1911L23.7045 25.1902ZM26.7246 24.7379L26.5787 24.7362V30.9125H27.643V27.5947C26.9902 26.7908 26.6629 25.7726 26.7254 24.7387L26.7246 24.7379ZM25.1282 19.7448H27.307C27.182 18.5972 26.2766 17.691 25.1291 17.566V19.7448H25.1282ZM27.5873 20.2769H24.8624C24.7148 20.2769 24.5951 20.1571 24.5951 20.0104V17.2846C24.5951 17.1379 24.7148 17.0182 24.8624 17.0182C25.6558 17.0182 26.4162 17.3341 26.977 17.8949C27.5386 18.4556 27.8537 19.2169 27.8537 20.0103C27.8537 20.1579 27.7339 20.2768 27.5864 20.2768L27.5873 20.2769ZM25.6689 22.7778C25.0969 23.349 24.2835 23.6077 23.4866 23.4714C22.6906 23.3351 22.0092 22.8204 21.6602 22.0912C21.3112 21.362 21.3382 20.5096 21.7322 19.803C22.1255 19.0972 22.8373 18.6259 23.6411 18.5399V21.0157C23.6411 21.1633 23.7609 21.2822 23.9076 21.2822H26.3843C26.3244 21.8482 26.0717 22.3759 25.6689 22.7778ZM26.9311 21.0165H26.9302C26.9302 22.2388 26.1941 23.3412 25.0647 23.809C23.9354 24.276 22.6358 24.0182 21.7714 23.1536C20.907 22.289 20.6481 20.9895 21.116 19.8603C21.5839 18.7309 22.6863 17.9939 23.9085 17.9939C24.0552 17.9939 24.175 18.1137 24.175 18.2613V20.7491H26.6645C26.8112 20.7491 26.9311 20.869 26.9311 21.0165ZM29.3113 21.7457C30.4233 21.224 31.7235 21.3073 32.7602 21.9653C33.7958 22.6242 34.4234 23.7674 34.4225 24.9949C34.4217 26.2223 33.7932 27.3647 32.7559 28.0218C31.7194 28.6789 30.4181 28.7596 29.3079 28.2371C29.2966 28.231 29.2862 28.2266 29.2749 28.2223C29.2445 28.2075 29.215 28.1928 29.1863 28.178C28.7827 27.9688 28.4224 27.6858 28.1247 27.343C28.1169 27.3325 28.1082 27.3221 28.0987 27.3126C27.4459 26.5409 27.1481 25.5305 27.2783 24.5279C27.2809 24.5157 27.2827 24.5036 27.2835 24.4906C27.452 23.3091 28.1959 22.2883 29.2697 21.7657C29.2836 21.7605 29.2983 21.7535 29.3113 21.7457ZM19.313 16.9088L17.583 18.6388H19.313V16.9088ZM19.8451 16.5329H28.2036C28.5934 16.5338 28.9102 16.8489 28.912 17.2395V21.3533C27.8113 21.9358 27.0326 22.9844 26.7939 24.2067H26.313C26.1654 24.2067 26.0456 24.3264 26.0456 24.474V31.1789C26.0456 31.3265 26.1654 31.4454 26.313 31.4454H27.9094C28.0569 31.4454 28.1758 31.3265 28.1758 31.1789V28.1365C28.4024 28.3274 28.6489 28.4941 28.912 28.6321V32.6626H17.9137C17.5231 32.6617 17.2071 32.3458 17.2062 31.956V19.1713H19.5787C19.7254 19.1713 19.8452 19.0523 19.8452 18.9048L19.8451 16.5329ZM16.754 18.7152L19.3885 16.0799C19.3972 16.0712 19.4067 16.0634 19.4163 16.0564L19.4206 16.053L19.4223 16.0512L19.4258 16.0486L19.4388 16.0399L19.4475 16.0347H19.4492L19.4536 16.0321H19.4553L19.4605 16.0295H19.4597C19.4961 16.0104 19.5369 16.0009 19.5786 16H28.2035C28.8875 16.0009 29.4414 16.5556 29.4422 17.2387V21.119C29.4908 21.1016 29.5394 21.0851 29.5881 21.0695H29.5889C30.8389 20.6728 32.2036 20.8959 33.2625 21.6693C34.3215 22.4427 34.9483 23.6754 34.9509 24.9871C34.9535 26.2987 34.3302 27.5322 33.2738 28.31L33.529 29.1138C33.7252 29.086 33.9118 29.2041 33.9717 29.3925L34.1731 30.0262C34.2295 30.2024 34.1583 30.3951 34.0012 30.4923L35.2816 34.5228L35.2807 34.5236C35.4431 35.0341 35.1601 35.5801 34.6497 35.7424L33.983 35.9542C33.4708 36.1165 32.9248 35.8336 32.7625 35.3223L31.4856 31.3022C31.2807 31.3491 31.075 31.2302 31.0116 31.0297L30.8102 30.396C30.7503 30.2076 30.8345 30.0036 31.0108 29.9133L30.7556 29.1095C30.3076 29.1008 29.8641 29.0192 29.4422 28.8664V32.9289C29.4422 33.0756 29.3232 33.1954 29.1757 33.1954H17.9134C17.2294 33.1945 16.6747 32.6398 16.6738 31.9558H16.6747V18.9288C16.6747 18.921 16.6738 18.9132 16.6738 18.9054C16.6738 18.8334 16.7025 18.7657 16.7537 18.7153L16.754 18.7152Z" fill="white"/>
</svg>
