<svg width="52" height="52" viewBox="0 0 52 52" fill="none" xmlns="http://www.w3.org/2000/svg">
<rect width="52" height="52" rx="26" fill="#442873"/>
<path d="M15.9082 33.6231C15.9082 33.8396 16.0036 34.0165 16.127 34.0235H16.1619L17.6355 34.1306C18.136 34.1445 18.6645 34.1678 19.1766 34.1306C20.7566 34.0281 22.2967 33.5899 23.694 32.8453C25.0913 32.1006 26.3139 31.0667 27.2801 29.8123C27.93 28.9748 28.4604 28.0511 28.8561 27.0677C29.2391 26.0843 29.4836 25.0525 29.5824 24.0018C29.6289 23.4809 29.6452 22.9578 29.6313 22.4351L29.5545 20.9615C29.4986 20.1188 29.4404 19.2738 29.3845 18.4288C30.2167 19.1853 31.0987 19.8852 32.0244 20.5239C32.0686 20.5495 32.2223 20.4494 32.3782 20.2911C32.5342 20.1328 32.632 19.9815 32.611 19.9372V19.9256C31.7106 18.6073 30.6871 17.3773 29.5545 16.2521C29.3926 16.0907 29.1732 16 28.9446 16C28.7159 16 28.4965 16.0907 28.3346 16.2521C27.209 17.3849 26.1934 18.6219 25.3014 19.9466C25.2711 19.9861 25.3689 20.1398 25.5225 20.2934C25.6762 20.4471 25.8275 20.5448 25.867 20.5146C26.792 19.88 27.6731 19.184 28.5046 18.4311C28.4472 19.2862 28.3882 20.1405 28.3277 20.9941L28.2485 22.4677C28.2208 22.9271 28.1695 23.3847 28.0949 23.8388C27.9357 24.7426 27.6692 25.6242 27.301 26.4647C26.9274 27.2923 26.4587 28.0735 25.9043 28.7927C24.7767 30.2334 23.3143 31.3769 21.6442 32.1239C20.7989 32.5004 19.912 32.7755 19.002 32.9433C18.1011 33.0947 17.1164 33.1482 16.127 33.2227C16.0036 33.2297 15.9082 33.4066 15.9082 33.6231Z" fill="white"/>
<path d="M17.7701 27.6869C17.9214 27.8405 18.068 27.9429 18.1006 27.9197C18.912 27.4263 19.6744 26.8565 20.3773 26.218C21.0811 26.8609 21.8451 27.4347 22.6587 27.9313C22.6959 27.9499 22.8426 27.8428 22.9986 27.6985C23.1545 27.5542 23.2593 27.3959 23.2314 27.3586C22.741 26.5432 22.1744 25.7762 21.539 25.068C22.1804 24.3644 22.7534 23.6013 23.25 22.7889C23.2686 22.7517 23.1615 22.6027 23.0172 22.4491C22.8729 22.2954 22.7146 22.1883 22.6773 22.2163C21.8673 22.7114 21.1065 23.2828 20.4053 23.9226C19.6995 23.2828 18.934 22.7122 18.1192 22.2186C18.0867 22.1953 17.94 22.3001 17.7887 22.4514C17.6374 22.6027 17.5303 22.7517 17.5559 22.7819C18.046 23.5961 18.6127 24.3616 19.2483 25.068C18.607 25.7736 18.0348 26.5391 17.5396 27.354C17.5117 27.3959 17.6187 27.5332 17.7701 27.6869Z" fill="white"/>
<path d="M36.0903 32.5593C36.0885 32.105 35.9965 31.6555 35.8194 31.2371C35.6424 30.8187 35.3839 30.4396 35.059 30.122C34.7401 29.8086 34.362 29.5618 33.9467 29.3959C33.5315 29.2301 33.0874 29.1485 32.6403 29.1559C32.2081 29.1626 31.7816 29.2551 31.3855 29.4282C30.9895 29.6012 30.6318 29.8513 30.3333 30.1639C30.0509 30.4614 29.8309 30.8124 29.6861 31.1962C29.5414 31.58 29.4749 31.9888 29.4906 32.3987C29.4906 32.5011 29.6675 32.578 29.884 32.5756C30.1005 32.5733 30.2798 32.5151 30.2914 32.4453V32.4243C30.3876 31.8912 30.6799 31.4134 31.1107 31.0851C31.5416 30.7568 32.0798 30.6017 32.6193 30.6504C33.0989 30.6969 33.5438 30.9209 33.8668 31.2784C34.1897 31.6359 34.3675 32.1012 34.3652 32.583C34.3628 33.0648 34.1806 33.5283 33.8542 33.8827C33.5277 34.2371 33.0807 34.4567 32.6007 34.4985C32.0618 34.5417 31.5262 34.3817 31.0993 34.05C30.6724 33.7183 30.385 33.2389 30.2937 32.706C30.2751 32.6338 30.0912 32.578 29.8747 32.5756C29.6582 32.5733 29.479 32.6501 29.4697 32.7526V32.7782C29.4597 33.1904 29.5321 33.6004 29.6828 33.9842C29.8336 34.368 30.0595 34.7177 30.3473 35.013C30.65 35.3243 31.0119 35.572 31.4116 35.7415C31.8114 35.911 32.241 35.9989 32.6752 36C33.1213 36.0017 33.5633 35.9149 33.9757 35.7447C34.3881 35.5744 34.7626 35.3242 35.0776 35.0083C35.4002 34.6875 35.6559 34.3059 35.8297 33.8855C36.0036 33.465 36.0921 33.0143 36.0903 32.5593Z" fill="white"/>
</svg>
