<svg width="120" height="116" viewBox="0 0 120 116" fill="none" xmlns="http://www.w3.org/2000/svg">
<path fill-rule="evenodd" clip-rule="evenodd" d="M87.5096 41.3287C83.4511 39.2253 78.5312 39.7742 75.0378 42.7189C71.5442 45.6596 70.17 50.4153 71.5482 54.7703C73.4272 60.6717 79.7053 63.961 85.6272 62.1461C85.6913 62.118 85.7635 62.094 85.8316 62.082C91.6769 60.1589 94.9102 53.9169 93.1073 48.0358C93.0792 47.9717 93.0552 47.8995 93.0392 47.8314C92.1217 45.0189 90.1306 42.6832 87.5023 41.329L87.5096 41.3287ZM78.1546 38.2557C81.6281 37.154 85.3982 37.4745 88.6357 39.1491C91.8688 40.8278 94.3087 43.7205 95.4106 47.1941C97.7063 54.4137 93.7159 62.1296 86.5003 64.4373L86.4442 64.4573L86.4402 64.4533C79.2287 66.7249 71.5365 62.7425 69.2329 55.539L69.2129 55.4789C66.9332 48.2553 70.935 40.547 78.1546 38.2557ZM94.6326 72.9472L84.7087 76.1042L85.2896 77.9271L95.2135 74.77L94.6326 72.9472ZM100.502 96.0765C100.835 97.1462 100.246 98.284 99.1799 98.6326L96.099 99.6102C95.0292 99.9427 93.8875 99.3537 93.5389 98.288L87.6534 79.7382L94.6126 77.5267L100.502 96.0724V96.0765ZM84.4764 70.2312V70.2272C86.9163 69.9428 89.2801 69.1936 91.4356 68.0197L92.4091 71.0847L85.4499 73.2962L84.4764 70.2312ZM31.4751 65.4115L26.5632 65.4075V78.6732H31.4751L31.4791 65.4116L31.4751 65.4115ZM25.3332 62.9516H32.7011V62.9476C33.3822 62.9476 33.935 63.4965 33.935 64.1776V79.9028C33.935 80.5839 33.3821 81.1327 32.7011 81.1327H25.3332C24.6562 81.1327 24.1033 80.5838 24.1033 79.9028V64.1817C24.1033 63.5006 24.6562 62.9516 25.3332 62.9516ZM43.5108 58.7769L38.5988 58.7729V78.6684H43.5108V58.7729V58.7769ZM37.3689 56.317L44.7407 56.313C45.4178 56.313 45.9707 56.8619 45.9707 57.543V79.9031C45.9707 80.5842 45.4178 81.133 44.7407 81.133H37.3689C36.6918 81.133 36.1389 80.5841 36.1389 79.9031V57.5512C36.1389 56.8701 36.6918 56.3212 37.3689 56.3212V56.317ZM55.5464 54.7225L50.6345 54.7144V78.6653H55.5464V54.7225ZM49.4045 52.2626H56.7724L56.7764 52.2545C57.4575 52.2545 58.0063 52.8034 58.0063 53.4845V79.9031C58.0063 80.5842 57.4574 81.133 56.7764 81.133H49.4085C48.7274 81.133 48.1746 80.5841 48.1746 79.9031V53.4968C48.1746 52.8157 48.7275 52.2668 49.4085 52.2668L49.4045 52.2626ZM63.343 50.1752L62.67 50.1671V78.6729H67.5819V63.36C64.569 59.6501 63.0586 54.9505 63.3471 50.1784L63.343 50.1752ZM55.9752 27.1299H66.0314C65.4544 21.8334 61.2758 17.6507 55.9792 17.0738V27.1299H55.9752ZM67.325 29.5858H54.7486C54.0675 29.5858 53.5146 29.033 53.5146 28.3559V15.7753C53.5146 15.0982 54.0675 14.5454 54.7486 14.5454C58.4104 14.5454 61.9201 16.0037 64.5082 18.5918C67.1003 21.18 68.5547 24.6936 68.5547 28.3555C68.5547 29.0366 68.0018 29.5854 67.3207 29.5854L67.325 29.5858ZM58.4708 41.1285C55.8306 43.7647 52.0765 44.9586 48.3987 44.3296C44.7248 43.7006 41.5798 41.3248 39.9691 37.9594C38.3584 34.5941 38.4827 30.6597 40.3016 27.3983C42.1165 24.1411 45.4019 21.9656 49.1117 21.569V32.9957C49.1117 33.6768 49.6646 34.2257 50.3417 34.2257H61.7725C61.4961 36.8379 60.3299 39.2735 58.4708 41.1285ZM64.2962 32.9994H64.2922C64.2922 38.6404 60.8947 43.7287 55.6824 45.8876C50.4701 48.0431 44.4721 46.8532 40.4823 42.8628C36.4926 38.8724 35.298 32.8748 37.4575 27.6628C39.617 22.4504 44.7051 19.049 50.3458 19.049C51.0228 19.049 51.5757 19.6019 51.5757 20.2829V31.765H63.066C63.7431 31.765 64.2962 32.3183 64.2962 32.9994ZM75.2819 36.3647C80.4141 33.9568 86.4152 34.3414 91.1999 37.3784C95.9796 40.4192 98.8762 45.6957 98.8722 51.361C98.8682 57.026 95.9676 62.2985 91.1799 65.3313C86.3962 68.3641 80.3901 68.7368 75.266 66.3249C75.2139 66.2969 75.1658 66.2768 75.1137 66.2568C74.9735 66.1887 74.8373 66.1206 74.7051 66.0525C72.8421 65.0869 71.1794 63.7809 69.8052 62.1983C69.7692 62.1502 69.7291 62.1021 69.6851 62.0581C66.6722 58.4963 65.2981 53.8329 65.899 49.2057C65.911 49.1496 65.919 49.0935 65.923 49.0334C66.7003 43.5807 70.1338 38.8691 75.0897 36.457C75.1538 36.4329 75.2218 36.4008 75.2819 36.3647ZM29.136 14.0405L21.1512 22.0254H29.136V14.0405ZM31.5919 12.3058H70.1695C71.9684 12.3098 73.4308 13.7641 73.4388 15.567V34.5538C68.3587 37.2421 64.7649 42.0818 63.6632 47.723H61.4436C60.7625 47.723 60.2096 48.2759 60.2096 48.957V79.9028C60.2096 80.5839 60.7625 81.1327 61.4436 81.1327H68.8114C69.4925 81.1327 70.0413 80.5838 70.0413 79.9028V65.8607C71.087 66.7421 72.2248 67.5113 73.4388 68.1484V86.7505H22.6775C20.8747 86.7465 19.4163 85.2881 19.4123 83.4892V24.4828H30.3621C31.0392 24.4828 31.592 23.934 31.592 23.2529L31.5919 12.3058ZM17.3252 22.3779L29.4842 10.2148C29.5243 10.1747 29.5684 10.1387 29.6124 10.1066L29.6325 10.0906L29.6405 10.0826L29.6565 10.0705L29.7166 10.0305L29.7567 10.0064H29.7647L29.7847 9.99443H29.7927L29.8168 9.98241H29.8128C29.981 9.89427 30.1693 9.85019 30.3616 9.84619H70.169C73.326 9.8502 75.8821 12.4103 75.8862 15.5633V33.4721C76.1105 33.392 76.3349 33.3159 76.5592 33.2438H76.5632C82.3325 31.4128 88.631 32.4425 93.5182 36.0122C98.406 39.5819 101.299 45.271 101.311 51.3251C101.323 57.3787 98.4461 63.0718 93.5703 66.6616L94.7481 70.3715C95.6536 70.2433 96.515 70.7882 96.7914 71.6576L97.7209 74.5823C97.9813 75.3956 97.6528 76.2851 96.9276 76.7338L102.837 95.3359L102.833 95.3399C103.582 97.6957 102.276 100.216 99.9205 100.965L96.8435 101.943C94.4797 102.692 91.9597 101.386 91.2105 99.0258L85.317 80.4719C84.3715 80.6882 83.4219 80.1394 83.1295 79.2138L82.2 76.2891C81.9236 75.4197 82.3122 74.4782 83.1255 74.0615L81.9477 70.3515C79.8804 70.3115 77.8331 69.9349 75.8859 69.2297V87.9795C75.8859 88.6566 75.337 89.2095 74.6559 89.2095H22.6762C19.5192 89.2055 16.9591 86.6454 16.9551 83.4883H16.9591V23.364C16.9591 23.3279 16.9551 23.2918 16.9551 23.2558C16.9551 22.9232 17.0873 22.6107 17.3237 22.3784L17.3252 22.3779Z" fill="#373D3F"/>
</svg>
