<svg width="108" height="108" viewBox="0 0 108 108" fill="none" xmlns="http://www.w3.org/2000/svg">
<path fill-rule="evenodd" clip-rule="evenodd" d="M55.196 56.2928C56.4137 56.1861 57.618 56.0528 58.8091 55.9017C60.1156 55.7328 61.4311 55.5284 62.7599 55.2884V42.0857C62.7599 41.1258 63.1509 40.2548 63.782 39.6237C64.413 38.9926 65.2841 38.6016 66.244 38.6016H89.3797V33.762C89.3797 33.0865 89.0642 32.4644 88.5531 32.0066C87.9976 31.5089 87.211 31.1978 86.3356 31.1978H8.94315C8.06768 31.1978 7.28113 31.5089 6.7256 32.0066C6.21454 32.4643 5.89902 33.0865 5.89902 33.762V44.7655C5.89902 45.0232 5.96123 45.2543 6.08123 45.4499C6.2101 45.6632 6.41008 45.8498 6.67673 46.0098C6.74783 46.0409 6.81449 46.0809 6.88116 46.1253C12.1163 49.0896 17.6802 51.4271 23.4354 53.1381C28.8527 54.7469 34.4389 55.8 40.083 56.2933V54.0534C40.083 53.218 40.4252 52.4537 40.9762 51.9026C41.5273 51.3515 42.2872 51.0093 43.1271 51.0093H52.1618C53.0018 51.0093 53.7616 51.3515 54.3083 51.9026C54.8594 52.4536 55.2015 53.2179 55.2015 54.0534V56.2977L55.196 56.2928ZM59.209 58.9681C60.4089 58.8126 61.591 58.6304 62.7597 58.4304V83.5707H10.8398C9.87543 83.5707 9.01326 83.264 8.40893 82.7708C7.89342 82.3486 7.56901 81.7931 7.56901 81.1976V50.0185C12.3552 52.5382 17.3859 54.5648 22.5635 56.1025C28.2652 57.7957 34.1496 58.8933 40.0814 59.3999V60.9108C40.0814 62.4796 40.7213 63.9017 41.7524 64.9282C42.7834 65.9592 44.2055 66.5992 45.7698 66.5992H49.5073C51.076 66.5992 52.4981 65.9593 53.5246 64.9282C54.5556 63.8972 55.1956 62.4751 55.1956 60.9108V59.3999C56.52 59.2844 57.8575 59.1421 59.2085 58.9644L59.209 58.9681ZM72.6301 87.7876C71.7724 87.7876 71.0791 87.0944 71.0791 86.2367C71.0791 85.3789 71.7724 84.6857 72.6301 84.6857H79.6116C80.4693 84.6857 81.1626 85.3789 81.1626 86.2367C81.1626 87.0944 80.4694 87.7876 79.6116 87.7876H72.6301ZM85.4551 87.7876C84.5974 87.7876 83.9041 87.0944 83.9041 86.2367C83.9041 85.3789 84.5974 84.6857 85.4551 84.6857H95.3208C96.1785 84.6857 96.8718 85.3789 96.8718 86.2367C96.8718 87.0944 96.1786 87.7876 95.3208 87.7876H85.4551ZM72.6301 80.535C71.7724 80.535 71.0791 79.8417 71.0791 78.984C71.0791 78.1263 71.7724 77.433 72.6301 77.433H95.3255C96.1832 77.433 96.8765 78.1263 96.8765 78.984C96.8765 79.8417 96.1832 80.535 95.3255 80.535H72.6301ZM72.6301 73.2823C71.7724 73.2823 71.0791 72.589 71.0791 71.7313C71.0791 70.8736 71.7724 70.1803 72.6301 70.1803H84.3982C85.2559 70.1803 85.9492 70.8736 85.9492 71.7313C85.9492 72.589 85.2559 73.2823 84.3982 73.2823H72.6301ZM90.5177 73.2823C89.66 73.2823 88.9667 72.589 88.9667 71.7313C88.9667 70.8736 89.66 70.1803 90.5177 70.1803H95.3262C96.1839 70.1803 96.8772 70.8736 96.8772 71.7313C96.8772 72.589 96.1839 73.2823 95.3262 73.2823H90.5177ZM86.2381 51.9953V62.2388H81.714V51.9953H86.2381ZM80.1632 48.8933H86.2381V47.2001C86.2381 46.3424 86.9314 45.6492 87.7891 45.6492H95.415C96.2727 45.6492 96.966 46.3424 96.966 47.2001V63.7897C96.966 64.6474 96.2728 65.3407 95.415 65.3407H72.533C71.6753 65.3407 70.982 64.6474 70.982 63.7897V54.1372C70.982 53.2795 71.6753 52.5862 72.533 52.5862H78.608V50.4487C78.608 49.591 79.3013 48.8977 80.159 48.8977L80.1632 48.8933ZM78.6122 62.2382H74.0881V55.6878H78.6122V62.2382ZM89.3401 48.7511H93.8642V62.2382H89.3401V48.7511ZM59.2179 28.0956V23.1672C59.2179 23.1138 59.1779 23.0472 59.1157 22.9938C59.0046 22.8961 58.8446 22.8339 58.6624 22.8339H36.6155C36.4333 22.8339 36.2733 22.8961 36.1622 22.9938C36.1 23.0516 36.06 23.1138 36.06 23.1672V28.0956H59.2179ZM62.3199 23.1672C62.3199 22.1984 61.8755 21.3184 61.1734 20.6874C60.5157 20.0963 59.6224 19.7275 58.6625 19.7275H36.6156C35.6557 19.7275 34.7624 20.0963 34.1003 20.6874C33.3981 21.3184 32.9538 22.1983 32.9538 23.1672V28.0956H27.9364V23.1672C27.9364 21.1051 28.8874 19.2208 30.4206 17.8521C31.9982 16.4389 34.1892 15.5634 36.6156 15.5634H58.6625C61.089 15.5634 63.2799 16.4389 64.8575 17.8521C66.3907 19.2252 67.3417 21.1051 67.3417 23.1672V28.0956H62.3199V23.1672ZM24.8348 28.0956V23.1672C24.8348 20.1941 26.1857 17.4965 28.3634 15.5501C30.4921 13.6436 33.4162 12.4615 36.6204 12.4615H58.6673C61.8714 12.4615 64.7912 13.6437 66.9243 15.5501C69.0975 17.4965 70.4529 20.1941 70.4529 23.1672V28.0956H86.3405C87.9937 28.0956 89.5091 28.7088 90.6201 29.7043C91.7755 30.7354 92.491 32.1753 92.491 33.7617V38.6013H101.717C102.677 38.6013 103.548 38.9924 104.179 39.6234C104.81 40.2545 105.201 41.1255 105.201 42.0854V92.0543C105.201 93.0142 104.81 93.8853 104.179 94.5163C103.548 95.1474 102.677 95.5385 101.717 95.5385H66.2533C65.2934 95.5385 64.4223 95.1474 63.7913 94.5163C63.1602 93.8853 62.7691 93.0143 62.7691 92.0543V86.677L10.8401 86.6725C9.15133 86.6725 7.5959 86.0993 6.45823 85.1705C5.2317 84.1706 4.4673 82.7662 4.4673 81.2019V48.2276C4.05401 47.8899 3.71182 47.4988 3.44517 47.0633C3.02299 46.3745 2.80078 45.5968 2.80078 44.7658V33.7623C2.80078 32.1714 3.51627 30.7359 4.67168 29.7049C5.77825 28.7139 7.29368 28.0962 8.95127 28.0962H24.8389L24.8348 28.0956ZM52.0945 54.1153V60.9147C52.0945 61.6257 51.8012 62.2701 51.3346 62.7412C50.8635 63.2078 50.2191 63.5011 49.5081 63.5011H45.7706C45.0595 63.5011 44.4152 63.2078 43.944 62.7412C43.4774 62.2701 43.1841 61.6258 43.1841 60.9147V54.1153H52.0945ZM101.707 41.7033C101.809 41.7033 101.907 41.7477 101.974 41.8144C102.045 41.8855 102.085 41.9788 102.085 42.081V92.0499C102.085 92.1521 102.041 92.2498 101.974 92.3165C101.903 92.3876 101.81 92.4276 101.707 92.4276H66.2438C66.1415 92.4276 66.0438 92.3832 65.9771 92.3165C65.906 92.2454 65.866 92.1521 65.866 92.0499V42.081C65.866 41.9788 65.9104 41.881 65.9771 41.8144C66.0482 41.7433 66.1415 41.7033 66.2438 41.7033H101.707Z" fill="#373D3F"/>
</svg>
