<svg width="52" height="52" viewBox="0 0 52 52" fill="none" xmlns="http://www.w3.org/2000/svg">
<rect width="52" height="52" rx="26" fill="#442873"/>
<path fill-rule="evenodd" clip-rule="evenodd" d="M26.2875 26.552C26.5806 26.5263 26.8706 26.4942 27.1573 26.4578C27.4718 26.4172 27.7885 26.3679 28.1084 26.3102V23.1317C28.1084 22.9007 28.2026 22.691 28.3545 22.539C28.5064 22.3871 28.7161 22.293 28.9472 22.293H34.5169V21.1279C34.5169 20.9653 34.441 20.8155 34.3179 20.7053C34.1842 20.5855 33.9948 20.5106 33.7841 20.5106H15.1525C14.9418 20.5106 14.7524 20.5855 14.6187 20.7053C14.4957 20.8155 14.4197 20.9653 14.4197 21.1279V23.7769C14.4197 23.8389 14.4347 23.8946 14.4636 23.9416C14.4946 23.993 14.5427 24.0379 14.6069 24.0764C14.624 24.0839 14.6401 24.0935 14.6561 24.1042C15.9164 24.8179 17.2559 25.3806 18.6414 25.7925C19.9456 26.1798 21.2904 26.4333 22.6492 26.5521V26.0129C22.6492 25.8117 22.7316 25.6277 22.8642 25.4951C22.9969 25.3624 23.1798 25.28 23.382 25.28H25.557C25.7592 25.28 25.9422 25.3624 26.0738 25.4951C26.2064 25.6277 26.2888 25.8117 26.2888 26.0129V26.5532L26.2875 26.552ZM27.2536 27.196C27.5424 27.1586 27.827 27.1147 28.1084 27.0666V33.1189H15.6091C15.377 33.1189 15.1694 33.045 15.0239 32.9263C14.8998 32.8247 14.8217 32.6909 14.8217 32.5476V25.0415C15.974 25.6481 17.1851 26.136 18.4315 26.5061C19.8042 26.9138 21.2208 27.178 22.6488 27.3V27.6637C22.6488 28.0414 22.8029 28.3837 23.0511 28.6309C23.2993 28.8791 23.6416 29.0331 24.0182 29.0331H24.918C25.2956 29.0331 25.638 28.8791 25.8851 28.6309C26.1333 28.3826 26.2874 28.0403 26.2874 27.6637V27.3C26.6062 27.2722 26.9282 27.2379 27.2535 27.1951L27.2536 27.196ZM30.4846 34.1341C30.2781 34.1341 30.1112 33.9672 30.1112 33.7607C30.1112 33.5542 30.2781 33.3873 30.4846 33.3873H32.1653C32.3718 33.3873 32.5387 33.5542 32.5387 33.7607C32.5387 33.9672 32.3718 34.1341 32.1653 34.1341H30.4846ZM33.5721 34.1341C33.3656 34.1341 33.1987 33.9672 33.1987 33.7607C33.1987 33.5542 33.3656 33.3873 33.5721 33.3873H35.9472C36.1537 33.3873 36.3206 33.5542 36.3206 33.7607C36.3206 33.9672 36.1537 34.1341 35.9472 34.1341H33.5721ZM30.4846 32.388C30.2781 32.388 30.1112 32.2211 30.1112 32.0147C30.1112 31.8082 30.2781 31.6413 30.4846 31.6413H35.9483C36.1548 31.6413 36.3217 31.8082 36.3217 32.0147C36.3217 32.2211 36.1548 32.388 35.9483 32.388H30.4846ZM30.4846 30.642C30.2781 30.642 30.1112 30.4751 30.1112 30.2687C30.1112 30.0622 30.2781 29.8953 30.4846 29.8953H33.3176C33.5241 29.8953 33.691 30.0622 33.691 30.2687C33.691 30.4751 33.5241 30.642 33.3176 30.642H30.4846ZM34.7909 30.642C34.5844 30.642 34.4175 30.4751 34.4175 30.2687C34.4175 30.0622 34.5844 29.8953 34.7909 29.8953H35.9485C36.1549 29.8953 36.3218 30.0622 36.3218 30.2687C36.3218 30.4751 36.155 30.642 35.9485 30.642H34.7909ZM33.7606 25.5174V27.9834H32.6715V25.5174H33.7606ZM32.2981 24.7706H33.7606V24.363C33.7606 24.1565 33.9275 23.9896 34.134 23.9896H35.9699C36.1763 23.9896 36.3432 24.1565 36.3432 24.363V28.3568C36.3432 28.5633 36.1763 28.7302 35.9699 28.7302H30.4612C30.2547 28.7302 30.0878 28.5633 30.0878 28.3568V26.033C30.0878 25.8265 30.2547 25.6596 30.4612 25.6596H31.9237V25.145C31.9237 24.9386 32.0906 24.7717 32.2971 24.7717L32.2981 24.7706ZM31.9247 27.9833H30.8356V26.4063H31.9247V27.9833ZM34.5074 24.7364H35.5965V27.9833H34.5074V24.7364ZM27.2557 19.7637V18.5773C27.2557 18.5644 27.2461 18.5484 27.2311 18.5356C27.2044 18.512 27.1659 18.497 27.122 18.497H21.8144C21.7705 18.497 21.732 18.512 21.7053 18.5356C21.6903 18.5495 21.6807 18.5644 21.6807 18.5773V19.7637H27.2557ZM28.0025 18.5773C28.0025 18.344 27.8955 18.1322 27.7265 17.9803C27.5682 17.838 27.3531 17.7492 27.122 17.7492H21.8144C21.5833 17.7492 21.3683 17.838 21.2089 17.9803C21.0399 18.1322 20.9329 18.344 20.9329 18.5773V19.7637H19.725V18.5773C19.725 18.0809 19.9539 17.6272 20.323 17.2977C20.7028 16.9575 21.2303 16.7467 21.8144 16.7467H27.122C27.7062 16.7467 28.2336 16.9575 28.6134 17.2977C28.9825 17.6283 29.2115 18.0809 29.2115 18.5773V19.7637H28.0025V18.5773ZM18.9783 19.7637V18.5773C18.9783 17.8615 19.3035 17.2121 19.8278 16.7435C20.3402 16.2846 21.0442 16 21.8156 16H27.1232C27.8945 16 28.5974 16.2846 29.111 16.7435C29.6341 17.2121 29.9605 17.8615 29.9605 18.5773V19.7637H33.7852C34.1832 19.7637 34.5481 19.9114 34.8155 20.151C35.0937 20.3992 35.2659 20.7459 35.2659 21.1278V22.2929H37.487C37.718 22.2929 37.9277 22.387 38.0797 22.539C38.2316 22.6909 38.3257 22.9006 38.3257 23.1317V35.1612C38.3257 35.3923 38.2316 35.602 38.0797 35.7539C37.9277 35.9059 37.7181 36 37.487 36H28.9494C28.7183 36 28.5086 35.9059 28.3567 35.7539C28.2048 35.602 28.1107 35.3923 28.1107 35.1612V33.8667L15.6092 33.8656C15.2027 33.8656 14.8282 33.7276 14.5543 33.504C14.2591 33.2633 14.075 32.9252 14.075 32.5486V24.6104C13.9755 24.529 13.8932 24.4349 13.829 24.3301C13.7273 24.1642 13.6738 23.977 13.6738 23.7769V21.128C13.6738 20.745 13.8461 20.3994 14.1242 20.1512C14.3906 19.9126 14.7555 19.7639 15.1545 19.7639H18.9793L18.9783 19.7637ZM25.5408 26.0277V27.6646C25.5408 27.8358 25.4702 27.9909 25.3579 28.1044C25.2445 28.2167 25.0894 28.2873 24.9182 28.2873H24.0184C23.8472 28.2873 23.6921 28.2167 23.5787 28.1044C23.4664 27.991 23.3957 27.8358 23.3957 27.6646V26.0277H25.5408ZM37.4847 23.0397C37.5093 23.0397 37.5328 23.0504 37.5488 23.0664C37.566 23.0835 37.5756 23.106 37.5756 23.1306V35.1601C37.5756 35.1848 37.5649 35.2083 37.5488 35.2243C37.5317 35.2415 37.5093 35.2511 37.4847 35.2511H28.9471C28.9225 35.2511 28.899 35.2404 28.8829 35.2243C28.8658 35.2072 28.8562 35.1848 28.8562 35.1601V23.1306C28.8562 23.106 28.8669 23.0825 28.8829 23.0664C28.9001 23.0493 28.9225 23.0397 28.9471 23.0397H37.4847Z" fill="white"/>
</svg>
