<svg width="120" height="120" viewBox="0 0 120 120" fill="none" xmlns="http://www.w3.org/2000/svg">
<path d="M107.914 39.2091H104.891C104.566 39.2091 104.274 38.9924 104.198 38.689C103.635 36.5764 102.789 34.5179 101.674 32.5677C101.511 32.286 101.565 31.9285 101.793 31.701L103.96 29.5341C104.501 28.9924 104.805 28.2665 104.805 27.4864C104.805 26.7064 104.501 25.9913 103.96 25.4388L99.225 20.715C98.1307 19.6099 96.2131 19.6099 95.1296 20.715L92.9736 22.871C92.7461 23.0986 92.3777 23.1527 92.0961 22.9902C90.2001 21.9068 88.1632 21.0509 86.0181 20.4658C85.7255 20.39 85.5197 20.0975 85.5197 19.7725V16.7497C85.5197 15.1462 84.2196 13.8461 82.6161 13.8461H75.9205C74.3279 13.8461 73.0278 15.1462 73.0278 16.7497V19.74C73.0278 20.065 72.8111 20.3575 72.4969 20.4333C70.3626 21.0076 68.3149 21.8526 66.4081 22.9469C66.1372 23.1094 65.7797 23.0552 65.5413 22.8169L63.3962 20.6717C62.2802 19.5449 60.4384 19.5449 59.29 20.6717L54.5554 25.4171C54.0137 25.9588 53.7104 26.6847 53.7104 27.4648C53.7104 28.2448 54.0137 28.9599 54.5554 29.5124L54.8696 29.8266L48.5099 27.0314C48.2282 26.9122 47.914 26.9122 47.6324 27.0314L9.8317 43.6728C9.44166 43.8461 9.18164 44.2362 9.18164 44.6695V88.4182C9.18164 88.8515 9.43083 89.2416 9.8317 89.4149L47.6432 106.067C47.784 106.132 47.9357 106.154 48.0766 106.154C48.2174 106.154 48.3691 106.121 48.5099 106.067L86.3214 89.4149C86.7114 89.2416 86.9715 88.8515 86.9715 88.4182V70.13C88.7916 69.5666 90.5359 68.8082 92.1611 67.8548C92.4319 67.6923 92.7895 67.7465 93.0278 67.974L95.1513 70.0975C95.7039 70.65 96.4298 70.9534 97.2098 70.9534H97.2207C97.9899 70.9534 98.7158 70.65 99.2575 70.0975L103.992 65.3629C104.545 64.8212 104.848 64.0845 104.848 63.3153C104.848 62.5352 104.545 61.8093 103.992 61.2784L101.836 59.1116C101.609 58.884 101.554 58.5265 101.706 58.2448C102.8 56.3272 103.645 54.3012 104.198 52.221C104.285 51.9068 104.566 51.701 104.902 51.701H107.925C109.518 51.701 110.818 50.4008 110.818 48.7974V42.1018C110.807 40.5092 109.507 39.2091 107.914 39.2091ZM48.0766 29.1982L57.5132 33.3586C57.524 33.3586 57.524 33.3694 57.5348 33.3694L70.0592 38.8841C70.0592 38.8841 70.0592 38.8841 70.0701 38.8841L84.0896 45.0596L48.2499 60.8559L12.2369 44.9837L48.0766 29.1982ZM86.3214 43.6728L72.3019 37.4973C74.2087 35.8396 76.6464 34.9079 79.2033 34.9079C85.0213 34.9079 89.745 39.6424 89.745 45.4496C89.745 48.104 88.7266 50.6284 86.9715 52.5569V44.6695C86.9715 44.2362 86.7223 43.8461 86.3214 43.6728ZM11.3485 46.9556L46.9931 62.6652V103.402L11.3485 87.714V46.9556ZM49.16 103.413V62.8169L84.8046 47.1072V87.714L49.16 103.413ZM108.64 48.7974C108.64 49.2091 108.315 49.5341 107.914 49.5341H104.891C103.591 49.5341 102.443 50.4008 102.096 51.6576C101.587 53.5644 100.828 55.4171 99.8209 57.1722C99.1817 58.299 99.3767 59.7183 100.298 60.6392L102.464 62.8169C102.605 62.9577 102.681 63.1311 102.681 63.3261C102.681 63.5211 102.605 63.6945 102.464 63.8353L97.719 68.5807C97.5782 68.7215 97.4048 68.7974 97.2098 68.7974C97.0148 68.7974 96.8306 68.7215 96.6898 68.5807L94.5663 66.4572C93.6345 65.5254 92.1936 65.3413 91.0776 65.9913C89.7884 66.7497 88.4124 67.3781 86.9823 67.8656V55.4821C90.0701 53.0877 91.9227 49.3933 91.9227 45.4496C91.9227 38.4398 86.2239 32.741 79.2141 32.741C75.8014 32.741 72.5511 34.1278 70.1676 36.5547L59.0083 31.6359C58.9 31.0617 58.6399 30.5092 58.2174 30.0867L56.1047 27.974C55.9639 27.8331 55.888 27.6598 55.888 27.4648C55.888 27.2697 55.9639 27.0856 56.1047 26.9556L60.8285 22.221C61.121 21.9393 61.5868 21.9285 61.8685 22.221L64.0137 24.3662C64.9346 25.2871 66.3647 25.4821 67.4915 24.8429C69.2358 23.8461 71.0993 23.0661 73.0495 22.546C74.3171 22.221 75.1946 21.0726 75.1946 19.7508V16.7605C75.1946 16.3488 75.5088 16.0238 75.9205 16.0238H82.6161C83.0278 16.0238 83.3528 16.3597 83.3528 16.7605V19.7833C83.3528 21.0942 84.2196 22.2427 85.4655 22.5677C87.4265 23.0986 89.3008 23.8786 91.0235 24.8754C92.1502 25.5363 93.5804 25.3413 94.5121 24.4095L96.6681 22.2535C96.939 21.9826 97.4048 21.9718 97.6865 22.2643L102.432 26.9989C102.573 27.1397 102.649 27.3131 102.649 27.5081C102.649 27.7031 102.573 27.8873 102.432 28.0173L100.265 30.1842C99.3442 31.1051 99.16 32.5244 99.7992 33.6511C100.818 35.4279 101.598 37.3131 102.107 39.2633C102.454 40.5092 103.602 41.3759 104.891 41.3759H107.914C108.315 41.3759 108.64 41.701 108.64 42.1018V48.7974Z" fill="#373D3F"/>
<path d="M79.8415 85.0377L72.7993 88.1471C72.2576 88.3855 72.0084 89.0247 72.2467 89.5772C72.4309 89.9781 72.8209 90.2273 73.2435 90.2273C73.3843 90.2273 73.536 90.1948 73.6768 90.1406L80.7191 87.0312C81.2608 86.7928 81.51 86.1536 81.2716 85.6011C81.0225 85.0485 80.3941 84.7993 79.8415 85.0377Z" fill="#373D3F"/>
<path d="M23.3871 88.1473L16.3448 85.0379C15.7923 84.7995 15.153 85.0487 14.9147 85.5904C14.6763 86.143 14.9255 86.7822 15.4672 87.0205L22.5095 90.13C22.6503 90.195 22.802 90.2166 22.9429 90.2166C23.3546 90.2166 23.7554 89.9783 23.9396 89.5666C24.1888 89.0249 23.9396 88.3856 23.3871 88.1473Z" fill="#373D3F"/>
</svg>
