<svg width="52" height="52" viewBox="0 0 52 52" fill="none" xmlns="http://www.w3.org/2000/svg">
<rect width="52" height="52" rx="26" fill="#442873"/>
<path d="M36.3823 21.4953H35.7273C35.6569 21.4953 35.5935 21.4484 35.5771 21.3826C35.455 20.9249 35.2719 20.4789 35.0301 20.0563C34.9949 19.9953 35.0067 19.9178 35.056 19.8685L35.5254 19.3991C35.6428 19.2817 35.7085 19.1244 35.7085 18.9554C35.7085 18.7864 35.6428 18.6315 35.5254 18.5117L34.4996 17.4883C34.2625 17.2488 33.847 17.2488 33.6123 17.4883L33.1452 17.9554C33.0959 18.0047 33.0161 18.0164 32.955 17.9812C32.5442 17.7465 32.1029 17.561 31.6381 17.4343C31.5747 17.4178 31.5301 17.3545 31.5301 17.284V16.6291C31.5301 16.2817 31.2485 16 30.901 16H29.4503C29.1053 16 28.8236 16.2817 28.8236 16.6291V17.277C28.8236 17.3474 28.7766 17.4108 28.7085 17.4272C28.2461 17.5516 27.8024 17.7347 27.3893 17.9718C27.3306 18.007 27.2531 17.9953 27.2015 17.9437L26.7367 17.4789C26.4949 17.2347 26.0959 17.2347 25.847 17.4789L24.8212 18.507C24.7039 18.6244 24.6381 18.7817 24.6381 18.9507C24.6381 19.1197 24.7039 19.2746 24.8212 19.3944L24.8893 19.4624L23.5114 18.8568C23.4503 18.831 23.3823 18.831 23.3212 18.8568L15.1311 22.4624C15.0466 22.5 14.9902 22.5845 14.9902 22.6784V32.1573C14.9902 32.2512 15.0442 32.3357 15.1311 32.3732L23.3236 35.9812C23.3541 35.9953 23.3869 36 23.4175 36C23.448 36 23.4808 35.993 23.5114 35.9812L31.7039 32.3732C31.7884 32.3357 31.8447 32.2512 31.8447 32.1573V28.1948C32.2391 28.0728 32.617 27.9085 32.9691 27.7019C33.0278 27.6667 33.1053 27.6784 33.1569 27.7277L33.617 28.1878C33.7367 28.3075 33.894 28.3732 34.063 28.3732H34.0654C34.232 28.3732 34.3893 28.3075 34.5067 28.1878L35.5325 27.162C35.6522 27.0446 35.7179 26.885 35.7179 26.7183C35.7179 26.5493 35.6522 26.392 35.5325 26.277L35.0654 25.8075C35.0161 25.7582 35.0043 25.6808 35.0372 25.6197C35.2743 25.2042 35.4574 24.7653 35.5771 24.3146C35.5959 24.2465 35.6569 24.2019 35.7297 24.2019H36.3846C36.7297 24.2019 37.0114 23.9202 37.0114 23.5728V22.1221C37.009 21.777 36.7273 21.4953 36.3823 21.4953ZM23.4175 19.3263L25.4621 20.2277C25.4644 20.2277 25.4644 20.23 25.4668 20.23L28.1804 21.4249C28.1804 21.4249 28.1804 21.4249 28.1827 21.4249L31.2203 22.7629L23.455 26.1854L15.6522 22.7465L23.4175 19.3263ZM31.7039 22.4624L28.6663 21.1244C29.0794 20.7653 29.6076 20.5634 30.1616 20.5634C31.4222 20.5634 32.4456 21.5892 32.4456 22.8474C32.4456 23.4225 32.225 23.9695 31.8447 24.3873V22.6784C31.8447 22.5845 31.7907 22.5 31.7039 22.4624ZM15.4597 23.1737L23.1827 26.5775V35.4038L15.4597 32.0047V23.1737ZM23.6522 35.4061V26.6103L31.3752 23.2066V32.0047L23.6522 35.4061ZM36.5395 23.5728C36.5395 23.662 36.4691 23.7324 36.3823 23.7324H35.7273C35.4456 23.7324 35.1968 23.9202 35.1217 24.1925C35.0114 24.6056 34.847 25.007 34.6287 25.3873C34.4902 25.6315 34.5325 25.939 34.732 26.1385L35.2015 26.6103C35.232 26.6408 35.2485 26.6784 35.2485 26.7207C35.2485 26.7629 35.232 26.8005 35.2015 26.831L34.1733 27.8592C34.1428 27.8897 34.1053 27.9061 34.063 27.9061C34.0208 27.9061 33.9808 27.8897 33.9503 27.8592L33.4902 27.3991C33.2884 27.1972 32.9762 27.1573 32.7344 27.2981C32.455 27.4624 32.1569 27.5986 31.847 27.7042V25.0211C32.5161 24.5023 32.9175 23.7019 32.9175 22.8474C32.9175 21.3286 31.6827 20.0939 30.1639 20.0939C29.4245 20.0939 28.7203 20.3944 28.2039 20.9202L25.786 19.8545C25.7625 19.73 25.7062 19.6103 25.6146 19.5188L25.1569 19.061C25.1264 19.0305 25.11 18.993 25.11 18.9507C25.11 18.9085 25.1264 18.8685 25.1569 18.8404L26.1804 17.8146C26.2438 17.7535 26.3447 17.7512 26.4057 17.8146L26.8705 18.2793C27.07 18.4789 27.3799 18.5211 27.624 18.3826C28.002 18.1667 28.4057 17.9977 28.8283 17.885C29.1029 17.8146 29.2931 17.5657 29.2931 17.2793V16.6315C29.2931 16.5423 29.3611 16.4718 29.4503 16.4718H30.901C30.9902 16.4718 31.0607 16.5446 31.0607 16.6315V17.2864C31.0607 17.5704 31.2485 17.8192 31.5184 17.8897C31.9433 18.0047 32.3494 18.1737 32.7226 18.3897C32.9668 18.5329 33.2766 18.4906 33.4785 18.2887L33.9456 17.8216C34.0043 17.7629 34.1053 17.7606 34.1663 17.8239L35.1945 18.8498C35.225 18.8803 35.2414 18.9178 35.2414 18.9601C35.2414 19.0023 35.225 19.0423 35.1945 19.0704L34.725 19.5399C34.5254 19.7394 34.4855 20.0469 34.624 20.2911C34.8447 20.6761 35.0137 21.0845 35.124 21.507C35.1992 21.777 35.448 21.9648 35.7273 21.9648H36.3823C36.4691 21.9648 36.5395 22.0352 36.5395 22.1221V23.5728Z" fill="white"/>
<path d="M30.2999 31.4248L28.7741 32.0985C28.6567 32.1502 28.6027 32.2887 28.6544 32.4084C28.6943 32.4953 28.7788 32.5493 28.8703 32.5493C28.9008 32.5493 28.9337 32.5422 28.9642 32.5305L30.49 31.8568C30.6074 31.8051 30.6614 31.6666 30.6098 31.5469C30.5558 31.4272 30.4196 31.3732 30.2999 31.4248Z" fill="white"/>
<path d="M18.0682 32.0986L16.5424 31.4249C16.4226 31.3732 16.2841 31.4272 16.2325 31.5446C16.1809 31.6643 16.2348 31.8028 16.3522 31.8545L17.878 32.5282C17.9086 32.5422 17.9414 32.5469 17.9719 32.5469C18.0611 32.5469 18.148 32.4953 18.1879 32.4061C18.2419 32.2887 18.1879 32.1502 18.0682 32.0986Z" fill="white"/>
</svg>
