<svg width="120" height="120" viewBox="0 0 120 120" fill="none" xmlns="http://www.w3.org/2000/svg">
<path d="M84.7266 15.8523H35.8275L36.7785 24.9656C36.8342 25.5139 36.4339 26.0066 35.8856 26.0623L25.1332 26.4045V95.6051C44.9977 95.6051 64.8621 95.6051 84.7266 95.6051C84.7266 69.0208 84.7266 42.4366 84.7266 15.8523ZM37.3079 90.3077C36.7548 90.3077 36.3048 89.8576 36.3048 89.3046C36.3048 88.7515 36.7548 88.3014 37.3079 88.3014H49.7124C50.2655 88.3014 50.7155 88.7515 50.7155 89.3046C50.7155 89.8576 50.2655 90.3077 49.7124 90.3077H37.3079ZM37.3079 85.8511C36.7548 85.8511 36.3048 85.4011 36.3048 84.848C36.3048 84.2949 36.7548 83.8449 37.3079 83.8449H49.7124C50.2655 83.8449 50.7155 84.2949 50.7155 84.848C50.7155 85.4011 50.2655 85.8511 49.7124 85.8511H37.3079ZM37.3079 81.3957C36.7548 81.3957 36.3048 80.9457 36.3048 80.3926C36.3048 79.8395 36.7548 79.3895 37.3079 79.3895H49.7124C50.2655 79.3895 50.7155 79.8395 50.7155 80.3926C50.7155 80.9457 50.2655 81.3957 49.7124 81.3957H37.3079ZM31.2596 90.31C30.7066 90.31 30.2565 89.86 30.2565 89.3069C30.2565 88.7538 30.7066 88.3038 31.2596 88.3038H32.7057C33.2587 88.3038 33.7088 88.7538 33.7088 89.3069C33.7088 89.86 33.2587 90.31 32.7057 90.31H31.2596ZM31.2596 85.8535C30.7066 85.8535 30.2565 85.4034 30.2565 84.8503C30.2565 84.2973 30.7066 83.8472 31.2596 83.8472H32.7057C33.2587 83.8472 33.7088 84.2973 33.7088 84.8503C33.7088 85.4034 33.2587 85.8535 32.7057 85.8535H31.2596ZM31.2596 81.3981C30.7066 81.3981 30.2565 80.948 30.2565 80.395C30.2565 79.8419 30.7066 79.3919 31.2596 79.3919H32.7057C33.2587 79.3919 33.7088 79.8419 33.7088 80.395C33.7088 80.948 33.2587 81.3981 32.7057 81.3981H31.2596ZM37.3079 76.9391C36.7548 76.9391 36.3048 76.4891 36.3048 75.936C36.3048 75.383 36.7548 74.9329 37.3079 74.9329H49.7124C50.2655 74.9329 50.7155 75.383 50.7155 75.936C50.7155 76.4891 50.2655 76.9391 49.7124 76.9391H37.3079ZM31.2596 76.9415C30.7066 76.9415 30.2565 76.4915 30.2565 75.9384C30.2565 75.3853 30.7066 74.9353 31.2596 74.9353H32.7057C33.2587 74.9353 33.7088 75.3853 33.7088 75.9384C33.7088 76.4915 33.2587 76.9415 32.7057 76.9415H31.2596ZM55.5937 90.3195C55.0406 90.3195 54.5906 89.8695 54.5906 89.3164C54.5906 88.7633 55.0406 88.3133 55.5937 88.3133H57.7373V78.1578V77.1547H59.7435V88.3133H61.9156V79.3978V78.3947H63.9218V88.3133H66.0938V75.9384V74.9353H68.1V88.3133H70.2768L70.2744 80.8343V79.836H72.2712L72.2736 88.3133H74.4503V77.6355V76.6324H76.4566V88.3133H78.6002C79.1532 88.3133 79.6033 88.7633 79.6033 89.3164C79.6033 89.8695 79.1532 90.3195 78.6002 90.3195C70.9317 90.3195 63.2621 90.3195 55.5937 90.3195ZM31.2596 70.8352C30.7066 70.8352 30.2565 70.3852 30.2565 69.8321C30.2565 69.279 30.7066 68.829 31.2596 68.829H78.6002C79.1532 68.829 79.6033 69.279 79.6033 69.8321C79.6033 70.3852 79.1532 70.8352 78.6002 70.8352H31.2596ZM31.2596 66.1974C30.7066 66.1974 30.2565 65.7474 30.2565 65.1943C30.2565 64.6412 30.7066 64.1912 31.2596 64.1912H78.6002C79.1532 64.1912 79.6033 64.6412 79.6033 65.1943C79.6033 65.7474 79.1532 66.1974 78.6002 66.1974H31.2596ZM31.2596 61.5597C30.7066 61.5597 30.2565 61.1096 30.2565 60.5565C30.2565 60.0035 30.7066 59.5534 31.2596 59.5534H78.6002C79.1532 59.5534 79.6033 60.0035 79.6033 60.5565C79.6033 61.1096 79.1532 61.5597 78.6002 61.5597H31.2596ZM31.2596 56.9219C30.7066 56.9219 30.2565 56.4718 30.2565 55.9188C30.2565 55.3657 30.7066 54.9157 31.2596 54.9157H48.8242C49.3772 54.9157 49.8273 55.3657 49.8273 55.9188C49.8273 56.4718 49.3772 56.9219 48.8242 56.9219H31.2596ZM31.2596 49.3968C30.7066 49.3968 30.2565 48.9467 30.2565 48.3937C30.2565 47.8406 30.7066 47.3905 31.2596 47.3905H55.8732C56.4263 47.3905 56.8763 47.8406 56.8763 48.3937C56.8763 48.9467 56.4263 49.3968 55.8732 49.3968H31.2596ZM31.2596 45.633C30.7066 45.633 30.2565 45.183 30.2565 44.6299C30.2565 44.0768 30.7066 43.6268 31.2596 43.6268H55.8732C56.4263 43.6268 56.8763 44.0768 56.8763 44.6299C56.8763 45.183 56.4263 45.633 55.8732 45.633H31.2596ZM31.2596 41.8693C30.7066 41.8693 30.2565 41.4192 30.2565 40.8662C30.2565 40.3131 30.7066 39.8631 31.2596 39.8631H51.6274C52.1805 39.8631 52.6306 40.3131 52.6306 40.8662C52.6306 41.4192 52.1805 41.8693 51.6274 41.8693H31.2596ZM31.2596 38.1055C30.7066 38.1055 30.2565 37.6555 30.2565 37.1024C30.2565 36.5493 30.7066 36.0993 31.2596 36.0993H44.3167C44.8697 36.0993 45.3198 36.5493 45.3198 37.1024C45.3198 37.6555 44.8697 38.1055 44.3167 38.1055H31.2596ZM52.3736 37.1C52.3736 32.6932 54.1619 28.6985 57.0492 25.8112C59.9366 22.9238 63.9313 21.1355 68.3381 21.1355C68.8912 21.1355 69.3412 21.5856 69.3412 22.1386V25.8799C72.0521 26.1191 74.487 27.3176 76.3038 29.1344C78.342 31.1726 79.6033 33.9889 79.6033 37.1C79.6033 40.2112 78.342 43.0275 76.3038 45.0657C74.2656 47.1039 71.4493 48.3652 68.3381 48.3652C65.2269 48.3652 62.4106 47.1039 60.3724 45.0657C58.5557 43.249 57.3571 40.8141 57.1179 38.1032H53.3767C52.8236 38.1032 52.3736 37.6531 52.3736 37.1ZM69.3412 27.8944V37.1C69.3412 37.6531 68.8912 38.1032 68.3381 38.1032H59.1324C59.3657 40.2586 60.3392 42.195 61.7912 43.6469C63.4658 45.3215 65.7823 46.359 68.3381 46.359C70.8938 46.359 73.2104 45.3215 74.885 43.6469C76.5596 41.9723 77.597 39.6558 77.597 37.1C77.597 34.5443 76.5596 32.2278 74.885 30.5532C73.433 29.1012 71.4967 28.1277 69.3412 27.8944ZM58.468 27.23C56.1645 29.5335 54.6616 32.6423 54.4153 36.0969C58.7215 36.0969 63.0288 36.0969 67.335 36.0969C67.335 31.7908 67.335 27.4834 67.335 23.1773C63.8803 23.4236 60.7715 24.9265 58.468 27.23ZM33.9409 17.0449L26.6278 24.358L34.6776 24.1034L33.9409 17.0449ZM86.7328 22.3885H95.8722C96.4252 22.3885 96.8753 22.8386 96.8753 23.3916V105.151C96.8753 105.704 96.4252 106.154 95.8722 106.154H34.2725C33.7194 106.154 33.2694 105.704 33.2694 105.151V97.6113H24.1301C23.577 97.6113 23.127 97.1613 23.127 96.6082V25.4369C23.1281 25.1799 23.2253 24.9229 23.4207 24.7275L34.0084 14.1398C34.1908 13.9586 34.4419 13.8461 34.7178 13.8461H85.7297C86.2828 13.8461 86.7328 14.2961 86.7328 14.8492V22.3885ZM35.2756 97.6113V104.148H94.8691V24.3947H86.7328V96.6082C86.7328 97.1613 86.2828 97.6113 85.7297 97.6113H35.2756Z" fill="#373D3F"/>
</svg>
