<svg width="52" height="52" viewBox="0 0 52 52" fill="none" xmlns="http://www.w3.org/2000/svg">
<rect width="52" height="52" rx="26" fill="#442873"/>
<path d="M31.3564 16.4347H20.7616L20.9676 18.4092C20.9797 18.528 20.8929 18.6348 20.7741 18.6468L18.4444 18.721V33.7145C22.7484 33.7145 27.0524 33.7145 31.3564 33.7145C31.3564 27.9545 31.3564 22.1946 31.3564 16.4347ZM21.0823 32.5667C20.9625 32.5667 20.865 32.4692 20.865 32.3493C20.865 32.2295 20.9625 32.132 21.0823 32.132H23.7699C23.8898 32.132 23.9873 32.2295 23.9873 32.3493C23.9873 32.4692 23.8898 32.5667 23.7699 32.5667H21.0823ZM21.0823 31.6011C20.9625 31.6011 20.865 31.5036 20.865 31.3837C20.865 31.2639 20.9625 31.1664 21.0823 31.1664H23.7699C23.8898 31.1664 23.9873 31.2639 23.9873 31.3837C23.9873 31.5036 23.8898 31.6011 23.7699 31.6011H21.0823ZM21.0823 30.6358C20.9625 30.6358 20.865 30.5382 20.865 30.4184C20.865 30.2986 20.9625 30.2011 21.0823 30.2011H23.7699C23.8898 30.2011 23.9873 30.2986 23.9873 30.4184C23.9873 30.5382 23.8898 30.6358 23.7699 30.6358H21.0823ZM19.7718 32.5672C19.652 32.5672 19.5545 32.4697 19.5545 32.3498C19.5545 32.23 19.652 32.1325 19.7718 32.1325H20.0852C20.205 32.1325 20.3025 32.23 20.3025 32.3498C20.3025 32.4697 20.205 32.5672 20.0852 32.5672H19.7718ZM19.7718 31.6016C19.652 31.6016 19.5545 31.5041 19.5545 31.3843C19.5545 31.2644 19.652 31.1669 19.7718 31.1669H20.0852C20.205 31.1669 20.3025 31.2644 20.3025 31.3843C20.3025 31.5041 20.205 31.6016 20.0852 31.6016H19.7718ZM19.7718 30.6363C19.652 30.6363 19.5545 30.5388 19.5545 30.4189C19.5545 30.2991 19.652 30.2016 19.7718 30.2016H20.0852C20.205 30.2016 20.3025 30.2991 20.3025 30.4189C20.3025 30.5388 20.205 30.6363 20.0852 30.6363H19.7718ZM21.0823 29.6702C20.9625 29.6702 20.865 29.5727 20.865 29.4528C20.865 29.333 20.9625 29.2355 21.0823 29.2355H23.7699C23.8898 29.2355 23.9873 29.333 23.9873 29.4528C23.9873 29.5727 23.8898 29.6702 23.7699 29.6702H21.0823ZM19.7718 29.6707C19.652 29.6707 19.5545 29.5732 19.5545 29.4533C19.5545 29.3335 19.652 29.236 19.7718 29.236H20.0852C20.205 29.236 20.3025 29.3335 20.3025 29.4533C20.3025 29.5732 20.205 29.6707 20.0852 29.6707H19.7718ZM25.0442 32.5692C24.9244 32.5692 24.8269 32.4717 24.8269 32.3519C24.8269 32.2321 24.9244 32.1346 25.0442 32.1346H25.5087V29.9342V29.7169H25.9434V32.1346H26.414V30.2029V29.9855H26.8486V32.1346H27.3193V29.4533V29.236H27.7539V32.1346H28.2256L28.2251 30.5141V30.2978H28.6577L28.6582 32.1346H29.1298V29.821V29.6037H29.5645V32.1346H30.029C30.1488 32.1346 30.2463 32.2321 30.2463 32.3519C30.2463 32.4717 30.1488 32.5692 30.029 32.5692C28.3675 32.5692 26.7057 32.5692 25.0442 32.5692ZM19.7718 28.3476C19.652 28.3476 19.5545 28.2501 19.5545 28.1303C19.5545 28.0105 19.652 27.913 19.7718 27.913H30.029C30.1488 27.913 30.2463 28.0105 30.2463 28.1303C30.2463 28.2501 30.1488 28.3476 30.029 28.3476H19.7718ZM19.7718 27.3428C19.652 27.3428 19.5545 27.2453 19.5545 27.1255C19.5545 27.0056 19.652 26.9081 19.7718 26.9081H30.029C30.1488 26.9081 30.2463 27.0056 30.2463 27.1255C30.2463 27.2453 30.1488 27.3428 30.029 27.3428H19.7718ZM19.7718 26.3379C19.652 26.3379 19.5545 26.2404 19.5545 26.1206C19.5545 26.0008 19.652 25.9033 19.7718 25.9033H30.029C30.1488 25.9033 30.2463 26.0008 30.2463 26.1206C30.2463 26.2404 30.1488 26.3379 30.029 26.3379H19.7718ZM19.7718 25.3331C19.652 25.3331 19.5545 25.2356 19.5545 25.1158C19.5545 24.9959 19.652 24.8984 19.7718 24.8984H23.5775C23.6973 24.8984 23.7948 24.9959 23.7948 25.1158C23.7948 25.2356 23.6973 25.3331 23.5775 25.3331H19.7718ZM19.7718 23.7027C19.652 23.7027 19.5545 23.6051 19.5545 23.4853C19.5545 23.3655 19.652 23.268 19.7718 23.268H25.1048C25.2246 23.268 25.3221 23.3655 25.3221 23.4853C25.3221 23.6051 25.2246 23.7027 25.1048 23.7027H19.7718ZM19.7718 22.8872C19.652 22.8872 19.5545 22.7897 19.5545 22.6698C19.5545 22.55 19.652 22.4525 19.7718 22.4525H25.1048C25.2246 22.4525 25.3221 22.55 25.3221 22.6698C25.3221 22.7897 25.2246 22.8872 25.1048 22.8872H19.7718ZM19.7718 22.0717C19.652 22.0717 19.5545 21.9742 19.5545 21.8544C19.5545 21.7345 19.652 21.637 19.7718 21.637H24.1849C24.3047 21.637 24.4022 21.7345 24.4022 21.8544C24.4022 21.9742 24.3047 22.0717 24.1849 22.0717H19.7718ZM19.7718 21.2562C19.652 21.2562 19.5545 21.1587 19.5545 21.0389C19.5545 20.919 19.652 20.8215 19.7718 20.8215H22.6009C22.7207 20.8215 22.8182 20.919 22.8182 21.0389C22.8182 21.1587 22.7207 21.2562 22.6009 21.2562H19.7718ZM24.3465 21.0384C24.3465 20.0835 24.734 19.218 25.3596 18.5924C25.9852 17.9668 26.8507 17.5794 27.8055 17.5794C27.9253 17.5794 28.0229 17.6769 28.0229 17.7967V18.6073C28.6102 18.6592 29.1378 18.9188 29.5314 19.3125C29.973 19.7541 30.2463 20.3643 30.2463 21.0384C30.2463 21.7125 29.973 22.3227 29.5314 22.7643C29.0898 23.2059 28.4796 23.4792 27.8055 23.4792C27.1314 23.4792 26.5212 23.2059 26.0796 22.7643C25.686 22.3706 25.4263 21.8431 25.3745 21.2557H24.5639C24.444 21.2557 24.3465 21.1582 24.3465 21.0384ZM28.0229 19.0438V21.0384C28.0229 21.1582 27.9253 21.2557 27.8055 21.2557H25.811C25.8615 21.7227 26.0724 22.1423 26.387 22.4569C26.7499 22.8197 27.2518 23.0445 27.8055 23.0445C28.3593 23.0445 28.8612 22.8197 29.224 22.4569C29.5868 22.094 29.8116 21.5921 29.8116 21.0384C29.8116 20.4846 29.5868 19.9827 29.224 19.6199C28.9094 19.3053 28.4899 19.0944 28.0229 19.0438ZM25.667 18.8998C25.1679 19.3989 24.8423 20.0725 24.7889 20.821C25.7219 20.821 26.6552 20.821 27.5882 20.821C27.5882 19.888 27.5882 18.9548 27.5882 18.0218C26.8397 18.0751 26.1661 18.4008 25.667 18.8998ZM20.3528 16.6931L18.7683 18.2776L20.5124 18.2224L20.3528 16.6931ZM31.791 17.8509H33.7712C33.8911 17.8509 33.9886 17.9484 33.9886 18.0682V35.7827C33.9886 35.9025 33.8911 36 33.7712 36H20.4246C20.3048 36 20.2073 35.9025 20.2073 35.7827V34.1491H18.2271C18.1073 34.1491 18.0098 34.0516 18.0098 33.9318V18.5114C18.01 18.4557 18.0311 18.4 18.0734 18.3577L20.3674 16.0636C20.4069 16.0244 20.4613 16 20.5211 16H31.5737C31.6935 16 31.791 16.0975 31.791 16.2173V17.8509ZM20.642 34.1491V35.5653H33.5539V18.2855H31.791V33.9318C31.791 34.0516 31.6935 34.1491 31.5737 34.1491H20.642Z" fill="white"/>
</svg>
