<svg width="120" height="120" viewBox="0 0 120 120" fill="none" xmlns="http://www.w3.org/2000/svg">
<path d="M100.816 88.5753C98.2571 88.5753 96.12 90.3813 95.5982 92.7893H70.7454V80.3679H75.2504C78.0698 80.3679 80.3574 78.0803 80.3574 75.2609V70.7559H87.1501V75.8127C84.742 76.3345 82.936 78.4716 82.936 81.0301C82.936 83.9699 85.334 86.3679 88.2738 86.3679C91.2136 86.3679 93.6116 83.9699 93.6116 81.0301C93.6116 78.4716 91.8056 76.3345 89.3976 75.8127V69.6321C89.3976 69.01 88.8959 68.5084 88.2738 68.5084H80.3674V61.1438H95.5982C96.12 63.5518 98.2571 65.3579 100.816 65.3579C103.755 65.3579 106.153 62.9599 106.153 60.0201C106.153 57.0803 103.755 54.6823 100.816 54.6823C98.2571 54.6823 96.12 56.4883 95.5982 58.8963H80.3674V51.5318H93.9126C94.5347 51.5318 95.0363 51.0301 95.0363 50.408V24.4013C97.4444 23.8796 99.2504 21.7425 99.2504 19.184C99.2504 16.2442 96.8524 13.8462 93.9126 13.8462C90.9728 13.8462 88.5748 16.2442 88.5748 19.184C88.5748 21.7425 90.3808 23.8796 92.7888 24.4013V49.2542H80.3674V44.7492C80.3674 41.9298 78.0698 39.6421 75.2604 39.6421H70.7554V32.8495H75.8123C76.334 35.2575 78.4711 37.0636 81.0297 37.0636C83.9695 37.0636 86.3674 34.6656 86.3674 31.7258C86.3674 28.786 83.9695 26.388 81.0297 26.388C78.4711 26.388 76.334 28.194 75.8123 30.602H69.6317C69.0096 30.602 68.5079 31.1037 68.5079 31.7258V39.6421H61.1434V24.4013C63.5514 23.8796 65.3574 21.7425 65.3574 19.184C65.3373 16.2442 62.9394 13.8462 59.9995 13.8462C57.0598 13.8462 54.6618 16.2442 54.6618 19.184C54.6618 21.7425 56.4678 23.8796 58.8758 24.4013V39.6321H51.5113V26.087C51.5113 25.4649 51.0096 24.9632 50.3875 24.9632H24.4009C23.8791 22.5552 21.742 20.7492 19.1835 20.7492C16.2437 20.7492 13.8457 23.1472 13.8457 26.087C13.8457 29.0268 16.2437 31.4248 19.1835 31.4248C21.742 31.4248 23.8791 29.6187 24.4009 27.2107H49.2537V39.6321H44.7487C41.9293 39.6321 39.6417 41.9197 39.6417 44.7391V49.2442H32.849V44.1873C35.2571 43.6656 37.0631 41.5284 37.0631 38.9699C37.0631 36.0301 34.6651 33.6321 31.7253 33.6321C28.7855 33.6321 26.3875 36.0301 26.3875 38.9699C26.3875 41.5284 28.1935 43.6656 30.6016 44.1873V50.3679C30.6016 50.99 31.1032 51.4916 31.7253 51.4916H39.6417V58.8562H24.4009C23.8791 56.4482 21.742 54.6422 19.1835 54.6422C16.2437 54.6622 13.8457 57.0602 13.8457 60C13.8457 62.9398 16.2437 65.3378 19.1835 65.3378C21.742 65.3378 23.8791 63.5318 24.4009 61.1238H39.6317V68.4883H26.0865C25.4644 68.4883 24.9628 68.99 24.9628 69.6121V95.5886C22.5547 96.1104 20.7487 98.2475 20.7487 100.806C20.7487 103.746 23.1467 106.144 26.0865 106.144C29.0263 106.144 31.4243 103.746 31.4243 100.806C31.4243 98.2475 29.6183 96.1104 27.2103 95.5886V70.7458H39.6317V75.2508C39.6317 78.0702 41.9293 80.3579 44.7387 80.3579H49.2437V87.1505H44.1868C43.6651 84.7425 41.528 82.9365 38.9695 82.9365C36.0297 82.9365 33.6317 85.3345 33.6317 88.2743C33.6317 91.2141 36.0297 93.6121 38.9695 93.6121C41.528 93.6121 43.6651 91.806 44.1868 89.398H50.3674C50.9895 89.398 51.4912 88.8963 51.4912 88.2743V80.3679H58.8557V95.5987C56.4477 96.1204 54.6417 98.2575 54.6417 100.816C54.6417 103.756 57.0397 106.154 59.9795 106.154C62.9193 106.154 65.3173 103.756 65.3173 100.816C65.3173 98.2575 63.5113 96.1204 61.1032 95.5987V80.3679H68.4678V93.9131C68.4678 94.5351 68.9695 95.0368 69.5915 95.0368H95.5681C96.0899 97.4448 98.227 99.2508 100.786 99.2508C103.725 99.2508 106.123 96.8529 106.123 93.9131C106.123 90.9733 103.755 88.5753 100.816 88.5753ZM91.3741 81.0201C91.3741 82.7258 89.9895 84.1104 88.2838 84.1104C86.5781 84.1104 85.1935 82.7258 85.1935 81.0201C85.1935 79.3144 86.5781 77.9298 88.2838 77.9298C89.9895 77.9298 91.3741 79.3144 91.3741 81.0201ZM100.816 56.9097C102.521 56.9097 103.906 58.2943 103.906 60C103.906 61.7057 102.521 63.0903 100.816 63.0903C99.1099 63.0903 97.7253 61.7057 97.7253 60C97.7253 58.2943 99.1099 56.9097 100.816 56.9097ZM90.8223 19.184C90.8223 17.4783 92.2069 16.0937 93.9126 16.0937C95.6183 16.0937 97.0029 17.4783 97.0029 19.184C97.0029 20.8896 95.6183 22.2743 93.9126 22.2743C92.2069 22.2743 90.8223 20.8896 90.8223 19.184ZM81.0196 28.6254C82.7253 28.6254 84.1099 30.01 84.1099 31.7157C84.1099 33.4214 82.7253 34.806 81.0196 34.806C79.3139 34.806 77.9293 33.4214 77.9293 31.7157C77.9293 30.01 79.3139 28.6254 81.0196 28.6254ZM56.9092 19.184C56.9092 17.4783 58.2939 16.0937 59.9995 16.0937C61.7052 16.0937 63.0899 17.4783 63.0899 19.184C63.0899 20.8896 61.7052 22.2743 59.9995 22.2743C58.2939 22.2743 56.9092 20.8896 56.9092 19.184ZM19.1835 29.1773C17.4778 29.1773 16.0932 27.7927 16.0932 26.087C16.0932 24.3813 17.4778 22.9967 19.1835 22.9967C20.8892 22.9967 22.2738 24.3813 22.2738 26.087C22.2738 27.7927 20.8892 29.1773 19.1835 29.1773ZM28.625 38.9799C28.625 37.2743 30.0096 35.8896 31.7153 35.8896C33.421 35.8896 34.8056 37.2743 34.8056 38.9799C34.8056 40.6856 33.421 42.0702 31.7153 42.0702C30.0096 42.0702 28.625 40.6856 28.625 38.9799ZM19.1835 63.0903C17.4778 63.0903 16.0932 61.7057 16.0932 60C16.0932 58.2943 17.4778 56.9097 19.1835 56.9097C20.8892 56.9097 22.2738 58.2943 22.2738 60C22.2738 61.7057 20.8892 63.0903 19.1835 63.0903ZM29.1768 100.816C29.1768 102.522 27.7922 103.906 26.0865 103.906C24.3808 103.906 22.9962 102.522 22.9962 100.816C22.9962 99.1104 24.3808 97.7258 26.0865 97.7258C27.7922 97.7258 29.1768 99.1104 29.1768 100.816ZM38.9795 91.3746C37.2738 91.3746 35.8892 89.99 35.8892 88.2843C35.8892 86.5786 37.2738 85.194 38.9795 85.194C40.6852 85.194 42.0698 86.5786 42.0698 88.2843C42.0698 89.99 40.6852 91.3746 38.9795 91.3746ZM63.0899 100.816C63.0899 102.522 61.7052 103.906 59.9995 103.906C58.2939 103.906 56.9092 102.522 56.9092 100.816C56.9092 99.1104 58.2939 97.7258 59.9995 97.7258C61.7052 97.7258 63.0899 99.1104 63.0899 100.816ZM41.8892 75.2508V44.7492C41.8892 43.1739 43.1735 41.8896 44.7487 41.8896H75.2504C76.8256 41.8896 78.1099 43.1739 78.1099 44.7492V75.2508C78.1099 76.8261 76.8256 78.1104 75.2504 78.1104H44.7487C43.1634 78.1104 41.8892 76.8361 41.8892 75.2508ZM100.816 97.0034C99.1099 97.0034 97.7253 95.6187 97.7253 93.9131C97.7253 92.2074 99.1099 90.8228 100.816 90.8228C102.521 90.8228 103.906 92.2074 103.906 93.9131C103.896 95.6187 102.511 97.0034 100.816 97.0034ZM73.6149 45.2609H46.3842C45.7621 45.2609 45.2604 45.7626 45.2604 46.3846V73.6054C45.2604 74.2274 45.7621 74.7291 46.3842 74.7291H73.6049C74.227 74.7291 74.7286 74.2274 74.7286 73.6054V46.3846C74.7387 45.7626 74.237 45.2609 73.6149 45.2609ZM72.4812 72.4816H47.5179V47.5184H72.4912V72.4816H72.4812Z" fill="#373D3F"/>
</svg>
