<svg width="52" height="52" viewBox="0 0 52 52" fill="none" xmlns="http://www.w3.org/2000/svg">
<rect width="52" height="52" rx="26" fill="#442873"/>
<path d="M34.8435 32.1913C34.2891 32.1913 33.8261 32.5826 33.713 33.1043H28.3283V30.413H29.3043C29.9152 30.413 30.4109 29.9174 30.4109 29.3065V28.3304H31.8826V29.4261C31.3609 29.5391 30.9696 30.0022 30.9696 30.5565C30.9696 31.1935 31.4891 31.713 32.1261 31.713C32.763 31.713 33.2826 31.1935 33.2826 30.5565C33.2826 30.0022 32.8913 29.5391 32.3696 29.4261V28.087C32.3696 27.9522 32.2609 27.8435 32.1261 27.8435H30.413V26.2478H33.713C33.8261 26.7696 34.2891 27.1609 34.8435 27.1609C35.4804 27.1609 36 26.6413 36 26.0043C36 25.3674 35.4804 24.8478 34.8435 24.8478C34.2891 24.8478 33.8261 25.2391 33.713 25.7609H30.413V24.1652H33.3478C33.4826 24.1652 33.5913 24.0565 33.5913 23.9217V18.287C34.113 18.1739 34.5043 17.7109 34.5043 17.1565C34.5043 16.5196 33.9848 16 33.3478 16C32.7109 16 32.1913 16.5196 32.1913 17.1565C32.1913 17.7109 32.5826 18.1739 33.1043 18.287V23.6717H30.413V22.6957C30.413 22.0848 29.9152 21.5891 29.3065 21.5891H28.3304V20.1174H29.4261C29.5391 20.6391 30.0022 21.0304 30.5565 21.0304C31.1935 21.0304 31.713 20.5109 31.713 19.8739C31.713 19.237 31.1935 18.7174 30.5565 18.7174C30.0022 18.7174 29.5391 19.1087 29.4261 19.6304H28.087C27.9522 19.6304 27.8435 19.7391 27.8435 19.8739V21.5891H26.2478V18.287C26.7696 18.1739 27.1609 17.7109 27.1609 17.1565C27.1565 16.5196 26.637 16 26 16C25.363 16 24.8435 16.5196 24.8435 17.1565C24.8435 17.7109 25.2348 18.1739 25.7565 18.287V21.587H24.1609V18.6522C24.1609 18.5174 24.0522 18.4087 23.9174 18.4087H18.287C18.1739 17.887 17.7109 17.4957 17.1565 17.4957C16.5196 17.4957 16 18.0152 16 18.6522C16 19.2891 16.5196 19.8087 17.1565 19.8087C17.7109 19.8087 18.1739 19.4174 18.287 18.8957H23.6717V21.587H22.6957C22.0848 21.587 21.5891 22.0826 21.5891 22.6935V23.6696H20.1174V22.5739C20.6391 22.4609 21.0304 21.9978 21.0304 21.4435C21.0304 20.8065 20.5109 20.287 19.8739 20.287C19.237 20.287 18.7174 20.8065 18.7174 21.4435C18.7174 21.9978 19.1087 22.4609 19.6304 22.5739V23.913C19.6304 24.0478 19.7391 24.1565 19.8739 24.1565H21.5891V25.7522H18.287C18.1739 25.2304 17.7109 24.8391 17.1565 24.8391C16.5196 24.8435 16 25.363 16 26C16 26.637 16.5196 27.1565 17.1565 27.1565C17.7109 27.1565 18.1739 26.7652 18.287 26.2435H21.587V27.8391H18.6522C18.5174 27.8391 18.4087 27.9478 18.4087 28.0826V33.7109C17.887 33.8239 17.4957 34.287 17.4957 34.8413C17.4957 35.4783 18.0152 35.9978 18.6522 35.9978C19.2891 35.9978 19.8087 35.4783 19.8087 34.8413C19.8087 34.287 19.4174 33.8239 18.8957 33.7109V28.3283H21.587V29.3043C21.587 29.9152 22.0848 30.4109 22.6935 30.4109H23.6696V31.8826H22.5739C22.4609 31.3609 21.9978 30.9696 21.4435 30.9696C20.8065 30.9696 20.287 31.4891 20.287 32.1261C20.287 32.763 20.8065 33.2826 21.4435 33.2826C21.9978 33.2826 22.4609 32.8913 22.5739 32.3696H23.913C24.0478 32.3696 24.1565 32.2609 24.1565 32.1261V30.413H25.7522V33.713C25.2304 33.8261 24.8391 34.2891 24.8391 34.8435C24.8391 35.4804 25.3587 36 25.9957 36C26.6326 36 27.1522 35.4804 27.1522 34.8435C27.1522 34.2891 26.7609 33.8261 26.2391 33.713V30.413H27.8348V33.3478C27.8348 33.4826 27.9435 33.5913 28.0783 33.5913H33.7065C33.8196 34.113 34.2826 34.5043 34.837 34.5043C35.4739 34.5043 35.9935 33.9848 35.9935 33.3478C35.9935 32.7109 35.4804 32.1913 34.8435 32.1913ZM32.7978 30.5543C32.7978 30.9239 32.4978 31.2239 32.1283 31.2239C31.7587 31.2239 31.4587 30.9239 31.4587 30.5543C31.4587 30.1848 31.7587 29.8848 32.1283 29.8848C32.4978 29.8848 32.7978 30.1848 32.7978 30.5543ZM34.8435 25.3304C35.213 25.3304 35.513 25.6304 35.513 26C35.513 26.3696 35.213 26.6696 34.8435 26.6696C34.4739 26.6696 34.1739 26.3696 34.1739 26C34.1739 25.6304 34.4739 25.3304 34.8435 25.3304ZM32.6783 17.1565C32.6783 16.787 32.9783 16.487 33.3478 16.487C33.7174 16.487 34.0174 16.787 34.0174 17.1565C34.0174 17.5261 33.7174 17.8261 33.3478 17.8261C32.9783 17.8261 32.6783 17.5261 32.6783 17.1565ZM30.5543 19.2022C30.9239 19.2022 31.2239 19.5022 31.2239 19.8717C31.2239 20.2413 30.9239 20.5413 30.5543 20.5413C30.1848 20.5413 29.8848 20.2413 29.8848 19.8717C29.8848 19.5022 30.1848 19.2022 30.5543 19.2022ZM25.3304 17.1565C25.3304 16.787 25.6304 16.487 26 16.487C26.3696 16.487 26.6696 16.787 26.6696 17.1565C26.6696 17.5261 26.3696 17.8261 26 17.8261C25.6304 17.8261 25.3304 17.5261 25.3304 17.1565ZM17.1565 19.3217C16.787 19.3217 16.487 19.0217 16.487 18.6522C16.487 18.2826 16.787 17.9826 17.1565 17.9826C17.5261 17.9826 17.8261 18.2826 17.8261 18.6522C17.8261 19.0217 17.5261 19.3217 17.1565 19.3217ZM19.2022 21.4457C19.2022 21.0761 19.5022 20.7761 19.8717 20.7761C20.2413 20.7761 20.5413 21.0761 20.5413 21.4457C20.5413 21.8152 20.2413 22.1152 19.8717 22.1152C19.5022 22.1152 19.2022 21.8152 19.2022 21.4457ZM17.1565 26.6696C16.787 26.6696 16.487 26.3696 16.487 26C16.487 25.6304 16.787 25.3304 17.1565 25.3304C17.5261 25.3304 17.8261 25.6304 17.8261 26C17.8261 26.3696 17.5261 26.6696 17.1565 26.6696ZM19.3217 34.8435C19.3217 35.213 19.0217 35.513 18.6522 35.513C18.2826 35.513 17.9826 35.213 17.9826 34.8435C17.9826 34.4739 18.2826 34.1739 18.6522 34.1739C19.0217 34.1739 19.3217 34.4739 19.3217 34.8435ZM21.4457 32.7978C21.0761 32.7978 20.7761 32.4978 20.7761 32.1283C20.7761 31.7587 21.0761 31.4587 21.4457 31.4587C21.8152 31.4587 22.1152 31.7587 22.1152 32.1283C22.1152 32.4978 21.8152 32.7978 21.4457 32.7978ZM26.6696 34.8435C26.6696 35.213 26.3696 35.513 26 35.513C25.6304 35.513 25.3304 35.213 25.3304 34.8435C25.3304 34.4739 25.6304 34.1739 26 34.1739C26.3696 34.1739 26.6696 34.4739 26.6696 34.8435ZM22.0761 29.3043V22.6957C22.0761 22.3543 22.3543 22.0761 22.6957 22.0761H29.3043C29.6457 22.0761 29.9239 22.3543 29.9239 22.6957V29.3043C29.9239 29.6457 29.6457 29.9239 29.3043 29.9239H22.6957C22.3522 29.9239 22.0761 29.6478 22.0761 29.3043ZM34.8435 34.0174C34.4739 34.0174 34.1739 33.7174 34.1739 33.3478C34.1739 32.9783 34.4739 32.6783 34.8435 32.6783C35.213 32.6783 35.513 32.9783 35.513 33.3478C35.5109 33.7174 35.2109 34.0174 34.8435 34.0174ZM28.95 22.8065H23.05C22.9152 22.8065 22.8065 22.9152 22.8065 23.05V28.9478C22.8065 29.0826 22.9152 29.1913 23.05 29.1913H28.9478C29.0826 29.1913 29.1913 29.0826 29.1913 28.9478V23.05C29.1935 22.9152 29.0848 22.8065 28.95 22.8065ZM28.7043 28.7043H23.2957V23.2957H28.7065V28.7043H28.7043Z" fill="white"/>
</svg>
