<svg width="8" height="11" viewBox="0 0 8 11" fill="none" xmlns="http://www.w3.org/2000/svg">
<path d="M5.71628 4.27016V5.02969H3.39441C3.24678 5.02969 3.10519 5.08834 3.0008 5.19273C2.8964 5.29712 2.83776 5.43871 2.83776 5.58634V9.98144C2.83796 10.0448 2.84926 10.1076 2.87115 10.167H0.644536C0.595325 10.167 0.548129 10.1474 0.513331 10.1126C0.478534 10.0778 0.458984 10.0307 0.458984 9.98144V1.51782C0.459023 1.48083 0.470113 1.4447 0.490831 1.41406C0.51155 1.38343 0.540952 1.35968 0.575263 1.34587L3.47482 0.17937C3.49694 0.170981 3.52043 0.166786 3.54409 0.167H5.53073C5.57994 0.167 5.62713 0.186549 5.66193 0.221347C5.69673 0.256144 5.71628 0.30334 5.71628 0.352552V1.31618H2.67076C2.62155 1.31618 2.57435 1.33573 2.53955 1.37053C2.50476 1.40533 2.48521 1.45252 2.48521 1.50173V2.3528C2.48521 2.40201 2.50476 2.4492 2.53955 2.484C2.57435 2.5188 2.62155 2.53835 2.67076 2.53835H5.71628V3.048H2.67076C2.64639 3.048 2.62226 3.0528 2.59975 3.06212C2.57724 3.07145 2.55678 3.08511 2.53955 3.10234C2.52232 3.11957 2.50866 3.14003 2.49933 3.16254C2.49001 3.18505 2.48521 3.20918 2.48521 3.23355V4.08461C2.48521 4.13382 2.50476 4.18102 2.53955 4.21582C2.57435 4.25061 2.62155 4.27016 2.67076 4.27016H5.71628ZM2.85631 3.89906H5.71628V3.4191H2.85631V3.89906ZM2.85631 2.16725H5.71628V1.68729H2.85631V2.16725ZM7.54087 5.58634V9.98144C7.54087 10.0307 7.52132 10.0778 7.48652 10.1126C7.45172 10.1474 7.40453 10.167 7.35532 10.167H3.39688C3.34767 10.167 3.30048 10.1474 3.26568 10.1126C3.23088 10.0778 3.21133 10.0307 3.21133 9.98144V5.58634C3.21133 5.53713 3.23088 5.48993 3.26568 5.45514C3.30048 5.42034 3.34767 5.40079 3.39688 5.40079H7.35532C7.40453 5.40079 7.45172 5.42034 7.48652 5.45514C7.52132 5.48993 7.54087 5.53713 7.54087 5.58634ZM4.67348 8.43889H4.13909C4.08988 8.43889 4.04268 8.45844 4.00789 8.49324C3.97309 8.52803 3.95354 8.57523 3.95354 8.62444V9.16007H4.32464V8.80999H4.67348V8.43889ZM4.67348 7.32558H4.13909C4.08988 7.32558 4.04268 7.34513 4.00789 7.37993C3.97309 7.41472 3.95354 7.46192 3.95354 7.51113V8.04676H4.32464V7.70163H4.67348V7.32558ZM4.67348 6.21845H4.13909C4.08988 6.21845 4.04268 6.238 4.00789 6.2728C3.97309 6.3076 3.95354 6.35479 3.95354 6.40401V6.93963H4.32464V6.59451H4.67348V6.21845ZM5.74473 8.43394H5.2091C5.18377 8.4339 5.1587 8.43904 5.13543 8.44905C5.11216 8.45906 5.09118 8.47374 5.0738 8.49216C5.05642 8.51059 5.04299 8.53238 5.03435 8.55619C5.02571 8.58001 5.02203 8.60534 5.02355 8.63063V9.16625H5.39466V8.80999H5.74473V8.43394ZM5.74473 7.32063H5.2091C5.18377 7.32059 5.1587 7.32573 5.13543 7.33574C5.11216 7.34575 5.09118 7.36043 5.0738 7.37885C5.05642 7.39728 5.04299 7.41907 5.03435 7.44288C5.02571 7.4667 5.02203 7.49203 5.02355 7.51732V8.05294H5.39466V7.70163H5.74473V7.32063ZM5.74473 6.21351H5.2091C5.18432 6.2135 5.15978 6.21846 5.13693 6.22809C5.11409 6.23772 5.09341 6.25183 5.07612 6.26959C5.05882 6.28735 5.04526 6.30839 5.03623 6.33148C5.0272 6.35456 5.02289 6.37923 5.02355 6.40401V6.93963H5.39466V6.59451H5.74473V6.21351ZM6.78753 8.42899H6.2519C6.20269 8.42899 6.1555 8.44854 6.1207 8.48334C6.0859 8.51814 6.06635 8.56533 6.06635 8.61454V9.15017H6.43746V8.80999H6.78753V8.42899ZM6.78753 7.31568H6.2519C6.20269 7.31568 6.1555 7.33523 6.1207 7.37003C6.0859 7.40483 6.06635 7.45202 6.06635 7.50123V8.03686H6.43746V7.70163H6.78753V7.31568ZM6.78753 6.20856H6.2519C6.20269 6.20856 6.1555 6.22811 6.1207 6.26291C6.0859 6.2977 6.06635 6.3449 6.06635 6.39411V6.92974H6.43746V6.59451H6.78753V6.20856Z" fill="white"/>
</svg>
