<svg width="12" height="12" viewBox="0 0 12 12" fill="none" xmlns="http://www.w3.org/2000/svg">
<path d="M11.3438 0.0419922H0.65625C0.500789 0.0419922 0.375 0.167785 0.375 0.323242V1.44824C0.375 1.6037 0.500793 1.72949 0.65625 1.72949H0.9375V8.47949C0.9375 8.63495 1.06329 8.76074 1.21875 8.76074H5.71875V10.7295H3.1875C3.03204 10.7295 2.90625 10.8553 2.90625 11.0107C2.90625 11.1662 3.03204 11.292 3.1875 11.292H8.8125C8.96796 11.292 9.09375 11.1662 9.09375 11.0107C9.09375 10.8553 8.96796 10.7295 8.8125 10.7295H6.28125V8.76074H10.7812C10.9367 8.76074 11.0625 8.63495 11.0625 8.47949V1.72949H11.3438C11.4992 1.72949 11.625 1.6037 11.625 1.44824V0.323242C11.625 0.167781 11.4992 0.0419922 11.3438 0.0419922ZM3.75 6.79199V4.26074C3.75 4.15967 3.80438 4.06629 3.89172 4.01684L5.86047 2.89184C5.94671 2.8424 6.05273 2.8424 6.13953 2.89184L8.10828 4.01684C8.19562 4.06628 8.25 4.15966 8.25 4.26074V6.79199C8.25 6.94745 8.12421 7.07324 7.96875 7.07324H4.03125C3.87579 7.07324 3.75 6.94745 3.75 6.79199ZM11.0625 1.16699H0.9375V0.604492H11.0625V1.16699ZM5.8605 4.0169L4.3125 4.9013V4.42395L6 3.4599L7.6875 4.42395V4.9013L6.1395 4.0169C6.05326 3.96691 5.94675 3.96691 5.8605 4.0169ZM7.6875 6.51074H4.3125V5.54889L6 4.58429L7.6875 5.54889V6.51074Z" fill="white"/>
</svg>
