<svg width="12" height="8" viewBox="0 0 12 8" fill="none" xmlns="http://www.w3.org/2000/svg">
<path d="M2.3583 4.68348C2.30117 4.68348 2.25503 4.6369 2.25503 4.58021C2.25503 4.52309 2.30161 4.47694 2.3583 4.47694H5.1576C5.21473 4.47694 5.26087 4.52352 5.26087 4.58021C5.26087 4.63734 5.21429 4.68348 5.1576 4.68348H2.3583ZM2.3583 3.85732C2.30117 3.85732 2.25503 3.81074 2.25503 3.75405C2.25503 3.69692 2.30161 3.65078 2.3583 3.65078H5.1576C5.21473 3.65078 5.26087 3.69736 5.26087 3.75405C5.26087 3.81118 5.21429 3.85732 5.1576 3.85732H2.3583ZM9.53796 5.61691H8.24423V6.02208H9.53796V5.61691ZM8.1405 5.41037H9.64124C9.69836 5.41037 9.7445 5.45695 9.7445 5.51364V6.12535C9.7445 6.18204 9.69836 6.22862 9.64124 6.22862H8.1405C8.08381 6.22862 8.03723 6.18204 8.03723 6.12535V5.51364C8.03723 5.45651 8.08381 5.41037 8.1405 5.41037ZM1.40285 2.10528H10.5966V1.44259C10.5966 1.35734 10.5619 1.27956 10.506 1.22375C10.4498 1.1675 10.3725 1.13278 10.2868 1.13278H1.71223C1.62698 1.13278 1.5492 1.1675 1.49339 1.22331C1.43714 1.27956 1.40243 1.3569 1.40243 1.44259V2.10528H1.40285ZM10.5966 2.92352H1.40285V6.89135C1.40285 6.9766 1.43757 7.05438 1.49338 7.11019C1.54963 7.16644 1.62697 7.20116 1.71266 7.20116H10.2872C10.3724 7.20116 10.4502 7.166 10.506 7.11019C10.5623 7.05394 10.597 6.9766 10.597 6.89091V2.92308L10.5966 2.92352ZM10.5966 2.31181H1.40285V2.71699H10.5966V2.31181ZM1.71267 0.925829H10.2872C10.4287 0.925829 10.5579 0.983836 10.6515 1.07744C10.7455 1.17149 10.8036 1.30112 10.8036 1.44219V6.89094C10.8036 7.03244 10.7456 7.16164 10.6519 7.25525C10.5579 7.34929 10.4283 7.4073 10.2872 7.4073H1.71267C1.57117 7.4073 1.44198 7.34929 1.34837 7.25569C1.25433 7.16164 1.19631 7.03201 1.19631 6.89094V1.44219C1.19631 1.30069 1.25432 1.17149 1.34793 1.07788C1.44197 0.98384 1.57161 0.925829 1.71267 0.925829ZM10.2872 0.666992H1.71312C1.49999 0.666992 1.30619 0.754442 1.16557 0.895061C1.02495 1.03568 0.9375 1.22949 0.9375 1.44261V6.89137C0.9375 7.1045 1.02495 7.2983 1.16557 7.43892C1.30619 7.57955 1.49999 7.66699 1.71312 7.66699H10.2872C10.5003 7.66699 10.6941 7.57954 10.8348 7.43892C10.9754 7.29831 11.0624 7.1045 11.0624 6.89137V1.44261C11.0624 1.22949 10.9749 1.03568 10.8348 0.895061C10.6941 0.754437 10.5003 0.666992 10.2872 0.666992Z" fill="white"/>
</svg>
