<svg width="12" height="12" viewBox="0 0 12 12" fill="none" xmlns="http://www.w3.org/2000/svg">
<path fill-rule="evenodd" clip-rule="evenodd" d="M6 11.292C9.10658 11.292 11.625 8.77358 11.625 5.66699C11.625 2.56039 9.10658 0.0419922 6 0.0419922C2.8934 0.0419922 0.375 2.56039 0.375 5.66699C0.375 8.77358 2.8934 11.292 6 11.292ZM8.9184 4.49449C9.11809 4.29479 9.11809 3.97101 8.9184 3.77131C8.71872 3.57161 8.39492 3.57161 8.19523 3.77131L5.48864 6.47791L4.31614 5.30541C4.11643 5.10572 3.79266 5.10572 3.59296 5.30541C3.39326 5.50509 3.39326 5.82889 3.59296 6.02858L5.12705 7.56267C5.32674 7.76236 5.65053 7.76236 5.85022 7.56267L8.9184 4.49449Z" fill="#9FA0A6"/>
</svg>
