<svg width="12" height="10" viewBox="0 0 12 10" fill="none" xmlns="http://www.w3.org/2000/svg">
<path d="M5.57833 5.73997C5.24175 5.65137 4.94102 5.46038 4.71771 5.19342C4.49439 4.92647 4.35954 4.59672 4.33179 4.24979C4.06579 4.16118 3.78716 4.1164 3.5068 4.1172C2.81554 4.1172 2.15259 4.3918 1.66379 4.8806C1.17499 5.36939 0.900391 6.03235 0.900391 6.72361V7.19616C1.60714 7.70976 2.45025 8.00236 3.32322 8.03701C3.40398 7.46328 3.66659 6.93056 4.07249 6.51712C4.47839 6.10367 5.00618 5.83128 5.57833 5.73997Z" fill="white"/>
<path d="M5.03524 2.20463C5.03624 1.85473 4.91754 1.51502 4.69884 1.2419C4.48015 0.968776 4.17461 0.778669 3.83297 0.703141C3.49132 0.627613 3.13412 0.67121 2.82067 0.826692C2.50722 0.982174 2.25638 1.24019 2.10979 1.5579C1.96321 1.8756 1.92969 2.23389 2.01482 2.57327C2.09995 2.91265 2.29859 3.21271 2.57777 3.42362C2.85695 3.63453 3.19987 3.74361 3.54959 3.73275C3.89932 3.72189 4.23481 3.59174 4.50036 3.36391C4.59552 3.17572 4.72505 3.00699 4.88226 2.86643C4.98231 2.66012 5.0346 2.43392 5.03524 2.20463Z" fill="white"/>
<path d="M8.4936 4.11719C8.21512 4.11681 7.93842 4.16158 7.67428 4.24978C7.6462 4.59661 7.51123 4.92619 7.28797 5.19309C7.06471 5.45999 6.76415 5.65106 6.42773 5.73996C6.9985 5.83294 7.52458 6.10602 7.92908 6.51929C8.33359 6.93257 8.59533 7.46437 8.67605 8.037C9.54964 8.00191 10.3932 7.7085 11.1 7.19389V6.7236C11.1 6.03234 10.8254 5.36939 10.3366 4.88059C9.84781 4.39179 9.18486 4.11719 8.4936 4.11719Z" fill="white"/>
<path d="M8.49365 3.73318C8.82618 3.73389 9.14991 3.62641 9.41598 3.42694C9.68204 3.22748 9.87599 2.94687 9.96854 2.62748C10.0611 2.30809 10.0472 1.96725 9.92901 1.65644C9.81081 1.34563 9.59469 1.08171 9.31329 0.904536C9.03189 0.727359 8.70049 0.646543 8.36912 0.67429C8.03775 0.702036 7.7244 0.836838 7.47639 1.05834C7.22837 1.27985 7.05915 1.57603 6.99428 1.90217C6.92941 2.22831 6.97241 2.56671 7.11678 2.86626C7.27453 3.00704 7.40446 3.17617 7.49981 3.36488C7.77631 3.60267 8.12896 3.73335 8.49365 3.73318Z" fill="white"/>
<path d="M6.00746 5.93359H5.99046C5.3357 5.93718 4.70892 6.19949 4.24678 6.66333C3.78464 7.12717 3.52462 7.75492 3.52344 8.40968V8.86297C4.24339 9.38527 5.11007 9.66653 5.99953 9.66653C6.88898 9.66653 7.75566 9.38527 8.47562 8.86297V8.40968C8.47443 7.75472 8.21426 7.12681 7.75188 6.66294C7.28949 6.19907 6.66242 5.93688 6.00746 5.93359Z" fill="white"/>
<path d="M5.83761 5.56005C5.89106 5.56592 5.94477 5.56895 5.99853 5.56911C6.05271 5.56914 6.10684 5.56573 6.16058 5.55891C6.4764 5.52336 6.77182 5.38515 7.00151 5.1655C7.23119 4.94584 7.38245 4.65688 7.43206 4.34297C7.44424 4.26802 7.45068 4.19225 7.45132 4.11632C7.44076 3.73819 7.28312 3.37909 7.01193 3.11537C6.74074 2.85165 6.37738 2.7041 5.9991 2.7041C5.62082 2.7041 5.25746 2.85165 4.98627 3.11537C4.71507 3.37909 4.55744 3.73819 4.54688 4.11632C4.54696 4.19227 4.5534 4.26809 4.56614 4.34297C4.61552 4.65709 4.76668 4.9463 4.99638 5.16618C5.22609 5.38606 5.52164 5.52444 5.83761 5.56005Z" fill="white"/>
</svg>
