<svg width="84" height="88" viewBox="0 0 84 88" fill="none" xmlns="http://www.w3.org/2000/svg">
<path d="M82.4783 87.7973H1.52535C0.751913 87.7973 0.126953 87.1723 0.126953 86.3989V35.1289C0.126953 34.3554 0.751953 33.7266 1.52535 33.7266C2.29879 33.7266 2.92765 34.3555 2.92765 35.1289V84.9999H81.0757V35.1289C81.0757 34.3554 81.7046 33.7266 82.478 33.7266C83.2514 33.7266 83.8764 34.3555 83.8764 35.1289V86.3989C83.8764 86.77 83.7279 87.1254 83.4662 87.3871C83.2045 87.6528 82.8494 87.7973 82.4783 87.7973Z" fill="#FFA300"/>
<path d="M82.4782 87.7974H1.52517C0.935333 87.8013 0.407972 87.4302 0.208772 86.8755C0.00565211 86.3247 0.173617 85.7036 0.626743 85.3247L41.1037 51.5947C41.6194 51.1611 42.3732 51.1611 42.8928 51.5947L83.3728 85.3247C83.826 85.7036 83.9939 86.3247 83.7908 86.8755C83.5916 87.4302 83.0643 87.8013 82.4744 87.7974H82.4782ZM5.39217 85.0005H78.6112L42.0022 54.4925L5.39217 85.0005Z" fill="#FFA300"/>
<path d="M57.1033 15.3838C56.7712 15.3838 56.4548 15.2705 56.2009 15.0596L42.0019 3.21957L27.8029 15.0596C27.2092 15.5557 26.3224 15.4775 25.8263 14.8838C25.3302 14.29 25.4084 13.4072 26.0021 12.9072L41.1041 0.325193C41.6236 -0.108397 42.3775 -0.108397 42.8971 0.325193L58.0021 12.9072C58.4552 13.2861 58.6232 13.9072 58.4201 14.4619C58.2209 15.0166 57.6931 15.3838 57.1033 15.3838Z" fill="#FFA300"/>
<path d="M32.2863 62.1658C31.9582 62.1658 31.6379 62.0525 31.3879 61.8416L0.629887 36.2046C0.309577 35.9389 0.125977 35.5444 0.125977 35.1304C0.125977 34.7163 0.309567 34.3218 0.629887 34.0562L14.6419 22.3802C14.927 22.1419 15.2942 22.0247 15.6614 22.0598C16.0325 22.095 16.3762 22.2708 16.6106 22.5559C17.1067 23.1536 17.0286 24.0364 16.4348 24.5286L3.71183 35.1306L33.1848 59.6896C33.6379 60.0686 33.802 60.6896 33.6028 61.2443C33.3997 61.799 32.8723 62.1662 32.2825 62.1662L32.2863 62.1658Z" fill="#FFA300"/>
<path d="M51.7161 62.1659C51.1262 62.1659 50.5989 61.7987 50.3958 61.244C50.1966 60.6893 50.3645 60.0682 50.8177 59.6893L80.2907 35.1303L67.5677 24.5283H67.5716C67.2786 24.2939 67.095 23.9502 67.0559 23.5791C67.0208 23.2041 67.1341 22.833 67.3723 22.5439C67.6145 22.2548 67.9583 22.0752 68.3333 22.0439C68.7083 22.0127 69.0794 22.1337 69.3606 22.3798L83.3726 34.0558C83.6929 34.3215 83.8765 34.716 83.8765 35.13C83.8765 35.5441 83.6929 35.9386 83.3726 36.2042L52.6106 61.8412C52.3606 62.0522 52.0442 62.1659 51.7161 62.1659Z" fill="#FFA300"/>
<path d="M68.4663 48.2047C67.6928 48.2047 67.0679 47.5797 67.0679 46.8063V15.3843H16.9389V46.8063C16.9389 47.5797 16.31 48.2047 15.5366 48.2047C14.7631 48.2047 14.1382 47.5797 14.1382 46.8063V13.9863C14.1382 13.2128 14.7632 12.584 15.5366 12.584H68.4666C69.24 12.584 69.865 13.2129 69.865 13.9863V46.8063C69.865 47.1774 69.7204 47.5328 69.4548 47.7946C69.1931 48.0602 68.8374 48.2047 68.4663 48.2047Z" fill="#FFA300"/>
<path d="M42.0011 39.451C39.5245 39.451 37.2941 37.9588 36.3449 35.6698C35.3957 33.3807 35.923 30.7479 37.673 28.9979C39.423 27.2479 42.0558 26.7245 44.3449 27.6698C46.6301 28.619 48.1222 30.8495 48.1222 33.326C48.1183 36.7049 45.38 39.4471 42.0011 39.451ZM42.0011 30.0057C40.6573 30.0057 39.4464 30.8143 38.9308 32.0565C38.4191 33.2987 38.7003 34.7245 39.6534 35.6776C40.6027 36.6268 42.0323 36.912 43.2706 36.3964C44.5128 35.8807 45.3214 34.6698 45.3214 33.3261C45.3214 31.4941 43.837 30.0057 42.0011 30.0057Z" fill="#FFA300"/>
<path d="M42.0012 46.533C34.72 46.533 28.8022 40.6072 28.8022 33.33C28.8022 26.0448 34.7202 20.123 42.0012 20.123C49.2822 20.123 55.2082 26.0488 55.2082 33.33V36.0488C55.2278 37.373 54.7122 38.6465 53.7863 39.5918C52.8567 40.5333 51.5871 41.0645 50.2668 41.0645C48.9426 41.0645 47.677 40.5333 46.7473 39.5918C45.8177 38.6465 45.3059 37.373 45.3254 36.0488V33.3261C45.3254 32.5527 45.9504 31.9277 46.7238 31.9277C47.4973 31.9277 48.1222 32.5527 48.1222 33.3261V36.0488C48.1105 36.627 48.3332 37.1816 48.7355 37.5957C49.1379 38.0059 49.6886 38.2403 50.2667 38.2403C50.8409 38.2403 51.3917 38.0059 51.7979 37.5957C52.2003 37.1817 52.419 36.627 52.4073 36.0488V33.3261C52.4073 29.1191 49.8721 25.3222 45.9854 23.7128C42.0948 22.1034 37.6182 22.9902 34.6414 25.9667C31.6648 28.9433 30.7781 33.4198 32.3875 37.3067C33.9969 41.1973 37.7937 43.7325 42.0008 43.7325C42.7742 43.7325 43.3992 44.3575 43.3992 45.1309C43.3992 45.9044 42.7746 46.533 42.0012 46.533Z" fill="#FFA300"/>
</svg>
