<svg width="33" height="33" viewBox="0 0 33 33" fill="none" xmlns="http://www.w3.org/2000/svg">
<rect x="0.669922" y="0.332031" width="32" height="32" rx="16" fill="#5C1FC4"/>
<mask id="path-2-inside-1_11800_4645" fill="white">
<path d="M12.6697 16.9987C12.2742 16.9987 11.8875 17.116 11.5586 17.3358C11.2297 17.5555 10.9734 17.8679 10.822 18.2333C10.6706 18.5988 10.631 19.0009 10.7082 19.3889C10.7853 19.7768 10.9758 20.1332 11.2555 20.4129C11.5352 20.6926 11.8916 20.8831 12.2796 20.9603C12.6675 21.0374 13.0697 20.9978 13.4351 20.8465C13.8006 20.6951 14.1129 20.4387 14.3327 20.1098C14.5524 19.7809 14.6697 19.3943 14.6697 18.9987C14.6697 18.4683 14.459 17.9596 14.0839 17.5845C13.7089 17.2094 13.2002 16.9987 12.6697 16.9987ZM12.6697 20.1098C12.45 20.1098 12.2352 20.0446 12.0524 19.9226C11.8697 19.8005 11.7273 19.6269 11.6432 19.4239C11.5591 19.2209 11.5371 18.9975 11.58 18.7819C11.6228 18.5664 11.7287 18.3684 11.8841 18.213C12.0395 18.0576 12.2374 17.9518 12.453 17.9089C12.6685 17.8661 12.8919 17.8881 13.0949 17.9722C13.298 18.0563 13.4715 18.1987 13.5936 18.3814C13.7157 18.5641 13.7808 18.7789 13.7808 18.9987C13.7794 19.2929 13.6619 19.5747 13.4538 19.7828C13.2457 19.9908 12.964 20.1083 12.6697 20.1098ZM10.7975 14.4598L11.5975 13.6654L10.7975 12.8709C10.7266 12.7846 10.6904 12.6749 10.6959 12.5634C10.7014 12.4518 10.7482 12.3462 10.8272 12.2672C10.9062 12.1882 11.0117 12.1415 11.1233 12.136C11.2349 12.1305 11.3445 12.1667 11.4308 12.2376L12.2253 13.0376L13.0197 12.2376C13.1061 12.1667 13.2157 12.1305 13.3273 12.136C13.4389 12.1415 13.5444 12.1882 13.6234 12.2672C13.7024 12.3462 13.7492 12.4518 13.7547 12.5634C13.7602 12.6749 13.7239 12.7846 13.6531 12.8709L12.8531 13.6654L13.6531 14.4598C13.7365 14.5441 13.7833 14.6579 13.7833 14.7765C13.7833 14.8951 13.7365 15.0089 13.6531 15.0931C13.5681 15.1753 13.4546 15.2212 13.3364 15.2212C13.2182 15.2212 13.1047 15.1753 13.0197 15.0931L12.2253 14.2931L11.4308 15.0931C11.3459 15.1753 11.2324 15.2212 11.1142 15.2212C10.996 15.2212 10.8825 15.1753 10.7975 15.0931C10.7141 15.0089 10.6672 14.8951 10.6672 14.7765C10.6672 14.6579 10.7141 14.5441 10.7975 14.4598ZM21.2086 19.7931C21.2921 19.8774 21.3389 19.9912 21.3389 20.1098C21.3389 20.2284 21.2921 20.3422 21.2086 20.4265C21.1237 20.5086 21.0101 20.5545 20.892 20.5545C20.7738 20.5545 20.6602 20.5086 20.5753 20.4265L19.7808 19.6265L18.9864 20.4265C18.9015 20.5086 18.7879 20.5545 18.6697 20.5545C18.5516 20.5545 18.438 20.5086 18.3531 20.4265C18.2696 20.3422 18.2228 20.2284 18.2228 20.1098C18.2228 19.9912 18.2696 19.8774 18.3531 19.7931L19.1531 18.9987L18.3531 18.2043C18.2822 18.1179 18.246 18.0083 18.2515 17.8967C18.2569 17.7851 18.3037 17.6796 18.3827 17.6006C18.4617 17.5216 18.5673 17.4748 18.6788 17.4693C18.7904 17.4638 18.9 17.5 18.9864 17.5709L19.7808 18.3709L20.5753 17.5709C20.6616 17.5 20.7713 17.4638 20.8829 17.4693C20.9944 17.4748 21.1 17.5216 21.179 17.6006C21.258 17.6796 21.3048 17.7851 21.3102 17.8967C21.3157 18.0083 21.2795 18.1179 21.2086 18.2043L20.4086 18.9987L21.2086 19.7931ZM18.6975 14.8209C18.3531 16.0654 17.292 17.1376 16.1086 17.432L16.0031 17.4431C15.9033 17.4435 15.8063 17.4103 15.7277 17.3488C15.6491 17.2873 15.5934 17.2012 15.5697 17.1043C15.5428 16.9894 15.5621 16.8686 15.6234 16.7678C15.6847 16.667 15.7831 16.5943 15.8975 16.5654C16.7642 16.3487 17.5808 15.5154 17.842 14.5876C18.0142 13.9487 18.0197 12.9765 17.0197 11.982L16.892 11.8487V12.9987C16.892 13.1166 16.8451 13.2296 16.7618 13.313C16.6784 13.3963 16.5654 13.4431 16.4475 13.4431C16.3296 13.4431 16.2166 13.3963 16.1332 13.313C16.0499 13.2296 16.0031 13.1166 16.0031 12.9987V10.7765C16.0031 10.6586 16.0499 10.5456 16.1332 10.4622C16.2166 10.3789 16.3296 10.332 16.4475 10.332H18.6697C18.7876 10.332 18.9007 10.3789 18.984 10.4622C19.0674 10.5456 19.1142 10.6586 19.1142 10.7765C19.1142 10.8943 19.0674 11.0074 18.984 11.0907C18.9007 11.1741 18.7876 11.2209 18.6697 11.2209H17.5197L17.6531 11.3487C18.6642 12.3654 19.0364 13.5987 18.6975 14.8209Z"/>
</mask>
<path d="M12.6697 16.9987C12.2742 16.9987 11.8875 17.116 11.5586 17.3358C11.2297 17.5555 10.9734 17.8679 10.822 18.2333C10.6706 18.5988 10.631 19.0009 10.7082 19.3889C10.7853 19.7768 10.9758 20.1332 11.2555 20.4129C11.5352 20.6926 11.8916 20.8831 12.2796 20.9603C12.6675 21.0374 13.0697 20.9978 13.4351 20.8465C13.8006 20.6951 14.1129 20.4387 14.3327 20.1098C14.5524 19.7809 14.6697 19.3943 14.6697 18.9987C14.6697 18.4683 14.459 17.9596 14.0839 17.5845C13.7089 17.2094 13.2002 16.9987 12.6697 16.9987ZM12.6697 20.1098C12.45 20.1098 12.2352 20.0446 12.0524 19.9226C11.8697 19.8005 11.7273 19.6269 11.6432 19.4239C11.5591 19.2209 11.5371 18.9975 11.58 18.7819C11.6228 18.5664 11.7287 18.3684 11.8841 18.213C12.0395 18.0576 12.2374 17.9518 12.453 17.9089C12.6685 17.8661 12.8919 17.8881 13.0949 17.9722C13.298 18.0563 13.4715 18.1987 13.5936 18.3814C13.7157 18.5641 13.7808 18.7789 13.7808 18.9987C13.7794 19.2929 13.6619 19.5747 13.4538 19.7828C13.2457 19.9908 12.964 20.1083 12.6697 20.1098ZM10.7975 14.4598L11.5975 13.6654L10.7975 12.8709C10.7266 12.7846 10.6904 12.6749 10.6959 12.5634C10.7014 12.4518 10.7482 12.3462 10.8272 12.2672C10.9062 12.1882 11.0117 12.1415 11.1233 12.136C11.2349 12.1305 11.3445 12.1667 11.4308 12.2376L12.2253 13.0376L13.0197 12.2376C13.1061 12.1667 13.2157 12.1305 13.3273 12.136C13.4389 12.1415 13.5444 12.1882 13.6234 12.2672C13.7024 12.3462 13.7492 12.4518 13.7547 12.5634C13.7602 12.6749 13.7239 12.7846 13.6531 12.8709L12.8531 13.6654L13.6531 14.4598C13.7365 14.5441 13.7833 14.6579 13.7833 14.7765C13.7833 14.8951 13.7365 15.0089 13.6531 15.0931C13.5681 15.1753 13.4546 15.2212 13.3364 15.2212C13.2182 15.2212 13.1047 15.1753 13.0197 15.0931L12.2253 14.2931L11.4308 15.0931C11.3459 15.1753 11.2324 15.2212 11.1142 15.2212C10.996 15.2212 10.8825 15.1753 10.7975 15.0931C10.7141 15.0089 10.6672 14.8951 10.6672 14.7765C10.6672 14.6579 10.7141 14.5441 10.7975 14.4598ZM21.2086 19.7931C21.2921 19.8774 21.3389 19.9912 21.3389 20.1098C21.3389 20.2284 21.2921 20.3422 21.2086 20.4265C21.1237 20.5086 21.0101 20.5545 20.892 20.5545C20.7738 20.5545 20.6602 20.5086 20.5753 20.4265L19.7808 19.6265L18.9864 20.4265C18.9015 20.5086 18.7879 20.5545 18.6697 20.5545C18.5516 20.5545 18.438 20.5086 18.3531 20.4265C18.2696 20.3422 18.2228 20.2284 18.2228 20.1098C18.2228 19.9912 18.2696 19.8774 18.3531 19.7931L19.1531 18.9987L18.3531 18.2043C18.2822 18.1179 18.246 18.0083 18.2515 17.8967C18.2569 17.7851 18.3037 17.6796 18.3827 17.6006C18.4617 17.5216 18.5673 17.4748 18.6788 17.4693C18.7904 17.4638 18.9 17.5 18.9864 17.5709L19.7808 18.3709L20.5753 17.5709C20.6616 17.5 20.7713 17.4638 20.8829 17.4693C20.9944 17.4748 21.1 17.5216 21.179 17.6006C21.258 17.6796 21.3048 17.7851 21.3102 17.8967C21.3157 18.0083 21.2795 18.1179 21.2086 18.2043L20.4086 18.9987L21.2086 19.7931ZM18.6975 14.8209C18.3531 16.0654 17.292 17.1376 16.1086 17.432L16.0031 17.4431C15.9033 17.4435 15.8063 17.4103 15.7277 17.3488C15.6491 17.2873 15.5934 17.2012 15.5697 17.1043C15.5428 16.9894 15.5621 16.8686 15.6234 16.7678C15.6847 16.667 15.7831 16.5943 15.8975 16.5654C16.7642 16.3487 17.5808 15.5154 17.842 14.5876C18.0142 13.9487 18.0197 12.9765 17.0197 11.982L16.892 11.8487V12.9987C16.892 13.1166 16.8451 13.2296 16.7618 13.313C16.6784 13.3963 16.5654 13.4431 16.4475 13.4431C16.3296 13.4431 16.2166 13.3963 16.1332 13.313C16.0499 13.2296 16.0031 13.1166 16.0031 12.9987V10.7765C16.0031 10.6586 16.0499 10.5456 16.1332 10.4622C16.2166 10.3789 16.3296 10.332 16.4475 10.332H18.6697C18.7876 10.332 18.9007 10.3789 18.984 10.4622C19.0674 10.5456 19.1142 10.6586 19.1142 10.7765C19.1142 10.8943 19.0674 11.0074 18.984 11.0907C18.9007 11.1741 18.7876 11.2209 18.6697 11.2209H17.5197L17.6531 11.3487C18.6642 12.3654 19.0364 13.5987 18.6975 14.8209Z" fill="white"/>
<path d="M14.6697 18.9987H15.6697H14.6697ZM12.6697 20.1098V21.1098L12.6747 21.1098L12.6697 20.1098ZM13.7808 18.9987L14.7808 19.0037V18.9987H13.7808ZM10.7975 14.4598L10.0929 13.7502L10.087 13.7561L10.7975 14.4598ZM11.5975 13.6654L12.3022 14.3749L13.0167 13.6654L12.3022 12.9558L11.5975 13.6654ZM10.7975 12.8709L10.0245 13.5053L10.0568 13.5446L10.0929 13.5805L10.7975 12.8709ZM11.4308 12.2376L12.1404 11.5329L12.1046 11.4969L12.0653 11.4646L11.4308 12.2376ZM12.2253 13.0376L11.5157 13.7422L12.2253 14.4568L12.9349 13.7422L12.2253 13.0376ZM13.0197 12.2376L12.3853 11.4646L12.346 11.4969L12.3102 11.5329L13.0197 12.2376ZM13.6531 12.8709L14.3577 13.5805L14.3938 13.5446L14.4261 13.5053L13.6531 12.8709ZM12.8531 13.6654L12.1484 12.9558L11.4339 13.6654L12.1484 14.3749L12.8531 13.6654ZM13.6531 14.4598L14.3636 13.7561L14.3577 13.7502L13.6531 14.4598ZM13.7833 14.7765H14.7833H13.7833ZM13.6531 15.0931L14.3482 15.812L14.356 15.8045L14.3636 15.7968L13.6531 15.0931ZM13.0197 15.0931L12.3102 15.7978L12.3173 15.805L12.3246 15.812L13.0197 15.0931ZM12.2253 14.2931L12.9349 13.5885L12.2253 12.874L11.5157 13.5885L12.2253 14.2931ZM11.4308 15.0931L12.126 15.812L12.1333 15.805L12.1404 15.7978L11.4308 15.0931ZM10.7975 15.0931L10.087 15.7968L10.0946 15.8045L10.1024 15.812L10.7975 15.0931ZM10.6672 14.7765H9.66724H10.6672ZM21.2086 19.7931L21.9191 19.0894L21.9133 19.0836L21.2086 19.7931ZM21.2086 20.4265L21.9037 21.1454L21.9115 21.1379L21.9191 21.1302L21.2086 20.4265ZM20.5753 20.4265L19.8657 21.1311L19.8729 21.1383L19.8802 21.1454L20.5753 20.4265ZM19.7808 19.6265L20.4904 18.9218L19.7808 18.2073L19.0713 18.9218L19.7808 19.6265ZM18.9864 20.4265L19.6815 21.1454L19.6888 21.1383L19.696 21.1311L18.9864 20.4265ZM18.3531 20.4265L17.6426 21.1302L17.6502 21.1379L17.6579 21.1454L18.3531 20.4265ZM18.3531 19.7931L17.6484 19.0836L17.6426 19.0894L18.3531 19.7931ZM19.1531 18.9987L19.8577 19.7083L20.5722 18.9987L19.8577 18.2891L19.1531 18.9987ZM18.3531 18.2043L17.5801 18.8387L17.6123 18.878L17.6484 18.9138L18.3531 18.2043ZM18.9864 17.5709L19.696 16.8663L19.6601 16.8302L19.6208 16.7979L18.9864 17.5709ZM19.7808 18.3709L19.0713 19.0756L19.7808 19.7901L20.4904 19.0756L19.7808 18.3709ZM20.5753 17.5709L19.9409 16.7979L19.9016 16.8302L19.8657 16.8663L20.5753 17.5709ZM21.2086 18.2043L21.9133 18.9138L21.9494 18.878L21.9816 18.8387L21.2086 18.2043ZM20.4086 18.9987L19.704 18.2891L18.9895 18.9987L19.704 19.7083L20.4086 18.9987ZM18.6975 14.8209L17.7339 14.5537L17.7337 14.5542L18.6975 14.8209ZM16.1086 17.432L16.2133 18.4265L16.2825 18.4192L16.3501 18.4024L16.1086 17.432ZM16.0031 17.4431L16.0067 18.4431L16.0574 18.443L16.1078 18.4376L16.0031 17.4431ZM15.5697 17.1043L14.596 17.3323L14.5983 17.3417L15.5697 17.1043ZM15.8975 16.5654L15.655 15.5952L15.6523 15.5959L15.8975 16.5654ZM17.842 14.5876L18.8046 14.8585L18.8075 14.8479L17.842 14.5876ZM17.0197 11.982L16.2977 12.6739L16.3061 12.6826L16.3146 12.6911L17.0197 11.982ZM16.892 11.8487L17.6139 11.1568L15.892 9.35994V11.8487H16.892ZM16.4475 10.332V11.332V10.332ZM17.5197 11.2209V10.2209H15.031L16.8278 11.9429L17.5197 11.2209ZM17.6531 11.3487L18.3621 10.6435L18.3536 10.635L18.345 10.6267L17.6531 11.3487ZM12.6697 15.9987C12.0764 15.9987 11.4964 16.1746 11.003 16.5043L12.1142 18.1672C12.2786 18.0573 12.472 17.9987 12.6697 17.9987V15.9987ZM11.003 16.5043C10.5097 16.8339 10.1252 17.3025 9.8981 17.8506L11.7459 18.616C11.8215 18.4333 11.9497 18.2771 12.1142 18.1672L11.003 16.5043ZM9.8981 17.8506C9.67103 18.3988 9.61162 19.002 9.72738 19.584L11.689 19.1938C11.6504 18.9998 11.6702 18.7987 11.7459 18.616L9.8981 17.8506ZM9.72738 19.584C9.84314 20.1659 10.1289 20.7005 10.5484 21.12L11.9626 19.7058C11.8228 19.566 11.7275 19.3878 11.689 19.1938L9.72738 19.584ZM10.5484 21.12C10.968 21.5396 11.5025 21.8253 12.0845 21.9411L12.4746 19.9795C12.2807 19.9409 12.1025 19.8457 11.9626 19.7058L10.5484 21.12ZM12.0845 21.9411C12.6664 22.0568 13.2696 21.9974 13.8178 21.7703L13.0524 19.9226C12.8697 19.9983 12.6686 20.0181 12.4746 19.9795L12.0845 21.9411ZM13.8178 21.7703C14.366 21.5433 14.8345 21.1588 15.1641 20.6654L13.5012 19.5543C13.3913 19.7187 13.2351 19.8469 13.0524 19.9226L13.8178 21.7703ZM15.1641 20.6654C15.4938 20.1721 15.6697 19.592 15.6697 18.9987H13.6697C13.6697 19.1965 13.6111 19.3898 13.5012 19.5543L15.1641 20.6654ZM15.6697 18.9987C15.6697 18.203 15.3537 17.44 14.7911 16.8774L13.3768 18.2916C13.5644 18.4791 13.6697 18.7335 13.6697 18.9987H15.6697ZM14.7911 16.8774C14.2284 16.3148 13.4654 15.9987 12.6697 15.9987V17.9987C12.935 17.9987 13.1893 18.1041 13.3768 18.2916L14.7911 16.8774ZM12.6697 19.1098C12.6478 19.1098 12.6263 19.1033 12.608 19.0911L11.4969 20.754C11.844 20.986 12.2522 21.1098 12.6697 21.1098V19.1098ZM12.608 19.0911C12.5897 19.0789 12.5755 19.0615 12.5671 19.0412L10.7193 19.8066C10.8791 20.1923 11.1497 20.522 11.4969 20.754L12.608 19.0911ZM12.5671 19.0412C12.5587 19.0209 12.5565 18.9986 12.5608 18.977L10.5992 18.5868C10.5177 18.9964 10.5595 19.4208 10.7193 19.8066L12.5671 19.0412ZM12.5608 18.977C12.565 18.9555 12.5756 18.9357 12.5912 18.9201L11.177 17.5059C10.8817 17.8012 10.6806 18.1773 10.5992 18.5868L12.5608 18.977ZM12.5912 18.9201C12.6067 18.9046 12.6265 18.894 12.6481 18.8897L12.2579 16.9282C11.8484 17.0096 11.4722 17.2107 11.177 17.5059L12.5912 18.9201ZM12.6481 18.8897C12.6696 18.8854 12.692 18.8876 12.7123 18.896L13.4776 17.0483C13.0919 16.8885 12.6674 16.8467 12.2579 16.9282L12.6481 18.8897ZM12.7123 18.896C12.7326 18.9045 12.7499 18.9187 12.7621 18.937L14.4251 17.8258C14.1931 17.4787 13.8634 17.2081 13.4776 17.0483L12.7123 18.896ZM12.7621 18.937C12.7743 18.9552 12.7808 18.9767 12.7808 18.9987H14.7808C14.7808 18.5812 14.657 18.173 14.4251 17.8258L12.7621 18.937ZM12.7809 18.9937C12.7807 19.0245 12.7684 19.0539 12.7467 19.0757L14.1609 20.4899C14.5553 20.0955 14.7781 19.5614 14.7808 19.0037L12.7809 18.9937ZM12.7467 19.0757C12.725 19.0974 12.6955 19.1097 12.6648 19.1098L12.6747 21.1098C13.2324 21.107 13.7665 20.8842 14.1609 20.4899L12.7467 19.0757ZM11.5022 15.1694L12.3022 14.3749L10.8929 12.9558L10.0929 13.7502L11.5022 15.1694ZM12.3022 12.9558L11.5022 12.1614L10.0929 13.5805L10.8929 14.3749L12.3022 12.9558ZM11.5705 12.2365C11.6571 12.342 11.7014 12.476 11.6947 12.6124L9.69711 12.5143C9.67945 12.8738 9.79615 13.2271 10.0245 13.5053L11.5705 12.2365ZM11.6947 12.6124C11.688 12.7488 11.6308 12.8778 11.5343 12.9743L10.1201 11.5601C9.86552 11.8147 9.71476 12.1548 9.69711 12.5143L11.6947 12.6124ZM11.5343 12.9743C11.4377 13.0709 11.3087 13.1281 11.1723 13.1348L11.0742 11.1372C10.7147 11.1548 10.3746 11.3056 10.1201 11.5601L11.5343 12.9743ZM11.1723 13.1348C11.036 13.1415 10.902 13.0972 10.7964 13.0106L12.0653 11.4646C11.787 11.2362 11.4338 11.1195 11.0742 11.1372L11.1723 13.1348ZM10.7213 12.9422L11.5157 13.7422L12.9349 12.3329L12.1404 11.5329L10.7213 12.9422ZM12.9349 13.7422L13.7293 12.9422L12.3102 11.5329L11.5157 12.3329L12.9349 13.7422ZM13.6542 13.0106C13.5486 13.0972 13.4146 13.1415 13.2782 13.1348L13.3764 11.1372C13.0168 11.1195 12.6636 11.2362 12.3853 11.4646L13.6542 13.0106ZM13.2782 13.1348C13.1419 13.1281 13.0129 13.0709 12.9163 12.9743L14.3305 11.5601C14.076 11.3056 13.7359 11.1548 13.3764 11.1372L13.2782 13.1348ZM12.9163 12.9743C12.8198 12.8778 12.7626 12.7488 12.7559 12.6124L14.7535 12.5143C14.7358 12.1548 14.5851 11.8147 14.3305 11.5601L12.9163 12.9743ZM12.7559 12.6124C12.7492 12.476 12.7935 12.342 12.8801 12.2365L14.4261 13.5053C14.6544 13.2271 14.7711 12.8738 14.7535 12.5143L12.7559 12.6124ZM12.9484 12.1614L12.1484 12.9558L13.5577 14.3749L14.3577 13.5805L12.9484 12.1614ZM12.1484 14.3749L12.9484 15.1694L14.3577 13.7502L13.5577 12.9558L12.1484 14.3749ZM12.9426 15.1635C12.8406 15.0605 12.7833 14.9214 12.7833 14.7765H14.7833C14.7833 14.3943 14.6325 14.0276 14.3636 13.7561L12.9426 15.1635ZM12.7833 14.7765C12.7833 14.6315 12.8406 14.4924 12.9426 14.3894L14.3636 15.7968C14.6325 15.5253 14.7833 15.1586 14.7833 14.7765H12.7833ZM12.9579 14.3742C13.0595 14.2761 13.1952 14.2212 13.3364 14.2212V16.2212C13.714 16.2212 14.0768 16.0745 14.3482 15.812L12.9579 14.3742ZM13.3364 14.2212C13.4776 14.2212 13.6133 14.2761 13.7149 14.3742L12.3246 15.812C12.596 16.0745 12.9588 16.2212 13.3364 16.2212V14.2212ZM13.7293 14.3885L12.9349 13.5885L11.5157 14.9978L12.3102 15.7978L13.7293 14.3885ZM11.5157 13.5885L10.7213 14.3885L12.1404 15.7978L12.9349 14.9978L11.5157 13.5885ZM10.7357 14.3742C10.8373 14.2761 10.973 14.2212 11.1142 14.2212V16.2212C11.4917 16.2212 11.8545 16.0745 12.126 15.812L10.7357 14.3742ZM11.1142 14.2212C11.2554 14.2212 11.3911 14.2761 11.4926 14.3742L10.1024 15.812C10.3738 16.0745 10.7366 16.2212 11.1142 16.2212V14.2212ZM11.508 14.3894C11.61 14.4924 11.6672 14.6315 11.6672 14.7765H9.66724C9.66724 15.1586 9.8181 15.5253 10.087 15.7968L11.508 14.3894ZM11.6672 14.7765C11.6672 14.9214 11.61 15.0605 11.508 15.1635L10.087 13.7561C9.8181 14.0276 9.66724 14.3943 9.66724 14.7765H11.6672ZM20.4981 20.4968C20.3961 20.3939 20.3389 20.2548 20.3389 20.1098H22.3389C22.3389 19.7277 22.188 19.361 21.9191 19.0894L20.4981 20.4968ZM20.3389 20.1098C20.3389 19.9649 20.3961 19.8258 20.4981 19.7228L21.9191 21.1302C22.188 20.8587 22.3389 20.492 22.3389 20.1098H20.3389ZM20.5135 19.7076C20.615 19.6094 20.7507 19.5545 20.892 19.5545V21.5545C21.2695 21.5545 21.6323 21.4078 21.9037 21.1454L20.5135 19.7076ZM20.892 19.5545C21.0332 19.5545 21.1689 19.6094 21.2704 19.7076L19.8802 21.1454C20.1516 21.4078 20.5144 21.5545 20.892 21.5545V19.5545ZM21.2849 19.7218L20.4904 18.9218L19.0713 20.3311L19.8657 21.1311L21.2849 19.7218ZM19.0713 18.9218L18.2768 19.7218L19.696 21.1311L20.4904 20.3311L19.0713 18.9218ZM18.2913 19.7076C18.3928 19.6094 18.5285 19.5545 18.6697 19.5545V21.5545C19.0473 21.5545 19.4101 21.4078 19.6815 21.1454L18.2913 19.7076ZM18.6697 19.5545C18.811 19.5545 18.9467 19.6094 19.0482 19.7076L17.6579 21.1454C17.9294 21.4078 18.2922 21.5545 18.6697 21.5545V19.5545ZM19.0636 19.7228C19.1656 19.8258 19.2228 19.9649 19.2228 20.1098H17.2228C17.2228 20.492 17.3737 20.8587 17.6426 21.1302L19.0636 19.7228ZM19.2228 20.1098C19.2228 20.2548 19.1656 20.3939 19.0636 20.4968L17.6426 19.0894C17.3737 19.361 17.2228 19.7277 17.2228 20.1098H19.2228ZM19.0577 20.5027L19.8577 19.7083L18.4484 18.2891L17.6484 19.0836L19.0577 20.5027ZM19.8577 18.2891L19.0577 17.4947L17.6484 18.9138L18.4484 19.7083L19.8577 18.2891ZM19.1261 17.5698C19.2127 17.6754 19.257 17.8094 19.2503 17.9457L17.2527 17.8476C17.235 18.2072 17.3517 18.5604 17.5801 18.8387L19.1261 17.5698ZM19.2503 17.9457C19.2436 18.0821 19.1864 18.2111 19.0898 18.3077L17.6756 16.8935C17.4211 17.148 17.2703 17.4881 17.2527 17.8476L19.2503 17.9457ZM19.0898 18.3077C18.9933 18.4042 18.8643 18.4614 18.7279 18.4681L18.6298 16.4705C18.2703 16.4882 17.9301 16.6389 17.6756 16.8935L19.0898 18.3077ZM18.7279 18.4681C18.5915 18.4748 18.4575 18.4305 18.352 18.3439L19.6208 16.7979C19.3426 16.5696 18.9893 16.4529 18.6298 16.4705L18.7279 18.4681ZM18.2768 18.2756L19.0713 19.0756L20.4904 17.6663L19.696 16.8663L18.2768 18.2756ZM20.4904 19.0756L21.2849 18.2756L19.8657 16.8663L19.0713 17.6663L20.4904 19.0756ZM21.2097 18.3439C21.1042 18.4305 20.9702 18.4748 20.8338 18.4681L20.9319 16.4705C20.5724 16.4529 20.2191 16.5696 19.9409 16.7979L21.2097 18.3439ZM20.8338 18.4681C20.6974 18.4614 20.5684 18.4042 20.4719 18.3077L21.8861 16.8935C21.6316 16.6389 21.2914 16.4882 20.9319 16.4705L20.8338 18.4681ZM20.4719 18.3077C20.3753 18.2111 20.3181 18.0821 20.3114 17.9457L22.309 17.8476C22.2914 17.4881 22.1406 17.148 21.8861 16.8935L20.4719 18.3077ZM20.3114 17.9457C20.3047 17.8094 20.349 17.6754 20.4356 17.5698L21.9816 18.8387C22.21 18.5604 22.3267 18.2072 22.309 17.8476L20.3114 17.9457ZM20.504 17.4947L19.704 18.2891L21.1133 19.7083L21.9133 18.9138L20.504 17.4947ZM19.704 19.7083L20.504 20.5027L21.9133 19.0836L21.1133 18.2891L19.704 19.7083ZM17.7337 14.5542C17.4782 15.4776 16.6744 16.2608 15.8672 16.4616L16.3501 18.4024C17.9095 18.0144 19.228 16.6532 19.6613 15.0877L17.7337 14.5542ZM16.0039 16.4375L15.8984 16.4486L16.1078 18.4376L16.2133 18.4265L16.0039 16.4375ZM15.9995 16.4431C16.1242 16.4427 16.2455 16.4842 16.3437 16.5611L15.1116 18.1365C15.3671 18.3363 15.6824 18.4443 16.0067 18.4431L15.9995 16.4431ZM16.3437 16.5611C16.442 16.6379 16.5115 16.7456 16.5411 16.8668L14.5983 17.3417C14.6754 17.6568 14.8562 17.9367 15.1116 18.1365L16.3437 16.5611ZM16.5434 16.8762C16.5763 17.0166 16.5527 17.1643 16.4778 17.2874L14.769 16.2481C14.5715 16.5729 14.5094 16.9622 14.5961 17.3323L16.5434 16.8762ZM16.4778 17.2874C16.4029 17.4106 16.2825 17.4995 16.1428 17.5348L15.6523 15.5959C15.2837 15.6891 14.9666 15.9233 14.769 16.2481L16.4778 17.2874ZM16.14 17.5355C17.3894 17.2232 18.4563 16.0958 18.8046 14.8585L16.8794 14.3167C16.7054 14.9349 16.1389 15.4742 15.655 15.5952L16.14 17.5355ZM18.8075 14.8479C19.0574 13.921 19.0195 12.5604 17.7249 11.273L16.3146 12.6911C16.6925 13.0669 16.8391 13.3937 16.8955 13.6407C16.9535 13.8945 16.9301 14.128 16.8764 14.3273L18.8075 14.8479ZM17.7417 11.2901L17.6139 11.1568L16.17 12.5406L16.2977 12.6739L17.7417 11.2901ZM15.892 11.8487V12.9987H17.892V11.8487H15.892ZM15.892 12.9987C15.892 12.8514 15.9505 12.71 16.0547 12.6059L17.4689 14.0201C17.7398 13.7492 17.892 13.3818 17.892 12.9987H15.892ZM16.0547 12.6059C16.1589 12.5017 16.3002 12.4431 16.4475 12.4431V14.4431C16.8306 14.4431 17.198 14.291 17.4689 14.0201L16.0547 12.6059ZM16.4475 12.4431C16.5949 12.4431 16.7362 12.5017 16.8404 12.6059L15.4261 14.0201C15.697 14.291 16.0644 14.4431 16.4475 14.4431V12.4431ZM16.8404 12.6059C16.9445 12.71 17.0031 12.8514 17.0031 12.9987H15.0031C15.0031 13.3818 15.1553 13.7492 15.4261 14.0201L16.8404 12.6059ZM17.0031 12.9987V10.7765H15.0031V12.9987H17.0031ZM17.0031 10.7765C17.0031 10.9238 16.9445 11.0651 16.8404 11.1693L15.4261 9.7551C15.1552 10.026 15.0031 10.3934 15.0031 10.7765H17.0031ZM16.8404 11.1693C16.7362 11.2735 16.5949 11.332 16.4475 11.332V9.33203C16.0644 9.33203 15.697 9.48421 15.4261 9.7551L16.8404 11.1693ZM16.4475 11.332H18.6697V9.33203H16.4475V11.332ZM18.6697 11.332C18.5224 11.332 18.3811 11.2735 18.2769 11.1693L19.6911 9.7551C19.4202 9.48421 19.0528 9.33203 18.6697 9.33203V11.332ZM18.2769 11.1693C18.1727 11.0651 18.1142 10.9238 18.1142 10.7765H20.1142C20.1142 10.3934 19.962 10.026 19.6911 9.7551L18.2769 11.1693ZM18.1142 10.7765C18.1142 10.6291 18.1727 10.4878 18.2769 10.3836L19.6911 11.7979C19.962 11.527 20.1142 11.1596 20.1142 10.7765H18.1142ZM18.2769 10.3836C18.3811 10.2795 18.5224 10.2209 18.6697 10.2209V12.2209C19.0528 12.2209 19.4202 12.0687 19.6911 11.7979L18.2769 10.3836ZM18.6697 10.2209H17.5197V12.2209H18.6697V10.2209ZM16.8278 11.9429L16.9612 12.0707L18.345 10.6267L18.2116 10.4989L16.8278 11.9429ZM16.944 12.0539C17.7425 12.8567 17.9622 13.7301 17.7339 14.5537L19.6612 15.0881C20.1106 13.4673 19.5859 11.874 18.3621 10.6435L16.944 12.0539Z" fill="white" mask="url(#path-2-inside-1_11800_4645)"/>
</svg>
