<svg width="9" height="8" viewBox="0 0 9 8" fill="none" xmlns="http://www.w3.org/2000/svg">
<path d="M2.54167 0.875326C2.76268 0.875326 2.97464 0.963124 3.13092 1.1194C3.2872 1.27568 3.375 1.48765 3.375 1.70866V2.54199H2.54167C2.32065 2.54199 2.10869 2.4542 1.95241 2.29792C1.79613 2.14164 1.70833 1.92967 1.70833 1.70866C1.70833 1.48765 1.79613 1.27568 1.95241 1.1194C2.10869 0.963124 2.32065 0.875326 2.54167 0.875326ZM4.20833 2.54199V1.70866C4.20833 1.37902 4.11059 1.05679 3.92745 0.782709C3.74431 0.508627 3.48402 0.295006 3.17947 0.16886C2.87493 0.0427143 2.53982 0.00970877 2.21652 0.0740175C1.89322 0.138326 1.59624 0.297061 1.36316 0.530148C1.13007 0.763236 0.971334 1.06021 0.907025 1.38351C0.842717 1.70681 0.875722 2.04192 1.00187 2.34647C1.12801 2.65101 1.34164 2.91131 1.61572 3.09444C1.8898 3.27758 2.21203 3.37533 2.54167 3.37533H3.375V4.62533H2.54167C2.21203 4.62533 1.8898 4.72307 1.61572 4.90621C1.34164 5.08935 1.12801 5.34964 1.00187 5.65419C0.875722 5.95873 0.842717 6.29384 0.907025 6.61714C0.971334 6.94045 1.13007 7.23742 1.36316 7.4705C1.59624 7.70359 1.89322 7.86233 2.21652 7.92664C2.53982 7.99094 2.87493 7.95794 3.17947 7.83179C3.48402 7.70565 3.74431 7.49203 3.92745 7.21794C4.11059 6.94386 4.20833 6.62163 4.20833 6.29199V5.45866H5.45833V6.29199C5.45833 6.62163 5.55608 6.94386 5.73922 7.21794C5.92235 7.49203 6.18265 7.70565 6.4872 7.83179C6.79174 7.95794 7.12685 7.99094 7.45015 7.92664C7.77345 7.86233 8.07042 7.70359 8.30351 7.4705C8.5366 7.23742 8.69533 6.94045 8.75964 6.61714C8.82395 6.29384 8.79095 5.95873 8.6648 5.65419C8.53865 5.34964 8.32503 5.08935 8.05095 4.90621C7.77687 4.72307 7.45464 4.62533 7.125 4.62533H6.29167V3.37533H7.125C7.45464 3.37533 7.77687 3.27758 8.05095 3.09444C8.32503 2.91131 8.53865 2.65101 8.6648 2.34647C8.79095 2.04192 8.82395 1.70681 8.75964 1.38351C8.69533 1.06021 8.5366 0.763236 8.30351 0.530148C8.07042 0.297061 7.77345 0.138326 7.45015 0.0740175C7.12685 0.00970877 6.79174 0.0427143 6.4872 0.16886C6.18265 0.295006 5.92235 0.508627 5.73922 0.782709C5.55608 1.05679 5.45833 1.37902 5.45833 1.70866V2.54199H4.20833ZM4.20833 3.37533H5.45833V4.62533H4.20833V3.37533ZM6.29167 2.54199V1.70866C6.29167 1.54384 6.34054 1.38273 6.43211 1.24568C6.52368 1.10864 6.65383 1.00183 6.8061 0.93876C6.95837 0.875687 7.12593 0.859184 7.28758 0.891338C7.44923 0.923493 7.59771 1.00286 7.71426 1.1194C7.8308 1.23595 7.91017 1.38443 7.94232 1.54608C7.97448 1.70774 7.95797 1.87529 7.8949 2.02756C7.83183 2.17983 7.72502 2.30998 7.58798 2.40155C7.45094 2.49312 7.28982 2.54199 7.125 2.54199H6.29167ZM6.29167 5.45866H7.125C7.28982 5.45866 7.45094 5.50753 7.58798 5.5991C7.72502 5.69067 7.83183 5.82082 7.8949 5.97309C7.95797 6.12536 7.97448 6.29292 7.94232 6.45457C7.91017 6.61622 7.8308 6.76471 7.71426 6.88125C7.59771 6.99779 7.44923 7.07716 7.28758 7.10931C7.12593 7.14147 6.95837 7.12497 6.8061 7.06189C6.65383 6.99882 6.52368 6.89201 6.43211 6.75497C6.34054 6.61793 6.29167 6.45681 6.29167 6.29199V5.45866ZM3.375 5.45866V6.29199C3.375 6.45681 3.32613 6.61793 3.23456 6.75497C3.14299 6.89201 3.01284 6.99882 2.86057 7.06189C2.7083 7.12497 2.54074 7.14147 2.37909 7.10931C2.21744 7.07716 2.06896 6.99779 1.95241 6.88125C1.83587 6.76471 1.7565 6.61622 1.72435 6.45457C1.69219 6.29292 1.70869 6.12536 1.77177 5.97309C1.83484 5.82082 1.94165 5.69067 2.07869 5.5991C2.21573 5.50753 2.37685 5.45866 2.54167 5.45866H3.375Z" fill="#C8C8C8"/>
</svg>
